<svg xmlns="http://www.w3.org/2000/svg" viewBox="0 0 709 468" fill="none">
<path d="M349.688 195.843L349.643 195.911L349.664 195.429L349.88 194.915L349.971 194.926L349.877 195.066L349.85 195.163L349.812 195.358L349.829 195.459L350.32 195.487L350.263 195.576L349.765 195.637L349.688 195.843ZM352.505 195.712L352.517 195.775L352.805 195.865L352.926 196.01L353.06 196.228L353.074 196.542L352.901 196.768L352.758 196.911L353.299 196.857L353.353 196.986L353.435 197.126L353.725 197.026L354.456 197.438L354.897 197.237L355.01 197.225L355.11 197.558L355 197.891L354.611 198.246L354.697 198.465L354.822 198.513L355.189 198.467L355.769 198.682L355.891 198.615L356.362 198.118L356.55 198.01L357.17 197.934L357.282 197.741L357.533 197.546L357.694 197.334L358.082 196.928L358.483 197.001L358.717 197.079L358.973 197.118L359.207 197.551L359.798 198.027L360.341 197.985L360.534 198.435L360.619 198.987L360.786 199.16L360.933 199.273L361.375 199.391L361.392 199.398L361.407 199.472L361.434 199.746L361.472 199.971L361.699 200.87L361.695 201.089L361.692 201.147L361.609 201.453L361.461 201.711L361.266 201.856L361.158 202.017L361.138 202.194L361.384 202.505L361.896 202.949L362.103 203.327L362.005 203.641L361.976 203.871L362.014 204.017L362.096 204.134L362.222 204.223L362.272 204.359L362.247 204.542L362.27 204.67L362.365 204.76L362.356 204.795L362.31 204.923L362.248 205.155L362.212 205.325L362.068 205.555L362.112 205.75L362.225 205.98L362.311 206.096L362.338 206.205L362.284 206.465L362.311 206.531L362.668 206.722L362.726 206.81L362.76 206.993L362.886 207.383L362.782 207.877L362.691 208.147L362.488 208.574L362.478 208.613L362.455 208.665L362.394 208.739L362.309 208.75L362.181 208.695L362.093 208.623L362.113 208.44L362.057 208.427L361.987 208.314L361.959 208.193L361.884 208.143L361.608 208.092L361.514 208.056L361.442 208.082L361.388 208.168L361.422 208.246L361.474 208.322L361.626 208.442L361.611 208.489L361.282 208.606L361.075 208.726L360.882 208.793L360.686 208.916L360.298 209.055L360.014 209.092L359.955 209.128L359.849 209.363L359.778 209.412L359.708 209.387L359.657 209.348L359.591 209.38L359.522 209.458L359.45 209.488L359.387 209.487L359.276 209.692L358.952 209.753L358.914 209.859L358.855 209.982L358.807 210.012L358.661 209.964L358.459 209.936L358.343 210.004L358.203 210.041L358.033 210.052L357.843 210.186L357.658 210.421L357.554 210.628L357.498 210.703L357.408 210.508L357.297 210.375L357.219 210.305H357.149L357.13 210.334V210.436L357.205 210.605L357.298 210.72L357.313 210.806L357.362 210.96L357.498 211.129L357.709 211.262L357.854 211.394L357.961 211.576L357.961 211.632L357.932 211.707L357.882 211.777L357.839 211.868L357.721 212.052L357.756 212.132L357.852 212.233L357.937 212.354L358.046 212.551L358.196 212.894L358.293 213.035L358.425 213.181L358.554 213.292L358.757 213.288L358.967 213.5L359.197 213.806L359.369 213.945L359.488 213.988L359.588 214.098L359.675 214.256L359.71 214.347L359.788 214.413L359.998 214.4L360.268 214.648L360.435 214.829L360.523 214.975L360.5 215.033L360.489 215.215L360.492 215.407L360.465 215.509L360.345 215.642L360.282 215.671L360.249 215.7L359.878 215.525L359.849 215.555L359.825 215.577L359.726 216.081L359.658 216.177L359.556 216.266L359.344 216.353L359.197 216.388L359.082 216.433L358.718 216.643L358.555 216.769L358.449 216.927L358.448 217.019L358.625 217.286L358.829 217.562L358.83 217.804L358.74 217.985L358.719 218.054L358.779 218.081L358.892 218.091L358.987 218.121L359.027 218.249L359.015 218.47L358.982 218.677L358.949 218.764L358.858 218.771L358.683 218.682L358.546 218.578L358.493 218.514L358.49 218.438L358.52 218.389L358.472 218.295L358.303 218.208L358.123 218.246L357.991 218.304L357.905 218.3L357.812 218.216L357.669 218.152L357.483 218.109L357.366 218.064L357.342 218.091L357.355 218.272L357.32 218.351L356.397 218.457L356.116 218.555L355.912 218.682L355.76 218.736L355.723 218.814L355.573 218.916L355.404 218.949L355.363 218.916L355.254 218.963L355.069 219.008L354.95 218.994L354.893 218.911L354.779 218.784L354.732 218.696L354.737 218.64L354.479 218.628L354.316 218.561L353.97 218.576L353.884 218.548L353.867 218.578L353.815 218.938L353.746 219.085L353.636 219.238L353.493 219.322L353.381 219.338L353.385 219.227L353.414 219.093L353.332 219.062L353.21 219.047L353.151 219.007L353.166 218.905L353.137 218.845L353.087 218.773L352.964 218.682L352.703 218.546L352.526 218.478L352.459 218.55L352.332 218.622L352.133 218.598L352.083 218.627L351.741 218.41L351.412 218.201H351.304L350.819 218.243L350.805 218.224L350.72 218.105L350.646 218.067L350.601 218.087L350.571 218.121L350.519 218.116L350.302 217.924L350.213 217.896L350.09 217.922L349.944 218.025L349.88 218.152L349.9 218.225L349.975 218.257L350.173 218.236L350.202 218.257L350.209 218.298L350.187 218.338L350.027 218.371L349.98 218.419L349.934 218.431L349.903 218.439L349.732 218.389H349.478L349.273 218.478L348.945 218.513L348.494 218.496L348.332 218.429L348.234 218.389L348.162 218.193L348.18 217.902L348.287 217.516L348.318 217.232L348.27 217.051L348.334 216.779L348.509 216.416L348.626 216.032L348.684 215.627L348.769 215.363L348.936 215.177L349.332 214.657L349.364 214.617L349.353 214.357L349.246 214.32L349.09 214.245L348.692 214.153L348.323 214.093L348.154 214.019L348.007 213.822L347.916 213.82L347.737 213.89L347.515 213.938L347.352 213.897L347.25 213.904L347.194 213.941L347.165 213.909L347.124 213.74L347.039 213.696L346.908 213.656L346.826 213.673L346.769 213.757L346.681 213.816L346.601 213.797L346.35 213.406L346.285 213.319L346.269 213.239L346.206 213.093L346.056 212.948L345.907 212.901L345.833 212.917L345.841 212.736L345.899 212.474L345.955 212.336L346.03 212.224L346.109 212.145L346.126 212.004L346.114 211.87L346.023 211.849L345.794 211.75L345.659 211.646L345.559 211.515L345.427 211.334L345.371 211.151L345.368 210.968L345.384 210.886L345.393 210.829L345.499 210.543L345.872 210.286L345.831 210.028L345.825 209.868L345.735 209.765L345.554 209.723L345.506 209.65L345.486 209.58L345.618 209.42L345.458 209.295L345.385 209.171L345.162 209.007L345.138 208.95L345.245 208.47L345.163 208.33L345.062 208.258L344.943 208.223L344.889 208.156L344.87 208.08L344.891 208.033L345.03 208.047L345.074 207.997L345.406 207.714L345.42 207.659L345.374 207.628L345.313 207.612L345.298 207.553L345.3 207.474L345.477 207.064L345.53 206.889L345.542 206.765L345.531 206.642L345.428 206.449L345.33 206.295L345.326 206.172L345.254 206.108L345.049 205.778V205.65L345.165 205.551L345.327 205.487L345.381 205.435L345.477 205.402L345.735 205.497L345.85 205.58L345.882 205.563L345.985 205.473L346.168 205.487L346.608 205.307L346.674 205.22L346.723 205.127L346.728 205.086L346.557 204.908L346.552 204.842L346.574 204.767L346.622 204.709L346.723 204.669L346.831 204.59L347.071 204.367L347.154 204.174L347.18 203.963L347.185 203.806L347.119 203.681L347.053 203.601L346.962 203.613L346.786 203.607L346.622 203.537L346.531 203.423L346.509 203.324L346.55 203.261L346.563 203.184L346.536 203.106L346.547 203.041L346.621 202.988L347.142 202.989L347.181 202.932L347.216 202.629L347.346 202.167L347.469 201.909L347.489 201.8L347.487 201.187L347.504 200.875L347.415 200.729L347.221 200.568L347.262 200.233L347.327 199.971L347.522 199.648L347.677 199.56L348.353 199.507L349.1 199.529L349.411 200.016L349.296 200.266L349.477 200.382L349.565 200.339L349.632 200.122L349.676 199.881L349.739 199.808L349.971 199.988L350.052 200.112L350.057 200.507L350.142 199.971L350.079 199.594L350.122 199.228L350.215 199.038L350.301 198.916L350.849 199.047L351.454 198.98L351.683 199.122L352.201 199.828L352.374 199.943L352.592 199.98L352.292 199.829L351.664 198.97L351.476 198.863L351.187 198.831L351.007 198.747L350.894 198.616L350.861 198.499L350.867 197.626L350.759 197.496L350.619 197.451L350.531 197.511L350.352 197.511L350.314 197.313L350.358 197.166L350.718 197.065L350.956 196.929L350.966 196.69L350.816 196.502L350.637 196.155L350.426 195.829L350.402 195.449H350.403L350.77 195.456L350.86 195.471L351.416 195.649L351.552 195.774L351.723 195.78L352.032 195.663L352.262 195.612L352.351 195.684L352.477 195.714H352.505V195.712ZM350.239 196.097L350.163 196.18L349.975 196.17L349.87 196.092L349.904 196.008L350.004 195.944L350.086 195.935L350.211 195.974L350.239 196.097ZM360.311 197.213L360.36 197.439L360.308 197.555L360.087 197.363L359.865 197.365L359.732 197.661L359.633 197.673L359.291 197.405L359.235 197.274L359.224 197.164L359.273 196.786L359.264 196.667L359.372 196.536L359.389 196.347L359.579 196.148L359.748 196.14L359.802 196.309L359.883 196.425L360.167 196.556L360.21 196.615L360.236 196.697L360.104 196.857L360.059 196.939L360.101 197.07L360.311 197.213ZM355.54 197.094L355.238 197.1L355.122 196.966L355.006 196.932L355.069 196.765L355.15 196.704L355.442 196.813L355.534 197.025L355.54 197.094ZM361.298 198.662L361.273 198.767L361.303 198.927L361.221 198.916L360.977 198.953L360.736 198.9L360.69 198.7L360.729 198.508L360.632 198.376L360.543 198.298L360.53 198.187L360.544 198.071L360.96 198.381L361.298 198.662Z" fill="rgba(43,127,255,0.97)" stroke="#FDFDFD" stroke-width="0.5"/>
</svg>