<svg xmlns="http://www.w3.org/2000/svg" viewBox="0 0 24 24" fill="none"><path d="M8 7.5C8 7.77614 7.77614 8 7.5 8C7.22386 8 7 7.77614 7 7.5C7 7.22386 7.22386 7 7.5 7C7.77614 7 8 7.22386 8 7.5Z" stroke="currentColor" stroke-width="2" stroke-linecap="square"/><path d="M3 10.7574V6C3 4.34315 4.34315 3 6 3H10.7574C11.553 3 12.3161 3.31607 12.8787 3.87868L20.1287 11.1287C21.3003 12.3003 21.3003 14.1997 20.1287 15.3713L15.3713 20.1287C14.1997 21.3003 12.3003 21.3003 11.1287 20.1287L3.87868 12.8787C3.31607 12.3161 3 11.553 3 10.7574Z" stroke="currentColor" stroke-width="2" stroke-linecap="square" stroke-linejoin="round"/><path d="M7.39844 7.5H7.59844" stroke="currentColor" stroke-width="2" stroke-linecap="square" stroke-linejoin="round"/></svg>
