<svg xmlns="http://www.w3.org/2000/svg" viewBox="0 0 24 24" fill="none"><path d="M5 8V6C5 4.34315 6.34315 3 8 3H12.1716C12.702 3 13.2107 3.21071 13.5858 3.58579L18.4142 8.41421C18.7893 8.78929 19 9.29799 19 9.82843V18C19 19.6569 17.6569 21 16 21H12.5" stroke="currentColor" stroke-width="2" stroke-linecap="round"/><path d="M13 3.5V7C13 8.10457 13.8954 9 15 9H18.5" stroke="currentColor" stroke-width="2" stroke-linecap="round"/><path d="M3 15C3 13.3431 4.34315 12 6 12C7.65685 12 9 13.3431 9 15" stroke="currentColor" stroke-width="2" stroke-linecap="round"/><path d="M3 18C3 19.6569 4.34315 21 6 21C7.65685 21 9 19.6569 9 18" stroke="currentColor" stroke-width="2" stroke-linecap="round"/><path d="M6 16V17" stroke="currentColor" stroke-width="2" stroke-linecap="round"/></svg>
