<svg xmlns="http://www.w3.org/2000/svg" viewBox="0 0 24 24" fill="none"><path d="M14.6558 8.73023L10.5513 9.84965C10.2097 9.94281 9.94281 10.2097 9.84965 10.5513L8.73023 14.6558C8.62843 15.0291 8.97092 15.3716 9.34417 15.2698L13.4487 14.1504C13.7903 14.0572 14.0572 13.7903 14.1504 13.4487L15.2698 9.34417C15.3716 8.97092 15.0291 8.62843 14.6558 8.73023Z" stroke="currentColor" stroke-width="2" stroke-linejoin="round"/><path d="M4 7C4 5.34315 5.34315 4 7 4H17C18.6569 4 20 5.34315 20 7V17C20 18.6569 18.6569 20 17 20H7C5.34315 20 4 18.6569 4 17V7Z" stroke="currentColor" stroke-width="2" stroke-linejoin="round"/></svg>
