<svg xmlns="http://www.w3.org/2000/svg" viewBox="0 0 24 24" fill="none"><path fill-rule="evenodd" clip-rule="evenodd" d="M9.91422 10.5858C10.6953 11.3668 10.6953 12.6332 9.91422 13.4142C9.13317 14.1953 7.86684 14.1953 7.08579 13.4142C6.30474 12.6332 6.30474 11.3668 7.08579 10.5858C7.86684 9.80474 9.13317 9.80474 9.91422 10.5858Z" stroke="currentColor" stroke-width="2" stroke-linejoin="round"/><path fill-rule="evenodd" clip-rule="evenodd" d="M16.9142 10.5858C17.6953 11.3668 17.6953 12.6332 16.9142 13.4142C16.1332 14.1953 14.8668 14.1953 14.0858 13.4142C13.3047 12.6332 13.3047 11.3668 14.0858 10.5858C14.8668 9.80474 16.1332 9.80474 16.9142 10.5858Z" stroke="currentColor" stroke-width="2" stroke-linejoin="round"/><path d="M8.5 14H15.5" stroke="currentColor" stroke-width="2" stroke-linecap="round"/><path d="M21 12C21 16.9706 16.9706 21 12 21C7.02944 21 3 16.9706 3 12C3 7.02944 7.02944 3 12 3C16.9706 3 21 7.02944 21 12Z" stroke="currentColor" stroke-width="2"/></svg>
