<svg xmlns="http://www.w3.org/2000/svg" viewBox="0 0 24 24" fill="none"><path d="M14.9999 8V6C14.9999 4.34315 13.6568 3 11.9999 3C10.343 3 8.9999 4.34315 8.9999 6V8M10.9999 21H7.99674C6.15808 21 4.75204 19.3611 5.03162 17.5438L6.10855 10.5438C6.3337 9.08033 7.59295 8 9.07366 8H14.9261C16.4069 8 17.6661 9.08033 17.8913 10.5438L17.9614 11M18.9999 15H15.9999C15.4476 15 14.9999 15.4477 14.9999 16V21L17.4999 19.5L19.9999 21V16C19.9999 15.4477 19.5522 15 18.9999 15Z" stroke="currentColor" stroke-width="2" stroke-linecap="round" stroke-linejoin="round"/></svg>
