<svg xmlns="http://www.w3.org/2000/svg" viewBox="0 0 24 24" fill="none"><path d="M17.9615 4.16372C18.0887 3.35721 17.248 2.74642 16.5203 3.11662L12.5485 5.13716C12.2636 5.2821 11.9266 5.2821 11.6417 5.13716L7.66983 3.11662C6.9421 2.74642 6.10141 3.35721 6.22862 4.16372L6.92291 8.56553C6.97271 8.88128 6.86856 9.20181 6.64268 9.42799L3.49367 12.581C2.9167 13.1587 3.23782 14.147 4.04416 14.2753L8.44508 14.9752C8.76077 15.0254 9.03343 15.2235 9.17873 15.5082L11.2044 19.4775C11.5755 20.2047 12.6146 20.2047 12.9858 19.4775L15.0114 15.5082C15.1567 15.2235 15.4294 15.0254 15.7451 14.9752L20.146 14.2753C20.9523 14.147 21.2734 13.1587 20.6965 12.581L17.5475 9.42799C17.3216 9.20181 17.2174 8.88128 17.2672 8.56553L17.9615 4.16372Z" stroke="currentColor" stroke-width="2" stroke-linecap="round" stroke-linejoin="round"/><path d="M8.76133 15.4668L4.61133 21" stroke="currentColor" stroke-width="2" stroke-linecap="round" stroke-linejoin="round"/></svg>
