<svg xmlns="http://www.w3.org/2000/svg" viewBox="0 0 24 24" fill="none"><path d="M13 12C13 10.3431 14.3431 9 16 9H19C20.6569 9 22 10.3431 22 12V18C22 19.6569 20.6569 21 19 21H16C14.3431 21 13 19.6569 13 18V12Z" stroke="currentColor" stroke-width="2" stroke-linecap="square" stroke-linejoin="round"/><path d="M20 9V7C20 5.34315 18.6569 4 17 4H7C5.34315 4 4 5.34315 4 7V16H2V17C2 18.6569 3.34315 20 5 20H13" stroke="currentColor" stroke-width="2" stroke-linecap="square" stroke-linejoin="round"/><path d="M4 16H13" stroke="currentColor" stroke-width="2" stroke-linecap="square" stroke-linejoin="round"/><path d="M17 18H18" stroke="currentColor" stroke-width="2" stroke-linecap="round" stroke-linejoin="round"/></svg>
