<svg xmlns="http://www.w3.org/2000/svg" viewBox="0 0 24 24" fill="none"><path d="M19.8031 9H17.5013M19.8031 9C20.427 9 20.8986 9.56504 20.787 10.1789L20.4558 12M19.8031 9H20.0013M17.5013 9H6.50129M17.5013 9L15.5013 4M6.50129 9H4.19951M6.50129 9L8.50129 4M4.19951 9C3.5756 9 3.10403 9.56505 3.21564 10.1789L4.55341 17.5367C4.81277 18.9631 6.05516 20 7.50502 20H10.0013M4.19951 9H4.00129M14.88 15.8787L17.0013 18M17.0013 18L19.1227 20.1213M17.0013 18L14.88 20.1213M17.0013 18L19.1227 15.8787" stroke="currentColor" stroke-width="2" stroke-linecap="round" stroke-linejoin="round"/></svg>
