<svg xmlns="http://www.w3.org/2000/svg" viewBox="0 0 24 24" fill="none"><path d="M4.85333 8.40117C6.17056 5.79047 8.87623 4 12.0001 4C15.1239 4 17.8296 5.79048 19.1469 8.40118M7.70531 9.43825C8.57828 7.97787 10.175 7 12.0001 7C13.8252 7 15.4219 7.97787 16.2949 9.43827M6.98211 13.8124L7.23862 14.5172L7.70847 14.3462C8.22745 14.1573 8.80129 14.4249 8.99018 14.9438C9.55686 16.5008 8.7541 18.2223 7.19717 18.789C5.64023 19.3556 3.9187 18.5529 3.35203 16.996L2.75349 15.3515C2.32848 14.1838 2.93055 12.8926 4.09825 12.4676C5.26595 12.0426 6.5571 12.6447 6.98211 13.8124ZM17.0181 13.8124L16.7616 14.5172L16.2918 14.3462C15.7728 14.1573 15.199 14.4249 15.0101 14.9438C14.4434 16.5008 15.2461 18.2223 16.8031 18.789C18.36 19.3556 20.0815 18.5529 20.6482 16.996L21.2467 15.3515C21.6718 14.1838 21.0697 12.8926 19.902 12.4676C18.7343 12.0426 17.4431 12.6447 17.0181 13.8124Z" stroke="currentColor" stroke-width="2" stroke-linecap="round" stroke-linejoin="round"/></svg>
