<svg xmlns="http://www.w3.org/2000/svg" viewBox="0 0 24 24" fill="none"><path d="M19 9.60581V9.5C19 5.91015 16.0899 3 12.5 3C8.91015 3 6 5.91015 6 9.5V17.2918C6 19.3398 7.66022 21 9.7082 21C11.1128 21 12.3968 20.2064 13.0249 18.9502L13.4194 18.1612C13.804 17.3921 14.31 16.69 14.918 16.082L17.3071 13.6929C18.391 12.609 19 11.1388 19 9.60581Z" stroke="currentColor" stroke-width="2" stroke-linecap="round" stroke-linejoin="round"/><path d="M15 9.5C15 8.11929 13.8807 7 12.5 7C11.1193 7 10 8.11929 10 9.5C10 11.4826 11 12.5 10 15" stroke="currentColor" stroke-width="2" stroke-linecap="round" stroke-linejoin="round"/></svg>
