<svg xmlns="http://www.w3.org/2000/svg" viewBox="0 0 24 24" fill="none"><path d="M21 12C21 16.9706 16.9706 21 12 21C7.02944 21 3 16.9706 3 12C3 7.02944 7.02944 3 12 3C16.9706 3 21 7.02944 21 12Z" stroke="currentColor" stroke-width="2" stroke-linejoin="round"/><path d="M9 14V10.7808C9 10.3219 9.3123 9.92192 9.75746 9.81062L13.7575 8.81062C14.3886 8.65284 15 9.1302 15 9.78077V14" stroke="currentColor" stroke-width="2" stroke-linejoin="round"/><path d="M5.5 18C6.76628 16.6493 7.31991 15.8687 7.7625 14.6957C7.9169 14.2865 8.29781 14 8.73519 14H15.2648C15.7022 14 16.0831 14.2865 16.2375 14.6957C16.6801 15.8687 17.2337 16.6493 18.5 18" stroke="currentColor" stroke-width="2" stroke-linejoin="round"/></svg>
