<svg xmlns="http://www.w3.org/2000/svg" viewBox="0 0 24 24" fill="none"><path d="M12 9C11.1716 9 10.5 9.67158 10.5 10.5C10.5 11.3284 11.1716 12 12 12C12.8284 12 13.5 11.3284 13.5 10.5C13.5 9.67158 12.8284 9 12 9ZM12 9V15M20 11.9123V7.17737C20 6.32338 19.4578 5.56361 18.6502 5.286L12.9752 3.33524C12.3432 3.11799 11.6568 3.11799 11.0248 3.33524L5.34984 5.286C4.54224 5.56361 4 6.32338 4 7.17737V11.9123C4 16.8848 8 19 12 21.1579C16 19 20 16.8848 20 11.9123Z" stroke="currentColor" stroke-width="2" stroke-linecap="round" stroke-linejoin="round"/></svg>
