<svg xmlns="http://www.w3.org/2000/svg" viewBox="0 0 24 24" fill="none"><path d="M14 18C14 17.4477 14.4477 17 15 17H19C19.5523 17 20 17.4477 20 18V20C20 20.5523 19.5523 21 19 21H15C14.4477 21 14 20.5523 14 20V18Z" stroke="currentColor" stroke-width="2" stroke-linecap="square" stroke-linejoin="round"/><path d="M15 16C15 14.8954 15.8954 14 17 14C18.1046 14 19 14.8954 19 16C19 16.5523 18.5523 17 18 17H16C15.4477 17 15 16.5523 15 16Z" stroke="currentColor" stroke-width="2" stroke-linecap="square" stroke-linejoin="round"/><path d="M10 21H8C6.34315 21 5 19.6569 5 18V6C5 4.34315 6.34315 3 8 3H16C17.6569 3 19 4.34315 19 6V10" stroke="currentColor" stroke-width="2" stroke-linecap="round" stroke-linejoin="round"/></svg>
