<svg xmlns="http://www.w3.org/2000/svg" viewBox="0 0 24 24" fill="none"><path d="M21.5 9.99999L19.3787 12.1213M19.3787 12.1213L17.2574 14.2426M19.3787 12.1213L17.2574 9.99999M19.3787 12.1213L21.5 14.2426M4 7.99999H5.2759C5.74377 7.99999 6.19684 7.83596 6.55627 7.53643L10.3598 4.36681C11.0111 3.82403 12 4.28719 12 5.13503V18.8649C12 19.7128 11.0111 20.1759 10.3598 19.6332L6.55627 16.4635C6.19684 16.164 5.74377 16 5.2759 16H4C2.89543 16 2 15.1046 2 14V9.99999C2 8.89542 2.89543 7.99999 4 7.99999Z" stroke="currentColor" stroke-width="2" stroke-linecap="round"/></svg>
