<svg xmlns="http://www.w3.org/2000/svg" viewBox="0 0 24 24" fill="none"><path d="M9.4 10.5H9.6M14.4 10.5H14.6M5 20.0568V10C5 6.13401 8.13401 3 12 3C15.866 3 19 6.13401 19 10V20.0568C19 20.8702 18.0806 21.3433 17.4188 20.8705L16.8738 20.4813C16.0208 19.872 14.9117 19.7521 13.9483 20.165L12.3939 20.8312C12.1424 20.939 11.8576 20.939 11.6061 20.8312L10.0517 20.165C9.08828 19.7521 7.97919 19.872 7.12624 20.4813L6.58124 20.8705C5.91937 21.3433 5 20.8702 5 20.0568ZM10 10.5C10 10.7761 9.77614 11 9.5 11C9.22386 11 9 10.7761 9 10.5C9 10.2239 9.22386 10 9.5 10C9.77614 10 10 10.2239 10 10.5ZM15 10.5C15 10.7761 14.7761 11 14.5 11C14.2239 11 14 10.7761 14 10.5C14 10.2239 14.2239 10 14.5 10C14.7761 10 15 10.2239 15 10.5Z" stroke="currentColor" stroke-width="2" stroke-linecap="square"/></svg>
