<svg xmlns="http://www.w3.org/2000/svg" viewBox="0 0 24 24" fill="none"><path d="M6 12V8C6 7.44772 6.44772 7 7 7H17C17.5523 7 18 7.44772 18 8V12M3 20L6.41857 19.2403M6.41857 19.2403L6.84921 19.1446C7.27784 19.0494 7.72216 19.0494 8.15079 19.1446L11.3492 19.8554C11.7778 19.9506 12.2222 19.9506 12.6508 19.8554L15.8492 19.1446C16.2778 19.0494 16.7222 19.0494 17.1508 19.1446L17.5814 19.2403M6.41857 19.2403C5.48385 17.9577 4.90622 16.8218 4.52949 15.6017C4.08185 14.1519 5.10707 12.7232 6.57904 12.3552L11.2724 11.1819C11.7501 11.0625 12.2499 11.0625 12.7276 11.1819L17.421 12.3552C18.8929 12.7232 19.9181 14.1519 19.4705 15.6017C19.0938 16.8218 18.5162 17.9577 17.5814 19.2403M17.5814 19.2403L21 20M10 7V3H14V7" stroke="currentColor" stroke-width="2" stroke-linecap="round" stroke-linejoin="round"/></svg>
