<svg xmlns="http://www.w3.org/2000/svg" viewBox="0 0 24 24" fill="none"><path d="M8.50024 8.9L8.00003 9.25586C6.44486 10.3408 5.35047 12.0406 5.0705 14.0031C4.99251 14.5499 5.44774 15 6.00003 15H15M18.9291 14C18.6484 12.0388 17.5544 10.3403 16 9.25586V6C16 4.34315 14.6569 3 13 3H11C10.2318 3 9.53097 3.28877 9.00024 3.7637" stroke="currentColor" stroke-width="2" stroke-linecap="round" stroke-linejoin="round"/><path d="M11 20.132V15H13V20.132C13 20.2096 12.9819 20.2861 12.9472 20.3556L12.2236 21.8028C12.1315 21.987 11.8685 21.987 11.7764 21.8028L11.0528 20.3556C11.0181 20.2861 11 20.2096 11 20.132Z" fill="currentColor"/><path d="M3.5 2.5L19.5 19.5" stroke="currentColor" stroke-width="2" stroke-linecap="round"/></svg>
