<svg xmlns="http://www.w3.org/2000/svg" viewBox="0 0 24 24" fill="none"><path d="M7 16H10M9.5 5H6C4.34315 5 3 6.34315 3 8V17C3 18.6569 4.34315 20 6 20H18C19.6569 20 21 18.6569 21 17V16.5M15 13H19C20.1046 13 21 12.1046 21 11V7C21 5.89543 20.1046 5 19 5H15C13.8954 5 13 5.89543 13 7V11C13 12.1046 13.8954 13 15 13Z" stroke="currentColor" stroke-width="2" stroke-linecap="round" stroke-linejoin="round"/><path d="M17 9H17.01M17.25 9C17.25 9.13807 17.1381 9.25 17 9.25C16.8619 9.25 16.75 9.13807 16.75 9C16.75 8.86193 16.8619 8.75 17 8.75C17.1381 8.75 17.25 8.86193 17.25 9Z" stroke="currentColor" stroke-width="2" stroke-linecap="round"/></svg>
