<svg xmlns="http://www.w3.org/2000/svg" viewBox="0 0 24 24" fill="none"><path d="M9.47198 17.9403C7.93861 19.2403 6.41602 19.0782 4.87996 17.4542C8.45153 13.9086 12.8981 19.0461 8.96175 21M14.528 17.9403C16.0614 19.2403 17.584 19.0782 19.12 17.4542C15.5485 13.9086 11.1019 19.0461 15.0382 21M6.91867 15.0804C6.34958 12.6711 4.88628 11.8324 2.5 12.5478C3.06909 14.9571 4.53239 15.7958 6.91867 15.0804ZM5.74053 11.7104C6.46112 9.34144 5.61628 7.88874 3.18941 7.32378C2.46882 9.69276 3.31366 11.1455 5.74053 11.7104ZM6.85306 3C4.76718 4.35492 4.47378 6.00687 5.96706 7.98831C8.05294 6.6334 8.34634 4.98145 6.85306 3ZM17.0813 15.0804C17.6504 12.6711 19.1137 11.8324 21.5 12.5478C20.9309 14.9571 19.4676 15.7958 17.0813 15.0804ZM18.2595 11.7104C17.5389 9.34144 18.3837 7.88874 20.8106 7.32378C21.5312 9.69276 20.6863 11.1455 18.2595 11.7104ZM17.1469 3C19.2328 4.35492 19.5262 6.00687 18.0329 7.98831C15.9471 6.6334 15.6537 4.98145 17.1469 3Z" stroke="currentColor" stroke-width="2" stroke-linecap="round" stroke-linejoin="round"/></svg>
