<svg xmlns="http://www.w3.org/2000/svg" viewBox="0 0 24 24" fill="none"><path fill-rule="evenodd" clip-rule="evenodd" d="M7 4.99989C5.89543 4.99989 5 5.89532 5 6.99989V16.9999C5 18.1045 5.89543 18.9999 7 18.9999H7.10002C7.56329 16.7176 9.58104 14.9999 12 14.9999C14.419 14.9999 16.4367 16.7176 16.9 18.9999H17C18.1046 18.9999 19 18.1045 19 16.9999V12.9999C19 12.4476 19.4477 11.9999 20 11.9999C20.5523 11.9999 21 12.4476 21 12.9999V16.9999C21 19.209 19.2091 20.9999 17 20.9999H7C4.79086 20.9999 3 19.209 3 16.9999V6.99989C3 4.79075 4.79086 2.99989 7 2.99989H11C11.5523 2.99989 12 3.4476 12 3.99989C12 4.55217 11.5523 4.99989 11 4.99989H7ZM9.17071 18.9999H14.8293C14.4175 17.8347 13.3062 16.9999 12 16.9999C10.6938 16.9999 9.58254 17.8347 9.17071 18.9999ZM12 8.99989C11.1716 8.99989 10.5 9.67146 10.5 10.4999C10.5 11.3283 11.1716 11.9999 12 11.9999C12.8284 11.9999 13.5 11.3283 13.5 10.4999C13.5 9.67146 12.8284 8.99989 12 8.99989ZM8.5 10.4999C8.5 8.56689 10.067 6.99989 12 6.99989C13.933 6.99989 15.5 8.56689 15.5 10.4999C15.5 12.4329 13.933 13.9999 12 13.9999C10.067 13.9999 8.5 12.4329 8.5 10.4999Z" fill="currentColor"/><path d="M18.9472 1.89431C18.763 1.52579 18.237 1.52579 18.0528 1.89431L17.0745 3.85082C17.0262 3.94758 16.9477 4.02604 16.8509 4.07442L14.8944 5.05267C14.5259 5.23693 14.5259 5.76284 14.8944 5.9471L16.8509 6.92535C16.9477 6.97373 17.0262 7.05219 17.0745 7.14896L18.0528 9.10546C18.237 9.47398 18.763 9.47398 18.9472 9.10546L19.9255 7.14896C19.9738 7.05219 20.0523 6.97373 20.1491 6.92535L22.1056 5.9471C22.4741 5.76284 22.4741 5.23693 22.1056 5.05267L20.1491 4.07442C20.0523 4.02604 19.9738 3.94758 19.9255 3.85082L18.9472 1.89431Z" fill="currentColor"/></svg>
