<svg xmlns="http://www.w3.org/2000/svg" viewBox="0 0 24 24" fill="none"><path d="M2.32525 18.4247C3.0182 18.4247 3.40798 18.0782 3.65051 17.2467L4.30881 15.2978H8.8216L9.4799 17.2726C9.71376 18.0869 10.1035 18.4247 10.8398 18.4247C11.602 18.4247 12.1477 17.9136 12.1477 17.1947C12.1477 16.9348 12.1044 16.701 11.9832 16.3632L8.55308 7.0604C8.18063 6.0383 7.5743 5.58789 6.55221 5.58789C5.56476 5.58789 4.94978 6.05563 4.58598 7.06906L1.17324 16.3632C1.06063 16.6836 1 16.9781 1 17.1947C1 17.9483 1.51105 18.4247 2.32525 18.4247ZM4.88048 13.2709L6.50024 8.15178H6.56087L8.21527 13.2709H4.88048Z" fill="currentColor"/><path d="M16.6643 18.4073C17.825 18.4073 18.9857 17.827 19.5054 16.8396H19.5574V17.316C19.6093 18.0609 20.0857 18.442 20.77 18.442C21.489 18.442 22 18.0089 22 17.1687V11.8764C22 10.0054 20.4495 8.77543 18.0675 8.77543C16.1446 8.77543 14.6548 9.45971 14.2217 10.5684C14.1351 10.759 14.0918 10.9409 14.0918 11.1401C14.0918 11.7118 14.5335 12.1102 15.1485 12.1102C15.5556 12.1102 15.8761 11.9543 16.1533 11.6425C16.7163 10.9149 17.184 10.6637 17.9549 10.6637C18.9077 10.6637 19.5141 11.1661 19.5141 12.0323V12.6473L17.1754 12.7858C14.854 12.9244 13.5548 13.9032 13.5548 15.5923C13.5548 17.264 14.8973 18.4073 16.6643 18.4073ZM17.4959 16.5797C16.647 16.5797 16.0753 16.1466 16.0753 15.4537C16.0753 14.7954 16.6124 14.3709 17.5565 14.3017L19.5141 14.1804V14.856C19.5141 15.8608 18.6046 16.5797 17.4959 16.5797Z" fill="currentColor"/></svg>
