<svg xmlns="http://www.w3.org/2000/svg" viewBox="0 0 24 24" fill="none"><path d="M13.9378 5.03613C13.4294 3.46236 12.7487 2.5 12 2.5C11.2513 2.5 10.57 3.46234 10.0613 5.0362C9.84689 5.69978 9.06671 6.02296 8.44588 5.70531C6.9736 4.95204 5.8116 4.75288 5.28223 5.28223C4.75286 5.81159 4.95203 6.97359 5.70531 8.44588C6.02296 9.06671 5.69978 9.84689 5.0362 10.0613C3.46234 10.57 2.5 11.2513 2.5 12C2.5 12.7487 3.46236 13.4294 5.03612 13.9378C5.69975 14.1521 6.02291 14.9323 5.70527 15.5532C4.9518 17.0259 4.75278 18.1883 5.28223 18.7178C5.81165 19.2472 6.9735 19.0475 8.44584 18.2939C9.06665 17.9761 9.84688 18.2993 10.0613 18.963C10.5699 20.5373 11.2512 21.5 12 21.5C12.7488 21.5 13.4295 20.5373 13.9378 18.9631C14.1521 18.2994 14.9324 17.9762 15.5532 18.2939C17.026 19.0477 18.1883 19.2473 18.7178 18.7178C19.2472 18.1883 19.0477 17.026 18.2939 15.5532C17.9762 14.9324 18.2994 14.1521 18.9631 13.9378C20.5373 13.4295 21.5 12.7488 21.5 12C21.5 11.2512 20.5373 10.5699 18.963 10.0613C18.2993 9.84688 17.9761 9.06665 18.2939 8.44584C19.0475 6.97351 19.2472 5.81164 18.7178 5.28223C18.1883 4.75278 17.0259 4.95181 15.5532 5.70527C14.9323 6.02291 14.1521 5.69975 13.9378 5.03613Z" stroke="currentColor" stroke-width="2" stroke-linejoin="round"/></svg>
