<svg xmlns="http://www.w3.org/2000/svg" viewBox="0 0 24 24" fill="none"><path d="M15.4649 6L14.5993 6.50073C14.778 6.80972 15.1079 7 15.4649 7V6ZM8.53513 6V7C8.89209 7 9.22199 6.80972 9.40073 6.50073L8.53513 6ZM2 9V17H4V9H2ZM6 21H18V19H6V21ZM22 17V9H20V17H22ZM12 5C13.1092 5 14.079 5.60141 14.5993 6.50073L16.3305 5.49927C15.4675 4.00738 13.852 3 12 3V5ZM9.40073 6.50073C9.92096 5.60141 10.8908 5 12 5V3C10.148 3 8.53254 4.00738 7.66952 5.49927L9.40073 6.50073ZM18 5H15.4649V7H18V5ZM8.53513 5H6V7H8.53513V5ZM22 9C22 6.79086 20.2091 5 18 5V7C19.1046 7 20 7.89543 20 9H22ZM18 21C20.2091 21 22 19.2091 22 17H20C20 18.1046 19.1046 19 18 19V21ZM2 17C2 19.2091 3.79086 21 6 21V19C4.89543 19 4 18.1046 4 17H2ZM4 9C4 7.89543 4.89543 7 6 7V5C3.79086 5 2 6.79086 2 9H4ZM14 12.5C14 13.6046 13.1046 14.5 12 14.5V16.5C14.2091 16.5 16 14.7091 16 12.5H14ZM12 14.5C10.8954 14.5 10 13.6046 10 12.5H8C8 14.7091 9.79086 16.5 12 16.5V14.5ZM10 12.5C10 11.3954 10.8954 10.5 12 10.5V8.5C9.79086 8.5 8 10.2909 8 12.5H10ZM12 10.5C13.1046 10.5 14 11.3954 14 12.5H16C16 10.2909 14.2091 8.5 12 8.5V10.5Z" fill="currentColor"/></svg>
