<svg xmlns="http://www.w3.org/2000/svg" viewBox="0 0 24 24" fill="none"><path d="M8 10V12M8 12V14M8 12H10M8 12H6M8 6H16C19.3137 6 22 8.68629 22 12C22 15.3137 19.3137 18 16 18H8C4.68629 18 2 15.3137 2 12C2 8.68629 4.68629 6 8 6Z" stroke="currentColor" stroke-width="2" stroke-linecap="round" stroke-linejoin="round"/><path d="M13.875 13.5C13.875 13.9832 14.2668 14.375 14.75 14.375C15.2332 14.375 15.625 13.9832 15.625 13.5C15.625 13.0168 15.2332 12.625 14.75 12.625C14.2668 12.625 13.875 13.0168 13.875 13.5ZM16.875 10.5C16.875 10.9832 17.2668 11.375 17.75 11.375C18.2332 11.375 18.625 10.9832 18.625 10.5C18.625 10.0168 18.2332 9.625 17.75 9.625C17.2668 9.625 16.875 10.0168 16.875 10.5Z" fill="currentColor" stroke="currentColor" stroke-width="0.75" stroke-linecap="square"/></svg>
