<svg xmlns="http://www.w3.org/2000/svg" viewBox="0 0 24 24" fill="none"><path d="M2 11V17C2 18.6569 3.34315 20 5 20H15C16.6569 20 18 18.6569 18 17V13C18 11.3431 16.6569 10 15 10H10.8284C10.298 10 9.78929 9.78929 9.41421 9.41421L8.58579 8.58579C8.21071 8.21071 7.70201 8 7.17157 8H5C3.34315 8 2 9.34315 2 11Z" stroke="currentColor" stroke-width="2" stroke-linecap="round" stroke-linejoin="round"/><path d="M18 16H19C20.6569 16 22 14.6569 22 13V9C22 7.34315 20.6569 6 19 6H14.8284C14.298 6 13.7893 5.78929 13.4142 5.41421L12.5858 4.58579C12.2107 4.21071 11.702 4 11.1716 4H9C7.34315 4 6 5.34315 6 7" stroke="currentColor" stroke-width="2" stroke-linecap="round" stroke-linejoin="round"/></svg>
