<svg xmlns="http://www.w3.org/2000/svg" viewBox="0 0 24 24" fill="none"><path d="M11.0001 9.9681L14 13L14.7664 12.8467C15.6633 12.6673 16.5001 13.3533 16.5001 14.268C16.5001 14.3961 16.551 14.519 16.6416 14.6096L16.793 14.761C17.1835 15.1515 17.8166 15.1515 18.2072 14.761L20.5001 12.4681C20.7727 12.1955 20.909 12.0592 20.9818 11.9121C21.1205 11.6323 21.1205 11.3038 20.9818 11.024C20.909 10.877 20.7727 10.7407 20.5001 10.4681H19.5001C19.2884 10.2565 19.0551 10.0546 18.8793 9.81153C18.2779 8.97977 18.7277 7.9758 18.2482 7.11299C18.1854 6.99996 18.1315 6.92702 18.0237 6.78114C15.6117 3.51716 12.3844 2.43349 8.4265 3.16495C8.17719 3.21103 8 3.43128 8 3.68481C8 3.87949 8.10607 4.05848 8.27393 4.15709C10.7082 5.58709 11.5231 7.05062 11.0001 9.9681Z" stroke="currentColor" stroke-width="2" stroke-linecap="round" stroke-linejoin="round"/><path d="M11 10L4.49986 16.5073C3.67173 17.3363 3.67308 18.6799 4.50288 19.5073C5.33042 20.3324 6.66958 20.3324 7.49712 19.5073L14 13.0234" stroke="currentColor" stroke-width="2"/></svg>
