<svg xmlns="http://www.w3.org/2000/svg" viewBox="0 0 24 24" fill="none"><path d="M21 12C21 16.9706 16.9706 21 12 21C7.02944 21 3 16.9706 3 12C3 7.02944 7.02944 3 12 3C16.9706 3 21 7.02944 21 12Z" stroke="currentColor" stroke-width="2" stroke-linejoin="round"/><path d="M13.75 12.437C14.507 11.8924 15 11.0038 15 10C15 8.34315 13.6569 7 12 7C10.3431 7 9 8.34315 9 10C9 11.0038 9.49297 11.8924 10.25 12.437V15.25C10.25 16.2165 11.0335 17 12 17C12.9665 17 13.75 16.2165 13.75 15.25V12.437Z" stroke="currentColor" stroke-width="2" stroke-linejoin="round"/></svg>
