<svg xmlns="http://www.w3.org/2000/svg" viewBox="0 0 24 24" fill="none"><path d="M7 9H8V15H7V9Z" fill="currentColor"/><path d="M9 9H11V15H9V9Z" fill="currentColor"/><path d="M12 9H13V15H12V9Z" fill="currentColor"/><path d="M16 9H17V15H16V9Z" fill="currentColor"/><path d="M14 9H15V15H14V9Z" fill="currentColor"/><path d="M8 4H7C5.34315 4 4 5.34315 4 7V8" stroke="currentColor" stroke-width="2" stroke-linecap="round" stroke-linejoin="round"/><path d="M8 20H7C5.34315 20 4 18.6569 4 17V16" stroke="currentColor" stroke-width="2" stroke-linecap="round" stroke-linejoin="round"/><path d="M16 4H17C18.6569 4 20 5.34315 20 7V8" stroke="currentColor" stroke-width="2" stroke-linecap="round" stroke-linejoin="round"/><path d="M16 20H17C18.6569 20 20 18.6569 20 17V16" stroke="currentColor" stroke-width="2" stroke-linecap="round" stroke-linejoin="round"/></svg>
