<svg xmlns="http://www.w3.org/2000/svg" viewBox="0 0 24 24" fill="none"><path fill-rule="evenodd" clip-rule="evenodd" d="M15 10C16.6575 10 18 8.6575 18 7C18 5.3425 16.6575 4 15 4C13.3425 4 12 5.3425 12 7C12 8.6575 13.3425 10 15 10Z" stroke="currentColor" stroke-width="2" stroke-linecap="round" stroke-linejoin="round"/><path d="M12 7H4" stroke="currentColor" stroke-width="2" stroke-linecap="round" stroke-linejoin="round"/><path d="M20 7H18" stroke="currentColor" stroke-width="2" stroke-linecap="round" stroke-linejoin="round"/><path fill-rule="evenodd" clip-rule="evenodd" d="M9 20C10.6575 20 12 18.6575 12 17C12 15.3425 10.6575 14 9 14C7.3425 14 6 15.3425 6 17C6 18.6575 7.3425 20 9 20Z" stroke="currentColor" stroke-width="2" stroke-linecap="round"/><path d="M6 17H4" stroke="currentColor" stroke-width="2" stroke-linecap="round"/><path d="M20 17H12.5" stroke="currentColor" stroke-width="2" stroke-linecap="round"/></svg>
