<svg xmlns="http://www.w3.org/2000/svg" viewBox="0 0 24 24" fill="none"><path d="M3.12132 9.87868L6.87868 6.12132C8.05025 4.94975 9.94975 4.94975 11.1213 6.12132L14.8787 9.87868C16.0503 11.0503 16.0503 12.9497 14.8787 14.1213L11.1213 17.8787C9.94975 19.0503 8.05026 19.0503 6.87868 17.8787L3.12132 14.1213C1.94975 12.9497 1.94974 11.0503 3.12132 9.87868Z" stroke="currentColor" stroke-width="2" stroke-linejoin="round"/><path d="M12 7L12.8787 6.12132C14.0503 4.94975 15.9497 4.94975 17.1213 6.12132L20.8787 9.87868C22.0503 11.0503 22.0503 12.9497 20.8787 14.1213L17.1213 17.8787C15.9497 19.0503 14.0503 19.0503 12.8787 17.8787L12 17" stroke="currentColor" stroke-width="2" stroke-linejoin="round"/></svg>
