<svg xmlns="http://www.w3.org/2000/svg" viewBox="0 0 24 24" fill="none"><path d="M12 3C12 3.42934 12 3.644 11.98 3.84335C11.862 5.01786 11.2313 6.08029 10.2567 6.74626C10.0913 6.85929 9.90284 6.96209 9.52593 7.16767L6.47407 8.83233C6.09716 9.03791 5.9087 9.14071 5.74328 9.25374C4.76867 9.91971 4.13797 10.9821 4.02002 12.1566C4 12.356 4 12.5707 4 13" stroke="currentColor" stroke-width="2" stroke-linecap="round"/><path d="M20 11C20 11.4293 20 11.644 19.98 11.8434C19.862 13.0179 19.2313 14.0803 18.2567 14.7463C18.0913 14.8593 17.9028 14.9621 17.5259 15.1677L14.4741 16.8323C14.0972 17.0379 13.9087 17.1407 13.7433 17.2537C12.7687 17.9197 12.138 18.9821 12.02 20.1566C12 20.356 12 20.5707 12 21" stroke="currentColor" stroke-width="2" stroke-linecap="round"/><path d="M16 7C16 7.42934 16 7.644 15.98 7.84335C15.862 9.01786 15.2313 10.0803 14.2567 10.7463C14.0913 10.8593 13.9028 10.9621 13.5259 11.1677L10.4741 12.8323C10.0972 13.0379 9.9087 13.1407 9.74328 13.2537C8.76867 13.9197 8.13797 14.9821 8.02002 16.1566C8 16.356 8 16.5707 8 17" stroke="currentColor" stroke-width="2" stroke-linecap="round"/></svg>
