<svg xmlns="http://www.w3.org/2000/svg" viewBox="0 0 24 24" fill="none"><path d="M7 6C7 4.89543 7.89543 4 9 4H18C19.1046 4 20 4.89543 20 6V8C20 9.10457 19.1046 10 18 10H9C7.89543 10 7 9.10457 7 8V7V6Z" stroke="currentColor" stroke-width="2" stroke-linecap="round" stroke-linejoin="round"/><path d="M7 7H5C4.44772 7 4 7.44772 4 8V10C4 11.6569 5.34315 13 7 13H13V15.5" stroke="currentColor" stroke-width="2" stroke-linecap="round" stroke-linejoin="round"/><path d="M15 21V18C15 16.8954 14.1046 16 13 16C11.8954 16 11 16.8954 11 18V21" stroke="currentColor" stroke-width="2" stroke-linecap="round" stroke-linejoin="round"/></svg>
