<svg xmlns="http://www.w3.org/2000/svg" viewBox="0 0 24 24" fill="none"><path fill-rule="evenodd" clip-rule="evenodd" d="M19.4639 19H20C20.5523 19 21 19.4477 21 20C21 20.5523 20.5523 21 20 21H14.5C13.9477 21 13.5 20.5523 13.5 20C13.5 19.4477 13.9477 19 14.5 19H15.2578L13.9551 15H8.15625L6.85449 19H7.5C8.05228 19 8.5 19.4477 8.5 20C8.5 20.5523 8.05228 21 7.5 21H4.5C3.94772 21 3.5 20.5523 3.5 20C3.5 19.4477 3.94772 19 4.5 19H4.75L9.29418 5.04203C9.69064 3.82426 10.8258 3 12.1065 3C13.3871 3 14.5223 3.82418 14.9188 5.04188L19.4639 19ZM8.80762 13H13.3037L11.6262 7.8472C11.4464 7.29485 10.665 7.29485 10.4851 7.8472L8.80762 13Z" fill="currentColor"/></svg>
