<svg xmlns="http://www.w3.org/2000/svg" viewBox="0 0 24 24" fill="none"><path d="M16 17H8C6.34315 17 5 18.3431 5 20C5 20.5523 5.44772 21 6 21H18C18.5523 21 19 20.5523 19 20C19 18.3431 17.6569 17 16 17Z" stroke="currentColor" stroke-width="2" stroke-linecap="round" stroke-linejoin="round"/><path d="M7 17V12C7 9.23858 9.23858 7 12 7C14.7614 7 17 9.23858 17 12V17" stroke="currentColor" stroke-width="2" stroke-linecap="round" stroke-linejoin="round"/><path d="M12 2V3M21 12H22M3 12H2M18.364 5.63604L19.0711 4.92893M5.63606 5.63602L4.92896 4.92891" stroke="currentColor" stroke-width="2" stroke-linecap="round" stroke-linejoin="round"/><path d="M12 17V14" stroke="currentColor" stroke-width="2" stroke-linecap="round" stroke-linejoin="round"/></svg>
