<svg xmlns="http://www.w3.org/2000/svg" viewBox="0 0 24 24" fill="none"><path fill-rule="evenodd" clip-rule="evenodd" d="M6 3C3.79086 3 2 4.79086 2 7C2 9.20914 3.79086 11 6 11C7.02505 11 7.96004 10.6144 8.66786 9.9804L11.6973 12L8.66786 14.0196C7.96005 13.3856 7.02505 13 6 13C3.79086 13 2 14.7909 2 17C2 19.2091 3.79086 21 6 21C8.20914 21 10 19.2091 10 17C10 16.5386 9.92189 16.0955 9.77816 15.6831L22.3868 7.27735C21.7741 6.35829 20.5323 6.10995 19.6133 6.72265L13.5 10.7982L9.77816 8.3169C9.92189 7.90452 10 7.46138 10 7C10 4.79086 8.20914 3 6 3ZM4 7C4 5.89543 4.89543 5 6 5C7.10457 5 8 5.89543 8 7C8 8.10457 7.10457 9 6 9C4.89543 9 4 8.10457 4 7ZM4 17C4 15.8954 4.89543 15 6 15C7.10457 15 8 15.8954 8 17C8 18.1046 7.10457 19 6 19C4.89543 19 4 18.1046 4 17Z" fill="currentColor"/><path d="M19.6133 17.2774L14.4014 13.8028L16.2042 12.6009L22.3868 16.7227C21.7741 17.6417 20.5323 17.8901 19.6133 17.2774Z" fill="currentColor"/></svg>
