<svg xmlns="http://www.w3.org/2000/svg" viewBox="0 0 24 24" fill="none"><path d="M10.8519 2.97554C11.587 2.67106 12.413 2.67106 13.1481 2.97554L17.5695 4.80695C18.3045 5.11143 18.8886 5.69545 19.1931 6.43054L21.0245 10.8519C21.3289 11.587 21.3289 12.413 21.0245 13.1481L19.1931 17.5695C18.8886 18.3045 18.3045 18.8886 17.5695 19.1931L13.1481 21.0245C12.413 21.3289 11.587 21.3289 10.8519 21.0245L6.43054 19.1931C5.69545 18.8886 5.11143 18.3045 4.80695 17.5695L2.97554 13.1481C2.67106 12.413 2.67106 11.587 2.97554 10.8519L4.80695 6.43054C5.11143 5.69545 5.69545 5.11143 6.43054 4.80695L10.8519 2.97554Z" stroke="currentColor" stroke-width="2"/></svg>
