<svg xmlns="http://www.w3.org/2000/svg" viewBox="0 0 24 24" fill="none"><path d="M10.9907 2.63041C11.3958 1.78986 12.6042 1.78986 13.0093 2.63041L15.0244 6.81163C15.1874 7.14991 15.5122 7.38356 15.8875 7.43254L20.5265 8.038C21.4591 8.15972 21.8325 9.29762 21.1503 9.93882L17.7567 13.1284C17.4822 13.3865 17.3581 13.7645 17.427 14.1331L18.279 18.6885C18.4503 19.6043 17.4726 20.3075 16.6459 19.8633L12.5335 17.6533C12.2007 17.4745 11.7993 17.4745 11.4665 17.6533L7.35409 19.8633C6.52737 20.3075 5.54974 19.6043 5.72101 18.6885L6.57296 14.1331C6.64189 13.7645 6.51782 13.3865 6.24327 13.1284L2.84968 9.93882C2.16747 9.29762 2.54089 8.15972 3.47346 8.038L8.11245 7.43254C8.48776 7.38356 8.81257 7.14991 8.9756 6.81163L10.9907 2.63041Z" stroke="currentColor" stroke-width="2" stroke-linecap="round" stroke-linejoin="round"/></svg>
