<svg xmlns="http://www.w3.org/2000/svg" viewBox="0 0 24 24" fill="none"><path d="M7 4V3C4.79086 3 3 4.79086 3 7H4H5C5 5.89543 5.89543 5 7 5V4ZM7 4V5H17V4V3H7V4ZM17 4V5C18.1046 5 19 5.89543 19 7H20H21C21 4.79086 19.2091 3 17 3V4ZM20 7H19V8H20H21V7H20ZM20 8H19V17H20H21V8H20ZM20 17H19C19 18.1046 18.1046 19 17 19V20V21C19.2091 21 21 19.2091 21 17H20ZM17 20V19H7V20V21H17V20ZM7 20V19C5.89543 19 5 18.1046 5 17H4H3C3 19.2091 4.79086 21 7 21V20ZM4 17H5V8H4H3V17H4ZM4 8H5V7H4H3V8H4Z" fill="currentColor"/><path d="M4 8H20" stroke="currentColor" stroke-width="2" stroke-linecap="round"/><path d="M9.25 12C9.25 12.6904 8.69036 13.25 8 13.25C7.30964 13.25 6.75 12.6904 6.75 12C6.75 11.3096 7.30964 10.75 8 10.75C8.69036 10.75 9.25 11.3096 9.25 12Z" fill="currentColor"/><path d="M17.25 12C17.25 12.6904 16.6904 13.25 16 13.25C15.3096 13.25 14.75 12.6904 14.75 12C14.75 11.3096 15.3096 10.75 16 10.75C16.6904 10.75 17.25 11.3096 17.25 12Z" fill="currentColor"/><path d="M13.25 12C13.25 12.6904 12.6904 13.25 12 13.25C11.3096 13.25 10.75 12.6904 10.75 12C10.75 11.3096 11.3096 10.75 12 10.75C12.6904 10.75 13.25 11.3096 13.25 12Z" fill="currentColor"/><path d="M9.25 16C9.25 16.6904 8.69036 17.25 8 17.25C7.30964 17.25 6.75 16.6904 6.75 16C6.75 15.3096 7.30964 14.75 8 14.75C8.69036 14.75 9.25 15.3096 9.25 16Z" fill="currentColor"/><path d="M13.25 16C13.25 16.6904 12.6904 17.25 12 17.25C11.3096 17.25 10.75 16.6904 10.75 16C10.75 15.3096 11.3096 14.75 12 14.75C12.6904 14.75 13.25 15.3096 13.25 16Z" fill="currentColor"/></svg>
