<svg xmlns="http://www.w3.org/2000/svg" viewBox="0 0 24 24" fill="none"><path d="M3 9C3 6.23858 5.23858 4 8 4H16C18.7614 4 21 6.23858 21 9V15C21 17.7614 18.7614 20 16 20H3V9Z" stroke="currentColor" stroke-width="2" stroke-linecap="round" stroke-linejoin="round"/><path d="M7.125 12C7.125 12.4832 7.51675 12.875 8 12.875C8.48325 12.875 8.875 12.4832 8.875 12C8.875 11.5168 8.48325 11.125 8 11.125C7.51675 11.125 7.125 11.5168 7.125 12ZM11.125 12C11.125 12.4832 11.5168 12.875 12 12.875C12.4832 12.875 12.875 12.4832 12.875 12C12.875 11.5168 12.4832 11.125 12 11.125C11.5168 11.125 11.125 11.5168 11.125 12ZM15.125 12C15.125 12.4832 15.5168 12.875 16 12.875C16.4832 12.875 16.875 12.4832 16.875 12C16.875 11.5168 16.4832 11.125 16 11.125C15.5168 11.125 15.125 11.5168 15.125 12Z" fill="currentColor" stroke="currentColor" stroke-width="0.75" stroke-linecap="square"/></svg>
