<svg xmlns="http://www.w3.org/2000/svg" viewBox="0 0 24 24" fill="none"><path d="M4 5.5C4 4.67157 4.67157 4 5.5 4H6.5C7.32843 4 8 4.67157 8 5.5V6.5C8 7.32843 7.32843 8 6.5 8H5.5C4.67157 8 4 7.32843 4 6.5V5.5Z" stroke="currentColor" stroke-width="2" stroke-linecap="square" stroke-linejoin="round"/><path d="M16 5.5C16 4.67157 16.6716 4 17.5 4H18.5C19.3284 4 20 4.67157 20 5.5V6.5C20 7.32843 19.3284 8 18.5 8H18H17.5C16.6716 8 16 7.32843 16 6.5V6V5.5Z" stroke="currentColor" stroke-width="2" stroke-linecap="square" stroke-linejoin="round"/><path d="M4 17.5C4 16.6716 4.67157 16 5.5 16H6.5C7.32843 16 8 16.6716 8 17.5V18.5C8 19.3284 7.32843 20 6.5 20H5.5C4.67157 20 4 19.3284 4 18.5V17.5Z" stroke="currentColor" stroke-width="2" stroke-linecap="square" stroke-linejoin="round"/><path d="M14 19.9999V17.6666L17.5 14.1666C18.1443 13.5223 19.189 13.5223 19.8333 14.1666C20.4777 14.8109 20.4777 15.8556 19.8333 16.4999L16.3333 19.9999H14Z" stroke="currentColor" stroke-width="2" stroke-linecap="square" stroke-linejoin="round"/><path d="M16 6H8" stroke="currentColor" stroke-width="2" stroke-linecap="round" stroke-linejoin="round"/><path d="M6 8V16" stroke="currentColor" stroke-width="2" stroke-linecap="round" stroke-linejoin="round"/><path d="M8 18H10" stroke="currentColor" stroke-width="2" stroke-linecap="round" stroke-linejoin="round"/><path d="M18 10V8" stroke="currentColor" stroke-width="2" stroke-linecap="round" stroke-linejoin="round"/></svg>
