<svg xmlns="http://www.w3.org/2000/svg" viewBox="0 0 24 24" fill="none"><path d="M17 4H7C5.34315 4 4 5.34315 4 7V17C4 18.6569 5.34315 20 7 20H17C18.6569 20 20 18.6569 20 17V7C20 5.34315 18.6569 4 17 4Z" stroke="currentColor" stroke-width="2"/><path d="M9.8125 16.333C9.12109 16.333 8.80469 15.9463 8.80469 15.4131C8.80469 15.0088 8.97461 14.7217 9.39648 14.3584L11.8105 12.167C12.8008 11.2646 13.0703 10.8779 13.0703 10.3271C13.0703 9.71777 12.6016 9.28418 11.9277 9.28418C11.3711 9.28418 10.9902 9.55371 10.6797 10.1162C10.4102 10.5322 10.1582 10.7021 9.72461 10.7021C9.16797 10.7021 8.83398 10.3799 8.83398 9.85254C8.83398 9.68848 8.85742 9.53613 8.92188 9.38379C9.29102 8.41113 10.416 7.66699 11.957 7.66699C13.8848 7.66699 15.1504 8.69238 15.1504 10.1865C15.1504 11.2705 14.5996 11.8916 13.2578 13.1045L11.5762 14.6396V14.6807H14.5C15.0449 14.6807 15.3613 15.0029 15.3613 15.5068C15.3613 15.999 15.0449 16.333 14.5 16.333H9.8125Z" fill="currentColor"/></svg>
