<svg xmlns="http://www.w3.org/2000/svg" viewBox="0 0 24 24" fill="none"><path d="M22.7314 12.0002C22.9016 12.2944 22.999 12.6359 22.999 13.0002C22.999 14.1048 22.1035 15.0002 20.999 15.0002C20.5646 15.0002 20.1625 14.8617 19.8346 14.6265M19.8346 14.6265C19.7385 14.5575 19.6487 14.4803 19.5664 14.3958L19.8346 14.6265ZM5.5 7.50014V5.00014C5.5 4.44785 5.95165 3.98877 6.49636 4.07997C8.7202 4.4523 9.474 6.00018 9.474 6.00018H14C17.314 6.00018 20 8.68614 20 12.0001C20 13.7751 19.225 15.3642 18 16.4632V19.0002C18 19.5525 17.5523 20.0002 17 20.0002H15C14.4477 20.0002 14 19.5525 14 19.0002C14 18.4479 13.5523 18.0002 13 18.0002H11C10.4477 18.0002 10 18.4479 10 19.0002C10 19.5525 9.55228 20.0002 9 20.0002H7C6.44772 20.0002 6 19.5525 6 19.0002V17.0001C5.094 16.4731 4.525 15.9082 4 15.0002H3C2.44772 15.0002 2 14.5525 2 14.0002V10.9352C2 10.3829 2.44772 9.93518 3 9.93518H4C4.338 9.01018 4.782 8.14814 5.5 7.50014Z" stroke="currentColor" stroke-width="2" stroke-linecap="round" stroke-linejoin="round"/><path d="M8.5 10.75C8.5 10.8881 8.38808 11 8.25 11M8.5 10.75C8.5 10.612 8.38808 10.5 8.25 10.5M8.5 10.75H8M8.25 11C8.11193 11 8 10.8881 8 10.75M8.25 11V10.5M8 10.75C8 10.612 8.11193 10.5 8.25 10.5M8.46655 10.625C8.53558 10.7446 8.49462 10.8975 8.37504 10.9665M8.46655 10.625C8.39751 10.5055 8.24462 10.4645 8.12504 10.5335M8.46655 10.625L8.03354 10.875M8.37504 10.9665C8.25547 11.0356 8.10257 10.9946 8.03354 10.875M8.37504 10.9665L8.12504 10.5335M8.03354 10.875C7.9645 10.7555 8.00547 10.6026 8.12504 10.5335M8.37508 10.5336C8.49465 10.6026 8.53562 10.7555 8.46659 10.8751M8.37508 10.5336C8.25551 10.4645 8.10261 10.5055 8.03357 10.6251M8.37508 10.5336L8.12508 10.9666M8.46659 10.8751C8.39755 10.9946 8.24465 11.0356 8.12508 10.9666M8.46659 10.8751L8.03357 10.6251M8.12508 10.9666C8.00551 10.8975 7.96454 10.7446 8.03357 10.6251" stroke="currentColor" stroke-width="2" stroke-linecap="round" stroke-linejoin="round"/></svg>
