<svg xmlns="http://www.w3.org/2000/svg" viewBox="0 0 24 24" fill="none"><path d="M9.99609 18.5C9.99609 19.8807 8.65295 21 6.99609 21C5.33924 21 3.99609 19.8807 3.99609 18.5C3.99609 17.1193 5.33924 16 6.99609 16C8.65295 16 9.99609 17.1193 9.99609 18.5ZM9.99609 18.5V8.23211C9.99609 6.90728 10.8651 5.73932 12.1341 5.35863L17.4214 3.77243C18.7046 3.38746 19.9961 4.34835 19.9961 5.68808V15.5M19.9961 15.5C19.9961 16.8807 18.6529 18 16.9961 18C15.3392 18 13.9961 16.8807 13.9961 15.5C13.9961 14.1193 15.3392 13 16.9961 13C18.6529 13 19.9961 14.1193 19.9961 15.5Z" stroke="currentColor" stroke-width="2" stroke-linejoin="round"/></svg>
