<svg xmlns="http://www.w3.org/2000/svg" viewBox="0 0 24 24" fill="none"><path d="M10.5908 20.3353L19.484 13.4116C20.433 12.6729 20.52 11.2697 19.6696 10.4193L12.9726 3.72229C12.1222 2.87191 10.7191 2.95894 9.98028 3.90789L3.05665 12.8012C2.1269 13.9954 2.23233 15.6952 3.30253 16.7654L6.62652 20.0894C7.69673 21.1596 9.39651 21.265 10.5908 20.3353Z" stroke="currentColor" stroke-width="2" stroke-linecap="round" stroke-linejoin="round"/><path d="M12.5 11L3 6.5" stroke="currentColor" stroke-width="2" stroke-linecap="round" stroke-linejoin="round"/><path d="M22.5 19.6001C22.5 20.9256 21.4926 22.0001 20.25 22.0001C19.0074 22.0001 18 20.9256 18 19.6001C18 18.2128 19.3366 16.8254 19.9495 16.2622C20.1217 16.104 20.3783 16.104 20.5505 16.2622C21.1634 16.8254 22.5 18.2128 22.5 19.6001Z" fill="currentColor"/></svg>
