<svg xmlns="http://www.w3.org/2000/svg" viewBox="0 0 24 24" fill="none"><path d="M17.0016 7.5C17.0016 6.67157 17.6732 6 18.5016 6C19.33 6 20.0016 6.67157 20.0016 7.5V13.8292C20.0016 17.7895 16.7911 21 12.8308 21C10.1685 21 7.72528 19.525 6.48529 17.169L3.8065 12.0793C3.62131 11.7274 3.66217 11.2993 3.91055 10.9888L4.25222 10.5617C4.94224 9.69921 6.20083 9.55937 7.06335 10.2494L8.00161 11V5.5C8.00161 4.67157 8.67319 4 9.50161 4C10.33 4 11.0016 4.67157 11.0016 5.5M17.0016 7.5V5.5C17.0016 4.67157 16.33 4 15.5016 4C14.6732 4 14.0016 4.67157 14.0016 5.5M17.0016 7.5V12M11.0016 5.5V4.5C11.0016 3.67157 11.6732 3 12.5016 3C13.33 3 14.0016 3.67157 14.0016 4.5V5.5M11.0016 5.5V11M14.0016 5.5V11.5" stroke="currentColor" stroke-width="2" stroke-linecap="round" stroke-linejoin="round"/></svg>
