<svg xmlns="http://www.w3.org/2000/svg" viewBox="0 0 24 24" fill="none"><path d="M20 15.2V8.8C20 7.11984 20 6.27976 19.673 5.63803C19.3854 5.07354 18.9265 4.6146 18.362 4.32698C17.7202 4 16.8802 4 15.2 4H8.8C7.11984 4 6.27976 4 5.63803 4.32698C5.07354 4.6146 4.6146 5.07354 4.32698 5.63803C4 6.27976 4 7.11984 4 8.8V15.2C4 16.8802 4 17.7202 4.32698 18.362C4.6146 18.9265 5.07354 19.3854 5.63803 19.673C6.27976 20 7.11984 20 8.8 20H15.2C16.8802 20 17.7202 20 18.362 19.673C18.9265 19.3854 19.3854 18.9265 19.673 18.362C20 17.7202 20 16.8802 20 15.2Z" stroke="currentColor" stroke-width="2" stroke-linecap="round" stroke-linejoin="round"/><path d="M16 9V15" stroke="currentColor" stroke-width="2" stroke-linecap="round" stroke-linejoin="round"/><path d="M8 11.125C8.48325 11.125 8.875 11.5168 8.875 12C8.875 12.4832 8.48325 12.875 8 12.875C7.51675 12.875 7.125 12.4832 7.125 12C7.125 11.5168 7.51675 11.125 8 11.125Z" fill="currentColor" stroke="currentColor" stroke-width="0.75"/><path d="M12 11.125C12.4832 11.125 12.875 11.5168 12.875 12C12.875 12.4832 12.4832 12.875 12 12.875C11.5168 12.875 11.125 12.4832 11.125 12C11.125 11.5168 11.5168 11.125 12 11.125Z" fill="currentColor" stroke="currentColor" stroke-width="0.75"/></svg>
