<svg xmlns="http://www.w3.org/2000/svg" viewBox="0 0 24 24" fill="none"><path d="M10 8H6C4.067 8 2.5 9.567 2.5 11.5C2.5 13.433 4.067 15 6 15H10" stroke="currentColor" stroke-width="2" stroke-linecap="round" stroke-linejoin="round"/><path d="M18 9H19C20.3807 9 21.5 10.1193 21.5 11.5C21.5 12.8807 20.3807 14 19 14H18" stroke="currentColor" stroke-width="2" stroke-linecap="round" stroke-linejoin="round"/><path d="M16.5097 4.33827L10.5097 7.71327C10.1949 7.89039 10 8.22357 10 8.58485V14.4152C10 14.7764 10.1949 15.1096 10.5097 15.2867L16.5097 18.6617C17.1763 19.0367 18 18.555 18 17.7902V5.20985C18 4.44502 17.1763 3.96331 16.5097 4.33827Z" stroke="currentColor" stroke-width="2" stroke-linecap="round" stroke-linejoin="round"/><path d="M12 16.5V19C12 20.1046 11.1046 21 10 21C8.89543 21 8 20.1046 8 19V15" stroke="currentColor" stroke-width="2" stroke-linecap="round" stroke-linejoin="round"/></svg>
