<svg xmlns="http://www.w3.org/2000/svg" viewBox="0 0 24 24" fill="none"><path d="M10.7422 5.08581C14.5543 4.56441 18.5219 6.42082 21.2261 10.6551C21.7499 11.4753 21.7501 12.5244 21.2263 13.3446C20.9318 13.8057 20.6223 14.2386 20.2997 14.6434" stroke="currentColor" stroke-width="2" stroke-linecap="round" stroke-linejoin="round"/><path d="M3 3L21 21" stroke="currentColor" stroke-width="2" stroke-linecap="round" stroke-linejoin="round"/><path d="M17 17.5795C12.2598 20.4159 6.38838 19.0046 2.77397 13.3454C2.25012 12.5252 2.24969 11.4757 2.77349 10.6554C3.78973 9.0641 4.98442 7.80859 6.28224 6.88892" stroke="currentColor" stroke-width="2" stroke-linecap="round" stroke-linejoin="round"/><path d="M4.2583 9.25818L13.5001 18.4999" stroke="currentColor" stroke-width="2" stroke-linecap="round" stroke-linejoin="round"/><path d="M14.3776 13.8305C15.2859 12.6539 15.2006 10.9576 14.1217 9.87868C13.0354 8.79243 11.3234 8.71332 10.146 9.64136" stroke="currentColor" stroke-width="2" stroke-linecap="round" stroke-linejoin="round"/></svg>
