<svg xmlns="http://www.w3.org/2000/svg" viewBox="0 0 24 24" fill="none"><path d="M19 12.5C19 13.6046 18.1046 14.5 17 14.5C15.8954 14.5 15 13.6046 15 12.5C15 11.3954 15.8954 10.5 17 10.5C18.1046 10.5 19 11.3954 19 12.5Z" stroke="currentColor" stroke-width="2" stroke-linecap="round" stroke-linejoin="round"/><path d="M16.852 17C14.9878 17 13.5872 18.2229 13.0598 19.9302C12.8866 20.4908 13.3568 21 13.9436 21H19.7604C20.3472 21 20.8174 20.4908 20.6442 19.9302C20.1167 18.2229 18.7162 17 16.852 17Z" stroke="currentColor" stroke-width="2" stroke-linecap="round" stroke-linejoin="round"/><path d="M9 5C9 6.10457 8.10457 7 7 7C5.89543 7 5 6.10457 5 5C5 3.89543 5.89543 3 7 3C8.10457 3 9 3.89543 9 5Z" stroke="currentColor" stroke-width="2" stroke-linecap="round" stroke-linejoin="round"/><path d="M8.9992 10.141C8.3952 9.73432 7.66802 9.5 6.85199 9.5C4.98779 9.5 3.58725 10.7229 3.05981 12.4302C2.88661 12.9908 3.35679 13.5 3.94357 13.5H7.9992" stroke="currentColor" stroke-width="2" stroke-linecap="round" stroke-linejoin="round"/><path d="M8.5 21L15.5 3" stroke="currentColor" stroke-width="2" stroke-linecap="round" stroke-linejoin="round"/></svg>
