<svg xmlns="http://www.w3.org/2000/svg" viewBox="0 0 24 24" fill="none"><circle cx="12" cy="7" r="2.5" stroke="currentColor" stroke-width="2" stroke-linecap="round" stroke-linejoin="round"/><circle cx="4.5" cy="9" r="2" stroke="currentColor" stroke-width="2" stroke-linecap="round" stroke-linejoin="round"/><circle cx="19.5" cy="9" r="2" stroke="currentColor" stroke-width="2" stroke-linecap="round" stroke-linejoin="round"/><path d="M11.4176 12.5H12.5853C14.8383 12.5 16.7543 14.1438 17.0969 16.3706C17.3096 17.7532 16.2399 19 14.8411 19H9.16174C7.76293 19 6.69324 17.7532 6.90594 16.3706C7.24852 14.1438 9.16455 12.5 11.4176 12.5Z" stroke="currentColor" stroke-width="1.9" stroke-linecap="round" stroke-linejoin="round"/><path d="M20.25 18H20.75C22.4069 18 23.7106 16.4994 22.508 15.3597C21.7526 14.6439 20.7445 14.1548 19.75 14.0308" stroke="currentColor" stroke-width="1.9" stroke-linecap="round" stroke-linejoin="round"/><path d="M3.7498 18H3.2498C1.59295 18 0.28919 16.4994 1.49182 15.3597C2.24721 14.6439 3.25532 14.1548 4.2498 14.0308" stroke="currentColor" stroke-width="1.9" stroke-linecap="round" stroke-linejoin="round"/></svg>
