<svg xmlns="http://www.w3.org/2000/svg" viewBox="0 0 24 24" fill="none"><path d="M21 8C21 7.44772 20.5523 7 20 7H13.6056C12.6025 7 11.6658 6.4987 11.1094 5.6641L10.8906 5.3359C10.3342 4.5013 9.39751 4 8.39445 4H6C4.34315 4 3 5.34315 3 7V16C3 17.6569 4.34315 19 6 19H11" stroke="currentColor" stroke-width="2" stroke-linecap="round" stroke-linejoin="round"/><path d="M18.0751 11.6994L15.5751 12.8729C15.2241 13.0377 15 13.3904 15 13.7782V15.9554C15 17.6862 16.1131 19.2206 17.7584 19.7578L18.5 20L19.2416 19.7578C20.8869 19.2206 22 17.6862 22 15.9554V13.7782C22 13.3904 21.7759 13.0377 21.4249 12.8729L18.9249 11.6994C18.6557 11.5731 18.3443 11.5731 18.0751 11.6994Z" stroke="currentColor" stroke-width="2" stroke-linejoin="round"/></svg>
