<svg xmlns="http://www.w3.org/2000/svg" viewBox="0 0 24 24" fill="none"><path d="M3 19H21" stroke="currentColor" stroke-width="2" stroke-linecap="round" stroke-linejoin="round"/><path d="M7.23722 4.6656C6.79446 3.88968 6.03409 3.35104 5.16019 3.19426L4.07745 3L4.37583 7.13646L4.07812 7.34591C3.52833 7.73271 3.1525 8.3231 3.03264 8.9883C2.83195 10.1021 3.57798 11.1646 4.68621 11.3435L8.48719 11.957L7.9151 13.1392C7.62341 13.742 7.98471 14.4588 8.63945 14.5762L9.34695 14.7032C9.95837 14.8129 10.5885 14.7287 11.1505 14.4623L14.253 12.9915L18.6978 13.7889C19.5098 13.9346 20.3252 13.5518 20.7375 12.8315C21.1876 12.0452 21.0484 11.0507 20.4002 10.4207L18.9565 9.01779C18.6657 8.73513 18.2979 8.54799 17.8995 8.48044C16.2059 8.19321 11.4395 7.38304 9.40771 7.01851C8.82334 6.91367 8.31438 6.55324 8.01849 6.03472L7.23722 4.6656Z" stroke="currentColor" stroke-width="2" stroke-linecap="round" stroke-linejoin="round"/></svg>
