<svg xmlns="http://www.w3.org/2000/svg" viewBox="0 0 24 24" fill="none"><g clip-path="url(#clip0_13682_26531)"><path d="M8.5 8H2.5" stroke="currentColor" stroke-width="2" stroke-linecap="round" stroke-linejoin="round"/><path d="M14.5 10.5L21 17" stroke="currentColor" stroke-width="2" stroke-linecap="round" stroke-linejoin="round"/><circle cx="12" cy="8" r="3" stroke="currentColor" stroke-width="2" stroke-linecap="round" stroke-linejoin="round"/><path d="M3.20711 5.95711C2.81658 5.56658 2.18342 5.56658 1.79289 5.95711L0.457107 7.29289C0.0665825 7.68342 0.0665832 8.31658 0.457107 8.70711L1.79289 10.0429C2.18342 10.4334 2.81658 10.4334 3.20711 10.0429L4.54289 8.70711C4.93342 8.31658 4.93342 7.68342 4.54289 7.29289L3.20711 5.95711Z" fill="currentColor"/><path d="M18.7071 11.9571C18.3166 11.5666 17.6834 11.5666 17.2929 11.9571L15.9571 13.2929C15.5666 13.6834 15.5666 14.3166 15.9571 14.7071L17.2929 16.0429C17.6834 16.4334 18.3166 16.4334 18.7071 16.0429L20.0429 14.7071C20.4334 14.3166 20.4334 13.6834 20.0429 13.2929L18.7071 11.9571Z" fill="currentColor"/><path d="M8.99694 8.44434C5.62048 9.71794 3.16783 12.8953 3 16.9443" stroke="currentColor" stroke-width="2" stroke-linecap="round" stroke-linejoin="round"/></g><defs><clipPath id="clip0_13682_26531"><rect width="24" height="24" fill="white"/></clipPath></defs></svg>
