<svg xmlns="http://www.w3.org/2000/svg" viewBox="0 0 24 24" fill="none"><path d="M17.5 5.25C17.5 6.49264 16.4926 7.5 15.25 7.5C14.0074 7.5 13 6.49264 13 5.25C13 4.00736 14.0074 3 15.25 3C16.4926 3 17.5 4.00736 17.5 5.25Z" stroke="currentColor" stroke-width="1.8"/><path d="M2.80078 21C2.80078 21 5.00078 21.5 6.00078 20C7.00078 21.5 11.0008 21.5 12.0008 20C13.0008 21.5 17.0008 21.5 18.0008 20C19.0008 21.5 21.201 21 21.201 21" stroke="currentColor" stroke-width="1.8" stroke-linecap="round" stroke-linejoin="round"/><path d="M4.98801 20.3473C1.0575 8.15609 12.696 14.8429 16.1875 20.5" stroke="currentColor" stroke-width="1.8" stroke-linecap="round"/><path d="M14.5 7.5019L14.8475 6.6717V6.6717L14.5 7.5019ZM17 9.5019L16.4543 10.2176V10.2176L17 9.5019ZM19.7956 11.0136L20.1533 10.1878V10.1878L19.7956 11.0136ZM18.9184 13.3298L18.5925 14.1688V14.1688L18.9184 13.3298ZM15.5 12.0019L15.8259 11.163C15.3928 10.9947 14.9028 11.1838 14.695 11.5994L15.5 12.0019ZM14.5 14.0019L13.695 13.5994C13.5218 13.9459 13.5897 14.3644 13.8636 14.6383L14.5 14.0019ZM16.8083 16.3102L17.4447 15.6738V15.6738L16.8083 16.3102ZM8.20117 10.8094L7.9186 9.95488L7.9186 9.95488L8.20117 10.8094ZM9.5 10.5019L9.40739 9.60668V9.60668L9.5 10.5019ZM11 10.5019L11.7717 10.9649C11.9331 10.6959 11.9428 10.3623 11.7973 10.0844C11.6518 9.80649 11.372 9.62441 11.059 9.60384L11 10.5019ZM9.78501 12.5269L9.01327 12.0638L9.01327 12.0638L9.78501 12.5269ZM17.3787 17.9725L18.2717 18.0841V18.0841L17.3787 17.9725ZM7.07869 8.68128L7.50242 9.47529V9.47529L7.07869 8.68128ZM20.4716 12.6898L21.2939 13.0556V13.0556L20.4716 12.6898ZM14.5 7.5019L14.1525 8.3321C14.5866 8.51384 14.8704 8.74225 15.1839 9.04554C15.4866 9.3383 15.9012 9.7958 16.4543 10.2176L17 9.5019L17.5457 8.78624C17.1046 8.44986 16.8458 8.14876 16.4354 7.75174C16.0358 7.36527 15.5667 6.97274 14.8475 6.6717L14.5 7.5019ZM17 9.5019L16.4543 10.2176C17.2983 10.8612 18.5549 11.4571 19.4378 11.8395L19.7956 11.0136L20.1533 10.1878C19.2754 9.80754 18.1993 9.28458 17.5457 8.78624L17 9.5019ZM18.9184 13.3298L19.2443 12.4909L15.8259 11.163L15.5 12.0019L15.1741 12.8408L18.5925 14.1688L18.9184 13.3298ZM15.5 12.0019L14.695 11.5994L13.695 13.5994L14.5 14.0019L15.305 14.4044L16.305 12.4044L15.5 12.0019ZM14.5 14.0019L13.8636 14.6383L16.1719 16.9466L16.8083 16.3102L17.4447 15.6738L15.1364 13.3655L14.5 14.0019ZM8.20117 10.8094L8.48373 11.6639C8.89526 11.5278 9.28461 11.429 9.59261 11.3971L9.5 10.5019L9.40739 9.60668C8.91173 9.65795 8.38118 9.80191 7.9186 9.95488L8.20117 10.8094ZM9.5 10.5019L9.59261 11.3971C9.82374 11.3732 10.1509 11.3717 10.4461 11.379C10.5882 11.3826 10.7135 11.3879 10.8031 11.3923C10.8477 11.3945 10.8832 11.3965 10.907 11.3979C10.9189 11.3986 10.9279 11.3991 10.9337 11.3995C10.9366 11.3997 10.9386 11.3998 10.9399 11.3999C10.9405 11.3999 10.9409 11.4 10.9411 11.4C10.9412 11.4 10.9412 11.4 10.9412 11.4C10.9412 11.4 10.9412 11.4 10.9411 11.4C10.9411 11.4 10.9411 11.4 10.9411 11.4C10.941 11.4 10.941 11.4 11 10.5019C11.059 9.60384 11.059 9.60383 11.0589 9.60383C11.0589 9.60383 11.0588 9.60383 11.0588 9.60382C11.0587 9.60382 11.0586 9.60381 11.0585 9.6038C11.0582 9.60379 11.0579 9.60377 11.0576 9.60374C11.0569 9.6037 11.056 9.60364 11.0548 9.60357C11.0526 9.60342 11.0494 9.60322 11.0454 9.60297C11.0375 9.60248 11.0262 9.60179 11.0119 9.60096C10.9833 9.59929 10.9425 9.59702 10.8921 9.59453C10.7914 9.58954 10.651 9.58357 10.4909 9.57958C10.1818 9.57187 9.75894 9.57031 9.40739 9.60668L9.5 10.5019ZM9.5 13.5559H8.6V14.0019H9.5H10.4V13.5559H9.5ZM11 10.5019L10.2283 10.0389L9.01327 12.0638L9.78501 12.5269L10.5568 12.9899L11.7717 10.9649L11 10.5019ZM17.3787 17.9725L16.4856 17.8609L16.2164 20.015L17.1094 20.1267L18.0025 20.2383L18.2717 18.0841L17.3787 17.9725ZM7.07869 8.68128L7.50242 9.47529C8.56343 8.90908 9.74315 8.40634 10.9138 8.1584C12.0842 7.9105 13.1888 7.9287 14.1525 8.3321L14.5 7.5019L14.8475 6.6717C13.44 6.08249 11.9368 6.1018 10.5408 6.39746C9.14511 6.69308 7.79979 7.27633 6.65497 7.88727L7.07869 8.68128ZM16.8083 16.3102L16.1719 16.9466C16.412 17.1867 16.5277 17.5241 16.4856 17.8609L17.3787 17.9725L18.2717 18.0841C18.3827 17.1961 18.0775 16.3066 17.4447 15.6738L16.8083 16.3102ZM20.4716 12.6898L19.6493 12.324C19.5805 12.4788 19.4022 12.5523 19.2443 12.4909L18.9184 13.3298L18.5925 14.1688C19.6458 14.5779 20.8347 14.088 21.2939 13.0556L20.4716 12.6898ZM6.5 9.66389H5.6C5.6 11.2123 7.18337 12.0939 8.48373 11.6639L8.20117 10.8094L7.9186 9.95488C7.79443 9.99594 7.65389 9.97467 7.54377 9.9022C7.4392 9.83338 7.4 9.74737 7.4 9.66389H6.5ZM19.7956 11.0136L19.4378 11.8395C19.6496 11.9312 19.7209 12.1631 19.6493 12.324L20.4716 12.6898L21.2939 13.0556C21.7944 11.9306 21.2331 10.6555 20.1533 10.1878L19.7956 11.0136ZM9.5 13.5559H10.4C10.4 13.3565 10.4542 13.1609 10.5568 12.9899L9.78501 12.5269L9.01327 12.0638C8.74285 12.5145 8.6 13.0303 8.6 13.5559H9.5ZM6.5 9.66389H7.4C7.4 9.57027 7.44855 9.50404 7.50242 9.47529L7.07869 8.68128L6.65497 7.88727C5.98631 8.24409 5.6 8.93854 5.6 9.66389H6.5Z" fill="currentColor"/></svg>
