<svg xmlns="http://www.w3.org/2000/svg" viewBox="0 0 24 24" fill="none"><path d="M21 7V18C21 18.4405 20.3658 18.8437 19.2915 19.1714C17.5809 19.6933 16 18.2254 16 16.437V10.4741C16 8.9459 17.1608 7.70619 18.6456 7.34441C20.1071 6.98831 21 6.51604 21 6C21 4.9 16.97 4 12 4C7.03 4 3 4.9 3 6C3 6.52261 3.89274 6.9927 5.35399 7.34659C6.83928 7.7063 8 8.9459 8 10.4741V16.437C8 18.2254 6.41914 19.6933 4.7085 19.1714C3.63421 18.8437 3 18.4405 3 18V7" stroke="currentColor" stroke-width="2" stroke-linecap="square" stroke-linejoin="round"/><path d="M15.5003 16.1566C14.4276 16.0522 13.2438 16 12.0003 16C10.7695 16 9.59715 16.0584 8.5332 16.1566" stroke="currentColor" stroke-width="2" stroke-linecap="square" stroke-linejoin="round"/></svg>
