<svg xmlns="http://www.w3.org/2000/svg" viewBox="0 0 24 24" fill="none"><path d="M21.5 12C21.5 7 17.8056 4 12 4C6.19444 4 2.5 7 2.5 12C2.5 13.2943 3.39422 15.4896 3.53656 15.8309C3.54957 15.862 3.56246 15.8905 3.57409 15.9222C3.67156 16.188 4.06312 17.5822 2.5 19.6439C4.61111 20.6439 6.8531 19 6.8531 19C8.40425 19.8154 10.2499 20 12 20C17.8056 20 21.5 17 21.5 12Z" stroke="currentColor" stroke-width="2" stroke-linecap="square" stroke-linejoin="round"/><path d="M6.625 12C6.625 12.4832 7.01675 12.875 7.5 12.875C7.98325 12.875 8.375 12.4832 8.375 12C8.375 11.5168 7.98325 11.125 7.5 11.125C7.01675 11.125 6.625 11.5168 6.625 12ZM11.125 12C11.125 12.4832 11.5168 12.875 12 12.875C12.4832 12.875 12.875 12.4832 12.875 12C12.875 11.5168 12.4832 11.125 12 11.125C11.5168 11.125 11.125 11.5168 11.125 12ZM15.625 12C15.625 12.4832 16.0168 12.875 16.5 12.875C16.9832 12.875 17.375 12.4832 17.375 12C17.375 11.5168 16.9832 11.125 16.5 11.125C16.0168 11.125 15.625 11.5168 15.625 12Z" fill="currentColor" stroke="currentColor" stroke-width="0.75" stroke-linecap="square"/></svg>
