<svg xmlns="http://www.w3.org/2000/svg" viewBox="0 0 24 24" fill="none"><path d="M20 20H4" stroke="currentColor" stroke-width="2" stroke-linecap="round" stroke-linejoin="round"/><path d="M20 5C20 5.55228 19.5523 6 19 6C18.4477 6 18 5.55228 18 5C18 4.44772 18.4477 4 19 4C19.5523 4 20 4.44772 20 5Z" stroke="currentColor" stroke-width="2" stroke-linecap="round" stroke-linejoin="round"/><path d="M19 6V20" stroke="currentColor" stroke-width="2" stroke-linecap="round" stroke-linejoin="round"/><path d="M4.35446 10.6096C3.75802 9.21192 3.82974 7.69685 4.42647 6.42071M4.35446 10.6096L17.9928 5.3949M4.35446 10.6096C4.86891 11.8152 5.79034 12.7223 6.89013 13.239" stroke="currentColor" stroke-width="2" stroke-linecap="round" stroke-linejoin="round"/><path d="M11.9997 8L12.9406 7.66128L11.0588 7.66128L11.9997 8ZM15.3788 20.3387C15.5659 20.8584 16.1388 21.128 16.6584 20.9409C17.178 20.7538 17.4476 20.1809 17.2606 19.6613L15.3788 20.3387ZM6.7388 19.6613C6.55173 20.1809 6.82133 20.7538 7.34097 20.9409C7.86061 21.128 8.43351 20.8584 8.62057 20.3387L6.7388 19.6613ZM14.8797 16L15.8206 15.6613L14.8797 16ZM11.0588 7.66128L8.1788 15.6613L10.0606 16.3387L12.9406 8.33872L11.0588 7.66128ZM8.1788 15.6613L6.7388 19.6613L8.62057 20.3387L10.0606 16.3387L8.1788 15.6613ZM11.0588 8.33872L13.9388 16.3387L15.8206 15.6613L12.9406 7.66128L11.0588 8.33872ZM13.9388 16.3387L15.3788 20.3387L17.2606 19.6613L15.8206 15.6613L13.9388 16.3387ZM9.11969 17H14.8797V15H9.11969V17Z" fill="currentColor"/></svg>
