<svg xmlns="http://www.w3.org/2000/svg" viewBox="0 0 24 24" fill="none"><path d="M16 14V20H19" stroke="currentColor" stroke-width="2" stroke-linecap="round" stroke-linejoin="round"/><path d="M8 12.7439V18.5C8 19.3284 7.32843 20 6.5 20C5.67157 20 5 19.3284 5 18.5L5 8.5C5 6.01472 7.01472 4 9.5 4C9.85779 4 10.2058 4.04176 10.5395 4.12066C11.5137 4.35104 12 5.35864 12 6.35971V10.6403C12 11.6414 11.5137 12.649 10.5395 12.8793C10.2058 12.9582 9.8578 13 9.5 13C8.97405 13 8.46917 12.9098 8 12.7439ZM8 12.7439V12" stroke="currentColor" stroke-width="2" stroke-linecap="round" stroke-linejoin="round"/></svg>
