<svg xmlns="http://www.w3.org/2000/svg" viewBox="0 0 24 24" fill="none"><path d="M12 20.5V18" stroke="currentColor" stroke-width="2" stroke-linecap="round" stroke-linejoin="round"/><path d="M12 6V3.5" stroke="currentColor" stroke-width="2" stroke-linecap="round" stroke-linejoin="round"/><path d="M6.59808 9.00002L4.5 7.7887" stroke="currentColor" stroke-width="2" stroke-linecap="round" stroke-linejoin="round"/><path d="M4.5 16.2113L6.59808 15" stroke="currentColor" stroke-width="2" stroke-linecap="round" stroke-linejoin="round"/><path d="M19.5004 16.2113L17.4023 15" stroke="currentColor" stroke-width="2" stroke-linecap="round" stroke-linejoin="round"/><path d="M17.4023 9.00002L19.5004 7.7887" stroke="currentColor" stroke-width="2" stroke-linecap="round" stroke-linejoin="round"/><path d="M17.7422 6.23022L19.235 7.06993C19.7073 7.33561 19.9996 7.83538 19.9996 8.37729V10" stroke="currentColor" stroke-width="2" stroke-linecap="round" stroke-linejoin="round"/><path d="M19.9996 14V15.6227C19.9996 16.1646 19.7073 16.6644 19.235 16.9301L17.7422 17.7698" stroke="currentColor" stroke-width="2" stroke-linecap="round" stroke-linejoin="round"/><path d="M14.1795 19.7743L12.7358 20.5864C12.2791 20.8432 11.7216 20.8432 11.265 20.5864L9.82129 19.7743" stroke="currentColor" stroke-width="2" stroke-linecap="round" stroke-linejoin="round"/><path d="M6.25741 17.7698L4.76461 16.9301C4.29229 16.6644 4 16.1646 4 15.6227V14" stroke="currentColor" stroke-width="2" stroke-linecap="round" stroke-linejoin="round"/><path d="M4 10V8.37729C4 7.83538 4.29202 7.33576 4.76434 7.07008L6.25741 6.23022" stroke="currentColor" stroke-width="2" stroke-linecap="round" stroke-linejoin="round"/><path d="M9.82129 4.22571L11.265 3.41365C11.7216 3.1568 12.2791 3.1568 12.7358 3.41364L14.1794 4.22571" stroke="currentColor" stroke-width="2" stroke-linecap="round" stroke-linejoin="round"/><path d="M11.9996 12V14M11.9996 12L10.2676 11M11.9996 12L13.7317 11" stroke="currentColor" stroke-width="2" stroke-linecap="round" stroke-linejoin="round"/></svg>
