<svg xmlns="http://www.w3.org/2000/svg" viewBox="0 0 24 24" fill="none"><path d="M6.70694 14.7929C6.31641 15.1834 5.68325 15.1834 5.29272 14.7929L2.45696 11.9571C2.06643 11.5666 2.06643 10.9334 2.45696 10.5429L9.70694 3.29289C9.89447 3.10536 10.1488 3 10.414 3L14.0857 3C14.3509 3 14.6052 3.10536 14.7928 3.29289L15.7927 4.29286C16.1832 4.68338 16.1832 5.31655 15.7927 5.70707L6.70694 14.7929Z" stroke="currentColor" stroke-width="2" stroke-linecap="round" stroke-linejoin="round"/><path d="M9.5 12.5L16.3358 19.3358C17.1168 20.1168 18.3832 20.1168 19.1642 19.3358L19.3358 19.1642C20.1168 18.3832 20.1168 17.1168 19.3358 16.3358L12.5 9.5" stroke="currentColor" stroke-width="2" stroke-linecap="round" stroke-linejoin="round"/></svg>
