<svg xmlns="http://www.w3.org/2000/svg" viewBox="0 0 24 24" fill="none"><path d="M6 8C6 4.68629 8.68629 2 12 2C15.3137 2 18 4.68629 18 8V9.5V14C18 15.6569 16.6569 17 15 17H9C7.34315 17 6 15.6569 6 14V8Z" stroke="currentColor" stroke-width="2" stroke-linecap="square" stroke-linejoin="round"/><path d="M10 17H14V20C14 21.1046 13.1046 22 12 22C10.8954 22 10 21.1046 10 20V17Z" stroke="currentColor" stroke-width="2" stroke-linecap="square"/><path d="M18 9.5C18 9.5 16.4011 10.9302 15.2202 11.2791C13.0058 11.9334 11.6619 10.0697 9.6579 10.3242C8.31187 10.4952 6.85028 11.6707 6 12.7298" stroke="currentColor" stroke-width="2" stroke-linecap="round"/></svg>
