<svg xmlns="http://www.w3.org/2000/svg" viewBox="0 0 24 24" fill="none"><path d="M15 11V13" stroke="currentColor" stroke-width="2" stroke-linecap="round" stroke-linejoin="round"/><path d="M9 11V13" stroke="currentColor" stroke-width="2" stroke-linecap="round" stroke-linejoin="round"/><path d="M10 17H14" stroke="currentColor" stroke-width="2" stroke-linecap="round" stroke-linejoin="round"/><path d="M9 5V4C9 2.89543 9.89543 2 11 2H13C14.1046 2 15 2.89543 15 4V5" stroke="currentColor" stroke-width="2" stroke-linejoin="round"/><path d="M18 5H6C4.89543 5 4 5.89543 4 7V8C4 9.65685 5.34315 11 7 11H17C18.6569 11 20 9.65685 20 8V7C20 5.89543 19.1046 5 18 5Z" stroke="currentColor" stroke-width="2" stroke-linejoin="round"/><path d="M5 10.5V18C5 19.6569 6.34315 21 8 21H16C17.6569 21 19 19.6569 19 18V10.5" stroke="currentColor" stroke-width="2"/></svg>
