<svg xmlns="http://www.w3.org/2000/svg" viewBox="0 0 24 24" fill="none"><path d="M7.00095 11.7L5.78405 5.14747C5.66054 4.4824 5.0803 4 4.40386 4C3.59064 4 2.94756 4.68884 3.00338 5.50014L3.61649 14.4118C3.83296 17.5583 6.44846 20 9.60234 20H11.501C13.7043 20 15.779 18.9626 17.101 17.2L21.001 12L20.74 11.7391C19.7288 10.7279 18.1445 10.571 16.9546 11.3642L16.001 12M10.001 11.5V8.5C10.001 7.67157 9.32938 7 8.50095 7C7.67252 7 7.00095 7.67157 7.00095 8.5V11.5C7.00095 12.3284 7.67252 13 8.50095 13C9.32938 13 10.001 12.3284 10.001 11.5ZM10.001 11.5V9C10.001 8.17157 10.6725 7.5 11.501 7.5C12.3294 7.5 13.001 8.17157 13.001 9V11.5M10.001 11.5C10.001 12.3284 10.6725 13 11.501 13C12.3294 13 13.001 12.3284 13.001 11.5M13.001 11.5V9.5C13.001 8.67157 13.6725 8 14.501 8C15.3294 8 16.001 8.67157 16.001 9.5V11.5C16.001 12.3284 15.3294 13 14.501 13C13.6725 13 13.001 12.3284 13.001 11.5Z" stroke="currentColor" stroke-width="2" stroke-linejoin="round"/></svg>
