<svg xmlns="http://www.w3.org/2000/svg" viewBox="0 0 24 24" fill="none"><path d="M3 12C3 16.6944 7.02944 20.5 12 20.5C14.8273 20.5 11 18 12 16C13.6125 12.7751 21 18.9062 21 12C21 7.30558 16.9706 3.5 12 3.5C7.02944 3.5 3 7.30558 3 12Z" stroke="currentColor" stroke-width="2" stroke-linecap="square"/><path d="M7.5 10.75C8.32843 10.75 9 11.4216 9 12.25C9 13.0784 8.32843 13.75 7.5 13.75C6.67157 13.75 6 13.0784 6 12.25C6 11.4216 6.67157 10.75 7.5 10.75Z" fill="currentColor"/><path d="M15.5 8C16.3284 8 17 8.67157 17 9.5C17 10.3284 16.3284 11 15.5 11C14.6716 11 14 10.3284 14 9.5C14 8.67157 14.6716 8 15.5 8Z" fill="currentColor"/><path d="M10.5 6.5C11.3284 6.5 12 7.17157 12 8C12 8.82843 11.3284 9.5 10.5 9.5C9.67157 9.5 9 8.82843 9 8C9 7.17157 9.67157 6.5 10.5 6.5Z" fill="currentColor"/></svg>
