<svg xmlns="http://www.w3.org/2000/svg" viewBox="0 0 24 24" fill="none"><path d="M4 6.5V6.5C4 5.11929 5.11929 4 6.5 4H14.5882C15.3679 4 16 4.63207 16 5.41176V9M4 6.5V6.5C4 7.88071 5.11929 9 6.5 9H16M4 6.5V10.5M16 9H17C18.6569 9 20 10.3431 20 12V17C20 18.6569 18.6569 20 17 20H13" stroke="currentColor" stroke-width="2" stroke-linecap="round" stroke-linejoin="round"/><path d="M6 13.75L9 15.5V19L6 20.75L3 19V15.5L6 13.75Z" stroke="currentColor" stroke-width="2" stroke-linecap="round" stroke-linejoin="round"/><path d="M15.5 14.5H15.51M15.75 14.5C15.75 14.6381 15.6381 14.75 15.5 14.75C15.3619 14.75 15.25 14.6381 15.25 14.5C15.25 14.3619 15.3619 14.25 15.5 14.25C15.6381 14.25 15.75 14.3619 15.75 14.5Z" stroke="currentColor" stroke-width="2" stroke-linecap="round"/></svg>
