<svg xmlns="http://www.w3.org/2000/svg" viewBox="0 0 24 24" fill="none"><path d="M22 12C22 14.7614 17.5228 17 12 17C6.47715 17 2 14.7614 2 12C2 9.23858 6.47715 7 12 7C17.5228 7 22 9.23858 22 12Z" stroke="currentColor" stroke-width="2" stroke-linecap="round" stroke-linejoin="round"/><path d="M20 10.5C20 12.433 16.4183 14 12 14C7.58172 14 4 12.433 4 10.5C4 8.567 7.58172 7 12 7C16.4183 7 20 8.567 20 10.5Z" stroke="currentColor" stroke-width="2" stroke-linecap="round" stroke-linejoin="round"/><path d="M3 6.22729C5.11079 4.98076 7.90381 4.16838 11 4.02344M13 19.9768C16.0962 19.8319 18.8892 19.0195 21 17.773" stroke="currentColor" stroke-width="2" stroke-linecap="round" stroke-linejoin="round"/></svg>
