<svg xmlns="http://www.w3.org/2000/svg" viewBox="0 0 24 24" fill="none"><path d="M9 6.5C9 7.88071 7.88071 9 6.5 9C5.11929 9 4 7.88071 4 6.5C4 5.11929 5.11929 4 6.5 4C7.88071 4 9 5.11929 9 6.5Z" stroke="currentColor" stroke-width="2" stroke-linecap="round" stroke-linejoin="round"/><path d="M9 17.5C9 18.8807 7.88071 20 6.5 20C5.11929 20 4 18.8807 4 17.5C4 16.1193 5.11929 15 6.5 15C7.88071 15 9 16.1193 9 17.5Z" stroke="currentColor" stroke-width="2" stroke-linecap="round" stroke-linejoin="round"/><path d="M15.5 4.5L13.5 6.5L15.5 8.5" stroke="currentColor" stroke-width="2" stroke-linecap="round" stroke-linejoin="round"/><path d="M14.5 6.5H17C18.6569 6.5 20 7.84315 20 9.5V14.5C20 16.1569 18.6569 17.5 17 17.5H14" stroke="currentColor" stroke-width="2" stroke-linecap="round" stroke-linejoin="round"/></svg>
