<svg xmlns="http://www.w3.org/2000/svg" viewBox="0 0 24 24" fill="none"><path d="M19 9.05V6C19 4.34315 17.6569 3 16 3H8C6.34315 3 5 4.34315 5 6V13.95M19 14V19.9948C19 20.8047 18.0876 21.2787 17.425 20.813L13.7251 18.2125C12.6901 17.485 11.3099 17.485 10.2749 18.2125L6.57503 20.813C5.91243 21.2787 5 20.8047 5 19.9948V19" stroke="currentColor" stroke-width="2" stroke-linecap="round"/><path d="M1.66965 14.0561C1.14837 14.2386 0.873694 14.8091 1.05614 15.3304C1.23859 15.8516 1.80907 16.1263 2.33035 15.9439L1.66965 14.0561ZM22.3304 8.94386C22.8516 8.76141 23.1263 8.19093 22.9439 7.66965C22.7614 7.14837 22.1909 6.87369 21.6696 7.05614L22.3304 8.94386ZM2.33035 15.9439L22.3304 8.94386L21.6696 7.05614L1.66965 14.0561L2.33035 15.9439Z" fill="currentColor"/></svg>
