<svg xmlns="http://www.w3.org/2000/svg" viewBox="0 0 24 24" fill="none"><path d="M10.5939 4.8906L9.76189 5.4453L9.76189 5.4453L10.5939 4.8906ZM11.4065 6.1094L12.2385 5.5547V5.5547L11.4065 6.1094ZM14.0002 18C13.4479 18 13.0002 18.4477 13.0002 19C13.0002 19.5523 13.4479 20 14.0002 20V18ZM2.0002 7C2.0002 7.55228 2.44792 8 3.0002 8C3.55249 8 4.0002 7.55228 4.0002 7H2.0002ZM2.64314 18.8242L3.48179 19.3689H3.48179L2.64314 18.8242ZM9.35719 18.8242L10.1958 18.2795V18.2795L9.35719 18.8242ZM6.0002 5H8.92984V3H6.0002V5ZM9.76189 5.4453L10.5744 6.6641L12.2385 5.5547L11.426 4.3359L9.76189 5.4453ZM13.0706 8H18.0002V6H13.0706V8ZM20.0002 10V16H22.0002V10H20.0002ZM14.0002 20H18.0002V18H14.0002V20ZM20.0002 16C20.0002 17.1046 19.1048 18 18.0002 18V20C20.2093 20 22.0002 18.2091 22.0002 16H20.0002ZM18.0002 8C19.1048 8 20.0002 8.89543 20.0002 10H22.0002C22.0002 7.79086 20.2093 6 18.0002 6V8ZM10.5744 6.6641C11.1308 7.4987 12.0675 8 13.0706 8V6C12.7362 6 12.424 5.8329 12.2385 5.5547L10.5744 6.6641ZM8.92984 5C9.26419 5 9.57642 5.1671 9.76189 5.4453L11.426 4.3359C10.8696 3.5013 9.9329 3 8.92984 3V5ZM6.0002 3C3.79107 3 2.0002 4.79086 2.0002 7H4.0002C4.0002 5.89543 4.89564 5 6.0002 5V3ZM6.75021 12.5C6.75021 12.9142 6.41442 13.25 6.0002 13.25V15.25C7.51899 15.25 8.75021 14.0188 8.75021 12.5H6.75021ZM6.0002 13.25C5.58599 13.25 5.2502 12.9142 5.2502 12.5H3.2502C3.2502 14.0188 4.48142 15.25 6.0002 15.25V13.25ZM5.2502 12.5C5.2502 12.0858 5.58599 11.75 6.0002 11.75V9.75C4.48142 9.75 3.2502 10.9812 3.2502 12.5H5.2502ZM6.0002 11.75C6.41442 11.75 6.75021 12.0858 6.75021 12.5H8.75021C8.75021 10.9812 7.51899 9.75 6.0002 9.75V11.75ZM3.48179 19.3689C4.01828 18.5428 4.94611 18 6.00016 18V16C4.24068 16 2.69421 16.9096 1.80449 18.2795L3.48179 19.3689ZM6.00016 18C7.05421 18 7.98205 18.5428 8.51854 19.3689L10.1958 18.2795C9.30612 16.9096 7.75965 16 6.00016 16V18ZM8.58417 19H3.41615V21H8.58417V19ZM8.51854 19.3689C8.5006 19.3412 8.47633 19.2822 8.47905 19.2043C8.48158 19.1315 8.50624 19.0784 8.52696 19.0484C8.56368 18.9954 8.59342 19 8.58417 19V21C9.22836 21 9.82256 20.6907 10.1714 20.1868C10.5397 19.6546 10.6121 18.9204 10.1958 18.2795L8.51854 19.3689ZM1.80449 18.2795C1.38826 18.9204 1.46058 19.6546 1.82892 20.1868C2.17776 20.6907 2.77197 21 3.41615 21V19C3.40691 19 3.43665 18.9954 3.47337 19.0484C3.49408 19.0784 3.51874 19.1315 3.52128 19.2043C3.52399 19.2822 3.49973 19.3412 3.48179 19.3689L1.80449 18.2795Z" fill="currentColor"/></svg>
