<svg xmlns="http://www.w3.org/2000/svg" viewBox="0 0 24 24" fill="none"><path d="M17.4453 17C17.4453 18.6569 16.1022 20 14.4453 20C12.7885 20 11.4453 18.6569 11.4453 17C11.4453 15.3431 12.7885 14 14.4453 14C16.1022 14 17.4453 15.3431 17.4453 17Z" stroke="currentColor" stroke-width="2" stroke-linejoin="round"/><path d="M4.70307 7.13196L10.0104 11.5853L3.5 13.9549L4.70307 7.13196Z" stroke="currentColor" stroke-width="2" stroke-linejoin="round"/><path d="M14.0465 6.16481C14.4038 4.83115 15.7747 4.03969 17.1084 4.39705L18.0743 4.65587C19.4079 5.01322 20.1994 6.38406 19.842 7.71773L19.5832 8.68365C19.2259 10.0173 17.855 10.8088 16.5214 10.4514L15.5554 10.1926C14.2218 9.83525 13.4303 8.46441 13.7877 7.13074L14.0465 6.16481Z" stroke="currentColor" stroke-width="2" stroke-linejoin="round"/></svg>
