<svg xmlns="http://www.w3.org/2000/svg" viewBox="0 0 24 24" fill="none"><path d="M13.5965 7.9414C13.779 8.73541 13.9046 9.77659 13.9408 10.9147C14.0583 14.6141 13.2296 19.3372 10.3281 19.9217C6.54656 20.6833 7.98742 15.6819 9.3942 13.9315C9.65506 13.607 9.91118 13.3091 10.1625 13.0376C7.88493 10.8714 5.32044 6.58312 8.46035 4.44715C10.6616 2.94968 13.0341 5.49333 13.5965 7.9414Z" stroke="currentColor" stroke-width="2" stroke-linecap="round"/><path d="M2 17H22" stroke="currentColor" stroke-width="2" stroke-linecap="round"/><path d="M2 11L3.5 12.5L5 14" stroke="currentColor" stroke-width="2" stroke-linecap="round" stroke-linejoin="round"/><path d="M5 11L3.5 12.5L2 14" stroke="currentColor" stroke-width="2" stroke-linecap="round" stroke-linejoin="round"/><path d="M21.9996 14.0002H20.6001C19.4996 14.0002 20.5444 11.9056 19.6662 11.4358C18.7331 10.9367 17.6757 15.9313 16.8647 13.9317C16.1014 12.0501 15.1199 11.0231 13.9404 10.9148C12.846 10.8144 11.5811 11.505 10.1621 13.0378C10.5459 13.4029 10.9215 13.7076 11.2604 13.9317" stroke="currentColor" stroke-width="2" stroke-linecap="round"/></svg>
