<svg xmlns="http://www.w3.org/2000/svg" viewBox="0 0 24 24" fill="none"><g clip-path="url(#clip0_13682_26374)"><path d="M8.99694 8.44434C5.62048 9.71794 3.16783 12.8953 3 16.9443M15.0031 8.44434C18.3795 9.71794 20.8322 12.8953 21 16.9443" stroke="currentColor" stroke-width="2" stroke-linecap="round" stroke-linejoin="round"/><circle cx="12" cy="8" r="3" stroke="currentColor" stroke-width="2"/><path d="M9 8H2.5" stroke="currentColor" stroke-width="2" stroke-linecap="square"/><path d="M15 8H21.5" stroke="currentColor" stroke-width="2" stroke-linecap="square"/><path d="M3.20711 5.95711C2.81658 5.56658 2.18342 5.56658 1.79289 5.95711L0.457107 7.29289C0.0665825 7.68342 0.0665832 8.31658 0.457107 8.70711L1.79289 10.0429C2.18342 10.4334 2.81658 10.4334 3.20711 10.0429L4.54289 8.70711C4.93342 8.31658 4.93342 7.68342 4.54289 7.29289L3.20711 5.95711Z" fill="currentColor"/><path d="M22.2071 5.95711C21.8166 5.56658 21.1834 5.56658 20.7929 5.95711L19.4571 7.29289C19.0666 7.68342 19.0666 8.31658 19.4571 8.70711L20.7929 10.0429C21.1834 10.4334 21.8166 10.4334 22.2071 10.0429L23.5429 8.70711C23.9334 8.31658 23.9334 7.68342 23.5429 7.29289L22.2071 5.95711Z" fill="currentColor"/></g><defs><clipPath id="clip0_13682_26374"><rect width="24" height="24" fill="white"/></clipPath></defs></svg>
