<svg xmlns="http://www.w3.org/2000/svg" viewBox="0 0 24 24" fill="none"><path d="M9 7C9 8.65685 7.65685 10 6 10C4.34315 10 3 8.65685 3 7C3 5.34315 4.34315 4 6 4C7.65685 4 9 5.34315 9 7Z" stroke="currentColor" stroke-width="2" stroke-linejoin="round"/><path d="M9 17C9 18.6569 7.65685 20 6 20C4.34315 20 3 18.6569 3 17C3 15.3431 4.34315 14 6 14C7.65685 14 9 15.3431 9 17Z" stroke="currentColor" stroke-width="2" stroke-linejoin="round"/><path d="M21.5 8.00001L12 11.931V10.4195C12 9.24936 12.6804 8.18599 13.7428 7.69563L16.7787 6.29447C17.8301 5.80922 19.0668 5.97238 19.9564 6.71368L21.5 8.00001Z" stroke="currentColor" stroke-width="2" stroke-linejoin="round"/><path d="M12 13.5804V12.0688L21.5 15.9999L19.9564 17.2862C19.0668 18.0275 17.8301 18.1907 16.7787 17.7054L13.7428 16.3043C12.6804 15.8139 12 14.7505 12 13.5804Z" stroke="currentColor" stroke-width="2" stroke-linejoin="round"/><path d="M7 14.0001L11.8333 12.0001L12 11.9312V12.0691" stroke="currentColor" stroke-width="2" stroke-linejoin="round"/><path d="M12 12.069L11.8333 12L7 10" stroke="currentColor" stroke-width="2" stroke-linejoin="round"/></svg>
