<svg xmlns="http://www.w3.org/2000/svg" viewBox="0 0 24 24" fill="none"><path d="M11.9967 3C13.3467 5.48495 13.3467 9.51506 11.9967 12C9.16977 12.0739 5.68007 14.088 4.20312 16.5" stroke="currentColor" stroke-width="2" stroke-linecap="round" stroke-linejoin="round"/><path d="M12 12C13.4769 14.412 16.9671 16.4261 19.794 16.5" stroke="currentColor" stroke-width="2" stroke-linecap="round" stroke-linejoin="round"/><path d="M7.50391 13.4343C9.20633 16.2139 12.4047 18.6922 15.8161 20.1427" stroke="currentColor" stroke-width="2" stroke-linecap="round" stroke-linejoin="round"/><path d="M3.04297 11.1531C6.03097 8.96274 9.75793 7.47158 13.0065 7.38727" stroke="currentColor" stroke-width="2" stroke-linecap="round" stroke-linejoin="round"/><path d="M15.4922 15.1784C17.0478 12.3145 17.5982 8.30999 17.1558 4.62946" stroke="currentColor" stroke-width="2" stroke-linecap="round" stroke-linejoin="round"/><path d="M21 12C21 16.9706 16.9706 21 12 21C7.02944 21 3 16.9706 3 12C3 7.02944 7.02944 3 12 3C16.9706 3 21 7.02944 21 12Z" stroke="currentColor" stroke-width="2"/></svg>
