<svg xmlns="http://www.w3.org/2000/svg" viewBox="0 0 24 24" fill="none"><path d="M3 15V17C3 18.6569 4.34315 20 6 20H10C11.6569 20 13 18.6569 13 17V15" stroke="currentColor" stroke-width="2" stroke-linecap="round" stroke-linejoin="round"/><path d="M9.75016 10.5L10.2305 13.3821C10.3861 14.3157 11.1939 15 12.1404 15C13.5101 15 14.4468 13.6165 13.9381 12.3447L13.6288 11.5715C13.2491 10.6224 12.3298 10 11.3076 10H4.69274C3.67048 10 2.75121 10.6224 2.37155 11.5715L2.06227 12.3447C1.55354 13.6165 2.49019 15 3.85997 15C4.80645 15 5.61421 14.3157 5.76981 13.3821L6.25016 10.5" stroke="currentColor" stroke-width="2" stroke-linecap="round" stroke-linejoin="round"/><path d="M9.75018 10.5L10.0892 12.534C10.3043 13.8249 9.30886 15 8.00018 15C6.69149 15 5.69603 13.8249 5.91118 12.534L6.25018 10.5" stroke="currentColor" stroke-width="2" stroke-linecap="round" stroke-linejoin="round"/><path d="M18.089 6.53394C18.2443 7.46576 17.7688 8.33727 17 8.74998" stroke="currentColor" stroke-width="2" stroke-linecap="round" stroke-linejoin="round"/><path d="M21 9V11C21 12.6569 19.6569 14 18 14" stroke="currentColor" stroke-width="2" stroke-linecap="round" stroke-linejoin="round"/><path d="M17.7502 4.5L18.2306 7.38212C18.3862 8.31573 19.1939 9 20.1404 9C21.5102 9 22.4468 7.61654 21.9381 6.34474L21.7545 5.88583C21.2989 4.74685 20.1958 4 18.9691 4H13.0313C11.8046 4 10.7015 4.74685 10.2459 5.88583L10.2002 6M14.0002 6L14.2502 4.5" stroke="currentColor" stroke-width="2" stroke-linecap="round" stroke-linejoin="round"/></svg>
