<svg xmlns="http://www.w3.org/2000/svg" viewBox="0 0 24 24" fill="none"><path d="M7 7H6C4.34315 7 3 8.34315 3 10V17C3 18.6569 4.34315 20 6 20H20M7 7L3 3M7 7L20 20M20 20L21 21M9.5 4H12.8944C13.8975 4 14.8342 4.5013 15.3906 5.3359L15.6298 5.69472C16.1735 6.51019 17.0887 7 18.0688 7C19.6876 7 21 8.31236 21 9.93124V15M10 10.7639C9.38625 11.3132 9 12.1115 9 13C9 14.6569 10.3431 16 12 16C12.8885 16 13.6868 15.6138 14.2361 15" stroke="currentColor" stroke-width="2" stroke-linecap="round" stroke-linejoin="round"/></svg>
