<svg xmlns="http://www.w3.org/2000/svg" viewBox="0 0 24 24" fill="none"><path d="M7 19C4.23858 19 2 16.7614 2 14C2 11.4673 3.88316 9.37436 6.32568 9.04508C7.13649 6.69118 9.37075 5 12 5C15.3137 5 18 7.68629 18 11C20.2091 11 22 12.7909 22 15C22 17.2091 20.2091 19 18 19H7Z" stroke="currentColor" stroke-width="2" stroke-linecap="round" stroke-linejoin="round"/><path d="M12 11.249V12.107C12 12.5429 12.5189 12.7701 12.8391 12.4744L14.852 10.6164C15.0665 10.4184 15.0665 10.0796 14.852 9.88161L12.8391 8.0236C12.5189 7.72795 12 7.95512 12 8.391V9.24901C10.067 9.24901 8.5 10.816 8.5 12.749C8.5 14.682 10.067 16.249 12 16.249C13.1457 16.249 14.1629 15.6974 14.7997 14.8496C15.1314 14.408 15.0423 13.7811 14.6008 13.4494C14.1592 13.1178 13.5323 13.2068 13.2006 13.6484C12.9253 14.015 12.4901 14.249 12 14.249C11.1716 14.249 10.5 13.5774 10.5 12.749C10.5 11.9206 11.1716 11.249 12 11.249Z" fill="currentColor"/></svg>
