<svg xmlns="http://www.w3.org/2000/svg" viewBox="0 0 24 24" fill="none"><path d="M7.5 12.4998L13 6.99981C14.1046 5.89524 15.8954 5.89524 17 6.99981C18.1046 8.10438 18.1046 9.89524 17 10.9998L11.5 16.4998" stroke="currentColor" stroke-width="2" stroke-linecap="round" stroke-linejoin="round"/><path d="M7 17L5 19" stroke="currentColor" stroke-width="2" stroke-linecap="round" stroke-linejoin="round"/><path d="M5.7497 8.75019L4.41391 7.4144C3.63286 6.63335 3.63286 5.36702 4.41391 4.58597L6.08548 2.9144C6.86653 2.13335 8.13286 2.13335 8.91391 2.9144L10.2497 4.25019M5.7497 8.75019L8.4997 11.5002M5.7497 8.75019L10.2497 4.25019M10.2497 4.25019L12.9997 7.00019" stroke="currentColor" stroke-width="2" stroke-linecap="round" stroke-linejoin="round"/><path d="M15.25 18.25L16.5858 19.5858C17.3668 20.3668 18.6332 20.3668 19.4142 19.5858L21.0858 17.9142C21.8668 17.1332 21.8668 15.8668 21.0858 15.0858L19.75 13.75M15.25 18.25L12.5 15.5M15.25 18.25L19.75 13.75M19.75 13.75L17 11" stroke="currentColor" stroke-width="2" stroke-linecap="round" stroke-linejoin="round"/><path d="M9.82873 19.8282C11.3908 18.2661 11.3908 15.7335 9.82873 14.1714C8.26663 12.6093 5.73397 12.6093 4.17188 14.1714L9.82873 19.8282Z" stroke="currentColor" stroke-width="2" stroke-linecap="round" stroke-linejoin="round"/></svg>
