<svg xmlns="http://www.w3.org/2000/svg" viewBox="0 0 24 24" fill="none"><path d="M17 7V6C17 4.34315 15.6569 3 14 3H6C4.34315 3 3 4.34315 3 6V14C3 15.6569 4.34315 17 6 17H7" stroke="currentColor" stroke-width="2" stroke-linecap="round" stroke-linejoin="round"/><path d="M21 10C21 8.34315 19.6569 7 18 7H10C8.34315 7 7 8.34315 7 10V18C7 19.6569 8.34315 21 10 21H18C19.6569 21 21 19.6569 21 18V10Z" stroke="currentColor" stroke-width="2" stroke-linecap="round" stroke-linejoin="round"/><path d="M16 12.5C16 13.6046 15.1046 14.5 14 14.5C12.8954 14.5 12 13.6046 12 12.5C12 11.3954 12.8954 10.5 14 10.5C15.1046 10.5 16 11.3954 16 12.5Z" stroke="currentColor" stroke-width="2" stroke-linecap="round" stroke-linejoin="round"/><path d="M9.52734 21C9.77607 18.75 11.6836 17 13.9999 17C16.3162 17 18.2237 18.75 18.4724 21" stroke="currentColor" stroke-width="2" stroke-linecap="round" stroke-linejoin="round"/></svg>
