<svg xmlns="http://www.w3.org/2000/svg" viewBox="0 0 24 24" fill="none"><path d="M20 16H21C21 15.4477 20.5523 15 20 15V16ZM19.8978 17.7765L18.9319 17.5176L19.8978 17.7765ZM17.7765 19.8978L17.5176 18.9319L17.7765 19.8978ZM6.22354 19.8978L6.48236 18.9319L6.22354 19.8978ZM4.10222 17.7765L5.06815 17.5176L4.10222 17.7765ZM4 16V15C3.44772 15 3 15.4477 3 16H4ZM20 16H19C19 16.9944 18.9914 17.2954 18.9319 17.5176L19.8978 17.7765L20.8637 18.0353C21.0086 17.4946 21 16.8656 21 16H20ZM17.7765 19.8978L18.0353 20.8637C19.4156 20.4938 20.4938 19.4156 20.8637 18.0353L19.8978 17.7765L18.9319 17.5176C18.7469 18.2078 18.2078 18.7469 17.5176 18.9319L17.7765 19.8978ZM16 20V21C16.8656 21 17.4946 21.0086 18.0353 20.8637L17.7765 19.8978L17.5176 18.9319C17.2954 18.9914 16.9944 19 16 19V20ZM16 20V19H8V20V21H16V20ZM8 20V19C7.00565 19 6.70464 18.9914 6.48236 18.9319L6.22354 19.8978L5.96472 20.8637C6.50545 21.0086 7.13441 21 8 21V20ZM6.22354 19.8978L6.48236 18.9319C5.79218 18.7469 5.25308 18.2078 5.06815 17.5176L4.10222 17.7765L3.1363 18.0353C3.50617 19.4156 4.58436 20.4938 5.96472 20.8637L6.22354 19.8978ZM4 16H3C3 16.8656 2.99141 17.4946 3.1363 18.0353L4.10222 17.7765L5.06815 17.5176C5.00859 17.2954 5 16.9944 5 16H4ZM4 16V17H20V16V15H4V16Z" fill="currentColor"/><path d="M3 14C3 12.8954 3.89543 12 5 12H19C20.1046 12 21 12.8954 21 14C21 15.1046 20.1046 16 19 16H5C3.89543 16 3 15.1046 3 14Z" stroke="currentColor" stroke-width="2" stroke-linecap="square" stroke-linejoin="round"/><path d="M20 11C20 5.48645 14.618 4 12 4C9.38199 4 4 5.48645 4 11C4 11.5523 4.44772 12 5 12H19C19.5523 12 20 11.5523 20 11Z" stroke="currentColor" stroke-width="2" stroke-linecap="square" stroke-linejoin="round"/></svg>
