<svg xmlns="http://www.w3.org/2000/svg" viewBox="0 0 24 24" fill="none"><circle cx="5" cy="19" r="2" stroke="currentColor" stroke-width="2"/><path d="M15.4466 4.26348C15.7665 4.7134 16.3132 5.02054 16.8649 5.00224C16.9098 5.00075 16.9548 5 17 5C19.2091 5 21 6.79086 21 9C21 10.4878 20.1877 11.786 18.9823 12.475C18.7713 12.5957 18.5957 12.7713 18.475 12.9823C17.786 14.1877 16.4878 15 15 15C14.5703 15 14.1564 14.9322 13.7685 14.8068C13.1797 14.6165 12.4707 14.8104 12.0118 15.2255C11.4796 15.7069 10.774 16 10 16C8.34315 16 7 14.6569 7 13C7 12.6925 6.86006 12.394 6.6134 12.2103C5.63422 11.4812 5 10.3147 5 9C5 6.79086 6.79086 5 9 5C9.0452 5 9.09023 5.00075 9.13506 5.00224C9.68683 5.02054 10.2335 4.7134 10.5534 4.26348C11.0971 3.49882 11.9903 3 13 3C14.0097 3 14.9029 3.49882 15.4466 4.26348Z" stroke="currentColor" stroke-width="2" stroke-linejoin="round"/></svg>
