<svg xmlns="http://www.w3.org/2000/svg" viewBox="0 0 24 24" fill="none"><path d="M9 10C7.067 10 5.5 8.433 5.5 6.5C5.5 4.567 7.067 3 9 3C10.933 3 12.5 4.567 12.5 6.5C12.5 8.433 10.933 10 9 10Z" stroke="currentColor" stroke-width="2" stroke-linecap="round" stroke-linejoin="round"/><path d="M15 3C16.933 3 18.5 4.567 18.5 6.5C18.5 8.433 16.933 10 15 10" stroke="currentColor" stroke-width="2" stroke-linecap="round" stroke-linejoin="round"/><path d="M9.00046 13C5.75801 13 2.9661 14.6879 1.70973 17.1143C0.947894 18.5856 2.3436 20 4.00046 20H14.0005C15.6573 20 17.053 18.5856 16.2912 17.1143C15.0348 14.6879 12.2429 13 9.00046 13Z" stroke="currentColor" stroke-width="2" stroke-linecap="round" stroke-linejoin="round"/><path d="M18 13.5088C20.0779 14.2448 21.722 15.7225 22.5034 17.5667C23.0421 18.838 21.8807 20 20.5 20" stroke="currentColor" stroke-width="2" stroke-linecap="round" stroke-linejoin="round"/></svg>
