<svg xmlns="http://www.w3.org/2000/svg" viewBox="0 0 24 24" fill="none"><path d="M20 17V10.3299C20 9.48304 19.6421 8.67563 19.0146 8.10694L14.0146 3.57569C12.8713 2.53964 11.1287 2.53964 9.98544 3.57569L4.98544 8.10694C4.35793 8.67563 4 9.48304 4 10.3299V17C4 18.6569 5.34315 20 7 20H9C9.55228 20 10 19.5523 10 19V16C10 14.8954 10.8954 14 12 14C13.1046 14 14 14.8954 14 16V19C14 19.5523 14.4477 20 15 20H17C18.6569 20 20 18.6569 20 17Z" stroke="currentColor" stroke-width="2" stroke-linejoin="round"/></svg>
