<svg xmlns="http://www.w3.org/2000/svg" viewBox="0 0 24 24" fill="none"><path d="M10.501 3.61579C11.4292 3.07989 12.5728 3.07989 13.501 3.61579L18.5117 6.50874C19.4399 7.04464 20.0117 8.03502 20.0117 9.10682V14.8927C20.0117 15.9645 19.4399 16.9549 18.5117 17.4908L13.501 20.3837C12.5728 20.9196 11.4292 20.9196 10.501 20.3837L5.49023 17.4908C4.56203 16.9549 3.99023 15.9645 3.99023 14.8927V9.10682C3.99023 8.03502 4.56203 7.04464 5.49023 6.50874L10.501 3.61579Z" stroke="currentColor" stroke-width="2" stroke-linecap="round" stroke-linejoin="round"/><path d="M11.25 12H12.75M13.5 12C13.5 12.8284 12.8284 13.5 12 13.5C11.1716 13.5 10.5 12.8284 10.5 12C10.5 11.1716 11.1716 10.5 12 10.5C12.8284 10.5 13.5 11.1716 13.5 12Z" stroke="currentColor" stroke-width="2" stroke-linecap="round" stroke-linejoin="round"/></svg>
