<svg xmlns="http://www.w3.org/2000/svg" viewBox="0 0 24 24" fill="none"><path d="M20 15V13C20 11.8954 19.1046 11 18 11C16.8954 11 16 11.8954 16 13V14H8V13C8 11.8954 7.10457 11 6 11C4.89543 11 4 11.8954 4 13V15C4 16.6569 5.34315 18 7 18H17C18.6569 18 20 16.6569 20 15Z" stroke="currentColor" stroke-width="2" stroke-linecap="round" stroke-linejoin="round"/><path d="M18 11V7C18 5.34315 16.6569 4 15 4H9C7.34315 4 6 5.34315 6 7V11" stroke="currentColor" stroke-width="2" stroke-linecap="round" stroke-linejoin="round"/><path d="M6 18V20" stroke="currentColor" stroke-width="2" stroke-linecap="round" stroke-linejoin="round"/><path d="M18 18V20" stroke="currentColor" stroke-width="2" stroke-linecap="round" stroke-linejoin="round"/></svg>
