<svg xmlns="http://www.w3.org/2000/svg" viewBox="0 0 24 24" fill="none"><path d="M16.6428 15.0827L17.2217 8.46582L19.9788 8.70703C21.1969 8.8136 22.098 9.8875 21.9914 11.1056C21.8849 12.3238 20.811 13.2249 19.5928 13.1183L17.3872 12.9253M3.15341 15.6945L2 9.15326L4.72554 8.67267C5.92976 8.46033 7.0781 9.26441 7.29044 10.4686C7.50277 11.6729 6.69869 12.8212 5.49448 13.0335L3.31405 13.418M15.2844 11.9914C15.2844 13.8256 13.7975 15.3125 11.9633 15.3125C10.1291 15.3125 8.6422 13.8256 8.6422 11.9914C8.6422 10.1572 10.1291 8.67028 11.9633 8.67028C13.7975 8.67028 15.2844 10.1572 15.2844 11.9914Z" stroke="currentColor" stroke-width="2" stroke-linecap="round" stroke-linejoin="round"/><path d="M7.51352 17.7743C7.63261 17.4615 8.06033 17.4246 8.23126 17.7124L8.79114 18.655C8.85899 18.7693 8.97912 18.8424 9.11175 18.8501L10.2021 18.9138C10.5308 18.9329 10.6969 19.3189 10.4848 19.5708L9.75966 20.4317C9.67633 20.5306 9.64599 20.6637 9.67821 20.789L9.95906 21.881C10.0418 22.2025 9.71935 22.479 9.41417 22.3483L8.41978 21.9224C8.2964 21.8695 8.15475 21.8821 8.04259 21.9558L7.13786 22.5503C6.85952 22.7333 6.49261 22.5158 6.51949 22.1838L6.61015 21.0641C6.62063 20.9346 6.56762 20.8082 6.46799 20.7249L5.60856 20.0065C5.35643 19.7958 5.45189 19.3878 5.77135 19.3107L6.8405 19.053C6.96882 19.0221 7.07362 18.9298 7.12058 18.8065L7.51352 17.7743Z" fill="currentColor"/><path d="M14.7666 0.71238C14.9376 0.42459 15.3653 0.461505 15.4844 0.774324L15.8773 1.80646C15.9243 1.92982 16.0291 2.02206 16.1574 2.053L17.2265 2.31075C17.546 2.38776 17.6414 2.79577 17.3893 3.00651L16.5299 3.72487C16.4303 3.80816 16.3773 3.93463 16.3877 4.06406L16.4784 5.18378C16.5053 5.51576 16.1384 5.73326 15.86 5.55034L14.9553 4.95576C14.8431 4.88205 14.7015 4.86951 14.5781 4.92235L13.5837 5.34831C13.2785 5.47903 12.9561 5.20253 13.0388 4.88099L13.3197 3.78897C13.3519 3.6637 13.3215 3.53059 13.2382 3.43166L12.5131 2.57075C12.301 2.3189 12.467 1.93294 12.7958 1.91375L13.8861 1.8501C14.0188 1.84236 14.1389 1.76927 14.2067 1.65505L14.7666 0.71238Z" fill="currentColor"/><path d="M9.99894 4.50016C9.99894 5.32859 9.32737 6.00016 8.49894 6.00016C7.67051 6.00016 6.99894 5.32859 6.99894 4.50016C6.99894 3.67173 7.67051 3.00016 8.49894 3.00016C9.32737 3.00016 9.99894 3.67173 9.99894 4.50016Z" fill="currentColor"/><path d="M16.9989 19.5002C16.9989 20.3286 16.3274 21.0002 15.4989 21.0002C14.6705 21.0002 13.9989 20.3286 13.9989 19.5002C13.9989 18.6717 14.6705 18.0002 15.4989 18.0002C16.3274 18.0002 16.9989 18.6717 16.9989 19.5002Z" fill="currentColor"/></svg>
