<svg xmlns="http://www.w3.org/2000/svg" viewBox="0 0 24 24" fill="none"><path d="M11.9996 7C11.9996 8.38071 10.8803 9.5 9.49957 9.5C8.11886 9.5 6.99957 8.38071 6.99957 7C6.99957 5.61929 8.11886 4.5 9.49957 4.5C10.8803 4.5 11.9996 5.61929 11.9996 7Z" stroke="currentColor" stroke-width="2" stroke-linecap="round" stroke-linejoin="round"/><path d="M5.93771 12.9714C4.94969 12.9714 4.11116 13.9797 3.46509 15.1715C2.945 16.131 2.68495 16.6107 2.76393 17.2468C2.82433 17.7333 3.18728 18.3429 3.5862 18.6278C4.10775 19.0004 4.77446 19.0004 6.10787 19.0004H15.6219C17.7942 19.0004 18.8803 19.0004 19.658 18.4517C20.27 18.0199 20.7979 17.1526 20.9003 16.4105C21.0305 15.4677 20.611 14.6566 19.7721 13.0343C18.6718 10.9068 17.5653 9.92007 16.4996 10.0084C13.5228 10.255 12.2161 14.9193 10.4996 14.9193C9.07267 14.9193 7.74101 12.9714 5.93771 12.9714Z" stroke="currentColor" stroke-width="2" stroke-linecap="round" stroke-linejoin="round"/></svg>
