<svg xmlns="http://www.w3.org/2000/svg" viewBox="0 0 24 24" fill="none"><path d="M16 16C16.93 16 17.395 16 17.7765 15.8978C18.8117 15.6204 19.6204 14.8117 19.8978 13.7765C20 13.395 20 12.93 20 12V8.8C20 7.11984 20 6.27976 19.673 5.63803C19.3854 5.07354 18.9265 4.6146 18.362 4.32698C17.7202 4 16.8802 4 15.2 4H12C11.07 4 10.605 4 10.2235 4.10222C9.18827 4.37962 8.37962 5.18827 8.10222 6.22354C8 6.60504 8 7.07003 8 8M16 12.8V15.2C16 16.8802 16 17.7202 15.673 18.362C15.3854 18.9265 14.9265 19.3854 14.362 19.673C13.7202 20 12.8802 20 11.2 20H8.8C7.11984 20 6.27976 20 5.63803 19.673C5.07354 19.3854 4.6146 18.9265 4.32698 18.362C4 17.7202 4 16.8802 4 15.2V12.8C4 11.1198 4 10.2798 4.32698 9.63803C4.6146 9.07354 5.07354 8.6146 5.63803 8.32698C6.27976 8 7.11984 8 8.8 8H11.2C12.8802 8 13.7202 8 14.362 8.32698C14.9265 8.6146 15.3854 9.07354 15.673 9.63803C16 10.2798 16 11.1198 16 12.8Z" stroke="currentColor" stroke-width="2" stroke-linecap="round"/></svg>
