<svg xmlns="http://www.w3.org/2000/svg" viewBox="0 0 24 24" fill="none"><path d="M8.5 11L13.0992 5.14653C13.6679 4.42266 14.5375 4 15.4581 4H19C19.5523 4 20 4.44772 20 5V8.54189C20 9.46248 19.5773 10.3321 18.8535 10.9008L13 15.5" stroke="currentColor" stroke-width="2" stroke-linejoin="round"/><path d="M13.7361 16.7361L7.26393 10.2639C6.85641 9.85641 6.18513 9.89359 5.8251 10.3436C5.03594 11.3301 4.97589 12.7138 5.67663 13.7649L6.04525 14.3179C6.30967 14.7145 6.25738 15.2426 5.92031 15.5797L3.75 17.75C3.05964 18.4404 3.05964 19.5596 3.75 20.25C4.44036 20.9404 5.55964 20.9404 6.25 20.25L8.42031 18.0797C8.75738 17.7426 9.2855 17.6903 9.68212 17.9547L10.2351 18.3234C11.2862 19.0241 12.6699 18.9641 13.6564 18.1749C14.1064 17.8149 14.1436 17.1436 13.7361 16.7361Z" stroke="currentColor" stroke-width="2" stroke-linejoin="round"/></svg>
