<svg xmlns="http://www.w3.org/2000/svg" viewBox="0 0 24 24" fill="none"><path d="M13 3.05469C17.5 3.55213 21 7.3672 21 11.9998C21 16.9703 16.9706 20.9998 12 20.9998C7.02944 20.9998 3 16.9703 3 11.9998C3 8.87934 4.58803 6.12983 7 4.51531" stroke="currentColor" stroke-width="2" stroke-linecap="round" stroke-linejoin="round"/><path d="M13 6.59082C15.5601 7.06108 17.5 9.30406 17.5 12.0001C17.5 15.0377 15.0376 17.5001 12 17.5001C8.96243 17.5001 6.5 15.0377 6.5 12.0001C6.5 11.2945 6.63286 10.62 6.87494 10.0001" stroke="currentColor" stroke-width="2" stroke-linecap="round" stroke-linejoin="round"/><path d="M12.9981 10.2676C13.5959 10.6134 13.9981 11.2597 13.9981 12C13.9981 13.1046 13.1026 14 11.9981 14C11.2578 14 10.6114 13.5978 10.2656 13" stroke="currentColor" stroke-width="2" stroke-linecap="round" stroke-linejoin="round"/></svg>
