<svg xmlns="http://www.w3.org/2000/svg" viewBox="0 0 24 24" fill="none"><path d="M4.00195 7.00002C4.00195 5.34317 5.3451 4.00002 7.00195 4.00002L17.0019 4.00001C18.6588 4 20.002 5.34315 20.002 7V15.0358C20.002 16.6926 18.6588 18.0358 17.002 18.0358L15.3757 18.0358C15.1427 18.0358 14.9171 18.1171 14.7377 18.2657L11.9977 20.5358L9.29398 18.2694C9.11393 18.1185 8.8865 18.0358 8.65157 18.0358H7.00195C5.3451 18.0358 4.00195 16.6926 4.00195 15.0358V7.00002Z" stroke="currentColor" stroke-width="2" stroke-linejoin="round"/><path d="M6.875 11.25C6.875 11.7332 7.26675 12.125 7.75 12.125C8.23325 12.125 8.625 11.7332 8.625 11.25C8.625 10.7668 8.23325 10.375 7.75 10.375C7.26675 10.375 6.875 10.7668 6.875 11.25ZM11.125 11.25C11.125 11.7332 11.5168 12.125 12 12.125C12.4832 12.125 12.875 11.7332 12.875 11.25C12.875 10.7668 12.4832 10.375 12 10.375C11.5168 10.375 11.125 10.7668 11.125 11.25ZM15.375 11.25C15.375 11.7332 15.7668 12.125 16.25 12.125C16.7332 12.125 17.125 11.7332 17.125 11.25C17.125 10.7668 16.7332 10.375 16.25 10.375C15.7668 10.375 15.375 10.7668 15.375 11.25Z" fill="currentColor" stroke="currentColor" stroke-width="0.75" stroke-linecap="square"/></svg>
