<svg xmlns="http://www.w3.org/2000/svg" viewBox="0 0 24 24" fill="none"><path d="M14.5003 11C14.5003 12.2861 13.5292 13.3453 12.2802 13.4845C12.1883 13.4947 12.0949 13.5 12.0003 13.5C11.9055 13.5 11.812 13.4947 11.7199 13.4845C10.4712 13.3451 9.50026 12.2859 9.50026 11C9.50026 10.6447 9.5744 10.3066 9.70804 10.0006C9.7835 9.82774 9.87793 9.6651 9.9887 9.51527C10.444 8.89937 11.1755 8.5 12.0003 8.5C12.825 8.5 13.5564 8.89935 14.0118 9.51524C14.1226 9.66516 14.2171 9.82792 14.2926 10.0009C14.4262 10.3069 14.5003 10.6448 14.5003 11Z" fill="currentColor"/><path d="M9.68026 21L11.0595 13.8657M14.3203 21L12.941 13.866M14.0118 9.51524C13.5564 8.89936 12.825 8.5 12.0003 8.5C11.1755 8.5 10.444 8.89937 9.9887 9.51527M14.0118 9.51524L14.0118 4.97119C14.0118 3.86662 13.1048 2.97119 12.0002 2.97119C10.8957 2.97119 9.9887 3.86662 9.9887 4.97119L9.9887 9.51527M14.0118 9.51524C14.1226 9.66516 14.2171 9.82792 14.2926 10.0009M14.2926 10.0009C14.4262 10.3069 14.5003 10.6448 14.5003 11C14.5003 12.2861 13.5292 13.3453 12.2802 13.4845M14.2926 10.0009L18.2271 12.2725C19.1837 12.8247 19.5057 14.0579 18.9534 15.0145C18.4011 15.9711 17.1722 16.3089 16.2156 15.7566L12.941 13.866M12.2802 13.4845C12.1883 13.4947 12.0949 13.5 12.0003 13.5C11.9055 13.5 11.812 13.4947 11.7199 13.4845M12.2802 13.4845L12.941 13.866M11.7199 13.4845C10.4712 13.3451 9.50026 12.2859 9.50026 11C9.50026 10.6447 9.5744 10.3066 9.70804 10.0006M11.7199 13.4845L11.0595 13.8657M9.70804 10.0006L5.77337 12.2722C4.81679 12.8245 4.49481 14.0577 5.0471 15.0143C5.59938 15.9709 6.82834 16.3086 7.78493 15.7563L11.0595 13.8657M9.70804 10.0006C9.7835 9.82774 9.87793 9.6651 9.9887 9.51527" stroke="currentColor" stroke-width="2" stroke-linecap="round" stroke-linejoin="round"/><path d="M19 21L5 21" stroke="currentColor" stroke-width="2" stroke-linecap="round" stroke-linejoin="round"/></svg>
