<svg xmlns="http://www.w3.org/2000/svg" viewBox="0 0 24 24" fill="none"><path d="M5 17.7453C3.18652 16.4804 2 14.3787 2 12C2 8.13401 5.13401 5 9 5C11.5628 5 13.8039 6.37723 15.0236 8.43195C15.2884 8.87791 15.8167 9.11316 16.3308 9.0444C16.5497 9.01512 16.7731 9 17 9C19.7614 9 22 11.2386 22 14C22 16.0503 20.7659 17.8124 19 18.584" stroke="currentColor" stroke-width="2" stroke-linecap="round" stroke-linejoin="round"/><path d="M14 16L12 18M12 18L10 20M12 18L10 16M12 18L14 20" stroke="currentColor" stroke-width="2" stroke-linecap="round" stroke-linejoin="round"/></svg>
