<svg xmlns="http://www.w3.org/2000/svg" viewBox="0 0 24 24" fill="none"><path d="M22 12.5C22 16.9183 17.5228 20 12 20C6.47715 20 2 16.9183 2 12.5C2 8.08172 6.47715 4 12 4C17.5228 4 22 8.08172 22 12.5Z" stroke="currentColor" stroke-width="2"/><path d="M6 11.5C6 10.3954 6.89543 9.5 8 9.5C8.78703 9.5 9.46788 9.95459 9.7943 10.6155C11.2772 10.3977 12.7228 10.3977 14.2057 10.6155C14.5321 9.95459 15.213 9.5 16 9.5C17.1046 9.5 18 10.3954 18 11.5C18 12.6046 17.1046 13.5 16 13.5C15.016 13.5 14.1979 12.7893 14.0311 11.8533C12.664 11.6518 11.336 11.6518 9.9689 11.8533C9.80206 12.7894 8.98402 13.5 8 13.5C6.89543 13.5 6 12.6046 6 11.5Z" fill="currentColor"/></svg>
