<svg xmlns="http://www.w3.org/2000/svg" viewBox="0 0 24 24" fill="none"><path d="M15.4648 9.99999C15.8052 10.5883 16 11.2714 16 12C16 12.7286 15.8052 13.4117 15.4648 14.0001M4 7.99999H5.2759C5.74377 7.99999 6.19684 7.83596 6.55627 7.53643L10.3598 4.36681C11.0111 3.82403 12 4.28719 12 5.13503V18.8649C12 19.7128 11.0111 20.1759 10.3598 19.6332L6.55627 16.4635C6.19684 16.164 5.74377 16 5.2759 16H4C2.89543 16 2 15.1046 2 14V9.99999C2 8.89542 2.89543 7.99999 4 7.99999Z" stroke="currentColor" stroke-width="2" stroke-linecap="round"/></svg>
