<svg xmlns="http://www.w3.org/2000/svg" viewBox="0 0 24 24" fill="none"><path d="M17 4H7C5.34315 4 4 5.34315 4 7V17C4 18.6569 5.34315 20 7 20H17C18.6569 20 20 18.6569 20 17V7C20 5.34315 18.6569 4 17 4Z" stroke="currentColor" stroke-width="2" stroke-linejoin="round"/><path d="M11.9998 4C11.0971 11.5098 18.5122 7.52589 19.9998 14" stroke="currentColor" stroke-width="2" stroke-linecap="round"/><path d="M4 13.4489C9 9.4999 8.8404 12.9999 11.5 14.9999C13.5362 16.5311 16.5 15.9999 17 19.9999" stroke="currentColor" stroke-width="2" stroke-linecap="round"/><path d="M4 16.612C4.71795 16.2355 5.63401 15.8666 6.69231 16.0473C8.45343 16.348 8.84615 18.8707 11 20" stroke="currentColor" stroke-width="2" stroke-linecap="round"/></svg>
