<svg xmlns="http://www.w3.org/2000/svg" viewBox="0 0 24 24" fill="none"><path d="M12 16C15.866 16 19 12.866 19 9C19 5.13401 15.866 2 12 2C8.13401 2 5 5.13401 5 9C5 12.866 8.13401 16 12 16ZM12 16C13.4872 16 14.8662 15.536 16 14.7451" stroke="currentColor" stroke-width="2" stroke-linejoin="round"/><path d="M16 15.25V20.6318C16 21.3752 15.2177 21.8587 14.5528 21.5262L12.4472 20.4734C12.1657 20.3326 11.8343 20.3326 11.5528 20.4734L9.44721 21.5262C8.78231 21.8586 8 21.3752 8 20.6318V15.25" stroke="currentColor" stroke-width="2" stroke-linejoin="round"/></svg>
