<svg xmlns="http://www.w3.org/2000/svg" viewBox="0 0 24 24" fill="none"><path d="M19.1213 20.1213C17.9497 21.2929 16.0503 21.2929 14.8787 20.1213C13.7071 18.9497 13.7071 17.0503 14.8787 15.8787C16.0503 14.7071 17.9497 14.7071 19.1213 15.8787C20.2929 17.0503 20.2929 18.9497 19.1213 20.1213Z" stroke="currentColor" stroke-width="2" stroke-linecap="round" stroke-linejoin="round"/><path d="M19 11V6C19 4.34315 17.6569 3 16 3H7C5.34315 3 4 4.34315 4 6V18C4 19.6569 5.34315 21 7 21H10.5" stroke="currentColor" stroke-width="2" stroke-linecap="round" stroke-linejoin="round"/><path d="M8 15H9" stroke="currentColor" stroke-width="2" stroke-linecap="round" stroke-linejoin="round"/><path d="M8 7H15" stroke="currentColor" stroke-width="2" stroke-linecap="round" stroke-linejoin="round"/><path d="M8 11H11" stroke="currentColor" stroke-width="2" stroke-linecap="round" stroke-linejoin="round"/><path d="M19.1211 20.1211L20.9998 21.9998" stroke="currentColor" stroke-width="2" stroke-linecap="round" stroke-linejoin="round"/></svg>
