<svg xmlns="http://www.w3.org/2000/svg" viewBox="0 0 24 24" fill="none"><path d="M8.5 11V6.75C8.5 5.7835 7.7165 5 6.75 5C5.7835 5 5 5.7835 5 6.75V14C5 17.866 8.13401 21 12 21C15.866 21 19 17.866 19 14V9C19 8.44772 18.5523 8 18 8V8C16.3431 8 15 9.34315 15 11V11.8377C15 12.2332 14.7469 12.5844 14.3717 12.7094V12.7094C12.9553 13.1816 12 14.507 12 16M8.5 10V4.75C8.5 3.7835 9.2835 3 10.25 3C11.2165 3 12 3.7835 12 4.75V5.75M12 5.75C12 4.7835 12.7835 4 13.75 4C14.7165 4 15.5 4.7835 15.5 5.75V9.3411M12 5.75V9" stroke="currentColor" stroke-width="2" stroke-linecap="round" stroke-linejoin="round"/></svg>
