<svg xmlns="http://www.w3.org/2000/svg" viewBox="0 0 24 24" fill="none"><path d="M17.9847 1.4329C17.9568 1.18651 17.7485 1.00025 17.5005 1C17.2525 0.999747 17.0438 1.18557 17.0154 1.43191C16.838 2.96993 15.9699 3.83801 14.4319 4.01541C14.1856 4.04382 13.9997 4.25253 14 4.5005C14.0003 4.74847 14.1865 4.9568 14.4329 4.9847C15.9491 5.15645 16.8774 6.01617 17.0141 7.55536C17.0365 7.80725 17.2477 8.00028 17.5005 8C17.7534 7.99971 17.9642 7.80621 17.986 7.55426C18.1173 6.03683 19.0368 5.11734 20.5543 4.98599C20.8062 4.96418 20.9997 4.75344 21 4.50055C21.0003 4.24766 20.8073 4.03648 20.5554 4.01411C19.0162 3.87738 18.1564 2.94911 17.9847 1.4329Z" fill="currentColor"/><path d="M3 21V12C3 7.31415 6.58102 3.46471 11.1556 3.03906M21 21V12C21 10.961 20.8239 9.96305 20.5 9.03448" stroke="currentColor" stroke-width="2" stroke-linecap="round" stroke-linejoin="round"/><path d="M14.9231 11H9.07692C7.92987 11 7 11.9299 7 13.0769V15C7 17.7614 9.23858 20 12 20C14.7614 20 17 17.7614 17 15V13.0769C17 11.9299 16.0701 11 14.9231 11Z" stroke="currentColor" stroke-width="2" stroke-linecap="round" stroke-linejoin="round"/></svg>
