<svg xmlns="http://www.w3.org/2000/svg" viewBox="0 0 24 24" fill="none"><circle cx="6.5" cy="6" r="2" stroke="currentColor" stroke-width="2" stroke-linecap="round" stroke-linejoin="round"/><circle cx="6.5" cy="18" r="2" stroke="currentColor" stroke-width="2" stroke-linecap="round" stroke-linejoin="round"/><circle cx="17.5" cy="18" r="2" stroke="currentColor" stroke-width="2" stroke-linecap="round" stroke-linejoin="round"/><path d="M6.5 8V16" stroke="currentColor" stroke-width="2" stroke-linecap="round" stroke-linejoin="round"/><path d="M17.51 6H17.5M18 6C18 6.27614 17.7761 6.5 17.5 6.5C17.2239 6.5 17 6.27614 17 6C17 5.72386 17.2239 5.5 17.5 5.5C17.7761 5.5 18 5.72386 18 6Z" stroke="currentColor" stroke-width="2" stroke-linecap="round" stroke-linejoin="round"/><path d="M17.51 11.25H17.5M18 11.25C18 11.5261 17.7761 11.75 17.5 11.75C17.2239 11.75 17 11.5261 17 11.25C17 10.9739 17.2239 10.75 17.5 10.75C17.7761 10.75 18 10.9739 18 11.25Z" stroke="currentColor" stroke-width="2" stroke-linecap="round" stroke-linejoin="round"/></svg>
