<svg xmlns="http://www.w3.org/2000/svg" viewBox="0 0 24 24" fill="none"><path d="M7.43021 10.0321C7.15369 9.41121 7 8.72355 7 8C7 5.23858 9.23858 3 12 3C14.7614 3 17 5.23858 17 8C17 8.72355 16.8463 9.41121 16.5698 10.0321M7.43021 10.0321C4.93709 10.3149 3 12.4312 3 15C3 17.7614 5.23858 20 8 20C9.6356 20 11.0878 19.2147 12 18.0005M7.43021 10.0321C8.13538 11.6155 9.63934 12.7647 11.4302 12.9679M16.5698 10.0321C16.3828 10.0109 16.1927 10 16 10C14.3644 10 12.9122 10.7853 12 11.9995M16.5698 10.0321C19.0629 10.3149 21 12.4312 21 15C21 17.7614 18.7614 20 16 20C14.3644 20 12.9122 19.2147 12 18.0005M12 11.9995C11.7756 12.2981 11.5839 12.6227 11.4302 12.9679M12 11.9995C12.2244 12.2981 12.4161 12.6227 12.5698 12.9679M11.4302 12.9679C11.6172 12.9891 11.8073 13 12 13C12.1927 13 12.3828 12.9891 12.5698 12.9679M12.5698 12.9679C12.8463 13.5888 13 14.2764 13 15C13 16.1258 12.6279 17.1647 12 18.0005" stroke="currentColor" stroke-width="2"/></svg>
