<svg xmlns="http://www.w3.org/2000/svg" viewBox="0 0 24 24" fill="none"><path d="M15.9982 8C15.9982 7.44772 15.5505 7 14.9982 7C14.4459 7 13.9982 7.44772 13.9982 8H15.9982ZM9.99817 8C9.99817 7.44772 9.55046 7 8.99817 7C8.44589 7 7.99817 7.44772 7.99817 8H9.99817ZM17.7485 15.7919L17.0414 16.499C17.2289 16.6865 17.4833 16.7919 17.7485 16.7919C18.0137 16.7919 18.2681 16.6865 18.4556 16.499L17.7485 15.7919ZM4.82237 6.81287L5.82042 6.87524L4.82237 6.81287ZM4.19737 16.8129L3.19932 16.7505L4.19737 16.8129ZM10.9982 21C11.5505 21 11.9982 20.5523 11.9982 20C11.9982 19.4477 11.5505 19 10.9982 19V21ZM18.4512 11.2795C18.4856 11.8307 18.9604 12.2497 19.5116 12.2152C20.0628 12.1808 20.4817 11.706 20.4473 11.1548L18.4512 11.2795ZM19.174 6.81287L18.1759 6.87524L19.174 6.81287ZM13.9982 8C13.9982 9.10457 13.1027 10 11.9982 10V12C14.2073 12 15.9982 10.2091 15.9982 8H13.9982ZM11.9982 10C10.8936 10 9.99817 9.10457 9.99817 8H7.99817C7.99817 10.2091 9.78903 12 11.9982 12V10ZM17.7485 22.0301C17.9345 22.0301 18.0916 21.9785 18.1346 21.9648C18.2112 21.9402 18.2882 21.91 18.3599 21.8792C18.5053 21.8169 18.675 21.7328 18.8565 21.6319C19.2199 21.43 19.6698 21.1396 20.1127 20.7738C20.9445 20.0866 21.9998 18.9259 21.9998 17.4175H19.9998C19.9998 17.9864 19.565 18.632 18.8389 19.2318C18.5028 19.5095 18.1568 19.7327 17.8852 19.8836C17.7492 19.9592 17.6416 20.0112 17.5721 20.0409C17.5364 20.0563 17.5216 20.061 17.5248 20.06C17.5264 20.0595 17.542 20.0544 17.5682 20.0487C17.5859 20.0448 17.6541 20.0301 17.7485 20.0301V22.0301ZM21.9998 17.4175C21.9998 16.481 21.7029 15.6818 21.1649 15.1079C20.6317 14.5392 19.9134 14.25 19.1935 14.25V16.25C19.3768 16.25 19.5617 16.3221 19.7058 16.4758C19.8452 16.6245 19.9998 16.9091 19.9998 17.4175H21.9998ZM19.1935 14.25C18.5375 14.25 18.0122 14.4474 17.6535 14.643C17.474 14.741 17.3323 14.8405 17.231 14.9197C17.1801 14.9595 17.1388 14.9948 17.1072 15.0229C17.0914 15.0371 17.078 15.0495 17.0671 15.0598C17.0616 15.065 17.0567 15.0697 17.0524 15.0739C17.0503 15.076 17.0483 15.0779 17.0465 15.0798C17.0455 15.0807 17.0447 15.0815 17.0438 15.0824C17.0434 15.0828 17.043 15.0832 17.0426 15.0836C17.0424 15.0838 17.0421 15.0841 17.042 15.0842C17.0417 15.0845 17.0414 15.0848 17.7485 15.7919C18.4556 16.499 18.4553 16.4993 18.455 16.4996C18.455 16.4997 18.4547 16.4999 18.4545 16.5001C18.4541 16.5005 18.4538 16.5008 18.4534 16.5012C18.4527 16.5019 18.452 16.5026 18.4514 16.5032C18.45 16.5045 18.4488 16.5057 18.4478 16.5068C18.4456 16.5089 18.4439 16.5105 18.4426 16.5118C18.44 16.5142 18.4391 16.515 18.4399 16.5143C18.4415 16.5128 18.4495 16.5057 18.4636 16.4947C18.4922 16.4724 18.5424 16.4364 18.6112 16.3988C18.7492 16.3236 18.9465 16.25 19.1935 16.25V14.25ZM17.7485 20.0301C17.8429 20.0301 17.9111 20.0448 17.9288 20.0487C17.955 20.0544 17.9707 20.0595 17.9722 20.06C17.9754 20.061 17.9607 20.0563 17.9249 20.0409C17.8554 20.0112 17.7478 19.9592 17.6118 19.8836C17.3402 19.7327 16.9942 19.5095 16.6581 19.2318C15.932 18.632 15.4972 17.9864 15.4972 17.4175H13.4972C13.4972 18.9259 14.5526 20.0866 15.3844 20.7738C15.8272 21.1396 16.2771 21.43 16.6405 21.6319C16.8221 21.7328 16.9917 21.8169 17.1371 21.8792C17.2088 21.91 17.2859 21.9402 17.3625 21.9648C17.4055 21.9785 17.5626 22.0301 17.7485 22.0301V20.0301ZM15.4972 17.4175C15.4972 16.9091 15.6518 16.6245 15.7912 16.4758C15.9354 16.3221 16.1202 16.25 16.3035 16.25V14.25C15.5836 14.25 14.8653 14.5392 14.3321 15.1079C13.7941 15.6818 13.4972 16.481 13.4972 17.4175H15.4972ZM16.3035 16.25C16.5506 16.25 16.7478 16.3236 16.8858 16.3988C16.9547 16.4364 17.0049 16.4724 17.0334 16.4947C17.0475 16.5057 17.0555 16.5128 17.0571 16.5143C17.0579 16.515 17.057 16.5142 17.0545 16.5118C17.0532 16.5105 17.0514 16.5089 17.0493 16.5068C17.0482 16.5057 17.047 16.5045 17.0457 16.5032C17.045 16.5026 17.0443 16.5019 17.0436 16.5012C17.0433 16.5008 17.0429 16.5005 17.0425 16.5001C17.0423 16.4999 17.0421 16.4997 17.042 16.4996C17.0417 16.4993 17.0414 16.499 17.7485 15.7919C18.4556 15.0848 18.4553 15.0845 18.455 15.0842C18.4549 15.0841 18.4546 15.0838 18.4544 15.0836C18.454 15.0832 18.4536 15.0828 18.4532 15.0824C18.4524 15.0815 18.4515 15.0807 18.4506 15.0798C18.4487 15.0779 18.4467 15.076 18.4446 15.0739C18.4403 15.0697 18.4354 15.065 18.4299 15.0598C18.419 15.0495 18.4056 15.0371 18.3898 15.0229C18.3583 14.9948 18.3169 14.9595 18.266 14.9197C18.1648 14.8405 18.0231 14.741 17.8435 14.643C17.4848 14.4474 16.9595 14.25 16.3035 14.25V16.25ZM3.82432 6.75049L3.19932 16.7505L5.19542 16.8752L5.82042 6.87524L3.82432 6.75049ZM16.1798 3H7.81653V5H16.1798V3ZM7.19153 21H10.9982V19H7.19153V21ZM20.4473 11.1548L20.172 6.75049L18.1759 6.87524L18.4512 11.2795L20.4473 11.1548ZM16.1798 5C17.2359 5 18.11 5.82117 18.1759 6.87524L20.172 6.75049C20.0403 4.64235 18.2921 3 16.1798 3V5ZM3.19932 16.7505C3.05539 19.0533 4.88424 21 7.19153 21V19C6.03788 19 5.12346 18.0266 5.19542 16.8752L3.19932 16.7505ZM5.82042 6.87524C5.8863 5.82117 6.7604 5 7.81653 5V3C5.70427 3 3.95607 4.64235 3.82432 6.75049L5.82042 6.87524Z" fill="currentColor"/></svg>
