<svg xmlns="http://www.w3.org/2000/svg" viewBox="0 0 24 24" fill="none"><path d="M15.5 6.75C15.5 8.683 13.933 10.25 12 10.25C10.067 10.25 8.5 8.683 8.5 6.75C8.5 4.817 10.067 3.25 12 3.25C13.933 3.25 15.5 4.817 15.5 6.75Z" stroke="currentColor" stroke-width="2"/><path d="M10 16.25C10 18.183 8.433 19.75 6.5 19.75C4.567 19.75 3 18.183 3 16.25C3 14.317 4.567 12.75 6.5 12.75C8.433 12.75 10 14.317 10 16.25Z" stroke="currentColor" stroke-width="2"/><path d="M21 16.25C21 18.183 19.433 19.75 17.5 19.75C15.567 19.75 14 18.183 14 16.25C14 14.317 15.567 12.75 17.5 12.75C19.433 12.75 21 14.317 21 16.25Z" stroke="currentColor" stroke-width="2"/></svg>
