<svg xmlns="http://www.w3.org/2000/svg" viewBox="0 0 24 24" fill="none"><path d="M6 16.125C6.48325 16.125 6.875 16.5168 6.875 17C6.875 17.4832 6.48325 17.875 6 17.875C5.51675 17.875 5.125 17.4832 5.125 17C5.125 16.5168 5.51675 16.125 6 16.125ZM18 16.125C18.4832 16.125 18.875 16.5168 18.875 17C18.875 17.4832 18.4832 17.875 18 17.875C17.5168 17.875 17.125 17.4832 17.125 17C17.125 16.5168 17.5168 16.125 18 16.125ZM6 12.125C6.48325 12.125 6.875 12.5168 6.875 13C6.875 13.4832 6.48325 13.875 6 13.875C5.51675 13.875 5.125 13.4832 5.125 13C5.125 12.5168 5.51675 12.125 6 12.125ZM10 12.125C10.4832 12.125 10.875 12.5168 10.875 13C10.875 13.4832 10.4832 13.875 10 13.875C9.51675 13.875 9.125 13.4832 9.125 13C9.125 12.5168 9.51675 12.125 10 12.125ZM14 12.125C14.4832 12.125 14.875 12.5168 14.875 13C14.875 13.4832 14.4832 13.875 14 13.875C13.5168 13.875 13.125 13.4832 13.125 13C13.125 12.5168 13.5168 12.125 14 12.125ZM18 12.125C18.4832 12.125 18.875 12.5168 18.875 13C18.875 13.4832 18.4832 13.875 18 13.875C17.5168 13.875 17.125 13.4832 17.125 13C17.125 12.5168 17.5168 12.125 18 12.125Z" fill="currentColor" stroke="currentColor" stroke-width="0.75" stroke-linecap="square"/><path d="M10 16C9.44772 16 9 16.4477 9 17C9 17.5523 9.44772 18 10 18V16ZM14 18C14.5523 18 15 17.5523 15 17C15 16.4477 14.5523 16 14 16V18ZM3.63803 20.673L4.09202 19.782H4.09202L3.63803 20.673ZM2.32698 19.362L1.43597 19.816H1.43597L2.32698 19.362ZM21.673 19.362L22.564 19.816L21.673 19.362ZM20.362 20.673L19.908 19.782H19.908L20.362 20.673ZM20.362 9.32698L19.908 10.218L19.908 10.218L20.362 9.32698ZM21.673 10.638L22.564 10.184V10.184L21.673 10.638ZM3.63803 9.32698L4.09202 10.218L3.63803 9.32698ZM2.32698 10.638L3.21799 11.092L2.32698 10.638ZM13.2929 5.70711C13.6834 6.09763 14.3166 6.09763 14.7071 5.70711C15.0976 5.31658 15.0976 4.68342 14.7071 4.29289L13.2929 5.70711ZM12 3L12.7071 2.29289C12.3166 1.90237 11.6834 1.90237 11.2929 2.29289L12 3ZM9.29289 4.29289C8.90237 4.68342 8.90237 5.31658 9.29289 5.70711C9.68342 6.09763 10.3166 6.09763 10.7071 5.70711L9.29289 4.29289ZM10 18H14V16H10V18ZM6.8 10H17.2V8H6.8V10ZM21 13.8V16.2H23V13.8H21ZM17.2 20H6.8V22H17.2V20ZM3 16.2V13.8H1V16.2H3ZM6.8 20C5.94342 20 5.36113 19.9992 4.91104 19.9624C4.47262 19.9266 4.24842 19.8617 4.09202 19.782L3.18404 21.564C3.66937 21.8113 4.18608 21.9099 4.74817 21.9558C5.2986 22.0008 5.97642 22 6.8 22V20ZM1 16.2C1 17.0236 0.999222 17.7014 1.04419 18.2518C1.09012 18.8139 1.18868 19.3306 1.43597 19.816L3.21799 18.908C3.1383 18.7516 3.07337 18.5274 3.03755 18.089C3.00078 17.6389 3 17.0566 3 16.2H1ZM4.09202 19.782C3.71569 19.5903 3.40973 19.2843 3.21799 18.908L1.43597 19.816C1.81947 20.5686 2.43139 21.1805 3.18404 21.564L4.09202 19.782ZM21 16.2C21 17.0566 20.9992 17.6389 20.9624 18.089C20.9266 18.5274 20.8617 18.7516 20.782 18.908L22.564 19.816C22.8113 19.3306 22.9099 18.8139 22.9558 18.2518C23.0008 17.7014 23 17.0236 23 16.2H21ZM17.2 22C18.0236 22 18.7014 22.0008 19.2518 21.9558C19.8139 21.9099 20.3306 21.8113 20.816 21.564L19.908 19.782C19.7516 19.8617 19.5274 19.9266 19.089 19.9624C18.6389 19.9992 18.0566 20 17.2 20V22ZM20.782 18.908C20.5903 19.2843 20.2843 19.5903 19.908 19.782L20.816 21.564C21.5686 21.1805 22.1805 20.5686 22.564 19.816L20.782 18.908ZM17.2 10C18.0566 10 18.6389 10.0008 19.089 10.0376C19.5274 10.0734 19.7516 10.1383 19.908 10.218L20.816 8.43597C20.3306 8.18868 19.8139 8.09012 19.2518 8.04419C18.7014 7.99922 18.0236 8 17.2 8V10ZM23 13.8C23 12.9764 23.0008 12.2986 22.9558 11.7482C22.9099 11.1861 22.8113 10.6694 22.564 10.184L20.782 11.092C20.8617 11.2484 20.9266 11.4726 20.9624 11.911C20.9992 12.3611 21 12.9434 21 13.8H23ZM19.908 10.218C20.2843 10.4097 20.5903 10.7157 20.782 11.092L22.564 10.184C22.1805 9.43139 21.5686 8.81947 20.816 8.43597L19.908 10.218ZM6.8 8C5.97642 8 5.2986 7.99922 4.74817 8.04419C4.18608 8.09012 3.66937 8.18868 3.18404 8.43597L4.09202 10.218C4.24842 10.1383 4.47262 10.0734 4.91104 10.0376C5.36113 10.0008 5.94342 10 6.8 10V8ZM3 13.8C3 12.9434 3.00078 12.3611 3.03755 11.911C3.07337 11.4726 3.1383 11.2484 3.21799 11.092L1.43597 10.184C1.18868 10.6694 1.09012 11.1861 1.04419 11.7482C0.999222 12.2986 1 12.9764 1 13.8H3ZM3.18404 8.43597C2.43139 8.81947 1.81947 9.43139 1.43597 10.184L3.21799 11.092C3.40973 10.7157 3.71569 10.4097 4.09202 10.218L3.18404 8.43597ZM14.7071 4.29289L12.7071 2.29289L11.2929 3.70711L13.2929 5.70711L14.7071 4.29289ZM11.2929 2.29289L9.29289 4.29289L10.7071 5.70711L12.7071 3.70711L11.2929 2.29289Z" fill="currentColor"/></svg>
