<svg xmlns="http://www.w3.org/2000/svg" viewBox="0 0 24 24" fill="none"><path d="M19 12C19 13.1046 18.1046 14 17 14C15.8954 14 15 13.1046 15 12C15 10.8954 15.8954 10 17 10C18.1046 10 19 10.8954 19 12Z" stroke="currentColor" stroke-width="2" stroke-linecap="round" stroke-linejoin="round"/><path d="M17.0018 16.5C15.1916 16.5 13.6546 17.5089 13.0313 18.9351C12.7944 19.4774 13.2654 20 13.8571 20H20.1465C20.7383 20 21.2093 19.4774 20.9723 18.9351C20.349 17.5089 18.812 16.5 17.0018 16.5Z" stroke="currentColor" stroke-width="2" stroke-linecap="round" stroke-linejoin="round"/><path d="M3 5H18M3 5V17M3 5H2M18 5H19M18 5V6M3 17H2M3 17H9" stroke="currentColor" stroke-width="2" stroke-linecap="round" stroke-linejoin="round"/><path d="M10.5 5V4" stroke="currentColor" stroke-width="2" stroke-linecap="round" stroke-linejoin="round"/></svg>
