<svg xmlns="http://www.w3.org/2000/svg" viewBox="0 0 24 24" fill="none"><path d="M21 16C21 16.9319 21 17.3978 20.8478 17.7654C20.6448 18.2554 20.2554 18.6448 19.7654 18.8478C19.3978 19 18.9319 19 18 19H6C5.06812 19 4.60218 19 4.23463 18.8478C3.74458 18.6448 3.35523 18.2554 3.15224 17.7654C3 17.3978 3 16.9319 3 16H21Z" stroke="currentColor" stroke-width="2" stroke-linecap="round" stroke-linejoin="round"/><path d="M20.9995 12.925C20.4897 12.9249 19.9798 12.8249 19.5 12.625C18.54 12.225 17.46 12.225 16.5 12.625C15.54 13.025 14.46 13.025 13.5 12.625C12.54 12.225 11.46 12.225 10.5 12.625C9.54 13.025 8.46 13.025 7.5 12.625C6.54 12.225 5.46 12.225 4.5 12.625C4.02 12.825 3.51 12.925 3 12.925" stroke="currentColor" stroke-width="2" stroke-linecap="round" stroke-linejoin="round"/><path d="M12 5C9.05474 5 3 5.8494 3 9H21C21 5.8494 14.9453 5 12 5Z" stroke="currentColor" stroke-width="2" stroke-linecap="round" stroke-linejoin="round"/></svg>
