<svg xmlns="http://www.w3.org/2000/svg" viewBox="0 0 24 24" fill="none"><path d="M4 16V8H2V16H4ZM20 8V16H22V8H20ZM18 18H6V20H18V18ZM6 6H18V4H6V6ZM20 16C20 17.1046 19.1046 18 18 18V20C20.2091 20 22 18.2091 22 16H20ZM22 8C22 5.79086 20.2091 4 18 4V6C19.1046 6 20 6.89543 20 8H22ZM4 8C4 6.89543 4.89543 6 6 6V4C3.79086 4 2 5.79086 2 8H4ZM2 16C2 18.2091 3.79086 20 6 20V18C4.89543 18 4 17.1046 4 16H2Z" fill="currentColor"/><path d="M11 19V20H13V19H11ZM13 5V4H11V5H13ZM13 19V5H11V19H13Z" fill="currentColor"/></svg>
