<svg xmlns="http://www.w3.org/2000/svg" viewBox="0 0 24 24" fill="none"><path d="M14.4853 3C15.2809 3 16.044 3.31607 16.6066 3.87868L20.1213 7.3934C20.6839 7.95601 21 8.71907 21 9.51472V14.4853C21 15.2809 20.6839 16.044 20.1213 16.6066L16.6066 20.1213C16.044 20.6839 15.2809 21 14.4853 21H9.51472C8.71907 21 7.95601 20.6839 7.3934 20.1213L3.87868 16.6066C3.31607 16.044 3 15.2809 3 14.4853L3 9.51472C3 8.71907 3.31607 7.95601 3.87868 7.3934L7.3934 3.87868C7.95601 3.31607 8.71907 3 9.51472 3L14.4853 3Z" stroke="currentColor" stroke-width="2" stroke-linejoin="round"/></svg>
