<svg xmlns="http://www.w3.org/2000/svg" viewBox="0 0 24 24" fill="none"><path d="M7 10.8838C7 9.80725 7.57686 8.81322 8.51158 8.2791L10.5116 7.13624C11.4339 6.60921 12.5661 6.60921 13.4884 7.13624L15.4884 8.27909C16.4231 8.81322 17 9.80726 17 10.8838V13.1162C17 14.1927 16.4231 15.1868 15.4884 15.7209L13.4884 16.8638C12.5661 17.3908 11.4339 17.3908 10.5116 16.8638L8.51158 15.7209C7.57686 15.1868 7 14.1927 7 13.1162V10.8838Z" stroke="currentColor" stroke-width="2" stroke-linecap="square" stroke-linejoin="round"/><path d="M17 9.14294L12 12.0001M12 12.0001L7 9.14294M12 12.0001V17.7144" stroke="currentColor" stroke-width="2" stroke-linejoin="round"/><path d="M4 4.25C4.13807 4.25 4.25 4.13807 4.25 4C4.25 3.86193 4.13807 3.75 4 3.75C3.86193 3.75 3.75 3.86193 3.75 4C3.75 4.13807 3.86193 4.25 4 4.25Z" stroke="currentColor" stroke-width="2" stroke-linecap="square"/><path d="M4 4H4.01" stroke="currentColor" stroke-width="2" stroke-linecap="round"/><path d="M20 4.25C20.1381 4.25 20.25 4.13807 20.25 4C20.25 3.86193 20.1381 3.75 20 3.75C19.8619 3.75 19.75 3.86193 19.75 4C19.75 4.13807 19.8619 4.25 20 4.25Z" stroke="currentColor" stroke-width="2" stroke-linecap="square"/><path d="M20 4H20.01" stroke="currentColor" stroke-width="2" stroke-linecap="round"/><path d="M4 20.25C4.13807 20.25 4.25 20.1381 4.25 20C4.25 19.8619 4.13807 19.75 4 19.75C3.86193 19.75 3.75 19.8619 3.75 20C3.75 20.1381 3.86193 20.25 4 20.25Z" stroke="currentColor" stroke-width="2" stroke-linecap="square"/><path d="M4 20H4.01" stroke="currentColor" stroke-width="2" stroke-linecap="round"/><path d="M20 20.25C20.1381 20.25 20.25 20.1381 20.25 20C20.25 19.8619 20.1381 19.75 20 19.75C19.8619 19.75 19.75 19.8619 19.75 20C19.75 20.1381 19.8619 20.25 20 20.25Z" stroke="currentColor" stroke-width="2" stroke-linecap="square"/><path d="M20 20H20.01" stroke="currentColor" stroke-width="2" stroke-linecap="round"/></svg>
