<svg xmlns="http://www.w3.org/2000/svg" viewBox="0 0 24 24" fill="none"><path d="M3 20L21 20" stroke="currentColor" stroke-width="2" stroke-linecap="round" stroke-linejoin="round"/><path d="M12.75 15.458C12.8305 15.5705 12.9285 15.6695 13.041 15.75C12.9288 15.8304 12.8304 15.9288 12.75 16.041C12.6695 15.9285 12.5705 15.8305 12.458 15.75C12.5707 15.6694 12.6694 15.5707 12.75 15.458Z" stroke="currentColor" stroke-width="2"/><path d="M10 11.458C10.0805 11.5705 10.1785 11.6695 10.291 11.75C10.1788 11.8304 10.0804 11.9288 10 12.041C9.91946 11.9285 9.82053 11.8305 9.70801 11.75C9.82074 11.6694 9.91937 11.5707 10 11.458Z" stroke="currentColor" stroke-width="2"/><path d="M5 19.5001L10.7588 4.2805C11.307 2.8316 13.2233 2.52921 14.1911 3.7389L18 8.50007H14.2L19 19.5001" stroke="currentColor" stroke-width="2" stroke-linecap="square" stroke-linejoin="round"/></svg>
