<svg xmlns="http://www.w3.org/2000/svg" viewBox="0 0 24 24" fill="none"><path d="M5 11V7C5 5.34315 6.34315 4 8 4H14.1716C14.702 4 15.2107 4.21071 15.5858 4.58579L18.4142 7.41421C18.7893 7.78929 19 8.29799 19 8.82843V11" stroke="currentColor" stroke-width="2" stroke-linecap="round" stroke-linejoin="round"/><path d="M4 20V15H5.75C6.57843 15 7.25 15.6716 7.25 16.5C7.25 17.3284 6.57843 18 5.75 18H4.5" stroke="currentColor" stroke-width="2" stroke-linecap="round" stroke-linejoin="round"/><path d="M10 20V15H10.25L13.25 20H13.5V15" stroke="currentColor" stroke-width="2" stroke-linecap="round" stroke-linejoin="round"/><path d="M20.125 18.0548V19.3827C19.7022 19.8416 19.006 20.0437 18.3903 20.0511C17.1481 20.0511 16.25 18.9838 16.25 17.5345C16.25 16.0851 17.1948 15.0178 18.2481 14.9537C18.6289 14.9306 19.2665 15.0155 19.6259 15.3648" stroke="currentColor" stroke-width="2" stroke-linecap="round" stroke-linejoin="round"/><path d="M14 5V7C14 8.10457 14.8954 9 16 9H18" stroke="currentColor" stroke-width="2" stroke-linecap="round" stroke-linejoin="round"/></svg>
