<svg xmlns="http://www.w3.org/2000/svg" viewBox="0 0 24 24" fill="none"><path d="M20.5 6.2002L13.8741 11.5009C12.7784 12.3775 11.2216 12.3775 10.1259 11.5009L3.5 6.2002" stroke="currentColor" stroke-width="2"/><path d="M20.2405 16.1852L19.5436 14.3733C19.4571 14.1484 19.241 14 19 14C18.759 14 18.5429 14.1484 18.4564 14.3733L17.7595 16.1852C17.658 16.4493 17.4493 16.658 17.1852 16.7595L15.3733 17.4564C15.1484 17.5429 15 17.759 15 18C15 18.241 15.1484 18.4571 15.3733 18.5436L17.1852 19.2405C17.4493 19.342 17.658 19.5507 17.7595 19.8148L18.4564 21.6267C18.5429 21.8516 18.759 22 19 22C19.241 22 19.4571 21.8516 19.5436 21.6267L20.2405 19.8148C20.342 19.5507 20.5507 19.342 20.8148 19.2405L22.6267 18.5436C22.8516 18.4571 23 18.241 23 18C23 17.759 22.8516 17.5429 22.6267 17.4564L20.8148 16.7595C20.5507 16.658 20.342 16.4493 20.2405 16.1852Z" fill="currentColor"/><path d="M21 11V9.8C21 8.11984 21 7.27976 20.673 6.63803C20.3854 6.07354 19.9265 5.6146 19.362 5.32698C18.7202 5 17.8802 5 16.2 5H7.8C6.11984 5 5.27976 5 4.63803 5.32698C4.07354 5.6146 3.6146 6.07354 3.32698 6.63803C3 7.27976 3 8.11984 3 9.8V14.2C3 15.8802 3 16.7202 3.32698 17.362C3.6146 17.9265 4.07354 18.3854 4.63803 18.673C5.27976 19 6.11984 19 7.8 19H12" stroke="currentColor" stroke-width="2" stroke-linecap="round" stroke-linejoin="round"/></svg>
