<svg xmlns="http://www.w3.org/2000/svg" viewBox="0 0 24 24" fill="none"><path d="M12 8C14.2091 8 16 9.79086 16 12M12 8C10.8954 8 9.89543 8.44771 9.17157 9.17157M12 8V3C16.9706 3 21 7.02944 21 12H16M16 12C16 13.1046 15.5523 14.1046 14.8284 14.8284M9.17157 9.17157L5.63604 5.63604C4.00736 7.26472 3 9.51472 3 12C3 14.4853 4.00736 16.7353 5.63604 18.364M9.17157 9.17157C8.44771 9.89543 8 10.8954 8 12C8 13.1046 8.44771 14.1046 9.17157 14.8284M14.8284 14.8284C14.1046 15.5523 13.1046 16 12 16M14.8284 14.8284L18.364 18.364C16.7353 19.9926 14.4853 21 12 21M12 16C10.8954 16 9.89543 15.5523 9.17157 14.8284M12 16V21M9.17157 14.8284L5.63604 18.364M5.63604 18.364C7.26472 19.9926 9.51472 21 12 21" stroke="currentColor" stroke-width="2" stroke-linejoin="round"/></svg>
