<svg xmlns="http://www.w3.org/2000/svg" viewBox="0 0 24 24" fill="none"><path d="M14.9999 8V6C14.9999 4.34315 13.6568 3 11.9999 3C10.343 3 8.9999 4.34315 8.9999 6V8M11.4999 21H7.99674C6.15808 21 4.75204 19.3611 5.03162 17.5438L6.10855 10.5438C6.3337 9.08033 7.59295 8 9.07366 8H14.9261C16.4069 8 17.6661 9.08033 17.8913 10.5438L18.0384 11.5M17.7502 21.0301C18.0212 21.0301 21.0016 19.4948 21.0016 17.4175C21.0016 15.9725 20.0984 15.25 19.1953 15.25C18.2921 15.25 17.7502 15.7919 17.7502 15.7919C17.7502 15.7919 17.2084 15.25 16.3052 15.25C15.4021 15.25 14.4989 15.9725 14.4989 17.4175C14.4989 19.4948 17.4793 21.0301 17.7502 21.0301Z" stroke="currentColor" stroke-width="2" stroke-linecap="round" stroke-linejoin="round"/></svg>
