<svg xmlns="http://www.w3.org/2000/svg" viewBox="0 0 24 24" fill="none"><path d="M4.5 17H4C2.89543 17 2 16.1046 2 15V8C2 6.34315 3.34315 5 5 5H14.9536C15.9486 5 16.908 5.37089 17.6443 6.04024L20.6907 8.80972C21.5246 9.56781 22 10.6425 22 11.7695V15C22 16.1046 21.1046 17 20 17H19.5" stroke="currentColor" stroke-width="2" stroke-linejoin="round"/><path d="M9.5 17H14.5" stroke="currentColor" stroke-width="2"/><circle cx="7" cy="16.75" r="2.25" stroke="currentColor" stroke-width="2"/><circle cx="17" cy="16.75" r="2.25" stroke="currentColor" stroke-width="2"/><path d="M13.9949 9.99935H11.9183L12.2046 7.93759C12.24 7.68326 11.9148 7.54731 11.7586 7.75109L8.80987 11.5972C8.68378 11.7617 8.80104 11.9994 9.00827 11.9994H11.0849L10.7986 14.0611C10.7633 14.3155 11.0884 14.4514 11.2446 14.2476L14.1933 10.4015C14.3194 10.237 14.2022 9.99935 13.9949 9.99935Z" fill="currentColor"/></svg>
