<svg xmlns="http://www.w3.org/2000/svg" viewBox="0 0 24 24" fill="none"><path d="M20 12V17C20 18.6569 18.6569 20 17 20H7C5.34315 20 4 18.6569 4 17V12M20 12H21M20 12H15.214M4 12H3M4 12H8.786M4 12V9.5M8.786 12C9.49159 11.0877 10.6185 10.5 12 10.5C13.3815 10.5 14.5084 11.0877 15.214 12M8.786 12H15.214" stroke="currentColor" stroke-width="2" stroke-linecap="round" stroke-linejoin="round"/><path d="M6.5 12V9.5" stroke="currentColor" stroke-width="2" stroke-linecap="round" stroke-linejoin="round"/><path d="M14.5 5.5C14.5 6.88071 13.3807 8 12 8C10.6193 8 9.5 6.88071 9.5 5.5C9.5 4.11929 10.6193 3 12 3C13.3807 3 14.5 4.11929 14.5 5.5Z" stroke="currentColor" stroke-width="2" stroke-linecap="round" stroke-linejoin="round"/></svg>
