<svg xmlns="http://www.w3.org/2000/svg" viewBox="0 0 24 24" fill="none"><path d="M12.75 14.25C12.75 15.9069 11.4069 17.25 9.75 17.25C8.09315 17.25 6.75 15.9069 6.75 14.25C6.75 12.5931 8.09315 11.25 9.75 11.25C11.4069 11.25 12.75 12.5931 12.75 14.25Z" stroke="currentColor" stroke-width="2" stroke-linecap="square"/><path fill-rule="evenodd" clip-rule="evenodd" d="M5.0242 19.0076L5.02964 19.0131C7.83858 21.8271 12.5695 21.5705 15.2956 18.7567C17.1451 16.8476 19.0264 13.8396 20.0994 10.9622C20.6359 9.5235 20.9705 8.11717 20.9978 6.89699C21.0252 5.67549 20.7447 4.64173 20.0526 3.94848C19.3609 3.25561 18.3297 2.9746 17.1108 3.00179C15.8928 3.02896 14.4885 3.36382 13.0513 3.90167C10.177 4.97736 7.17096 6.86506 5.2611 8.72731C2.41178 11.5056 2.17182 16.2367 5.01868 19.0023L5.0242 19.0076Z" stroke="currentColor" stroke-width="2" stroke-linecap="square"/></svg>
