<svg xmlns="http://www.w3.org/2000/svg" viewBox="0 0 24 24" fill="none"><path d="M3 10V7C3 5.34315 4.34315 4 6 4H8.92963C9.59834 4 10.2228 4.3342 10.5937 4.8906L11.4063 6.1094C11.7772 6.6658 12.4017 7 13.0704 7H18C19.6569 7 21 8.34315 21 10V16C21 17.6569 19.6569 19 18 19H15" stroke="currentColor" stroke-width="2" stroke-linecap="round"/><path d="M8 14C9.65685 14 11 15.3431 11 17C11 18.6569 9.65685 20 8 20" stroke="currentColor" stroke-width="2" stroke-linecap="round"/><path d="M5 14C3.34315 14 2 15.3431 2 17C2 18.6569 3.34315 20 5 20" stroke="currentColor" stroke-width="2" stroke-linecap="round"/><path d="M7 17H6" stroke="currentColor" stroke-width="2" stroke-linecap="round"/></svg>
