<svg xmlns="http://www.w3.org/2000/svg" viewBox="0 0 24 24" fill="none"><path d="M12 3C12.1886 3 12.358 3.11601 12.4258 3.29199L14.168 7.82227C14.5235 8.7463 15.2537 9.47652 16.1777 9.83203L20.708 11.5742C20.884 11.642 21 11.8114 21 12C21 12.1886 20.884 12.358 20.708 12.4258L16.1777 14.168C15.2537 14.5235 14.5235 15.2537 14.168 16.1777L12.4258 20.708C12.358 20.884 12.1886 21 12 21C11.8114 21 11.642 20.884 11.5742 20.708L9.83203 16.1777C9.47652 15.2537 8.7463 14.5235 7.82227 14.168L3.29199 12.4258C3.11601 12.358 3 12.1886 3 12C3 11.8114 3.11601 11.642 3.29199 11.5742L7.82227 9.83203C8.7463 9.47652 9.47652 8.7463 9.83203 7.82227L11.5742 3.29199C11.642 3.11601 11.8114 3 12 3Z" stroke="currentColor" stroke-width="2"/></svg>
