<svg xmlns="http://www.w3.org/2000/svg" viewBox="0 0 24 24" fill="none"><path d="M19.2008 10.2C19.2008 6.22355 15.9772 3 12.0008 3C8.02433 3 4.80078 6.22355 4.80078 10.2C4.80078 14.5076 9.30078 16.95 11.0032 20.4076C11.1866 20.7801 11.5856 21 12.0008 21C12.416 21 12.7956 20.7699 12.9983 20.4076C14.7008 16.95 19.2008 14.5076 19.2008 10.2Z" stroke="currentColor" stroke-width="2"/><path d="M9 10.2002C9 8.54334 10.3431 7.2002 12 7.2002C13.6569 7.2002 15 8.54334 15 10.2002C15 11.857 13.6569 13.2002 12 13.2002C10.3431 13.2002 9 11.857 9 10.2002Z" stroke="currentColor" stroke-width="2"/></svg>
