<svg xmlns="http://www.w3.org/2000/svg" viewBox="0 0 24 24" fill="none"><path d="M21 17.75C21 19.6667 18.25 21.0833 18 21.0833C17.75 21.0833 15 19.6667 15 17.75C15 16.4167 15.8333 15.75 16.6667 15.75C17.5 15.75 18 16.25 18 16.25C18 16.25 18.5 15.75 19.3333 15.75C20.1667 15.75 21 16.4167 21 17.75Z" stroke="currentColor" stroke-width="2" stroke-linecap="round" stroke-linejoin="round"/><path d="M15.5 6.5C15.5 8.433 13.933 10 12 10C10.067 10 8.5 8.433 8.5 6.5C8.5 4.567 10.067 3 12 3C13.933 3 15.5 4.567 15.5 6.5Z" stroke="currentColor" stroke-width="2" stroke-linecap="round" stroke-linejoin="round"/><path d="M12.9997 13.0602C12.6751 13.0205 12.3416 13 11.9997 13C9.02123 13 6.67402 14.5539 5.43304 16.8621C4.59593 18.4191 6.02717 20 7.79494 20H11.4997" stroke="currentColor" stroke-width="2" stroke-linecap="round" stroke-linejoin="round"/></svg>
