<svg xmlns="http://www.w3.org/2000/svg" viewBox="0 0 24 24" fill="none"><path d="M12 9V12L13.5 13.5M8 19H16C17.6569 19 19 17.6569 19 16V8C19 6.34315 17.6569 5 16 5H8C6.34315 5 5 6.34315 5 8V16C5 17.6569 6.34315 19 8 19ZM7 5L7.77208 2.68377C7.90819 2.27543 8.29033 2 8.72076 2H15.2792C15.7097 2 16.0918 2.27543 16.2279 2.68377L17 5H7ZM7 19L7.77208 21.3162C7.90819 21.7246 8.29033 22 8.72076 22H15.2792C15.7097 22 16.0918 21.7246 16.2279 21.3162L17 19H7Z" stroke="currentColor" stroke-width="2" stroke-linecap="round" stroke-linejoin="round"/></svg>
