<svg xmlns="http://www.w3.org/2000/svg" viewBox="0 0 24 24" fill="none"><path d="M18 5H6C4.34315 5 3 6.34315 3 8V16C3 17.6569 4.34315 19 6 19H18C19.6569 19 21 17.6569 21 16V8C21 6.34315 19.6569 5 18 5Z" stroke="currentColor" stroke-width="2" stroke-linecap="square" stroke-linejoin="round"/><path d="M5.70898 15.1038C5.14868 15.1038 4.8125 14.7842 4.8125 14.2529C4.8125 14.0994 4.85815 13.8752 4.93701 13.6636L6.27759 9.96143C6.53491 9.23511 6.9707 8.90723 7.67212 8.90723C8.42334 8.90723 8.85498 9.22266 9.12476 9.96143L10.4778 13.6636C10.5608 13.8918 10.594 14.0579 10.594 14.2488C10.594 14.7468 10.2246 15.1038 9.71411 15.1038C9.19531 15.1038 8.92554 14.8672 8.77612 14.2861L8.67236 13.8794H6.72168L6.61792 14.2571C6.4519 14.8589 6.18628 15.1038 5.70898 15.1038ZM7.05371 12.5679H8.30298L7.68042 10.3931H7.64722L7.05371 12.5679Z" fill="currentColor"/><path d="M12.0136 15C11.4533 15 11.1337 14.668 11.1337 14.0786V9.82861C11.1337 9.23926 11.4533 8.90723 12.0136 8.90723C12.5739 8.90723 12.8935 9.23926 12.8935 9.82861V13.5972H14.5495C15.0143 13.5972 15.3256 13.8503 15.3256 14.2986C15.3256 14.7468 15.0226 15 14.5495 15H12.0136Z" fill="currentColor"/><path d="M16.8329 15.1038C16.2726 15.1038 15.953 14.7717 15.953 14.1824V10.4138H15.0689C14.6041 10.4138 14.2928 10.1606 14.2928 9.7124C14.2928 9.26416 14.5958 9.01099 15.0689 9.01099H18.5968C19.0699 9.01099 19.3729 9.26416 19.3729 9.7124C19.3729 10.1606 19.0616 10.4138 18.5968 10.4138H17.7127V14.1824C17.7127 14.7717 17.3932 15.1038 16.8329 15.1038Z" fill="currentColor"/></svg>
