<svg xmlns="http://www.w3.org/2000/svg" viewBox="0 0 24 24" fill="none"><path d="M17 4H7C5.34315 4 4 5.34315 4 7V17C4 18.6569 5.34315 20 7 20H17C18.6569 20 20 18.6569 20 17V7C20 5.34315 18.6569 4 17 4Z" stroke="currentColor" stroke-width="2" stroke-linejoin="round"/><path d="M9.50278 12.3764L7.00391 9.25282C8.37316 8.156 10.1108 7.5 12.0016 7.5C13.8925 7.5 15.6301 8.156 16.9994 9.25282L14.5005 12.3764C13.8159 11.828 12.9471 11.5 12.0016 11.5C11.0562 11.5 10.1874 11.828 9.50278 12.3764Z" stroke="currentColor" stroke-width="2" stroke-linejoin="round"/></svg>
