<svg xmlns="http://www.w3.org/2000/svg" viewBox="0 0 24 24" fill="none"><path d="M1.5 11.3726C1.5 11.3726 4.43813 5.01641 8.0625 5.01641C9.68337 5.01641 12 6.28765 12 6.28765C12 6.28765 13.9089 5.15829 15.2812 5.01641C19.0696 4.62475 22.5 11.3726 22.5 11.3726M1.5 11.3726C1.5 11.3726 7.87613 9.66667 12 9.66667C16.1239 9.66667 22.5 11.3726 22.5 11.3726M1.5 11.3726C1.5 11.3726 4.65 19 12 19C19.35 19 22.5 11.3726 22.5 11.3726M1.5 11.3726C1.5 11.3726 7.76951 14.3333 12 14.3333C16.2305 14.3333 22.5 11.3726 22.5 11.3726" stroke="currentColor" stroke-width="2" stroke-linecap="round" stroke-linejoin="round"/></svg>
