<svg xmlns="http://www.w3.org/2000/svg" viewBox="0 0 24 24" fill="none"><path d="M10.9839 4.37382C10.6762 4.66867 10.2375 4.79741 9.81767 4.72433C9.5642 4.68022 9.30352 4.65723 9.0375 4.65723C6.53151 4.65723 4.5 6.69753 4.5 9.21437C4.5 10.6245 5.13775 11.8851 6.13939 12.721C6.39303 12.9327 6.55971 13.2341 6.60395 13.5615C6.9045 15.7857 8.80291 17.5 11.1 17.5C12.1995 17.5 13.2077 17.1072 13.993 16.4538C14.3002 16.1982 14.7109 16.0901 15.1031 16.1664C15.4097 16.226 15.7263 16.2573 16.0501 16.2573C18.784 16.2573 21.0001 14.0315 21.0001 11.2858C21.0001 9.95018 20.4757 8.73755 19.6223 7.84432C19.4445 7.65823 19.3269 7.42164 19.2858 7.16758C18.9032 4.80418 16.8615 3 14.4002 3C13.0755 3 11.8723 3.52264 10.9839 4.37382Z" stroke="currentColor" stroke-width="2" stroke-linejoin="round"/><path d="M6 20C6 21.1046 5.10457 22 4 22C2.89543 22 2 21.1046 2 20C2 18.8954 2.89543 18 4 18C5.10457 18 6 18.8954 6 20Z" stroke="currentColor" stroke-width="2"/></svg>
