<svg xmlns="http://www.w3.org/2000/svg" viewBox="0 0 24 24" fill="none"><path d="M17 20H13C11.3431 20 10 18.6569 10 17V16H7C8.65685 16 10 13.3137 10 10C10 6.68629 8.65685 4 7 4H17C18.6569 4 20 6.68629 20 10V17C20 18.6569 18.6569 20 17 20Z" stroke="currentColor" stroke-width="2" stroke-linejoin="round"/><path d="M10 10C10 13.3137 8.65685 16 7 16C5.34315 16 4 13.3137 4 10C4 6.68629 5.34315 4 7 4C8.65685 4 10 6.68629 10 10Z" stroke="currentColor" stroke-width="2" stroke-linejoin="round"/><path d="M10 10V16" stroke="currentColor" stroke-width="2" stroke-linejoin="round"/><path d="M7.75 10C7.75 10.6904 7.41421 11.25 7 11.25C6.58579 11.25 6.25 10.6904 6.25 10C6.25 9.30964 6.58579 8.75 7 8.75C7.41421 8.75 7.75 9.30964 7.75 10Z" fill="currentColor"/></svg>
