<svg xmlns="http://www.w3.org/2000/svg" viewBox="0 0 24 24" fill="none"><path d="M4 8V7C4 5.34315 5.34315 4 7 4H8M4 16V17C4 18.6569 5.34315 20 7 20H8M16 4H17C18.6569 4 20 5.34315 20 7V8M20 16V17C20 18.6569 18.6569 20 17 20H16M10.5 15H13.5C14.3284 15 15 14.3284 15 13.5V12.5C15 11.6716 14.3284 11 13.5 11H10.5C9.67157 11 9 11.6716 9 12.5V13.5C9 14.3284 9.67157 15 10.5 15ZM14 11V10C14 8.89543 13.1046 8 12 8C10.8954 8 10 8.89543 10 10V11H14Z" stroke="currentColor" stroke-width="2" stroke-linecap="round" stroke-linejoin="round"/></svg>
