<svg xmlns="http://www.w3.org/2000/svg" viewBox="0 0 24 24" fill="none"><path d="M5 18.9986L10.19 13.8086" stroke="currentColor" stroke-width="2" stroke-linecap="round" stroke-linejoin="round"/><path fill-rule="evenodd" clip-rule="evenodd" d="M12.779 11.2191C13.4956 11.9357 13.4956 13.0976 12.779 13.8142C12.0624 14.5308 10.9006 14.5308 10.1839 13.8142C9.46733 13.0976 9.46733 11.9357 10.1839 11.2191C10.9006 10.5025 12.0624 10.5025 12.779 11.2191Z" stroke="currentColor" stroke-width="2" stroke-linecap="round" stroke-linejoin="round"/><path d="M19.3787 6.37868L17.6213 4.62132C16.4497 3.44975 14.5503 3.44975 13.3787 4.62132L12 6L18 12L19.3787 10.6213C20.5503 9.44975 20.5503 7.55026 19.3787 6.37868Z" stroke="currentColor" stroke-width="2" stroke-linecap="round" stroke-linejoin="round"/><path d="M16.5712 15.9292L18 12L12 6L8.07081 7.42879C7.09427 7.7839 6.37103 8.61905 6.1591 9.63631L4 20L14.3637 17.8409C15.3809 17.629 16.2161 16.9057 16.5712 15.9292Z" stroke="currentColor" stroke-width="2" stroke-linecap="round" stroke-linejoin="round"/></svg>
