<svg xmlns="http://www.w3.org/2000/svg" viewBox="0 0 24 24" fill="none"><path d="M7 9.5L5 18.5" stroke="currentColor" stroke-width="2" stroke-linecap="round"/><path d="M8 20L9.25722 16.857C9.70583 15.7354 10.7921 15 12 15C13.2079 15 14.2942 15.7354 14.7428 16.857L16 20" stroke="currentColor" stroke-width="2" stroke-linecap="round" stroke-linejoin="round"/><path d="M3 18.25C8.96844 21.9167 15.0316 21.9167 21 18.25" stroke="currentColor" stroke-width="2" stroke-linecap="round"/><path d="M19 18.4999L17.0829 10.3523C17.0293 10.1246 17.0573 9.8853 17.1619 9.67606L18 7.99989L19.3553 8.67756C19.7403 8.87005 20.2053 8.7946 20.5097 8.49024L20.9666 8.03326C21.2823 7.71755 21.3505 7.23081 21.1337 6.84051L19.2858 3.51425C19.1094 3.19678 18.7733 2.99671 18.4104 3.01151C14.801 3.15868 12.9496 4.72665 12 8.99989H5.99988C4.34309 8.99989 3 10.343 3 11.9998" stroke="currentColor" stroke-width="2" stroke-linecap="round" stroke-linejoin="round"/></svg>
