<svg xmlns="http://www.w3.org/2000/svg" viewBox="0 0 24 24" fill="none"><path d="M16.5 7.5C16.5 9.98528 14.4853 12 12 12C9.51472 12 7.5 9.98528 7.5 7.5C7.5 5.01472 9.51472 3 12 3C14.4853 3 16.5 5.01472 16.5 7.5Z" stroke="currentColor" stroke-width="2"/><path d="M7 17.5C7 18.8807 5.88071 20 4.5 20C3.11929 20 2 18.8807 2 17.5C2 16.1193 3.11929 15 4.5 15C5.88071 15 7 16.1193 7 17.5Z" stroke="currentColor" stroke-width="2"/><path d="M14.5 17.5C14.5 18.8807 13.3807 20 12 20C10.6193 20 9.5 18.8807 9.5 17.5C9.5 16.1193 10.6193 15 12 15C13.3807 15 14.5 16.1193 14.5 17.5Z" stroke="currentColor" stroke-width="2"/><path d="M22 17.5C22 18.8807 20.8807 20 19.5 20C18.1193 20 17 18.8807 17 17.5C17 16.1193 18.1193 15 19.5 15C20.8807 15 22 16.1193 22 17.5Z" stroke="currentColor" stroke-width="2"/><path d="M12 12V15" stroke="currentColor" stroke-width="2"/><path d="M9.5 17.5H7" stroke="currentColor" stroke-width="2"/><path d="M14.5 17.5H17" stroke="currentColor" stroke-width="2"/></svg>
