<svg xmlns="http://www.w3.org/2000/svg" viewBox="0 0 24 24" fill="none"><circle cx="12" cy="12" r="9" stroke="currentColor" stroke-width="2"/><path d="M10.75 9.9C10.75 11.0046 10.0784 11.75 9.25 11.75C8.42157 11.75 7.75 11.0046 7.75 9.9C7.75 8.79543 8.42157 8 9.25 8C10.0784 8 10.75 8.79543 10.75 9.9Z" fill="currentColor"/><path d="M16.25 9.9C16.25 11.0046 15.5784 11.75 14.75 11.75C13.9216 11.75 13.25 11.0046 13.25 9.9C13.25 8.79543 13.9216 8 14.75 8C15.5784 8 16.25 8.79543 16.25 9.9Z" fill="currentColor"/><path d="M7.89328 15.4758C7.7698 15.623 7.69925 15.8109 7.70417 16.0051C7.70903 16.1992 7.78791 16.3827 7.92489 16.5166C8.06187 16.6504 8.24712 16.7251 8.44131 16.7254C8.63557 16.7259 8.82181 16.651 8.9661 16.5242C9.05273 16.4499 9.14033 16.3801 9.23093 16.313C10.042 15.7109 11.0211 15.4001 12.0034 15.4C12.9856 15.3986 13.964 15.7081 14.7725 16.3111C14.8628 16.3783 14.9501 16.4481 15.0364 16.5226C15.1803 16.6498 15.3663 16.7253 15.5606 16.7254C15.7548 16.7256 15.9403 16.6515 16.0776 16.5181C16.215 16.3846 16.2944 16.2014 16.2999 16.0073C16.3054 15.8131 16.2354 15.625 16.1124 15.4774C16.0126 15.3603 15.909 15.2487 15.799 15.1403C14.816 14.1611 13.4082 13.5927 12.002 13.6C10.5957 13.595 9.19111 14.1644 8.20718 15.1399C8.09708 15.2479 7.99334 15.3591 7.89328 15.4758Z" fill="currentColor"/></svg>
