<svg xmlns="http://www.w3.org/2000/svg" viewBox="0 0 24 24" fill="none"><path d="M12 20H7C5.34315 20 4 18.6569 4 17V7C4 5.34315 5.34315 4 7 4H17C18.6569 4 20 5.34315 20 7V9M9 4V8C9 8.55228 9.44772 9 10 9H14C14.5523 9 15 8.55228 15 8V4M18.2427 20.4853L16.1214 18.364C14.9498 17.1924 14.9498 15.2929 16.1214 14.1213C17.2929 12.9497 19.1924 12.9497 20.364 14.1213C21.5356 15.2929 21.5356 17.1924 20.364 18.364L18.2427 20.4853Z" stroke="currentColor" stroke-width="2" stroke-linecap="round" stroke-linejoin="round"/></svg>
