<svg xmlns="http://www.w3.org/2000/svg" viewBox="0 0 24 24" fill="none"><path d="M21.001 15.9996V13.9996C17.9534 13.6522 15.9485 16.1116 16.001 18.9996H18.001C19.6579 18.9996 21.001 17.6565 21.001 15.9996Z" stroke="currentColor" stroke-width="2" stroke-linecap="round" stroke-linejoin="round"/><path d="M3 13.9996V15.9996C3 17.6565 4.34315 18.9996 6 18.9996H8C8.05256 16.1116 6.04758 13.6522 3 13.9996Z" stroke="currentColor" stroke-width="2" stroke-linecap="round" stroke-linejoin="round"/><path d="M3 14V8C3 6.34315 4.34315 5 6 5H18C19.6569 5 21 6.34315 21 8V14C16.0488 12.65 14.5634 9.95 15.1055 5" stroke="currentColor" stroke-width="2" stroke-linecap="round" stroke-linejoin="round"/><path d="M3 14C7.9512 12.65 9.43656 9.95 8.89453 5" stroke="currentColor" stroke-width="2" stroke-linecap="round" stroke-linejoin="round"/><path d="M9 18H15" stroke="currentColor" stroke-width="2" stroke-linecap="square" stroke-linejoin="round"/></svg>
