<svg xmlns="http://www.w3.org/2000/svg" viewBox="0 0 24 24" fill="none"><path d="M16 8V7C16 5.89543 16.8954 5 18 5C19.1046 5 20 5.89543 20 7V13.8292M20 13.8292V11M20 13.8292C20 17.7895 16.7895 21 12.8292 21C10.1669 21 7.72366 19.525 6.48368 17.169L3.5 11.5L4.25061 10.5617C4.94063 9.69921 6.19921 9.55937 7.06174 10.2494L8 11V6C8 4.89543 8.89543 4 10 4C11.1046 4 12 4.89543 12 6V10M12 8V5C12 3.89543 12.8954 3 14 3C15.1046 3 16 3.89543 16 5V11" stroke="currentColor" stroke-width="2" stroke-linecap="round" stroke-linejoin="round"/></svg>
