<svg xmlns="http://www.w3.org/2000/svg" viewBox="0 0 24 24" fill="none"><path d="M12.2062 10.7976L7.22828 15.778C6.67844 16.3281 6.67844 17.22 7.22828 17.7701C7.77812 18.3202 8.66959 18.3202 9.21943 17.7701L19.1752 7.80944C19.725 7.25937 19.9999 6.53844 20 5.81749C20 5.09642 19.7251 4.37533 19.1752 3.82517C18.6254 3.27507 17.9047 3.00001 17.1841 3C16.4634 2.99999 15.7428 3.27505 15.1929 3.82517L5.23712 13.7858C4.41231 14.6111 3.99993 15.6927 3.99998 16.7742C4.00002 17.8557 4.41241 18.9371 5.23712 19.7622C6.0619 20.5874 7.14289 21 8.22389 21C9.30487 21 10.3858 20.5874 11.2106 19.7622L16.1885 14.7819" stroke="currentColor" stroke-width="2" stroke-linecap="round"/></svg>
