<svg xmlns="http://www.w3.org/2000/svg" viewBox="0 0 24 24" fill="none"><path d="M14 9V10H16V9H14ZM9 16H10V14H9V16ZM6.25 5.25C5.69772 5.25 5.25 5.69772 5.25 6.25C5.25 6.80228 5.69772 7.25 6.25 7.25V5.25ZM6.26 7.25C6.81228 7.25 7.26 6.80228 7.26 6.25C7.26 5.69772 6.81228 5.25 6.26 5.25V7.25ZM14 13.4L14.5795 12.585C14.2746 12.3682 13.874 12.3397 13.5415 12.5113C13.2089 12.6829 13 13.0258 13 13.4H14ZM14 16.6H13C13 16.9742 13.2089 17.3171 13.5415 17.4887C13.874 17.6603 14.2746 17.6318 14.5795 17.415L14 16.6ZM16.25 15L16.8295 15.815C17.0933 15.6274 17.25 15.3237 17.25 15C17.25 14.6763 17.0933 14.3726 16.8295 14.185L16.25 15ZM2.9453 10.8346C2.48577 11.141 2.3616 11.7618 2.66795 12.2214C2.9743 12.6809 3.59517 12.8051 4.0547 12.4987L2.9453 10.8346ZM7.9453 12.4987C8.40483 12.8051 9.0257 12.6809 9.33205 12.2214C9.6384 11.7618 9.51423 11.141 9.0547 10.8346L7.9453 12.4987ZM4.3359 11.1094L3.7812 10.2774H3.7812L4.3359 11.1094ZM7.6641 11.1094L7.1094 11.9415H7.1094L7.6641 11.1094ZM6 4H12V2H6V4ZM14 6V9H16V6H14ZM6 16H9V14H6V16ZM12 10H18V8H12V10ZM12 22H18V20H12V22ZM20 12V18H22V12H20ZM5.5 6.25C5.5 5.83579 5.83579 5.5 6.25 5.5V7.5C6.94036 7.5 7.5 6.94036 7.5 6.25H5.5ZM6.25 5.5C6.66421 5.5 7 5.83579 7 6.25H5C5 6.94036 5.55964 7.5 6.25 7.5V5.5ZM7 6.25C7 6.66421 6.66421 7 6.25 7V5C5.55964 5 5 5.55964 5 6.25H7ZM6.25 7C5.83579 7 5.5 6.66421 5.5 6.25H7.5C7.5 5.55964 6.94036 5 6.25 5V7ZM6.25 7.25H6.26V5.25H6.25V7.25ZM13 13.4V16.6H15V13.4H13ZM14.5795 17.415L16.8295 15.815L15.6705 14.185L13.4205 15.785L14.5795 17.415ZM16.8295 14.185L14.5795 12.585L13.4205 14.215L15.6705 15.815L16.8295 14.185ZM4.0547 12.4987L4.8906 11.9415L3.7812 10.2774L2.9453 10.8346L4.0547 12.4987ZM2 6V12H4V6H2ZM7.1094 11.9415L7.9453 12.4987L9.0547 10.8346L8.2188 10.2774L7.1094 11.9415ZM8 12V18H10V12H8ZM4.8906 11.9415C5.5624 11.4936 6.4376 11.4936 7.1094 11.9415L8.2188 10.2774C6.8752 9.38162 5.1248 9.38162 3.7812 10.2774L4.8906 11.9415ZM18 22C20.2091 22 22 20.2091 22 18H20C20 19.1046 19.1046 20 18 20V22ZM12 20C10.8954 20 10 19.1046 10 18H8C8 20.2091 9.79086 22 12 22V20ZM6 14C4.89543 14 4 13.1046 4 12H2C2 14.2091 3.79086 16 6 16V14ZM18 10C19.1046 10 20 10.8954 20 12H22C22 9.79086 20.2091 8 18 8V10ZM12 4C13.1046 4 14 4.89543 14 6H16C16 3.79086 14.2091 2 12 2V4ZM12 8C9.79086 8 8 9.79086 8 12H10C10 10.8954 10.8954 10 12 10V8ZM6 2C3.79086 2 2 3.79086 2 6H4C4 4.89543 4.89543 4 6 4V2Z" fill="currentColor"/></svg>
