<svg xmlns="http://www.w3.org/2000/svg" viewBox="0 0 24 24" fill="none"><path d="M21 12C21 16.9706 16.9706 21 12 21C7.02944 21 3 16.9706 3 12C3 7.02944 7.02944 3 12 3C16.9706 3 21 7.02944 21 12Z" stroke="currentColor" stroke-width="2" stroke-linecap="round" stroke-linejoin="round"/><path d="M11 7.95867C11.6188 7.60142 12.3812 7.60142 13 7.95867L15 9.11334C15.6188 9.4706 16 10.1309 16 10.8454V13.1547C16 13.8692 15.6188 14.5295 15 14.8867L13 16.0414C12.3812 16.3986 11.6188 16.3986 11 16.0414L9.00002 14.8867C8.38121 14.5295 8 13.8692 8 13.1547V10.8454C8 10.1309 8.38121 9.4706 9.00002 9.11334L11 7.95867Z" stroke="currentColor" stroke-width="2" stroke-linecap="round" stroke-linejoin="round"/></svg>
