<svg xmlns="http://www.w3.org/2000/svg" viewBox="0 0 24 24" fill="none"><path d="M12.9272 4.92719C14.3414 3.51297 16.8636 3.74226 18.5607 5.43933C20.2577 7.13639 20.487 9.65859 19.0728 11.0728C17.6586 12.487 15.1364 12.2577 13.4393 10.5607C11.7423 8.86361 11.513 6.34141 12.9272 4.92719Z" stroke="currentColor" stroke-width="2" stroke-linecap="round" stroke-linejoin="round"/><path d="M19 5L20.5 3.5" stroke="currentColor" stroke-width="2" stroke-linecap="round" stroke-linejoin="round"/><path d="M3.5 20.5L5.5 18.5" stroke="currentColor" stroke-width="2" stroke-linecap="round" stroke-linejoin="round"/><path d="M8.29023 19.7898L4.21086 15.7104C3.81909 15.3187 3.82053 14.683 4.21407 14.293L4.76191 13.7501C4.76191 13.7501 6.08375 14.399 7.00055 13.5001C7.91735 12.6012 7.28464 11.2501 7.28464 11.2501L7.83891 10.7008C8.22994 10.3133 8.86064 10.3148 9.24992 10.704L13.2966 14.7507C13.6859 15.14 13.6873 15.7707 13.2998 16.1617L9.70764 19.7866C9.31764 20.1801 8.68201 20.1816 8.29023 19.7898Z" stroke="currentColor" stroke-width="2" stroke-linecap="round" stroke-linejoin="round"/><path d="M12 12L13 11" stroke="currentColor" stroke-width="2" stroke-linecap="round" stroke-linejoin="round"/><path d="M11 18.25C11 17.1454 10.1046 16.25 9 16.25C7.89543 16.25 7 17.1454 7 18.25" stroke="currentColor" stroke-width="2" stroke-linecap="round" stroke-linejoin="round"/></svg>
