<svg xmlns="http://www.w3.org/2000/svg" viewBox="0 0 24 24" fill="none"><path d="M3 7C3 6.44772 3.44772 6 4 6H6C6.55228 6 7 6.44772 7 7V19C7 19.5523 6.55228 20 6 20H4C3.44772 20 3 19.5523 3 19V7Z" stroke="currentColor" stroke-width="2" stroke-linecap="square" stroke-linejoin="round"/><path d="M17.2827 6.65444L15.3508 7.17208C14.8173 7.31502 14.5008 7.86336 14.6437 8.39682L17.5554 19.2635C17.6984 19.797 18.2467 20.1135 18.7802 19.9706L20.712 19.453C21.2455 19.31 21.5621 18.7617 21.4191 18.2282L18.5074 7.36155C18.3645 6.82808 17.8161 6.5115 17.2827 6.65444Z" stroke="currentColor" stroke-width="2" stroke-linecap="square" stroke-linejoin="round"/><path d="M7 5C7 4.44772 7.44772 4 8 4H12C12.5523 4 13 4.44772 13 5V19C13 19.5523 12.5523 20 12 20H8C7.44772 20 7 19.5523 7 19V5Z" stroke="currentColor" stroke-width="2" stroke-linecap="square" stroke-linejoin="round"/><path d="M7 8H13" stroke="currentColor" stroke-width="2" stroke-linecap="square" stroke-linejoin="round"/><path d="M7 16H13" stroke="currentColor" stroke-width="2" stroke-linecap="square" stroke-linejoin="round"/></svg>
