<svg xmlns="http://www.w3.org/2000/svg" viewBox="0 0 24 24" fill="none"><path d="M12 3L12.9036 4.75398C13.5748 6.05672 15.089 6.6839 16.4847 6.23731L18.364 5.63604L17.7627 7.51526C17.3161 8.91103 17.9433 10.4252 19.246 11.0964L21 12L19.6486 12.6962C18.1786 13.4536 17.5986 15.2578 18.3521 16.7299L20.0526 20.0526L16.7299 18.3521C15.2578 17.5986 13.4536 18.1786 12.6962 19.6486L12 21L11.0964 19.246C10.4252 17.9433 8.91103 17.3161 7.51526 17.7627L5.63604 18.364L6.23731 16.4847C6.6839 15.089 6.05672 13.5748 4.75398 12.9036L3 12L4.35135 11.3038C5.82142 10.5464 6.40136 8.74223 5.64794 7.27013L3.94737 3.94737L7.27013 5.64794C8.74223 6.40136 10.5464 5.82142 11.3038 4.35135L12 3Z" stroke="currentColor" stroke-width="2" stroke-linejoin="round"/></svg>
