<svg xmlns="http://www.w3.org/2000/svg" viewBox="0 0 24 24" fill="none"><circle cx="12" cy="10" r="7.5" stroke="currentColor" stroke-width="2"/><path d="M8 16.5V22L12 21L16 22V16.5" stroke="currentColor" stroke-width="2" stroke-linecap="round" stroke-linejoin="round"/><path d="M12.0391 6C12.5913 6 13.0391 6.44772 13.0391 7V13.0352C13.0391 13.568 12.6071 14 12.0742 14C11.5414 14 11.1094 13.568 11.1094 13.0352V7.84127C11.1094 7.82106 11.093 7.80469 11.0728 7.80469C11.0661 7.80469 11.0595 7.80655 11.0537 7.81006L10.361 8.23357C9.88471 8.52474 9.27344 8.18199 9.27344 7.62378C9.27344 7.37676 9.40099 7.14725 9.61076 7.01682L10.7611 6.30155C11.0781 6.10446 11.4439 6 11.8172 6H12.0391Z" fill="currentColor"/></svg>
