<svg xmlns="http://www.w3.org/2000/svg" viewBox="0 0 24 24" fill="none"><path d="M11.6218 4.53911L13.2293 3.48587C14.218 2.83804 15.4921 2.83804 16.4808 3.48587L17.2697 4.00276C17.7802 4.33727 18.0882 4.90965 18.0882 5.52373C18.0882 6.21744 18.4805 6.85039 19.0988 7.15421L19.5438 7.37291C21.0181 8.09739 21.4621 10.0041 20.4618 11.3149L19.166 13.0131M11.6218 4.53911L7.50618 5.16143C5.90049 5.40423 4.78179 6.89727 4.9884 8.52173L5.15546 9.83534M11.6218 4.53911L13.7773 7.18723M5.15546 9.83534L4.51581 10.1497C3.58843 10.6054 3 11.5548 3 12.5954V13.0228C3 13.6774 3.32836 14.2875 3.87254 14.644C4.34452 14.9533 4.65788 15.4562 4.7295 16.0193L4.97162 17.9231C5.08755 18.8346 5.61621 19.6403 6.40272 20.1041C7.29957 20.633 8.40665 20.6447 9.3143 20.1349L11.6218 18.8389M5.15546 9.83534L5.91343 10.5803C6.42854 11.0866 7.20323 11.2123 7.84979 10.8946M11.6218 18.8389L12.4853 19.8997C13.2646 20.8571 14.5458 21.2353 15.7138 20.8526L16.447 20.6124C16.819 20.4905 17.1637 20.2961 17.4614 20.0401L19.4177 18.3576C20.519 17.4105 20.788 15.8029 20.0559 14.5437L19.166 13.0131M11.6218 18.8389L10.5441 17.7797M19.166 13.0131L16.4716 13.5427" stroke="currentColor" stroke-width="2" stroke-linecap="round" stroke-linejoin="round"/></svg>
