<svg xmlns="http://www.w3.org/2000/svg" viewBox="0 0 24 24" fill="none"><path d="M12.5 8.5C12.5 10.433 10.933 12 9 12C7.067 12 5.5 10.433 5.5 8.5C5.5 6.567 7.067 5 9 5C10.933 5 12.5 6.567 12.5 8.5Z" stroke="currentColor" stroke-width="2" stroke-linecap="round"/><path d="M15.2539 5.00928C17.068 5.13971 18.4993 6.65279 18.4993 8.50016C18.4993 10.3475 17.068 11.8606 15.2539 11.991" stroke="currentColor" stroke-width="2" stroke-linecap="round"/><path d="M3 19V17.765C3 16.0999 4.34315 14.75 6 14.75H12C13.6569 14.75 15 16.0999 15 17.765V19" stroke="currentColor" stroke-width="2" stroke-linecap="round"/><path d="M20.9985 19V17.765C20.9985 16.0999 19.6553 14.75 17.9985 14.75H17.8984" stroke="currentColor" stroke-width="2" stroke-linecap="round"/></svg>
