<svg xmlns="http://www.w3.org/2000/svg" viewBox="0 0 24 24" fill="none"><path d="M14 21V20C14 18.8954 14.8954 18 16 18C17.1046 18 18 17.1046 18 16V14.0662C18 13.7149 18.1843 13.3894 18.4855 13.2087L19.6007 12.5396C20.0903 12.2458 20.2342 11.6026 19.9072 11.1346C18.9899 9.82186 18.1817 8.73341 17.5555 7.13279C16.4738 4.36784 13.8499 3 11 3C7.13401 3 4 6.13401 4 10C4 11.6287 4.55625 13.1275 5.48913 14.3168C7.1347 16.4146 7 18.4758 7 21" stroke="currentColor" stroke-width="2" stroke-linecap="round" stroke-linejoin="round"/><path d="M7.5 9C7.5 7.61929 8.61929 6.5 10 6.5C11.3807 6.5 12.5 7.61929 12.5 9V10.5C12.5 11.8807 11.3807 13 10 13C8.61929 13 7.5 11.8807 7.5 10.5V9Z" stroke="currentColor" stroke-width="2"/><path d="M10 6.5V2.5" stroke="currentColor" stroke-width="2" stroke-linecap="round"/></svg>
