<svg xmlns="http://www.w3.org/2000/svg" viewBox="0 0 24 24" fill="none"><path d="M14 18V12C14 10.3431 12.6569 9 11 9C9.34315 9 8 10.3431 8 12V18C8 19.6569 9.34315 21 11 21C12.6569 21 14 19.6569 14 18Z" stroke="currentColor" stroke-width="2" stroke-linecap="round" stroke-linejoin="round"/><path d="M11 9V4.25C11 3.2835 10.2165 2.5 9.25 2.5C8.2835 2.5 7.5 3.2835 7.5 4.25C7.5 5.2165 8.2835 6 9.25 6H10.625" stroke="currentColor" stroke-width="2" stroke-linecap="round" stroke-linejoin="round"/><path d="M14.502 6H10.0271C7.52038 6 5.37205 7.66915 4.69531 10" stroke="currentColor" stroke-width="2" stroke-linecap="round" stroke-linejoin="round"/><path d="M20 6.80179V5.19821C20 4.57431 19.435 4.10274 18.8211 4.21434L15.3211 4.85071C14.8456 4.93716 14.5 5.35129 14.5 5.83458V6.16542C14.5 6.64871 14.8456 7.06284 15.3211 7.14929L18.8211 7.78566C19.435 7.89726 20 7.42569 20 6.80179Z" stroke="currentColor" stroke-width="2" stroke-linejoin="round"/></svg>
