<svg xmlns="http://www.w3.org/2000/svg" viewBox="0 0 24 24" fill="none"><path d="M3 11H21V17C21 18.6569 19.6569 20 18 20H6C4.34315 20 3 18.6569 3 17V11Z" stroke="currentColor" stroke-width="2" stroke-linecap="round" stroke-linejoin="round"/><path d="M13 11V4C13 3.44772 13.4477 3 14 3H18C18.5523 3 19 3.44772 19 4V11" stroke="currentColor" stroke-width="2" stroke-linecap="round" stroke-linejoin="round"/><path d="M13.0039 7H15.0039" stroke="currentColor" stroke-width="2" stroke-linecap="round" stroke-linejoin="round"/><path d="M5.00391 11V6.55234C5.00391 5.87113 5.23575 5.2102 5.6613 4.67826L6.69156 3.39043C6.88898 3.14366 7.18788 3 7.50391 3C7.81994 3 8.11883 3.14366 8.31625 3.39043L9.34651 4.67826C9.77206 5.2102 10.0039 5.87113 10.0039 6.55234V11" stroke="currentColor" stroke-width="2" stroke-linecap="round" stroke-linejoin="round"/></svg>
