<svg xmlns="http://www.w3.org/2000/svg" viewBox="0 0 24 24" fill="none"><path d="M21 12C21 16.9706 16.9706 21 12 21C7.02944 21 3 16.9706 3 12C3 7.02944 7.02944 3 12 3C16.9706 3 21 7.02944 21 12Z" stroke="currentColor" stroke-width="2" stroke-linejoin="round"/><path d="M9.20696 11.2929L11.2927 9.20708C11.6833 8.81655 12.3164 8.81655 12.707 9.20708L14.7927 11.2929C15.1833 11.6834 15.1833 12.3166 14.7927 12.7071L12.707 14.7929C12.3164 15.1834 11.6833 15.1834 11.2927 14.7929L9.20696 12.7071C8.81643 12.3166 8.81643 11.6834 9.20696 11.2929Z" stroke="currentColor" stroke-width="2" stroke-linecap="square" stroke-linejoin="round"/></svg>
