<svg xmlns="http://www.w3.org/2000/svg" viewBox="0 0 24 24" fill="none"><path d="M7 5C6.07003 5 5.60504 5 5.22354 5.10222C4.18827 5.37962 3.37962 6.18827 3.10222 7.22354C3 7.60504 3 8.07003 3 9V14.2C3 15.8802 3 16.7202 3.32698 17.362C3.6146 17.9265 4.07354 18.3854 4.63803 18.673C5.27976 19 6.11984 19 7.8 19H11" stroke="currentColor" stroke-width="2" stroke-linecap="round" stroke-linejoin="round"/><path d="M17.5 19C17.9644 19 18.1966 19 18.3916 18.9743C19.7378 18.7971 20.7971 17.7378 20.9743 16.3916C21 16.1966 21 15.9644 21 15.5V9.8C21 8.11984 21 7.27976 20.673 6.63803C20.3854 6.07354 19.9265 5.6146 19.362 5.32698C18.7202 5 17.8802 5 16.2 5H13" stroke="currentColor" stroke-width="2" stroke-linecap="round" stroke-linejoin="round"/><path d="M9 10H15" stroke="currentColor" stroke-width="2" stroke-linecap="round" stroke-linejoin="round"/><path d="M9 14H13" stroke="currentColor" stroke-width="2" stroke-linecap="round" stroke-linejoin="round"/><path d="M9.52239 4.61194L6.8153 2.41243C6.48854 2.14694 6 2.37947 6 2.80049V7.19951C6 7.62053 6.48854 7.85306 6.8153 7.58757L9.52239 5.38806C9.76866 5.18796 9.76866 4.81204 9.52239 4.61194Z" fill="currentColor"/><path d="M14.4776 18.6119L17.1847 16.4124C17.5115 16.1469 18 16.3795 18 16.8005V21.1995C18 21.6205 17.5115 21.8531 17.1847 21.5876L14.4776 19.3881C14.2313 19.188 14.2313 18.812 14.4776 18.6119Z" fill="currentColor"/></svg>
