<svg xmlns="http://www.w3.org/2000/svg" viewBox="0 0 24 24" fill="none"><path d="M21.2245 10.6522C16.4093 3.11588 7.59067 3.11597 2.77546 10.6523C2.25147 11.4724 2.25147 12.5277 2.77546 13.3478C7.59067 20.8841 16.4093 20.884 21.2245 13.3477C21.7485 12.5276 21.7485 11.4723 21.2245 10.6522Z" stroke="currentColor" stroke-width="2" stroke-linecap="round" stroke-linejoin="round"/><path d="M13.2405 10.1852L12.5436 8.37334C12.4571 8.14842 12.241 8 12 8C11.759 8 11.5429 8.14842 11.4564 8.37334L10.7595 10.1852C10.658 10.4493 10.4493 10.658 10.1852 10.7595L8.37334 11.4564C8.14842 11.5429 8 11.759 8 12C8 12.241 8.14842 12.4571 8.37334 12.5436L10.1852 13.2405C10.4493 13.342 10.658 13.5507 10.7595 13.8148L11.4564 15.6267C11.5429 15.8516 11.759 16 12 16C12.241 16 12.4571 15.8516 12.5436 15.6267L13.2405 13.8148C13.342 13.5507 13.5507 13.342 13.8148 13.2405L15.6267 12.5436C15.8516 12.4571 16 12.241 16 12C16 11.759 15.8516 11.5429 15.6267 11.4564L13.8148 10.7595C13.5507 10.658 13.342 10.4493 13.2405 10.1852Z" fill="currentColor"/></svg>
