<svg xmlns="http://www.w3.org/2000/svg" viewBox="0 0 24 24" fill="none"><path d="M18.5 6H5.5C4.67157 6 4 6.67157 4 7.5C4 8.32843 4.67157 9 5.5 9H18.5C19.3284 9 20 8.32843 20 7.5C20 6.67157 19.3284 6 18.5 6Z" stroke="currentColor" stroke-width="2" stroke-linecap="round" stroke-linejoin="round"/><path d="M5.5 6L6.17082 4.65836C6.679 3.64201 7.71779 3 8.8541 3H15.1459C16.2822 3 17.321 3.64201 17.8292 4.65836L18.5 6" stroke="currentColor" stroke-width="2" stroke-linecap="round" stroke-linejoin="round"/><path d="M4.90039 9L5.88363 18.3149C6.04476 19.8414 7.33211 21 8.86706 21H15.1337C16.6687 21 17.956 19.8414 18.1171 18.3149L19.1004 9" stroke="currentColor" stroke-width="2" stroke-linecap="round" stroke-linejoin="round"/></svg>
