<svg xmlns="http://www.w3.org/2000/svg" viewBox="0 0 24 24" fill="none"><path d="M6 4H8.39445C9.39751 4 10.3342 4.5013 10.8906 5.3359L11.4063 6.1094C11.7772 6.6658 12.4017 7 13.0704 7H18C19.1046 7 20 7.89543 20 9V11H20.6398C21.3144 11 21.7955 11.6543 21.5943 12.2983L19.9386 17.5965C19.6777 18.4315 18.9044 19 18.0296 19H4.44076C3.64505 19 3 18.3549 3 17.5592V7C3 5.34315 4.34315 4 6 4Z" stroke="currentColor" stroke-width="2" stroke-linecap="round" stroke-linejoin="round"/><path d="M4.44141 19C5.07157 19 5.62862 18.5905 5.81659 17.989L7.56207 12.4034C7.82299 11.5685 8.59625 11 9.47102 11H20.0006" stroke="currentColor" stroke-width="2" stroke-linecap="round" stroke-linejoin="round"/></svg>
