<svg xmlns="http://www.w3.org/2000/svg" viewBox="0 0 24 24" fill="none"><path d="M16.2159 14.9191C16.3118 14.7523 16.3477 14.5545 16.308 14.364C16.2684 14.1736 16.1576 14.007 15.9985 13.8998C15.8393 13.7925 15.6433 13.7524 15.4519 13.7871C15.2605 13.8218 15.0907 13.9294 14.972 14.0809C14.8981 14.1727 14.8222 14.2582 14.7416 14.3413C14.024 15.0857 13.0195 15.4772 12.0036 15.475C10.9877 15.4757 9.98262 15.0829 9.26224 14.3392C9.18134 14.2561 9.10515 14.1707 9.03083 14.079C8.91168 13.9278 8.7415 13.8208 8.54999 13.7867C8.35856 13.7525 8.16266 13.7933 8.00383 13.901C7.84499 14.0088 7.73472 14.1757 7.69568 14.3662C7.65658 14.5568 7.6931 14.7545 7.78949 14.921C7.87478 15.0645 7.96555 15.2011 8.06582 15.3356C8.95754 16.5537 10.4875 17.285 12.0023 17.275C13.5169 17.2876 15.0506 16.5568 15.9404 15.3349C16.0405 15.2 16.131 15.063 16.2159 14.9191Z" fill="currentColor"/><path d="M10.75 9.9C10.75 11.0046 10.0784 11.75 9.25 11.75C8.42157 11.75 7.75 11.0046 7.75 9.9C7.75 8.79543 8.42157 8 9.25 8C10.0784 8 10.75 8.79543 10.75 9.9Z" fill="currentColor"/><path d="M16.25 9.9C16.25 11.0046 15.5784 11.75 14.75 11.75C13.9216 11.75 13.25 11.0046 13.25 9.9C13.25 8.79543 13.9216 8 14.75 8C15.5784 8 16.25 8.79543 16.25 9.9Z" fill="currentColor"/><circle cx="12" cy="12" r="9" stroke="currentColor" stroke-width="2"/></svg>
