<svg xmlns="http://www.w3.org/2000/svg" viewBox="0 0 24 24" fill="none"><path d="M2 13C2 11.8954 2.89543 11 4 11C5.10457 11 6 11.8954 6 13V13.5H18V13C18 11.8954 18.8954 11 20 11C21.1046 11 22 11.8954 22 13V14C22 15.6569 20.6569 17 19 17H5C3.34315 17 2 15.6569 2 14V13Z" stroke="currentColor" stroke-width="2" stroke-linecap="round" stroke-linejoin="round"/><path d="M20 11V9C20 6.79086 18.2091 5 16 5H8C5.79086 5 4 6.79086 4 9V11" stroke="currentColor" stroke-width="2" stroke-linecap="round" stroke-linejoin="round"/><path d="M5 17V19" stroke="currentColor" stroke-width="2" stroke-linecap="round" stroke-linejoin="round"/><path d="M19 17V19" stroke="currentColor" stroke-width="2" stroke-linecap="round" stroke-linejoin="round"/></svg>
