<svg xmlns="http://www.w3.org/2000/svg" viewBox="0 0 24 24" fill="none"><path d="M14 16.5C14 17.8807 15.1193 19 16.5 19C17.8807 19 19 17.8807 19 16.5C19 15.1193 17.8807 14 16.5 14C15.1193 14 14 15.1193 14 16.5Z" stroke="currentColor" stroke-width="2" stroke-linecap="round" stroke-linejoin="round"/><path d="M5 16.5C5 17.8807 6.11929 19 7.5 19C8.88071 19 10 17.8807 10 16.5C10 15.1193 8.88071 14 7.5 14C6.11929 14 5 15.1193 5 16.5Z" stroke="currentColor" stroke-width="2" stroke-linecap="round" stroke-linejoin="round"/><path d="M14 16H10" stroke="currentColor" stroke-width="2" stroke-linecap="round" stroke-linejoin="round"/><path d="M19.2857 16C20.2547 16 21.0619 15.2573 21.1424 14.2916L21.4421 10.6951C21.4796 10.245 21.3636 9.79544 21.1131 9.41962L20.0937 7.8906C19.7228 7.3342 19.0983 7 18.4296 7H16" stroke="currentColor" stroke-width="2" stroke-linecap="round" stroke-linejoin="round"/><path d="M4.81818 16C3.84444 16 3.08334 15.1597 3.17944 14.1907L3.19835 14M7 8H3.72727L3.75196 7.72839C3.89244 6.18315 5.18803 5 6.73964 5H12.7149C14.479 5 15.8623 6.51476 15.7026 8.27161L15.1364 14.5" stroke="currentColor" stroke-width="2" stroke-linecap="round" stroke-linejoin="round"/><path d="M2 11H5" stroke="currentColor" stroke-width="2" stroke-linecap="round" stroke-linejoin="round"/></svg>
