<svg xmlns="http://www.w3.org/2000/svg" viewBox="0 0 24 24" fill="none"><path d="M16 12C15.2422 8.22782 13.0338 5.27678 10 3.00003C10.8746 6.09938 10.6531 8.74121 9 11.5" stroke="currentColor" stroke-width="2" stroke-linecap="round" stroke-linejoin="round"/><path d="M21 16.25C21 19.0115 18.7614 21.0001 16 21.0001C13.2386 21.0001 11 19.0115 11 16.25C11 12.3025 13.5 11.5001 16 12.5C18.5 11.5001 21 12.3025 21 16.25Z" stroke="currentColor" stroke-width="2" stroke-linecap="round" stroke-linejoin="round"/><path d="M14.5 7H16C17.6569 7 19 5.65685 19 4V3C19 2.44772 18.5523 2 18 2H17C15.3431 2 14 3.34315 14 5V6" stroke="currentColor" stroke-width="2" stroke-linecap="round" stroke-linejoin="round"/><path d="M11.7505 19.2835C10.5723 20.7608 8.5611 21.3859 6.5554 20.8485C0.120881 19.1244 3.37764 8.61496 8.75537 12.6381C9.83572 12.5093 10.8399 12.6647 11.5857 13.1473" stroke="currentColor" stroke-width="2" stroke-linecap="round" stroke-linejoin="round"/></svg>
