<svg xmlns="http://www.w3.org/2000/svg" viewBox="0 0 24 24" fill="none"><path d="M16.5 5.75V11.5H16C8.58264 6.98509 6.98941 10.7904 5.45141 14.4637C4.60487 16.4856 3.77506 18.4675 2 19H7V19.5C7 20.3284 7.67157 21 8.5 21C9.32843 21 10 20.3284 10 19.5V19H14V19.5C14 20.3284 14.6716 21 15.5 21C16.3284 21 17 20.3284 17 19.5V18.1973C18.7934 17.1599 20 15.2208 20 13V8.11803C20 7.73926 20.214 7.393 20.5528 7.22361L22 6.5V5.75C22 4.23122 20.7688 3 19.25 3C17.7312 3 16.5 4.23122 16.5 5.75Z" stroke="currentColor" stroke-width="2" stroke-linejoin="round"/></svg>
