<svg xmlns="http://www.w3.org/2000/svg" viewBox="0 0 24 24" fill="none"><path d="M13 15V12.7071C13 12.2616 13.5386 12.0385 13.8536 12.3535L16.6464 15.1464C16.9614 15.4614 16.7383 16 16.2929 16H14C13.4477 16 13 15.5522 13 15Z" fill="currentColor"/><path d="M21.0009 19V21.2929C21.0009 21.7383 20.4624 21.9614 20.1474 21.6464L17.3545 18.8536C17.0395 18.5386 17.2626 18 17.708 18H20.0009C20.5532 18 21.0009 18.4477 21.0009 19Z" fill="currentColor"/><path d="M20 8C20 6.34315 18.6569 5 17 5H7C5.34315 5 4 6.34315 4 8V9H20C20 9 20 8.55228 20 8Z" stroke="currentColor" stroke-width="2" stroke-linecap="round" stroke-linejoin="round"/><path d="M4 9V17C4 18.6569 5.34315 20 7 20H10" stroke="currentColor" stroke-width="2" stroke-linecap="round" stroke-linejoin="round"/><path d="M8 5V3" stroke="currentColor" stroke-width="2" stroke-linecap="round" stroke-linejoin="round"/><path d="M16 5V3" stroke="currentColor" stroke-width="2" stroke-linecap="round" stroke-linejoin="round"/><path d="M19.4231 19.7188C18.7746 20.2828 17.9203 20.625 17.0009 20.625C15.3458 20.625 13.9497 19.5157 13.5156 18" stroke="currentColor" stroke-width="2" stroke-linecap="round" stroke-linejoin="round"/><path d="M14.3711 14.4743C15.0386 13.7963 15.9786 13.375 16.9986 13.375C18.6538 13.375 20.0498 14.4843 20.4839 16" stroke="currentColor" stroke-width="2" stroke-linecap="round" stroke-linejoin="round"/></svg>
