<svg xmlns="http://www.w3.org/2000/svg" viewBox="0 0 24 24" fill="none"><path d="M10.7424 5.08581C14.5545 4.56441 18.5221 6.42082 21.2263 10.6551C21.7501 11.4753 21.7503 12.5244 21.2265 13.3446C20.932 13.8057 20.6226 14.2386 20.3 14.6434" stroke="currentColor" stroke-width="2" stroke-linecap="round" stroke-linejoin="round"/><path d="M3.70711 2.29289C3.31658 1.90237 2.68342 1.90237 2.29289 2.29289C1.90237 2.68342 1.90237 3.31658 2.29289 3.70711L3.70711 2.29289ZM20.2929 21.7071C20.6834 22.0976 21.3166 22.0976 21.7071 21.7071C22.0976 21.3166 22.0976 20.6834 21.7071 20.2929L20.2929 21.7071ZM2.29289 3.70711L20.2929 21.7071L21.7071 20.2929L3.70711 2.29289L2.29289 3.70711Z" fill="currentColor"/><path d="M10.3327 10.8948C10.6385 10.4349 10.5136 9.81418 10.0537 9.50839C9.59377 9.20261 8.97305 9.32755 8.66727 9.78745L10.3327 10.8948ZM14.2126 15.3328C14.6725 15.027 14.7974 14.4063 14.4916 13.9463C14.1858 13.4864 13.5651 13.3615 13.1052 13.6673L14.2126 15.3328ZM12 14C10.8954 14 10 13.1046 10 12H8C8 14.2092 9.79086 16 12 16V14ZM10 12C10 11.5897 10.1225 11.211 10.3327 10.8948L8.66727 9.78745C8.24565 10.4216 8 11.1836 8 12H10ZM13.1052 13.6673C12.789 13.8775 12.4103 14 12 14V16C12.8164 16 13.5785 15.7544 14.2126 15.3328L13.1052 13.6673Z" fill="currentColor"/><path d="M6.12804 7C4.8897 7.90878 3.74923 9.12726 2.77333 10.6554C2.24952 11.4757 2.25027 12.5258 2.77416 13.346C6.35039 18.9448 12.1359 20.3855 16.8491 17.6681" stroke="currentColor" stroke-width="2" stroke-linecap="round" stroke-linejoin="round"/></svg>
