<svg xmlns="http://www.w3.org/2000/svg" viewBox="0 0 24 24" fill="none"><circle cx="12" cy="12" r="9" stroke="currentColor" stroke-width="2"/><path d="M11.9902 16.4385C9.8457 16.4385 8.375 15.4307 8.375 13.9365C8.375 12.7939 9.24219 11.9971 10.4316 11.792V11.751C9.40039 11.5225 8.67969 10.8018 8.67969 9.86426C8.67969 8.52832 10.0332 7.56152 11.9902 7.56152C13.9531 7.56152 15.3008 8.52832 15.3008 9.87012C15.3008 10.79 14.5859 11.5225 13.5605 11.751V11.792C14.75 11.9971 15.6113 12.7998 15.6113 13.9424C15.6113 15.4307 14.1289 16.4385 11.9902 16.4385ZM11.9902 11.1416C12.6875 11.1416 13.1855 10.708 13.1855 10.0869C13.1855 9.45996 12.6816 9.03223 11.9902 9.03223C11.3047 9.03223 10.8066 9.45996 10.8066 10.0869C10.8066 10.708 11.2988 11.1416 11.9902 11.1416ZM11.9902 14.9619C12.7988 14.9619 13.3555 14.4639 13.3555 13.7783C13.3555 13.1045 12.7988 12.6182 11.9902 12.6182C11.1875 12.6182 10.6309 13.1045 10.6309 13.7783C10.6309 14.4639 11.1875 14.9619 11.9902 14.9619Z" fill="currentColor"/></svg>
