<svg xmlns="http://www.w3.org/2000/svg" viewBox="0 0 24 24" fill="none"><path d="M8 4C8 3.44772 7.55228 3 7 3C6.44772 3 6 3.44772 6 4H8ZM6 10C6 10.5523 6.44772 11 7 11C7.55228 11 8 10.5523 8 10H6ZM4 6C3.44772 6 3 6.44772 3 7C3 7.55228 3.44772 8 4 8V6ZM10 8C10.5523 8 11 7.55228 11 7C11 6.44772 10.5523 6 10 6V8ZM19.8282 15.5853C20.2187 15.1947 20.2187 14.5616 19.8282 14.1711C19.4377 13.7805 18.8045 13.7805 18.414 14.1711L19.8282 15.5853ZM14.1713 18.4137C13.7808 18.8042 13.7808 19.4374 14.1713 19.8279C14.5619 20.2184 15.195 20.2184 15.5855 19.8279L14.1713 18.4137ZM15.5855 14.1711C15.195 13.7805 14.5619 13.7805 14.1713 14.1711C13.7808 14.5616 13.7808 15.1947 14.1713 15.5853L15.5855 14.1711ZM18.414 19.8279C18.8045 20.2184 19.4377 20.2184 19.8282 19.8279C20.2187 19.4374 20.2187 18.8042 19.8282 18.4137L18.414 19.8279ZM17 9C15.8954 9 15 8.10457 15 7H13C13 9.20914 14.7909 11 17 11V9ZM19 7C19 8.10457 18.1046 9 17 9V11C19.2091 11 21 9.20914 21 7H19ZM17 5C18.1046 5 19 5.89543 19 7H21C21 4.79086 19.2091 3 17 3V5ZM17 3C14.7909 3 13 4.79086 13 7H15C15 5.89543 15.8954 5 17 5V3ZM6 4V7H8V4H6ZM6 7V10H8V7H6ZM4 8H7V6H4V8ZM7 8H10V6H7V8ZM18.414 14.1711L16.2926 16.2924L17.7069 17.7066L19.8282 15.5853L18.414 14.1711ZM16.2926 16.2924L14.1713 18.4137L15.5855 19.8279L17.7069 17.7066L16.2926 16.2924ZM14.1713 15.5853L16.2926 17.7066L17.7069 16.2924L15.5855 14.1711L14.1713 15.5853ZM16.2926 17.7066L18.414 19.8279L19.8282 18.4137L17.7069 16.2924L16.2926 17.7066ZM6 15H8V13H6V15ZM9 16V18H11V16H9ZM8 19H6V21H8V19ZM5 18V16H3V18H5ZM6 19C5.44772 19 5 18.5523 5 18H3C3 19.6569 4.34315 21 6 21V19ZM9 18C9 18.5523 8.55228 19 8 19V21C9.65685 21 11 19.6569 11 18H9ZM8 15C8.55228 15 9 15.4477 9 16H11C11 14.3431 9.65685 13 8 13V15ZM6 13C4.34315 13 3 14.3431 3 16H5C5 15.4477 5.44772 15 6 15V13Z" fill="currentColor"/></svg>
