<svg xmlns="http://www.w3.org/2000/svg" viewBox="0 0 24 24" fill="none"><path d="M11.5 21H8C6.34315 21 5 19.6569 5 18V6C5 4.34315 6.34315 3 8 3H16C17.6569 3 19 4.34315 19 6V8" stroke="currentColor" stroke-width="2" stroke-linecap="round"/><path d="M15 15C15 13.3431 16.3431 12 18 12C19.6569 12 21 13.3431 21 15" stroke="currentColor" stroke-width="2" stroke-linecap="round"/><path d="M15 18C15 19.6569 16.3431 21 18 21C19.6569 21 21 19.6569 21 18" stroke="currentColor" stroke-width="2" stroke-linecap="round"/><path d="M18 16V17" stroke="currentColor" stroke-width="2" stroke-linecap="round"/><path d="M9 7H15" stroke="currentColor" stroke-width="2" stroke-linecap="round"/><path d="M9 11H11" stroke="currentColor" stroke-width="2" stroke-linecap="round"/></svg>
