<svg xmlns="http://www.w3.org/2000/svg" viewBox="0 0 24 24" fill="none"><path d="M5.99973 11.9998C5.99973 10.3429 6.67131 8.8429 7.75709 7.75712M7.75709 16.2424C8.84288 17.3282 10.3429 17.9998 11.9997 17.9998M10.9997 3.05469C9.08898 3.26591 7.35851 4.0753 5.99973 5.29144M3.05469 13C3.24858 14.7535 3.94624 16.3552 4.99973 17.6571M10.9997 9.17046C10.5735 9.32111 10.1915 9.56533 9.87841 9.87844C9.33552 10.4213 8.99973 11.1713 8.99973 11.9998C8.99973 12.8282 9.33552 13.5782 9.87841 14.1211C10.4213 14.664 11.1713 14.9998 11.9997 14.9998C12.8282 14.9998 13.5782 14.664 14.1211 14.1211C14.4341 13.808 14.6783 13.4261 14.8289 13M12.9995 20.9449C14.9103 20.7337 16.6409 19.9243 17.9997 18.7081M16.4995 15.9687C17.4332 14.911 17.9997 13.5215 17.9997 11.9998C17.9997 10.478 17.4332 9.0885 16.4995 8.03077M18.7083 6C19.9243 7.3588 20.7337 9.08927 20.9448 11" stroke="currentColor" stroke-width="2" stroke-linecap="round"/></svg>
