<svg xmlns="http://www.w3.org/2000/svg" viewBox="0 0 24 24" fill="none"><path d="M5.665 13.7773C4.74545 13.7773 4 14.5228 4 15.4423V18.3346C4 19.2541 4.74545 19.9996 5.665 19.9996C6.58455 19.9996 7.33 19.2541 7.33 18.3346V15.4423C7.33 14.5228 6.58455 13.7773 5.665 13.7773Z" stroke="currentColor" stroke-width="2" stroke-linecap="square"/><path d="M11.995 9.33398C11.0755 9.33398 10.33 10.0794 10.33 10.999V18.3357C10.33 19.2552 11.0755 20.0007 11.995 20.0007C12.9146 20.0007 13.66 19.2552 13.66 18.3356V10.999C13.66 10.0794 12.9146 9.33398 11.995 9.33398Z" stroke="currentColor" stroke-width="2" stroke-linecap="square"/><path d="M18.335 4C17.4154 4 16.67 4.74545 16.67 5.665V18.335C16.67 19.2546 17.4154 20 18.335 20C19.2546 20 20 19.2546 20 18.335V5.665C20 4.74545 19.2546 4 18.335 4Z" stroke="currentColor" stroke-width="2" stroke-linecap="square"/></svg>
