<svg xmlns="http://www.w3.org/2000/svg" viewBox="0 0 24 24" fill="none"><path d="M2 5V4H6H10V5" stroke="currentColor" stroke-width="2" stroke-linecap="round" stroke-linejoin="round"/><path d="M6 4V11M6 11H5M6 11H7" stroke="currentColor" stroke-width="2" stroke-linecap="round" stroke-linejoin="round"/><path d="M6 16V17C6 18.6569 7.34315 20 9 20H17C18.6569 20 20 18.6569 20 17V9C20 7.34315 18.6569 6 17 6H15" stroke="currentColor" stroke-width="2" stroke-linecap="round" stroke-linejoin="round"/><path d="M11 15.5272V10.4728C11 9.85986 11.6954 9.50575 12.1911 9.86628L15.666 12.3934C16.0778 12.693 16.0778 13.307 15.666 13.6066L12.1911 16.1337C11.6954 16.4943 11 16.1401 11 15.5272Z" fill="currentColor"/></svg>
