<svg xmlns="http://www.w3.org/2000/svg" viewBox="0 0 24 24" fill="none"><path d="M20 9H4M20 9V8C20 6.34315 18.6569 5 17 5H7C5.34315 5 4 6.34315 4 8V9M20 9V10M4 9V17C4 18.6569 5.34315 20 7 20H11" stroke="currentColor" stroke-width="2" stroke-linecap="round" stroke-linejoin="round"/><path d="M8 5V3" stroke="currentColor" stroke-width="2" stroke-linecap="round" stroke-linejoin="round"/><path d="M16 5V3" stroke="currentColor" stroke-width="2" stroke-linecap="round" stroke-linejoin="round"/><path d="M21 17L17.8787 20.1214C17.3161 20.684 16.553 21 15.7574 21H15V20.2427C15 19.447 15.3161 18.684 15.8787 18.1214L19 15C19.5523 14.4477 20.4477 14.4477 21 15C21.5523 15.5523 21.5523 16.4477 21 17Z" stroke="currentColor" stroke-width="2" stroke-linecap="round" stroke-linejoin="round"/></svg>
