<svg xmlns="http://www.w3.org/2000/svg" viewBox="0 0 24 24" fill="none"><path d="M14 16.5C14 17.8807 15.1193 19 16.5 19C17.8807 19 19 17.8807 19 16.5C19 15.1193 17.8807 14 16.5 14C15.1193 14 14 15.1193 14 16.5Z" stroke="currentColor" stroke-width="2" stroke-linecap="round" stroke-linejoin="round"/><path d="M5 16.5C5 17.8807 6.11929 19 7.5 19C8.88071 19 10 17.8807 10 16.5C10 15.1193 8.88071 14 7.5 14C6.11929 14 5 15.1193 5 16.5Z" stroke="currentColor" stroke-width="2" stroke-linecap="round" stroke-linejoin="round"/><path d="M14 16H10" stroke="currentColor" stroke-width="2" stroke-linecap="round" stroke-linejoin="round"/><path d="M19 16C20.1046 16 21 15.1046 21 14V10.6056C21 10.2107 20.8831 9.82469 20.6641 9.49615L19.5937 7.8906C19.2228 7.3342 18.5983 7 17.9296 7H15" stroke="currentColor" stroke-width="2" stroke-linecap="round" stroke-linejoin="round"/><path d="M15 14.5V8C15 6.34315 13.6569 5 12 5H6C4.34315 5 3 6.34315 3 8V14.1818C3 15.186 3.81403 16 4.81818 16" stroke="currentColor" stroke-width="2" stroke-linecap="round" stroke-linejoin="round"/></svg>
