<svg xmlns="http://www.w3.org/2000/svg" viewBox="0 0 24 24" fill="none"><path d="M14.9656 17.3301C14.3797 17.3301 14.0721 17.0078 14.0721 16.5317C14.0721 16.1655 14.1966 15.9458 14.5994 15.5649L17.8294 12.3643C19.177 11.0312 19.514 10.4966 19.514 9.69092C19.514 8.74609 18.7889 8.06494 17.7708 8.06494C16.8187 8.06494 16.1521 8.54834 15.7786 9.50049C15.5882 9.88135 15.3685 10.0791 14.9363 10.0791C14.4236 10.0791 14.116 9.76416 14.116 9.29541C14.116 9.15625 14.138 9.02441 14.1746 8.8999C14.4603 7.75732 15.7273 6.54883 17.7854 6.54883C19.9021 6.54883 21.3597 7.80127 21.3597 9.57373C21.3597 10.8115 20.7664 11.6465 19.0159 13.3604L16.5916 15.748V15.7847H20.8104C21.3084 15.7847 21.616 16.0923 21.616 16.561C21.616 17.0225 21.3084 17.3301 20.8104 17.3301H14.9656Z" fill="currentColor"/><path d="M12.1962 15.4697C12.6869 15.4697 13.0165 15.7554 13.0165 16.2168C13.0165 16.356 13.0019 16.4878 12.9579 16.6416L12.3354 19.1245C12.2328 19.5566 12.0131 19.7544 11.581 19.7544C11.1488 19.7544 10.8778 19.4761 10.8998 19.0806C10.8998 19.0073 10.9071 18.9561 10.9145 18.9268L11.3393 16.2314C11.4198 15.6968 11.7201 15.4697 12.1962 15.4697Z" fill="currentColor"/><path d="M6.62891 17.5425C4.02148 17.5425 2.46875 15.4258 2.46875 12.0347C2.46875 8.6582 4.03613 6.54883 6.62891 6.54883C9.21436 6.54883 10.7744 8.64355 10.7744 12.0273C10.7744 15.4111 9.229 17.5425 6.62891 17.5425ZM6.62891 15.9971C8.05713 15.9971 8.87012 14.5396 8.87012 12.0347C8.87012 9.55908 8.04248 8.09424 6.62891 8.09424C5.20801 8.09424 4.37305 9.56641 4.37305 12.0273C4.37305 14.5322 5.19336 15.9971 6.62891 15.9971Z" fill="currentColor"/></svg>
