<svg xmlns="http://www.w3.org/2000/svg" viewBox="0 0 24 24" fill="none"><path d="M9 6C8.44772 6 8 6.44772 8 7C8 7.55228 8.44772 8 9 8V6ZM15 8C15.5523 8 16 7.55228 16 7C16 6.44772 15.5523 6 15 6V8ZM9 10C8.44772 10 8 10.4477 8 11C8 11.5523 8.44772 12 9 12V10ZM12 12C12.5523 12 13 11.5523 13 11C13 10.4477 12.5523 10 12 10V12ZM7 4H16V2H7V4ZM18 6V18H20V6H18ZM16 20H7V22H16V20ZM6 19V5H4V19H6ZM7 20C6.44771 20 6 19.5523 6 19H4C4 20.6569 5.34315 22 7 22V20ZM18 18C18 19.1046 17.1046 20 16 20V22C18.2091 22 20 20.2091 20 18H18ZM16 4C17.1046 4 18 4.89543 18 6H20C20 3.79086 18.2091 2 16 2V4ZM7 2C5.34315 2 4 3.34315 4 5H6C6 4.44772 6.44772 4 7 4V2ZM18 12V14H20V12H18ZM16 16H7V18H16V16ZM7 22H10V20H7V22ZM7 16C5.34315 16 4 17.3431 4 19H6C6 18.4477 6.44772 18 7 18V16ZM18 14C18 15.1046 17.1046 16 16 16V18C18.2091 18 20 16.2091 20 14H18ZM9 8H15V6H9V8ZM9 12H12V10H9V12Z" fill="currentColor"/></svg>
