<svg xmlns="http://www.w3.org/2000/svg" viewBox="0 0 24 24" fill="none"><path d="M21 8H20V16H21H22V8H21ZM6 5V6H18V5V4H6V5ZM3 16H4V8H3H2V16H3ZM18 19V18H6V19V20H18V19ZM3 16H2C2 18.2091 3.79086 20 6 20V19V18C4.89543 18 4 17.1046 4 16H3ZM6 5V4C3.79086 4 2 5.79086 2 8H3H4C4 6.89543 4.89543 6 6 6V5ZM21 16H20C20 17.1046 19.1046 18 18 18V19V20C20.2092 20 22 18.2091 22 16H21ZM21 8H22C22 5.79086 20.2092 4 18 4V5V6C19.1046 6 20 6.89543 20 8H21Z" fill="currentColor"/><path d="M21 8.5L13.3416 12.3292C12.497 12.7515 11.5029 12.7515 10.6583 12.3292L3 8.5" stroke="currentColor" stroke-width="2" stroke-linejoin="round"/></svg>
