<svg xmlns="http://www.w3.org/2000/svg" viewBox="0 0 24 24" fill="none"><path fill-rule="evenodd" clip-rule="evenodd" d="M16.5431 3.54289C17.624 2.46201 19.3764 2.46201 20.4573 3.54289C21.5382 4.62377 21.5382 6.37623 20.4573 7.45711L7.4573 20.4571C6.37642 21.538 4.62396 21.538 3.54308 20.4571C2.4622 19.3762 2.4622 17.6238 3.54308 16.5429L16.5431 3.54289ZM19.0431 4.95711C18.7433 4.65728 18.2571 4.65728 17.9573 4.95711L16.1644 6.75L17.2502 7.83579L19.0431 6.04289C19.3429 5.74306 19.3429 5.25694 19.0431 4.95711ZM15.836 9.25L14.7502 8.16421L4.9573 17.9571C4.65746 18.2569 4.65746 18.7431 4.9573 19.0429C5.25713 19.3427 5.74325 19.3427 6.04308 19.0429L15.836 9.25Z" fill="currentColor"/><path d="M9.85027 2.07454C9.94703 2.02616 10.0255 1.9477 10.0739 1.85094L10.5521 0.894435C10.7364 0.525911 11.2623 0.525911 11.4466 0.894435L11.9248 1.85094C11.9732 1.9477 12.0517 2.02616 12.1484 2.07454L13.1049 2.55279C13.4734 2.73706 13.4734 3.26296 13.1049 3.44722L12.1484 3.92547C12.0517 3.97385 11.9732 4.05232 11.9248 4.14908L11.4466 5.10558C11.2623 5.47411 10.7364 5.47411 10.5521 5.10558L10.0739 4.14908C10.0255 4.05232 9.94703 3.97385 9.85027 3.92547L8.89377 3.44722C8.52525 3.26296 8.52525 2.73706 8.89377 2.55279L9.85027 2.07454Z" fill="currentColor"/><path d="M18.8503 13.0745C18.947 13.0262 19.0255 12.9477 19.0739 12.8509L19.5521 11.8944C19.7364 11.5259 20.2623 11.5259 20.4466 11.8944L20.9248 12.8509C20.9732 12.9477 21.0517 13.0262 21.1484 13.0745L22.1049 13.5528C22.4734 13.7371 22.4734 14.263 22.1049 14.4472L21.1484 14.9255C21.0517 14.9739 20.9732 15.0523 20.9248 15.1491L20.4466 16.1056C20.2623 16.4741 19.7364 16.4741 19.5521 16.1056L19.0739 15.1491C19.0255 15.0523 18.947 14.9739 18.8503 14.9255L17.8938 14.4472C17.5252 14.263 17.5252 13.7371 17.8938 13.5528L18.8503 13.0745Z" fill="currentColor"/><path d="M4.85027 7.07454C4.94703 7.02616 5.0255 6.9477 5.07388 6.85094L5.55213 5.89443C5.73639 5.52591 6.26229 5.52591 6.44656 5.89444L6.92481 6.85094C6.97319 6.9477 7.05165 7.02616 7.14841 7.07454L8.10492 7.55279C8.47344 7.73706 8.47344 8.26296 8.10492 8.44722L7.14841 8.92547C7.05165 8.97385 6.97319 9.05232 6.92481 9.14908L6.44656 10.1056C6.26229 10.4741 5.73639 10.4741 5.55213 10.1056L5.07388 9.14908C5.0255 9.05232 4.94703 8.97385 4.85027 8.92547L3.89377 8.44722C3.52525 8.26296 3.52525 7.73706 3.89377 7.55279L4.85027 7.07454Z" fill="currentColor"/></svg>
