<svg xmlns="http://www.w3.org/2000/svg" viewBox="0 0 24 24" fill="none"><path d="M8 4H7C5.34315 4 4 5.34315 4 7V8" stroke="currentColor" stroke-width="2" stroke-linecap="round" stroke-linejoin="round"/><path d="M16 4H17C18.6569 4 20 5.34315 20 7V8" stroke="currentColor" stroke-width="2" stroke-linecap="round" stroke-linejoin="round"/><path d="M8 20H7C5.34315 20 4 18.6569 4 17V16" stroke="currentColor" stroke-width="2" stroke-linecap="round" stroke-linejoin="round"/><path d="M9 10H15" stroke="currentColor" stroke-width="2" stroke-linecap="round" stroke-linejoin="round"/><path d="M9 14H13" stroke="currentColor" stroke-width="2" stroke-linecap="round" stroke-linejoin="round"/><path d="M19.2405 16.1852L18.5436 14.3733C18.4571 14.1484 18.241 14 18 14C17.759 14 17.5429 14.1484 17.4564 14.3733L16.7595 16.1852C16.658 16.4493 16.4493 16.658 16.1852 16.7595L14.3733 17.4564C14.1484 17.5429 14 17.759 14 18C14 18.241 14.1484 18.4571 14.3733 18.5436L16.1852 19.2405C16.4493 19.342 16.658 19.5507 16.7595 19.8148L17.4564 21.6267C17.5429 21.8516 17.759 22 18 22C18.241 22 18.4571 21.8516 18.5436 21.6267L19.2405 19.8148C19.342 19.5507 19.5507 19.342 19.8148 19.2405L21.6267 18.5436C21.8516 18.4571 22 18.241 22 18C22 17.759 21.8516 17.5429 21.6267 17.4564L19.8148 16.7595C19.5507 16.658 19.342 16.4493 19.2405 16.1852Z" fill="currentColor"/></svg>
