<svg xmlns="http://www.w3.org/2000/svg" viewBox="0 0 24 24" fill="none"><path d="M3 7L11 7" stroke="currentColor" stroke-width="2" stroke-linecap="round" stroke-linejoin="round"/><path d="M7 7V5" stroke="currentColor" stroke-width="2" stroke-linecap="round" stroke-linejoin="round"/><path d="M11.0008 15.0001C7.11407 14.0284 5.11567 11.6405 4.54688 7.37769" stroke="currentColor" stroke-width="2" stroke-linecap="round" stroke-linejoin="round"/><path d="M3.0001 15C6.88484 14.0288 8.88317 11.6428 9.45312 7.38403" stroke="currentColor" stroke-width="2" stroke-linecap="round" stroke-linejoin="round"/><path d="M13.5 18H18.5M12 20L15.0784 12.6888C15.4219 11.8729 16.5781 11.8729 16.9216 12.6888L20 20" stroke="currentColor" stroke-width="2" stroke-linecap="round" stroke-linejoin="round"/><path d="M18.5655 4.86018L17.9756 3.32667C17.8999 3.12986 17.7109 3 17.5 3C17.2891 3 17.1001 3.12986 17.0244 3.32667L16.4345 4.86018C16.333 5.12427 16.1243 5.33297 15.8602 5.43455L14.3267 6.02436C14.1299 6.10005 14 6.28914 14 6.5C14 6.71086 14.1299 6.89995 14.3267 6.97564L15.8602 7.56545C16.1243 7.66703 16.333 7.87573 16.4345 8.13982L17.0244 9.67333C17.1001 9.87014 17.2891 10 17.5 10C17.7109 10 17.8999 9.87014 17.9756 9.67333L18.5655 8.13982C18.667 7.87573 18.8757 7.66703 19.1398 7.56545L20.6733 6.97564C20.8701 6.89995 21 6.71086 21 6.5C21 6.28914 20.8701 6.10005 20.6733 6.02436L19.1398 5.43455C18.8757 5.33297 18.667 5.12427 18.5655 4.86018Z" fill="currentColor"/></svg>
