<svg xmlns="http://www.w3.org/2000/svg" viewBox="0 0 24 24" fill="none"><path d="M18 14.0662V16C18 17.1046 17.1046 18 16 18C14.8954 18 14 18.8954 14 20C14 20.5523 13.5523 21 13 21H8C7.44772 21 7.00233 20.552 7.00265 19.9998C7.00387 17.9174 6.91209 16.1308 5.48913 14.3168C4.55625 13.1275 4 11.6287 4 10C4 6.13401 7.13401 3 11 3C13.8499 3 16.4738 4.36784 17.5555 7.13279C18.1817 8.73341 18.9899 9.82186 19.9072 11.1346C20.2342 11.6026 20.0903 12.2458 19.6007 12.5396L18.4855 13.2087C18.1843 13.3894 18 13.7149 18 14.0662Z" stroke="currentColor" stroke-width="2" stroke-linecap="round" stroke-linejoin="round"/></svg>
