<svg xmlns="http://www.w3.org/2000/svg" viewBox="0 0 24 24" fill="none"><path d="M10 9.5C10 11.433 8.433 13 6.5 13C4.567 13 3 11.433 3 9.5C3 7.567 4.567 6 6.5 6C8.433 6 10 7.567 10 9.5Z" stroke="currentColor" stroke-width="2" stroke-linecap="round" stroke-linejoin="round"/><path d="M21 9.5C21 11.433 19.433 13 17.5 13C15.567 13 14 11.433 14 9.5C14 7.567 15.567 6 17.5 6C19.433 6 21 7.567 21 9.5Z" stroke="currentColor" stroke-width="2" stroke-linecap="round" stroke-linejoin="round"/><path d="M10 9.5C10.25 14.25 8 16 5 18" stroke="currentColor" stroke-width="2" stroke-linecap="round" stroke-linejoin="round"/><path d="M21 9.5C21.25 14.25 19 16 16 18" stroke="currentColor" stroke-width="2" stroke-linecap="round" stroke-linejoin="round"/></svg>
