<svg xmlns="http://www.w3.org/2000/svg" viewBox="0 0 24 24" fill="none"><path d="M14.3273 8.09702L12.7965 4.52523C12.66 4.20659 12.3467 4 12 4C11.6533 4 11.34 4.20659 11.2035 4.52523L9.6727 8.09703C9.36926 8.80507 8.80507 9.36926 8.09702 9.6727L4.52523 11.2035C4.20659 11.34 4 11.6533 4 12C4 12.3467 4.20659 12.66 4.52523 12.7965L8.09703 14.3273C8.80507 14.6307 9.36926 15.1949 9.6727 15.903L11.2035 19.4748C11.34 19.7934 11.6533 20 12 20C12.3467 20 12.66 19.7934 12.7965 19.4748L14.3273 15.903C14.6307 15.1949 15.1949 14.6307 15.903 14.3273L19.4748 12.7965C19.7934 12.66 20 12.3467 20 12C20 11.6533 19.7934 11.34 19.4748 11.2035L15.903 9.6727C15.1949 9.36926 14.6307 8.80507 14.3273 8.09702Z" stroke="currentColor" stroke-width="2" stroke-linecap="round" stroke-linejoin="round"/><path d="M3 3L5 5M21 3L19 5M3 21L5 19M21 21L19 19" stroke="currentColor" stroke-width="2" stroke-linecap="round" stroke-linejoin="round"/></svg>
