<svg xmlns="http://www.w3.org/2000/svg" viewBox="0 0 24 24" fill="none"><path fill-rule="evenodd" clip-rule="evenodd" d="M15.9571 11.2929C15.5666 10.9024 14.9334 10.9024 14.5429 11.2929C14.1524 11.6834 14.1524 12.3166 14.5429 12.7071C14.9334 13.0976 15.5666 13.0976 15.9571 12.7071C16.3476 12.3166 16.9808 12.3166 17.3713 12.7071C17.7618 13.0976 17.7618 13.7308 17.3713 14.1213C16.1997 15.2929 14.3003 15.2929 13.1287 14.1213C11.9571 12.9497 11.9571 11.0503 13.1287 9.87868C14.3003 8.70711 16.1997 8.70711 17.3713 9.87868C17.7618 10.2692 17.7618 10.9024 17.3713 11.2929C16.9808 11.6834 16.3476 11.6834 15.9571 11.2929ZM9.62552 11.0726C9.26263 10.9261 8.83433 11.0015 8.54289 11.2929C8.15237 11.6834 8.15237 12.3166 8.54289 12.7071C8.93342 13.0976 9.56658 13.0976 9.95711 12.7071C10.3476 12.3166 10.9808 12.3166 11.3713 12.7071C11.7618 13.0976 11.7618 13.7308 11.3713 14.1213C10.1997 15.2929 8.30025 15.2929 7.12868 14.1213C5.95711 12.9497 5.95711 11.0503 7.12868 9.87868C8.00741 8.99995 9.2939 8.78174 10.3745 9.21816C10.7385 9.36517 11.0787 9.58604 11.3713 9.87868C11.7618 10.2692 11.7618 10.9024 11.3713 11.2929C10.9808 11.6834 10.3476 11.6834 9.95711 11.2929C9.85782 11.1936 9.74498 11.1209 9.62552 11.0726Z" fill="currentColor"/><path d="M4 7C4 5.34315 5.34315 4 7 4H17C18.6569 4 20 5.34315 20 7V17C20 18.6569 18.6569 20 17 20H7C5.34315 20 4 18.6569 4 17V7Z" stroke="currentColor" stroke-width="2" stroke-linejoin="round"/></svg>
