<svg xmlns="http://www.w3.org/2000/svg" viewBox="0 0 24 24" fill="none"><path d="M4.2337 6.73999C5.37969 13.3808 10.6192 18.6203 17.26 19.7663C18.7579 20.0248 20 18.7678 20 17.2478C20 16.0323 19.2028 14.9608 18.0386 14.6116L17.0441 14.3132C16.401 14.1203 15.7039 14.2961 15.2292 14.7708C14.6784 15.3216 13.8316 15.4727 13.1693 15.0629C11.4516 14.0001 9.99992 12.5484 8.9371 10.8307C8.52725 10.1684 8.67842 9.32158 9.2292 8.7708C9.70395 8.29605 9.87969 7.59897 9.68677 6.95589L9.38842 5.96139C9.03917 4.79724 7.96766 4 6.75224 4C5.23222 4 3.97521 5.24211 4.2337 6.73999Z" stroke="currentColor" stroke-width="2" stroke-linejoin="round"/></svg>
