<svg xmlns="http://www.w3.org/2000/svg" viewBox="0 0 24 24" fill="none"><path d="M14.9999 8V6C14.9999 4.34315 13.6568 3 11.9999 3C10.343 3 8.9999 4.34315 8.9999 6V8M8.9999 21H7.99674C6.15808 21 4.75204 19.3611 5.03162 17.5438L6.10855 10.5438C6.3337 9.08033 7.59295 8 9.07366 8H15.4764C16.6405 8 17.6306 8.84938 17.8076 10M19.8283 20.8284L14.1715 15.1716M19.8283 20.8284C20.5857 20.0711 20.9758 19.0856 20.9988 18.0933C21.0233 17.0387 20.6331 15.9763 19.8283 15.1716C19.071 14.4142 18.0855 14.024 17.093 14.0011C16.0385 13.9767 14.9762 14.3668 14.1715 15.1716M19.8283 20.8284C19.071 21.5858 18.0855 21.976 17.093 21.9989C16.0385 22.0233 14.9762 21.6332 14.1715 20.8284C13.4141 20.0711 13.024 19.0856 13.001 18.0933C12.9765 17.0387 13.3667 15.9763 14.1715 15.1716" stroke="currentColor" stroke-width="2" stroke-linecap="round" stroke-linejoin="round"/></svg>
