<svg xmlns="http://www.w3.org/2000/svg" viewBox="0 0 24 24" fill="none"><path d="M3 10V7C3 5.34315 4.34315 4 6 4H8.92963C9.59834 4 10.2228 4.3342 10.5937 4.8906L11.4063 6.1094C11.7772 6.6658 12.4017 7 13.0704 7H18C19.6569 7 21 8.34315 21 10V16C21 17.6569 19.6569 19 18 19H14" stroke="currentColor" stroke-width="2" stroke-linecap="round" stroke-linejoin="round"/><path d="M2 16.75C2 18.5449 3.45507 20 5.25 20H8C9.38071 20 10.5 18.8807 10.5 17.5C10.5 16.1193 9.38071 15 8 15L7.9888 15C7.4116 14.0983 6.40146 13.5 5.25 13.5C3.45507 13.5 2 14.9551 2 16.75Z" stroke="currentColor" stroke-width="2" stroke-linecap="square" stroke-linejoin="round"/></svg>
