<svg xmlns="http://www.w3.org/2000/svg" viewBox="0 0 24 24" fill="none"><path d="M15.0893 8.66362C15.3572 8.73058 15.52 9.00197 15.4531 9.26984L15.2111 10.2391C15.1441 10.5071 14.8726 10.67 14.6047 10.603L13.5748 10.3455C13.307 10.2786 13.1441 10.0072 13.211 9.73932L13.4531 8.77007C13.52 8.50211 13.7915 8.33917 14.0594 8.40615L15.0893 8.66362ZM8.38675 8.03387C8.53993 8.26363 8.47784 8.57407 8.24807 8.72724L7.41606 9.28192C7.1863 9.4351 6.87586 9.37301 6.72269 9.14324L6.27739 8.47529C6.12421 8.24553 6.1863 7.9351 6.41606 7.78192L7.24807 7.22724C7.47784 7.07407 7.78827 7.13616 7.94145 7.36592L8.38675 8.03387ZM18.4707 7.3952C18.7005 7.54838 18.7626 7.85881 18.6094 8.08858L18.0547 8.92059C17.9016 9.15035 17.5911 9.21244 17.3614 9.05926L16.6934 8.61396C16.4636 8.46079 16.4016 8.15035 16.5547 7.92059L17.1094 7.08858C17.2626 6.85881 17.573 6.79672 17.8028 6.9499L18.4707 7.3952ZM12.5557 7.4519C12.6792 7.69889 12.5791 7.99923 12.3321 8.12272L11.2265 8.67551C10.9796 8.799 10.6792 8.69889 10.5557 8.4519L10.1084 7.55726C9.98492 7.31028 10.085 7.00994 10.332 6.88644L11.4376 6.33366C11.6846 6.21016 11.9849 6.31028 12.1084 6.55726L12.5557 7.4519Z" fill="currentColor"/><ellipse cx="12" cy="8.5" rx="10" ry="4" stroke="currentColor" stroke-width="2"/><path d="M22 8.5V9.5C22 15.0228 17.5228 19.5 12 19.5C6.47715 19.5 2 15.0228 2 9.5V8.5" stroke="currentColor" stroke-width="2"/></svg>
