<svg xmlns="http://www.w3.org/2000/svg" viewBox="0 0 24 24" fill="none"><path d="M17 4H7C5.34315 4 4 5.34315 4 7V17C4 18.6569 5.34315 20 7 20H17C18.6569 20 20 18.6569 20 17V7C20 5.34315 18.6569 4 17 4Z" stroke="currentColor" stroke-width="2"/><path d="M12.002 16.4561C9.79883 16.4561 8.44531 14.7451 8.44531 12.0029V11.9912C8.44531 9.24902 9.79883 7.54395 12.002 7.54395C14.2051 7.54395 15.5527 9.24902 15.5527 11.9912V12.0029C15.5527 14.7451 14.2051 16.4561 12.002 16.4561ZM12.002 14.8037C12.8867 14.8037 13.3789 13.79 13.3789 12.0029V11.9912C13.3789 10.2041 12.8867 9.19629 12.002 9.19629C11.1172 9.19629 10.625 10.2041 10.625 11.9912V12.0029C10.625 13.79 11.1172 14.8037 12.002 14.8037Z" fill="currentColor"/></svg>
