<svg xmlns="http://www.w3.org/2000/svg" viewBox="0 0 24 24" fill="none"><path d="M17 4H7C5.34315 4 4 5.34315 4 7V17C4 18.6569 5.34315 20 7 20H17C18.6569 20 20 18.6569 20 17V7C20 5.34315 18.6569 4 17 4Z" stroke="currentColor" stroke-width="2"/><path d="M12.1562 16.4414C10.7676 16.4414 9.67188 15.8496 9.00391 14.5898C8.65234 13.9336 8.45312 13.0547 8.45312 12.0352C8.45312 9.25781 9.85938 7.55859 12.1211 7.55859C13.6914 7.55859 14.7344 8.19727 15.0918 8.9707C15.1621 9.12891 15.1973 9.27539 15.1973 9.43359C15.1973 9.89062 14.8867 10.2598 14.3242 10.2598C13.9023 10.2598 13.6621 10.084 13.3633 9.78516C12.9883 9.38086 12.6309 9.21094 12.1211 9.21094C11.0137 9.21094 10.498 10.3184 10.5098 11.9062V12H10.5508C10.873 11.209 11.6816 10.6523 12.8242 10.6523C14.4707 10.6523 15.5547 11.8008 15.5547 13.3828C15.5547 15.1758 14.1191 16.4414 12.1562 16.4414ZM12.127 14.7891C12.8828 14.7891 13.4746 14.2148 13.4805 13.4766C13.4863 12.7031 12.9062 12.1582 12.1445 12.1582C11.3652 12.1582 10.7734 12.6914 10.7734 13.4473C10.7734 14.209 11.3652 14.7891 12.127 14.7891Z" fill="currentColor"/></svg>
