<svg xmlns="http://www.w3.org/2000/svg" viewBox="0 0 24 24" fill="none"><path d="M3.5 15.9999L5.625 13.4999M20.5 15.9999L16.3849 12.1269M17.1044 7.00724L18.5431 6.65383C19.2534 6.47933 19.786 5.88992 19.8878 5.16556C20.0253 4.18721 19.3437 3.28264 18.3653 3.14514L16.9569 2.9472C15.9785 2.8097 15.074 3.49135 14.9365 4.4697C14.8347 5.19406 15.1841 5.90742 15.8189 6.27096L17.1044 7.00724ZM17.1044 7.00724L16.3849 12.1269M5.77625 7.30017L5.63708 6.3099C5.48335 5.21608 6.24545 4.20475 7.33927 4.05102C8.43309 3.89729 9.44442 4.65939 9.59815 5.75321L9.73732 6.74348M5.77625 7.30017L9.73732 6.74348M5.77625 7.30017C4.97569 7.41268 4.44117 8.18397 4.6169 8.97307L5.625 13.4999M9.73732 6.74348C10.5386 6.63087 11.2661 7.22424 11.3169 8.03176L11.618 12.8201M5.625 13.4999L6.26352 12.7487C7.14085 11.7166 8.60103 11.4004 9.82673 11.9772L11.618 12.8201M11.618 12.8201L12 12.9999L16.0697 12.0424C16.1823 12.0159 16.3007 12.0476 16.3849 12.1269M3 15.9999H21V16.9999C21 18.6568 19.6569 19.9999 18 19.9999H6C4.34315 19.9999 3 18.6568 3 16.9999V15.9999Z" stroke="currentColor" stroke-width="2" stroke-linecap="round" stroke-linejoin="round"/></svg>
