<svg xmlns="http://www.w3.org/2000/svg" viewBox="0 0 24 24" fill="none"><path d="M10.575 10.0365C11.4257 9.41844 12.5775 9.41844 13.4282 10.0365C14.2788 10.6545 14.6348 11.75 14.3099 12.75C13.9849 13.75 13.0531 14.4271 12.0016 14.4271C10.9501 14.4271 10.0183 13.75 9.69334 12.75C9.36843 11.75 9.72437 10.6545 10.575 10.0365Z" stroke="currentColor" stroke-width="2" stroke-linejoin="round"/><path d="M21 12C21 12.1409 20.9968 12.2811 20.9904 12.4204C20.9137 14.0867 20.384 15.6348 19.5215 16.9443C18.3334 18.748 16.5139 20.099 14.3776 20.6826C13.6202 20.8895 12.823 21 12 21C11.177 21 10.3798 20.8895 9.62244 20.6826C7.48614 20.099 5.66664 18.748 4.47854 16.9443C3.61602 15.6348 3.08627 14.0867 3.00965 12.4204C3.00324 12.2811 3 12.1409 3 12C3 9.87176 3.73871 7.91606 4.97371 6.37531C5.97341 5.12811 7.2983 4.15282 8.8198 3.57799C9.80859 3.20443 10.8804 3 12 3C13.1196 3 14.1914 3.20443 15.1802 3.57799C16.7017 4.15282 18.0266 5.12811 19.0263 6.37531C20.2613 7.91606 21 9.87176 21 12Z" stroke="currentColor" stroke-width="2" stroke-linejoin="round"/><path d="M8.82031 3.578L10.2372 4.6074C11.2886 5.37133 12.7124 5.37133 13.7639 4.6074L15.1807 3.578" stroke="currentColor" stroke-width="2" stroke-linejoin="round"/><path d="M19.0264 6.37531L18.486 8.03851C18.0844 9.27457 18.5244 10.6287 19.5759 11.3926L20.9905 12.4204" stroke="currentColor" stroke-width="2" stroke-linejoin="round"/><path d="M19.5228 16.9443H17.7732C16.4735 16.9443 15.3217 17.7812 14.92 19.0172L14.3789 20.6826" stroke="currentColor" stroke-width="2" stroke-linejoin="round"/><path d="M9.62436 20.6826L9.08324 19.0172C8.68162 17.7812 7.52975 16.9443 6.23007 16.9443H4.48047" stroke="currentColor" stroke-width="2" stroke-linejoin="round"/><path d="M3.00781 12.4204L4.42247 11.3926C5.47393 10.6287 5.91391 9.27457 5.51229 8.03851L4.97188 6.37531" stroke="currentColor" stroke-width="2" stroke-linejoin="round"/></svg>
