<svg xmlns="http://www.w3.org/2000/svg" viewBox="0 0 24 24" fill="none"><path d="M17 4H7C5.34315 4 4 5.34315 4 7V17C4 18.6569 5.34315 20 7 20H17C18.6569 20 20 18.6569 20 17V7C20 5.34315 18.6569 4 17 4Z" stroke="currentColor" stroke-width="2"/><path d="M10.8867 16.3848C10.2715 16.3848 9.90234 15.998 9.90234 15.5117C9.90234 15.2598 9.96094 15.0605 10.084 14.8379L12.9902 9.48828V9.44727H9.59766C9.09961 9.44727 8.74219 9.11328 8.74219 8.61523C8.74219 8.11719 9.09961 7.79492 9.59766 7.79492H13.8809C14.5957 7.79492 15.1406 8.22852 15.1406 8.9375C15.1406 9.31836 15.0234 9.6582 14.748 10.1797L11.8418 15.7578C11.6016 16.2207 11.3438 16.3848 10.8867 16.3848Z" fill="currentColor"/></svg>
