<svg xmlns="http://www.w3.org/2000/svg" viewBox="0 0 24 24" fill="none"><path d="M19 13C19 17.4183 15.4183 21 11 21C6.58172 21 3 17.4183 3 13C3 8.58172 6.58172 5 11 5V10.6C11 11.4401 11 11.8601 11.1635 12.181C11.3073 12.4632 11.5368 12.6927 11.819 12.8365C12.1399 13 12.5599 13 13.4 13H19Z" stroke="currentColor" stroke-width="2" stroke-linecap="round" stroke-linejoin="round"/><path d="M20.7385 8.09824C20.0801 5.76141 18.239 3.92025 15.9022 3.26193C15.6333 3.18619 15.4989 3.14831 15.3623 3.18744C15.2514 3.2192 15.1353 3.30712 15.0747 3.40521C15 3.52605 15 3.68198 15 3.99386V8.20039C15 8.48042 15 8.62043 15.0545 8.72739C15.1024 8.82147 15.1789 8.89796 15.273 8.9459C15.38 9.00039 15.52 9.00039 15.8 9.00039H20.0065C20.3184 9.00039 20.4743 9.00039 20.5952 8.92571C20.6933 8.86507 20.7812 8.74896 20.813 8.6381C20.8521 8.50154 20.8142 8.36711 20.7385 8.09824Z" stroke="currentColor" stroke-width="2" stroke-linecap="round" stroke-linejoin="round"/></svg>
