<svg xmlns="http://www.w3.org/2000/svg" viewBox="0 0 24 24" fill="none"><path d="M4 16H17C18.6569 16 20 14.6569 20 13V7C20 5.34315 18.6569 4 17 4H5C4.44772 4 4 4.44772 4 5V20" stroke="currentColor" stroke-width="2" stroke-linecap="round" stroke-linejoin="round"/><path d="M9 15H7V13H9V15Z" fill="currentColor"/><path d="M13 15H11V13H13V15Z" fill="currentColor"/><path d="M17 15H15V13H17V15Z" fill="currentColor"/><path d="M7 13H5V11H7V13Z" fill="currentColor"/><path d="M11 13H9V11H11V13Z" fill="currentColor"/><path d="M15 13H13V11H15V13Z" fill="currentColor"/><path d="M19 13H17V11H19V13Z" fill="currentColor"/><path d="M9 11H7V9H9V11Z" fill="currentColor"/><path d="M13 11H11V9H13V11Z" fill="currentColor"/><path d="M17 11H15V9H17V11Z" fill="currentColor"/><path d="M7 9H5V7H7V9Z" fill="currentColor"/><path d="M11 9H9V7H11V9Z" fill="currentColor"/><path d="M15 9H13V7H15V9Z" fill="currentColor"/><path d="M19 9H17V7H19V9Z" fill="currentColor"/><path d="M9 7H7V5H9V7Z" fill="currentColor"/><path d="M13 7H11V5H13V7Z" fill="currentColor"/><path d="M17 7H15V5H17V7Z" fill="currentColor"/></svg>
