<svg xmlns="http://www.w3.org/2000/svg" viewBox="0 0 24 24" fill="none"><path d="M20.2405 4.18518L19.5436 2.37334C19.4571 2.14842 19.241 2 19 2C18.759 2 18.5429 2.14842 18.4564 2.37334L17.7595 4.18518C17.658 4.44927 17.4493 4.65797 17.1852 4.75955L15.3733 5.45641C15.1484 5.54292 15 5.75901 15 6C15 6.24099 15.1484 6.45708 15.3733 6.54359L17.1852 7.24045C17.4493 7.34203 17.658 7.55073 17.7595 7.81482L18.4564 9.62666C18.5429 9.85158 18.759 10 19 10C19.241 10 19.4571 9.85158 19.5436 9.62666L20.2405 7.81482C20.342 7.55073 20.5507 7.34203 20.8148 7.24045L22.6267 6.54359C22.8516 6.45708 23 6.24099 23 6C23 5.75901 22.8516 5.54292 22.6267 5.45641L20.8148 4.75955C20.5507 4.65797 20.342 4.44927 20.2405 4.18518Z" fill="currentColor"/><path d="M12.002 4.00001L6.00195 4.00002C4.3451 4.00002 3.00195 5.34317 3.00195 7.00002L3.00195 15.0358C3.00195 16.6926 4.3451 18.0358 6.00195 18.0358H8.65157C8.8865 18.0358 9.11393 18.1185 9.29398 18.2694L11.9977 20.5358L14.7377 18.2657C14.9171 18.1171 15.1427 18.0358 15.3757 18.0358L18.002 18.0358C19.6588 18.0358 21.002 16.6926 21.002 15.0358V13.0179" stroke="currentColor" stroke-width="2" stroke-linecap="round" stroke-linejoin="round"/></svg>
