<svg xmlns="http://www.w3.org/2000/svg" viewBox="0 0 24 24" fill="none"><path d="M7 15H6C4.34315 15 3 13.6569 3 12V8C3 6.34315 4.34315 5 6 5H14C15.6569 5 17 6.34315 17 8V9" stroke="currentColor" stroke-width="2" stroke-linecap="round"/><path d="M7 16V12C7 10.3431 8.34315 9 10 9H18C19.6569 9 21 10.3431 21 12V16C21 17.6569 19.6569 19 18 19H10C8.34315 19 7 17.6569 7 16Z" stroke="currentColor" stroke-width="2" stroke-linecap="round"/><path d="M12 14H14M14 14H16M14 14V12M14 14V16" stroke="currentColor" stroke-width="2" stroke-linecap="round"/></svg>
