<svg xmlns="http://www.w3.org/2000/svg" viewBox="0 0 24 24" fill="none"><path d="M4.22059 17.6564L6.34191 19.7777C6.9277 20.3635 7.87744 20.3635 8.46323 19.7777C9.04902 19.1919 9.04902 18.2421 8.46323 17.6564L6.34191 15.535C5.75612 14.9493 4.80638 14.9493 4.22059 15.535C3.6348 16.1208 3.6348 17.0706 4.22059 17.6564Z" stroke="currentColor" stroke-width="2" stroke-linecap="round" stroke-linejoin="round"/><path d="M19.7796 6.34386L17.6583 4.22254C17.0725 3.63676 16.1228 3.63676 15.537 4.22254C14.9512 4.80833 14.9512 5.75808 15.537 6.34386L17.6583 8.46518C18.2441 9.05097 19.1939 9.05097 19.7796 8.46518C20.3654 7.8794 20.3654 6.92965 19.7796 6.34386Z" stroke="currentColor" stroke-width="2" stroke-linecap="round" stroke-linejoin="round"/><path d="M4.57606 13.7677C3.99027 13.1819 3.99027 12.2322 4.57606 11.6464C5.16184 11.0606 6.11159 11.0606 6.69738 11.6464L12.3542 17.3032C12.94 17.889 12.94 18.8388 12.3542 19.4245C11.7684 20.0103 10.8187 20.0103 10.2329 19.4245L4.57606 13.7677Z" stroke="currentColor" stroke-width="2" stroke-linecap="round" stroke-linejoin="round"/><path d="M11.6464 6.69738C11.0606 6.11159 11.0606 5.16184 11.6464 4.57606C12.2322 3.99027 13.1819 3.99027 13.7677 4.57606L19.4245 10.2329C20.0103 10.8187 20.0103 11.7684 19.4245 12.3542C18.8388 12.94 17.889 12.94 17.3032 12.3542L11.6464 6.69738Z" stroke="currentColor" stroke-width="2" stroke-linecap="round" stroke-linejoin="round"/><path d="M9.17188 12.7075L13.4145 8.46484" stroke="currentColor" stroke-width="2" stroke-linecap="round" stroke-linejoin="round"/><path d="M11.293 14.8286L15.5356 10.5859" stroke="currentColor" stroke-width="2" stroke-linecap="round" stroke-linejoin="round"/></svg>
