<svg xmlns="http://www.w3.org/2000/svg" viewBox="0 0 24 24" fill="none"><path d="M7 21V17.3105C7 16.3297 6.48683 15.4397 5.82606 14.715C4.69171 13.4709 4 11.8162 4 10C4 6.13401 7.13401 3 11 3C14.5589 3 17.4974 5.65583 17.9419 9.09367C18.0178 9.68106 18.1753 10.263 18.5038 10.7558L19.7376 12.6064C19.8848 12.8272 19.8339 13.1246 19.6216 13.2838L18.8 13.9C18.2964 14.2777 18 14.8705 18 15.5V16C18 17.1046 17.1046 18 16 18H15C14.4477 18 14 18.4477 14 19V21" stroke="currentColor" stroke-width="2" stroke-linecap="round" stroke-linejoin="round"/><path d="M11.9059 7.94536L11.4756 6.82667C11.3999 6.62986 11.2109 6.5 11 6.5C10.7891 6.5 10.6001 6.62986 10.5244 6.82667L10.0941 7.94536C9.89094 8.47354 9.47355 8.89094 8.94536 9.09409L7.82667 9.52436C7.62986 9.60005 7.5 9.78914 7.5 10C7.5 10.2109 7.62986 10.3999 7.82667 10.4756L8.94536 10.9059C9.47354 11.1091 9.89094 11.5265 10.0941 12.0546L10.5244 13.1733C10.6001 13.3701 10.7891 13.5 11 13.5C11.2109 13.5 11.3999 13.3701 11.4756 13.1733L11.9059 12.0546C12.1091 11.5265 12.5265 11.1091 13.0546 10.9059L14.1733 10.4756C14.3701 10.3999 14.5 10.2109 14.5 10C14.5 9.78914 14.3701 9.60005 14.1733 9.52436L13.0546 9.09409C12.5265 8.89094 12.1091 8.47355 11.9059 7.94536Z" fill="currentColor"/></svg>
