<svg xmlns="http://www.w3.org/2000/svg" viewBox="0 0 24 24" fill="none"><path d="M2 19L22 19" stroke="currentColor" stroke-width="2" stroke-linecap="round" stroke-linejoin="round"/><path d="M4.71429 18.5C4.67406 15.3531 4.45255 12.4563 3 9.5C8.14286 11.375 9 14 9 18.5" stroke="currentColor" stroke-width="2" stroke-linejoin="round"/><path d="M9.05882 18.5C9.01466 15.1942 8.59496 8.6056 7 5.5C13.5882 7.86364 14 13.7727 14 18.5" stroke="currentColor" stroke-width="2" stroke-linejoin="round"/><path d="M12.2922 9.5C13.2742 7.39465 14.4943 6.07835 17.5 5C16.6944 6.56867 16.6886 8.52598 16.3796 11" stroke="currentColor" stroke-width="2" stroke-linejoin="round"/><path d="M19 18.5C19.0469 15.0035 19.3054 11.7848 21 8.5C15.0618 10.8623 14 13.5 14 18.5" stroke="currentColor" stroke-width="2" stroke-linejoin="round"/></svg>
