<svg xmlns="http://www.w3.org/2000/svg" viewBox="0 0 24 24" fill="none"><g clip-path="url(#clip0_13682_26671)"><path d="M21 16.9997C19.5 13 16 9.5 16 9.5" stroke="currentColor" stroke-width="2" stroke-linecap="round"/><path d="M9 8H2.5" stroke="currentColor" stroke-width="2" stroke-linecap="square"/><path d="M16 8H19.5" stroke="currentColor" stroke-width="2" stroke-linecap="square"/><circle cx="13" cy="8" r="3" stroke="currentColor" stroke-width="2"/><path d="M10 8C6.05878 9.34852 3.1959 12.7128 3 17" stroke="currentColor" stroke-width="2" stroke-linecap="round" stroke-linejoin="round"/><path d="M3.20711 5.95711C2.81658 5.56658 2.18342 5.56658 1.79289 5.95711L0.457107 7.29289C0.0665825 7.68342 0.0665832 8.31658 0.457107 8.70711L1.79289 10.0429C2.18342 10.4334 2.81658 10.4334 3.20711 10.0429L4.54289 8.70711C4.93342 8.31658 4.93342 7.68342 4.54289 7.29289L3.20711 5.95711Z" fill="currentColor"/><path d="M21.2071 5.95711C20.8166 5.56658 20.1834 5.56658 19.7929 5.95711L18.4571 7.29289C18.0666 7.68342 18.0666 8.31658 18.4571 8.70711L19.7929 10.0429C20.1834 10.4334 20.8166 10.4334 21.2071 10.0429L22.5429 8.70711C22.9334 8.31658 22.9334 7.68342 22.5429 7.29289L21.2071 5.95711Z" fill="currentColor"/></g><defs><clipPath id="clip0_13682_26671"><rect width="24" height="24" fill="white"/></clipPath></defs></svg>
