<svg xmlns="http://www.w3.org/2000/svg" viewBox="0 0 24 24" fill="none"><circle cx="12" cy="12" r="9" stroke="currentColor" stroke-width="2"/><path d="M9.15039 16.1289C8.4707 16.1289 8.05469 15.7422 8.05469 15.1035C8.05469 14.9219 8.11328 14.6582 8.20703 14.4004L10.293 8.66992C10.6035 7.80859 11.125 7.41602 11.9629 7.41602C12.8477 7.41602 13.3633 7.79102 13.6855 8.66992L15.7891 14.4004C15.8887 14.6758 15.9297 14.875 15.9297 15.0977C15.9297 15.7012 15.4785 16.1289 14.8516 16.1289C14.2305 16.1289 13.9082 15.8477 13.7207 15.1562L13.4336 14.2188H10.5391L10.252 15.1211C10.0469 15.8359 9.72461 16.1289 9.15039 16.1289ZM10.9668 12.5957H12.9648L11.9746 9.33789H11.9277L10.9668 12.5957Z" fill="currentColor"/></svg>
