<svg xmlns="http://www.w3.org/2000/svg" viewBox="0 0 24 24" fill="none"><path d="M9.82918 5.65836C9.321 4.64201 8.28221 4 7.1459 4H6C4.89543 4 4 4.89543 4 6C4 13.732 10.268 20 18 20C19.1046 20 20 19.1046 20 18V16.8541C20 15.7178 19.358 14.679 18.3416 14.1708L16.9909 13.4954C16.3991 13.1996 15.6845 13.3155 15.2167 13.7833C14.7819 14.2181 14.1244 14.3618 13.5758 14.0842C11.9109 13.2415 10.7585 12.0891 9.91583 10.4242C9.63816 9.87559 9.78189 9.21811 10.2167 8.78335C10.6845 8.31554 10.8004 7.60087 10.5046 7.00914L9.82918 5.65836Z" stroke="currentColor" stroke-width="2" stroke-linejoin="round"/></svg>
