<svg xmlns="http://www.w3.org/2000/svg" viewBox="0 0 24 24" fill="none"><path d="M20 7C20 5.34315 18.6569 4 17 4H7C5.34315 4 4 5.34315 4 7V17C4 18.6569 5.34315 20 7 20H17C18.6569 20 20 18.6569 20 17V7Z" stroke="currentColor" stroke-width="2" stroke-linejoin="round"/><path d="M8.25 14.75C8.94036 14.75 9.5 15.3096 9.5 16C9.5 16.6904 8.94036 17.25 8.25 17.25C7.55964 17.25 7 16.6904 7 16C7 15.3096 7.55964 14.75 8.25 14.75Z" fill="currentColor"/><path d="M8.25 10.75C8.94036 10.75 9.5 11.3096 9.5 12C9.5 12.6904 8.94036 13.25 8.25 13.25C7.55964 13.25 7 12.6904 7 12C7 11.3096 7.55964 10.75 8.25 10.75Z" fill="currentColor"/><path d="M8.25 6.75C8.94036 6.75 9.5 7.30964 9.5 8C9.5 8.69036 8.94036 9.25 8.25 9.25C7.55964 9.25 7 8.69036 7 8C7 7.30964 7.55964 6.75 8.25 6.75Z" fill="currentColor"/></svg>
