<svg xmlns="http://www.w3.org/2000/svg" viewBox="0 0 24 24" fill="none"><path d="M17 5C17 5 18 6.1 18 7C19 6.1 20 6.1 20 6.1" stroke="currentColor" stroke-width="2" stroke-linecap="round" stroke-linejoin="round"/><path d="M4.00011 7L4.90011 6.99993V7H4.00011ZM12.0001 6.5H11.1001C11.1001 6.30527 11.1633 6.11579 11.2801 5.96L12.0001 6.5ZM12.4594 5.88767L13.1794 6.42767L13.1794 6.42767L12.4594 5.88767ZM12.2736 3.27346L11.6372 3.90985V3.90985L12.2736 3.27346ZM12.0001 3L11.4209 2.31116C11.7783 2.0106 12.3063 2.03338 12.6365 2.3636L12.0001 3ZM11.0001 3.5L10.9473 2.60155L11.0001 3.5ZM9.50011 2L8.73162 1.53158C8.90651 1.24465 9.22668 1.07905 9.56191 1.10212C9.89715 1.1252 10.1916 1.33311 10.3255 1.64129L9.50011 2ZM8.50011 3L8.82998 3.83737V3.83737L8.50011 3ZM4.00011 7H4.90011C4.90011 8.71208 6.28803 10.1 8.00011 10.1V11V11.9C5.29391 11.9 3.10011 9.7062 3.10011 7H4.00011ZM8.00011 11V10.1C9.71219 10.1 11.1001 8.71208 11.1001 7H12.0001H12.9001C12.9001 9.7062 10.7063 11.9 8.00011 11.9V11ZM12.0001 6.5L11.2801 5.96L11.7394 5.34767L12.4594 5.88767L13.1794 6.42767L12.7201 7.04L12.0001 6.5ZM12.2736 3.27346L11.6372 3.90985L11.3637 3.6364L12.0001 3L12.6365 2.3636L12.91 2.63706L12.2736 3.27346ZM12.0001 3C12.5793 3.68884 12.5792 3.68894 12.5791 3.68905C12.579 3.68908 12.5789 3.68919 12.5788 3.68926C12.5787 3.68941 12.5785 3.68957 12.5783 3.68973C12.5779 3.69006 12.5775 3.69042 12.577 3.6908C12.5761 3.69158 12.575 3.69247 12.5738 3.69347C12.5714 3.69548 12.5684 3.69795 12.5648 3.70085C12.5578 3.70665 12.5485 3.71419 12.5372 3.72323C12.5147 3.74126 12.4838 3.76549 12.4459 3.79395C12.371 3.85024 12.2648 3.92616 12.1394 4.00429C11.9284 4.13577 11.5128 4.3714 11.053 4.39845L11.0001 3.5L10.9473 2.60155C10.916 2.60339 10.9277 2.60825 10.991 2.58159C11.048 2.55759 11.1159 2.52123 11.1877 2.47648C11.2578 2.43281 11.3199 2.38854 11.3644 2.35509C11.3862 2.33867 11.4028 2.32565 11.4128 2.31764C11.4178 2.31365 11.4211 2.31098 11.4225 2.30981C11.4232 2.30923 11.4234 2.30904 11.4232 2.30925C11.423 2.30936 11.4228 2.30957 11.4224 2.30988C11.4222 2.31004 11.422 2.31023 11.4217 2.31044C11.4216 2.31055 11.4215 2.31066 11.4213 2.31078C11.4213 2.31084 11.4212 2.31093 11.4211 2.31096C11.421 2.31106 11.4209 2.31116 12.0001 3ZM11.0001 3.5L11.053 4.39845C10.5489 4.4281 10.1413 4.21022 9.86723 3.99883C9.59033 3.78529 9.36938 3.5183 9.2071 3.29062C9.04069 3.05715 8.90987 2.82779 8.82177 2.6604C8.77711 2.57556 8.74197 2.50384 8.71731 2.45179C8.70495 2.42571 8.69514 2.40439 8.68802 2.38865C8.68445 2.38077 8.68154 2.37428 8.67932 2.36926C8.67821 2.36675 8.67726 2.3646 8.67649 2.36284C8.6761 2.36196 8.67576 2.36118 8.67546 2.36049C8.67531 2.36014 8.67517 2.35982 8.67504 2.35952C8.67497 2.35938 8.67488 2.35917 8.67485 2.3591C8.67477 2.3589 8.67468 2.35871 9.50011 2C10.3255 1.64129 10.3255 1.64111 10.3254 1.64094C10.3254 1.64089 10.3253 1.64072 10.3252 1.64062C10.3252 1.64041 10.3251 1.64023 10.325 1.64008C10.3249 1.63976 10.3248 1.63954 10.3247 1.6394C10.3246 1.63913 10.3246 1.63921 10.3248 1.63963C10.3252 1.64046 10.3262 1.64266 10.3277 1.64611C10.3309 1.65303 10.3363 1.66494 10.344 1.68111C10.3594 1.71356 10.3832 1.76245 10.4146 1.82203C10.4785 1.94349 10.5677 2.09825 10.6729 2.24586C10.7822 2.39927 10.8846 2.51032 10.9665 2.57346C11.0511 2.63877 11.0378 2.59622 10.9473 2.60155L11.0001 3.5ZM9.50011 2C10.2686 2.46842 10.2685 2.46856 10.2684 2.4687C10.2684 2.46875 10.2683 2.46889 10.2683 2.469C10.2681 2.4692 10.268 2.46942 10.2679 2.46965C10.2676 2.4701 10.2673 2.47061 10.2669 2.47117C10.2662 2.47228 10.2654 2.4736 10.2645 2.4751C10.2626 2.47811 10.2603 2.48189 10.2575 2.4864C10.2518 2.49541 10.2443 2.50736 10.2349 2.5219C10.2162 2.55091 10.1902 2.59052 10.1576 2.63782C10.0932 2.73156 10.0003 2.85982 9.88644 2.99756C9.68902 3.23635 9.31543 3.64613 8.82998 3.83737L8.50011 3L8.17024 2.16263C8.16631 2.16418 8.20429 2.14779 8.28006 2.08141C8.35063 2.01958 8.42594 1.93918 8.49916 1.85062C8.57106 1.76366 8.63186 1.67988 8.67459 1.61775C8.69566 1.58711 8.71159 1.56283 8.72151 1.54744C8.72645 1.53976 8.72984 1.53438 8.73157 1.53161C8.73244 1.53023 8.73288 1.52951 8.7329 1.52949C8.7329 1.52948 8.7328 1.52964 8.73259 1.52999C8.73248 1.53016 8.73235 1.53038 8.73219 1.53064C8.7321 1.53078 8.73202 1.53092 8.73192 1.53108C8.73187 1.53115 8.7318 1.53128 8.73177 1.53132C8.7317 1.53145 8.73162 1.53158 9.50011 2ZM6.50011 3.5V4.4C5.87765 4.4 5.53197 4.67518 5.29017 5.11848C5.01684 5.61956 4.90006 6.32357 4.90011 6.99993L4.00011 7L3.10011 7.00007C3.10005 6.17643 3.23327 5.13044 3.70997 4.25652C4.21819 3.32482 5.12257 2.6 6.50011 2.6V3.5ZM8.50011 3L8.82998 3.83737C7.53206 4.34867 6.69607 4.4 6.50011 4.4V3.5V2.6C6.46078 2.6 7.07344 2.5947 8.17024 2.16263L8.50011 3ZM12.4594 5.88767L11.7394 5.34767C12.0678 4.90974 12.0243 4.29694 11.6372 3.90986L12.2736 3.27346L12.91 2.63706C13.9304 3.65755 14.0453 5.27312 13.1794 6.42767L12.4594 5.88767ZM12.0001 6.5H12.9001V7H12.0001H11.1001V6.5H12.0001Z" fill="currentColor"/><rect width="4" height="2.5" rx="0.5" transform="matrix(-1 0 0 1 8 6)" fill="currentColor"/><rect width="3" height="2.5" rx="0.5" transform="matrix(-1 0 0 1 12 6)" fill="currentColor"/><path d="M9.5 6.75H7.5" stroke="currentColor" stroke-width="1.5" stroke-linecap="round" stroke-linejoin="round"/><path d="M2 20C2 15.4635 5.48364 13.4994 8.5 14.108" stroke="currentColor" stroke-width="2" stroke-linecap="round" stroke-linejoin="round"/><path d="M11 20H19.2457C19.6922 20 20.0846 19.704 20.2072 19.2747L21.5994 14.4022C21.8001 13.6995 21.2725 13 20.5417 13H14.1315C13.4617 13 12.8732 13.444 12.6892 14.0879L11 20ZM11 20H7" stroke="currentColor" stroke-width="2" stroke-linecap="round" stroke-linejoin="round"/></svg>
