<svg xmlns="http://www.w3.org/2000/svg" viewBox="0 0 24 24" fill="none"><path d="M12.0002 4.99693V2.99609M16 5V3M16 5H8.00018M16 5C17.6569 5 19 6.34315 19 8M8.00018 5V2.99609M8.00018 5C6.34333 5 5 6.34315 5 8M12 21V19M16 21V19M16 19H8M16 19C17.6569 19 19 17.6569 19 16M8 21V19M8 19C6.34315 19 5 17.6569 5 16M19 16H21M19 16V8M19 8H21M19 12H21M3 12H5M3 16H5M5 16V8M3 8H5M15.0013 12.0003C15.0013 13.6578 13.6576 15.0015 12 15.0015C10.3425 15.0015 8.99878 13.6578 8.99878 12.0003C8.99878 10.3427 10.3425 8.99902 12 8.99902C13.6576 8.99902 15.0013 10.3427 15.0013 12.0003Z" stroke="currentColor" stroke-width="2" stroke-linecap="round" stroke-linejoin="round"/></svg>
