<svg xmlns="http://www.w3.org/2000/svg" viewBox="0 0 24 24" fill="none"><path d="M12.5486 21.0025L12.8993 17.495C12.9526 16.9623 12.5342 16.5 11.9988 16.5C11.4634 16.5 11.0451 16.9623 11.0983 17.495L11.4491 21.0025C11.4773 21.2849 11.715 21.5 11.9988 21.5C12.2827 21.5 12.5203 21.2849 12.5486 21.0025Z" stroke="currentColor" stroke-width="2"/><path d="M13 12C13 12.5523 12.5523 13 12 13C11.4477 13 11 12.5523 11 12C11 11.4477 11.4477 11 12 11C12.5523 11 13 11.4477 13 12Z" stroke="currentColor" stroke-width="2"/><path d="M16.9767 19.5C19.4017 17.8876 21 15.1305 21 12C21 7.02944 16.9706 3 12 3C7.02944 3 3 7.02944 3 12C3 15.1305 4.59826 17.8876 7.02331 19.5" stroke="currentColor" stroke-width="2" stroke-linecap="round"/><path d="M8 15.0005C7.37209 14.1647 7 13.1258 7 12C7 9.23858 9.23858 7 12 7C14.7614 7 17 9.23858 17 12C17 13.1258 16.6279 14.1647 16 15.0005" stroke="currentColor" stroke-width="2" stroke-linecap="round"/></svg>
