<svg xmlns="http://www.w3.org/2000/svg" viewBox="0 0 24 24" fill="none"><path d="M19 18.8909V7.8C19 6.11984 19 5.27976 18.673 4.63803C18.3854 4.07354 17.9265 3.6146 17.362 3.32698C16.7202 3 15.8802 3 14.2 3H9.8C8.11984 3 7.27976 3 6.63803 3.32698C6.07354 3.6146 5.6146 4.07354 5.32698 4.63803C5 5.27976 5 6.11984 5 7.8V18.8909C5 19.8955 5 20.3978 5.20836 20.6678C5.38977 20.9028 5.66624 21.0451 5.96294 21.0561C6.30373 21.0688 6.71248 20.7768 7.52998 20.1929L11.07 17.6643C11.4046 17.4253 11.5719 17.3058 11.7544 17.2595C11.9156 17.2187 12.0844 17.2187 12.2456 17.2595C12.4281 17.3058 12.5954 17.4253 12.93 17.6643L16.47 20.1929C17.2875 20.7768 17.6963 21.0688 18.0371 21.0561C18.3338 21.0451 18.6102 20.9028 18.7916 20.6678C19 20.3978 19 19.8955 19 18.8909Z" stroke="currentColor" stroke-width="2" stroke-linecap="round"/><path d="M12 7V13" stroke="currentColor" stroke-width="2" stroke-linecap="round"/><path d="M15 10L9 10" stroke="currentColor" stroke-width="2" stroke-linecap="round"/></svg>
