<svg xmlns="http://www.w3.org/2000/svg" viewBox="0 0 24 24" fill="none"><path d="M11 7C11 8.65685 9.65685 10 8 10C6.34315 10 5 8.65685 5 7C5 5.34315 6.34315 4 8 4C9.65685 4 11 5.34315 11 7Z" stroke="currentColor" stroke-width="2" stroke-linecap="round" stroke-linejoin="round"/><path d="M19.5 7.5C19.5 8.88071 18.3807 10 17 10C15.6193 10 14.5 8.88071 14.5 7.5C14.5 6.11929 15.6193 5 17 5C18.3807 5 19.5 6.11929 19.5 7.5Z" stroke="currentColor" stroke-width="2" stroke-linecap="round" stroke-linejoin="round"/><path d="M2.70657 16.8713C2.03609 18.4769 3.48074 20 5.22066 20H10.7828C12.5227 20 13.9674 18.4769 13.2969 16.8713C11.1413 11.7096 4.86215 11.7096 2.70657 16.8713Z" stroke="currentColor" stroke-width="2" stroke-linecap="round" stroke-linejoin="round"/><path d="M17.9999 19H18.9266C20.6665 19 22.1288 17.4568 21.3502 15.9008C20.1901 13.5823 17.9918 12.6536 16 13.1147" stroke="currentColor" stroke-width="2" stroke-linecap="round" stroke-linejoin="round"/></svg>
