<svg xmlns="http://www.w3.org/2000/svg" viewBox="0 0 24 24" fill="none"><path d="M12 4V20M4 12H20M8 16C9.64819 14.9363 10.9156 13.6374 12 12M12 12C13.0844 13.6374 14.3518 14.9363 16 16M12 12V10.6667M12 12H10.6667C9.19391 12 8 10.8061 8 9.33333C8 8.59695 8.59695 8 9.33333 8C10.8061 8 12 9.19391 12 10.6667M12 12H13.3333C14.8061 12 16 10.8061 16 9.33333C16 8.59695 15.403 8 14.6667 8C13.1939 8 12 9.19391 12 10.6667M7 20H17C18.6569 20 20 18.6569 20 17V7C20 5.34315 18.6569 4 17 4H7C5.34315 4 4 5.34315 4 7V17C4 18.6569 5.34315 20 7 20Z" stroke="currentColor" stroke-width="2" stroke-linecap="round" stroke-linejoin="round"/></svg>
