<svg xmlns="http://www.w3.org/2000/svg" viewBox="0 0 24 24" fill="none"><path d="M23 6C23 7.65685 21.6569 9 20 9C18.3431 9 17 7.65685 17 6C17 4.34315 18.3431 3 20 3C21.6569 3 23 4.34315 23 6Z" stroke="currentColor" stroke-width="2" stroke-linecap="round" stroke-linejoin="round"/><path d="M13 5H6C4.34315 5 3 6.34315 3 8V16C3 17.6569 4.34315 19 6 19H18C19.6569 19 21 17.6569 21 16V13" stroke="currentColor" stroke-width="2" stroke-linecap="round" stroke-linejoin="round"/><path d="M2.99805 9C5.50528 10.8837 8.62204 12 11.9995 12C13.3849 12 14.7264 11.8122 16 11.4606" stroke="currentColor" stroke-width="2" stroke-linecap="round" stroke-linejoin="round"/></svg>
