<svg xmlns="http://www.w3.org/2000/svg" viewBox="0 0 24 24" fill="none"><path d="M12 16V20M12 16H6C5.37049 16 4.77771 15.7036 4.4 15.2L2.9 13.2C2.36667 12.4889 2.36667 11.5111 2.9 10.8L4.4 8.8C4.77771 8.29639 5.37049 8 6 8H11C11.5523 8 12 8.44772 12 9V16ZM13 4H18C18.6295 4 19.2223 4.29639 19.6 4.8L21.1 6.8C21.6333 7.51111 21.6333 8.48889 21.1 9.2L19.6 11.2C19.2223 11.7036 18.6295 12 18 12H13C12.4477 12 12 11.5523 12 11V5C12 4.44772 12.4477 4 13 4Z" stroke="currentColor" stroke-width="2" stroke-linecap="round" stroke-linejoin="round"/></svg>
