<svg xmlns="http://www.w3.org/2000/svg" viewBox="0 0 24 24" fill="none"><path d="M7.90035 12.0002L3.59283 14.1014C2.84406 14.4666 2.84406 15.5337 3.59283 15.8989L11.5619 19.7863C11.8386 19.9213 12.1621 19.9213 12.4388 19.7863L20.4079 15.8989C21.1566 15.5337 21.1566 14.4666 20.4079 14.1014L16.1004 12.0002M7.90035 12.0002L3.59283 9.89893C2.84406 9.53367 2.84406 8.46664 3.59283 8.10139L11.5619 4.21402C11.8386 4.07905 12.1621 4.07905 12.4388 4.21402L20.4079 8.10139C21.1566 8.46664 21.1566 9.53367 20.4079 9.89893L16.1004 12.0002M7.90035 12.0002L11.5619 13.7863C11.8386 13.9213 12.1621 13.9213 12.4388 13.7863L16.1004 12.0002" stroke="currentColor" stroke-width="2" stroke-linecap="square" stroke-linejoin="round"/></svg>
