<svg xmlns="http://www.w3.org/2000/svg" viewBox="0 0 24 24" fill="none"><path d="M6.13177 10.4209L2.84285 11.618C2.06438 11.9013 1.663 12.7621 1.94634 13.5405L2.28836 14.4802C2.5717 15.2587 3.43246 15.6601 4.21093 15.3767L7.49985 14.1797" stroke="currentColor" stroke-width="2" stroke-linecap="round" stroke-linejoin="round"/><path d="M11.4268 7.42822L7.66807 8.7963C6.63011 9.17409 6.09494 10.3218 6.47272 11.3597L7.15676 13.2391C7.53455 14.2771 8.68223 14.8122 9.72019 14.4345L13.479 13.0664" stroke="currentColor" stroke-width="2" stroke-linecap="round" stroke-linejoin="round"/><path d="M13.4347 5.63349L18.1332 3.92339C18.9116 3.64005 19.7724 4.04143 20.0557 4.8199L21.7658 9.51836C22.0492 10.2968 21.6478 11.1576 20.8693 11.4409L16.1709 13.151C14.8734 13.6233 13.4388 12.9543 12.9666 11.6568L11.9405 8.83777C11.4683 7.54033 12.1372 6.10572 13.4347 5.63349Z" stroke="currentColor" stroke-width="2" stroke-linecap="round" stroke-linejoin="round"/><path d="M11 20V14" stroke="currentColor" stroke-width="2" stroke-linecap="round" stroke-linejoin="round"/><path d="M8 20L14 20" stroke="currentColor" stroke-width="2" stroke-linecap="round" stroke-linejoin="round"/></svg>
