<svg xmlns="http://www.w3.org/2000/svg" viewBox="0 0 24 24" fill="none"><path d="M12.0001 3.01V3M12.0001 21V21.01M15.4424 3.6947L15.4462 3.68546M8.55788 20.3153L8.55405 20.3245M18.3605 5.64466L18.3676 5.63759M5.63967 18.3655L5.6326 18.3726M20.3103 8.56295L20.3196 8.55913M3.68976 15.4474L3.68052 15.4513M3.00512 12.005H2.99512M20.9951 12.005H21.0051M5.63991 5.64452L5.63284 5.63744M18.3608 18.3654L18.3678 18.3724M3.69013 8.56247L3.68089 8.55864M20.3107 15.4469L20.32 15.4508M8.55786 3.69467L8.55403 3.68543M15.4423 20.3153L15.4462 20.3245" stroke="currentColor" stroke-width="2" stroke-linecap="round" stroke-linejoin="round"/></svg>
