<svg xmlns="http://www.w3.org/2000/svg" viewBox="0 0 24 24" fill="none"><path d="M8.75736 4H6C4.34315 4 3 5.34315 3 7V16C3 17.6569 4.34315 19 6 19H18C19.6569 19 21 17.6569 21 16V9C21 7.34315 19.6569 6 18 6H13.2426C12.447 6 11.6839 5.68393 11.1213 5.12132L10.8787 4.87868C10.3161 4.31607 9.55301 4 8.75736 4Z" stroke="currentColor" stroke-width="2" stroke-linecap="round" stroke-linejoin="round"/><path d="M21 13C21 11.3431 19.6569 10 18 10H6C4.34315 10 3 11.3431 3 13" stroke="currentColor" stroke-width="2" stroke-linecap="round" stroke-linejoin="round"/></svg>
