<svg xmlns="http://www.w3.org/2000/svg" viewBox="0 0 24 24" fill="none"><path d="M10 21H14M15.6076 15C17.6404 13.7751 19 11.5463 19 9C19 5.13401 15.866 2 12 2C8.13401 2 5 5.13401 5 9C5 11.5463 6.35958 13.7751 8.39241 15M15.6076 15C15.4111 15.1184 15.2084 15.2274 15 15.3264V16.5C15 17.3284 14.3284 18 13.5 18H10.5C9.67157 18 9 17.3284 9 16.5V15.3264C8.7916 15.2274 8.58886 15.1184 8.39241 15M15.6076 15H8.39241" stroke="currentColor" stroke-width="2" stroke-linecap="round" stroke-linejoin="round"/></svg>
