<svg xmlns="http://www.w3.org/2000/svg" viewBox="0 0 24 24" fill="none"><circle cx="12" cy="10" r="7.5" stroke="currentColor" stroke-width="2"/><path d="M8 16.5V22L12 21L16 22V16.5" stroke="currentColor" stroke-width="2" stroke-linecap="round" stroke-linejoin="round"/><path d="M11.9649 13.854C11.3833 13.854 10.8675 13.7545 10.4175 13.5557C9.97008 13.3543 9.6171 13.0771 9.35857 12.7242C9.28876 12.6288 9.22819 12.5296 9.17686 12.4265C8.94279 11.9562 9.39223 11.5049 9.91757 11.5049C10.3695 11.5049 10.5004 11.5049 10.9258 11.8975C10.9623 11.9312 10.9952 11.9689 11.029 12.0052C11.1226 12.1053 11.2419 12.1859 11.387 12.2469C11.5585 12.319 11.7536 12.355 11.9724 12.355C12.1911 12.355 12.3838 12.3165 12.5503 12.2394C12.7194 12.1599 12.8511 12.0518 12.9456 11.915C13.04 11.7758 13.086 11.6167 13.0835 11.4378C13.086 11.2588 13.0351 11.0997 12.9307 10.9605C12.8263 10.8213 12.6784 10.7132 12.4869 10.6361C12.298 10.559 12.0743 10.5205 11.8158 10.5205H11.73C11.3676 10.5205 11.0738 10.2267 11.0738 9.86426C11.0738 9.50182 11.3676 9.20801 11.73 9.20801H11.8158C12.042 9.20801 12.2409 9.17072 12.4124 9.09615C12.5864 9.02157 12.7219 8.91717 12.8188 8.78294C12.9157 8.64622 12.963 8.48961 12.9605 8.31312C12.963 8.1416 12.922 7.99121 12.8374 7.86195C12.7554 7.7302 12.6398 7.62828 12.4907 7.5562C12.344 7.48411 12.1737 7.44806 11.9798 7.44806C11.776 7.44806 11.5908 7.48411 11.4243 7.5562C11.2602 7.62828 11.1297 7.7302 11.0328 7.86195C10.5993 8.32058 10.472 8.32058 10.0155 8.32058C9.52041 8.32058 9.09686 7.89755 9.30454 7.44817C9.35742 7.33377 9.42141 7.22436 9.49654 7.11994C9.74511 6.77193 10.0832 6.49973 10.5107 6.30336C10.9408 6.10698 11.4305 6.00879 11.9798 6.00879C12.5267 6.00879 13.0077 6.10449 13.4228 6.2959C13.838 6.4873 14.1611 6.74831 14.3923 7.07892C14.6235 7.40705 14.7391 7.77868 14.7391 8.1938C14.7416 8.62385 14.6011 8.97807 14.3177 9.25648C14.043 9.52876 13.691 9.6988 13.2618 9.76662C13.2451 9.76925 13.2327 9.78356 13.2327 9.80045C13.2327 9.8177 13.2457 9.83221 13.2628 9.83436C13.8395 9.90686 14.2756 10.097 14.5713 10.4049C14.8746 10.7181 15.0249 11.1096 15.0225 11.5795C15.0225 12.0219 14.892 12.4147 14.6309 12.7577C14.3724 13.0983 14.012 13.3667 13.5496 13.5631C13.0898 13.757 12.5615 13.854 11.9649 13.854Z" fill="currentColor"/></svg>
