<svg xmlns="http://www.w3.org/2000/svg" viewBox="0 0 24 24" fill="none"><path d="M4 11V17C4 18.6569 5.34315 20 7 20H17C18.6569 20 20 18.6569 20 17V11" stroke="currentColor" stroke-width="2" stroke-linecap="round" stroke-linejoin="round"/><path d="M17.7368 4H6.2626C4.92315 4 3.746 4.88793 3.37802 6.17584L2.86098 7.98548C2.42935 9.49618 3.56369 11 5.13484 11C6.44091 11 7.49969 10.0561 7.49969 8.75C7.49969 9.99264 8.50705 11 9.74969 11C10.9923 11 11.9997 9.99264 11.9997 8.75C11.9997 9.99264 13.0071 11 14.2497 11C15.4923 11 16.4997 9.99264 16.4997 8.75C16.4997 10.0561 17.5585 11 18.8645 11C20.4357 11 21.57 9.49618 21.1384 7.98548L20.6214 6.17584C20.2534 4.88793 19.0762 4 17.7368 4Z" stroke="currentColor" stroke-width="2" stroke-linecap="round" stroke-linejoin="round"/></svg>
