<svg xmlns="http://www.w3.org/2000/svg" viewBox="0 0 24 24" fill="none"><path d="M11.8305 5.68856C9.57907 3.43715 5.92881 3.43715 3.6774 5.68856C1.57785 7.78811 1.40103 11.1544 3.42019 13.3313C5.53905 15.6158 7.76799 17.9882 10.1293 20.1316C11.1921 21.0963 12.8011 21.0963 13.8639 20.1316C16.2252 17.9882 18.4541 15.6158 20.573 13.3313C22.5921 11.1544 22.4153 7.78811 20.3158 5.68856C18.0644 3.43715 14.4141 3.43715 12.1627 5.68856L8.8146 9.03664C8.22881 9.62243 8.22881 10.5722 8.8146 11.158C9.98617 12.3295 11.8857 12.3295 13.0572 11.158L13.7643 10.4509C14.1549 10.0603 14.788 10.0603 15.1786 10.4509L18.7141 13.9864" stroke="currentColor" stroke-width="2" stroke-linejoin="round"/></svg>
