<svg xmlns="http://www.w3.org/2000/svg" viewBox="0 0 24 24" fill="none"><path d="M20 5.75C20 7.13071 16.4183 8.25 12 8.25C7.58172 8.25 4 7.13071 4 5.75C4 4.36929 7.58172 3.25 12 3.25C16.4183 3.25 20 4.36929 20 5.75Z" stroke="currentColor" stroke-width="2"/><path d="M4 5.75L5.20702 14.8026C5.40902 16.3177 5.51003 17.0752 5.77047 17.6928C6.3669 19.1072 7.57993 20.1692 9.0607 20.5735C9.70731 20.75 10.4715 20.75 12 20.75C13.5285 20.75 14.2927 20.75 14.9393 20.5735C16.4201 20.1692 17.6331 19.1072 18.2295 17.6928C18.49 17.0752 18.591 16.3177 18.793 14.8026L20 5.75" stroke="currentColor" stroke-width="2"/></svg>
