<svg xmlns="http://www.w3.org/2000/svg" viewBox="0 0 24 24" fill="none"><path d="M15.1635 17.1179L5.78101 20.8138C4.15426 21.4547 2.54631 19.8466 3.18721 18.2199L6.88362 8.83782C7.41158 7.49777 9.14017 7.13828 10.1586 8.15672L15.8447 13.8428C16.8632 14.8613 16.5037 16.59 15.1635 17.1179Z" stroke="currentColor" stroke-width="2" stroke-linecap="round" stroke-linejoin="round"/><path d="M14 2C14 2 14.1778 3.04001 14 4C13.8085 5.03394 13 6 13 6" stroke="currentColor" stroke-width="2" stroke-linecap="round" stroke-linejoin="round"/><path d="M15.5 8.5L16.5 7.5" stroke="currentColor" stroke-width="2" stroke-linecap="round" stroke-linejoin="round"/><path d="M18.3008 4.75L18.7508 3.5" stroke="currentColor" stroke-width="2" stroke-linecap="round" stroke-linejoin="round"/><path d="M20 8L21 7.5" stroke="currentColor" stroke-width="2" stroke-linecap="round" stroke-linejoin="round"/><path d="M18 11C18 11 18.7561 11.032 19.5 11.27C20.1705 11.4846 21 12 21 12" stroke="currentColor" stroke-width="2" stroke-linecap="round" stroke-linejoin="round"/></svg>
