<svg xmlns="http://www.w3.org/2000/svg" viewBox="0 0 24 24" fill="none"><path d="M16 20L10.1213 14.1214C8.94975 12.9498 7.05025 12.9498 5.87868 14.1214L4 16" stroke="currentColor" stroke-width="2" stroke-linecap="round" stroke-linejoin="round"/><path d="M14 11.5C15.1046 11.5 16 10.6046 16 9.5C16 8.39543 15.1046 7.5 14 7.5C12.8954 7.5 12 8.39543 12 9.5C12 10.6046 12.8954 11.5 14 11.5Z" stroke="currentColor" stroke-width="2"/><path d="M12 21C16.9706 21 21 16.9706 21 12C21 7.02944 16.9706 3 12 3C7.02944 3 3 7.02944 3 12C3 16.9706 7.02944 21 12 21Z" stroke="currentColor" stroke-width="2"/></svg>
