<svg xmlns="http://www.w3.org/2000/svg" viewBox="0 0 24 24" fill="none"><path d="M15.4996 16.9999C16.7398 16.9999 17.7691 16.0968 17.9658 14.9124C18.0092 14.6508 17.8943 14.3945 17.7067 14.207L15.7925 12.2928C15.605 12.1053 15.3488 11.9903 15.0871 12.0338C13.9027 12.2304 12.9996 13.2597 12.9996 14.4999C12.9996 15.8806 14.1189 16.9999 15.4996 16.9999Z" fill="currentColor"/><path d="M6.20511 12.8029C6.01622 12.284 6.2838 11.7101 6.80278 11.5212L9.78826 10.4346C10.3072 10.2457 10.8811 10.5133 11.07 11.0323L11.4528 12.084C11.6417 12.6029 11.3741 13.1768 10.8551 13.3657L7.86961 14.4523C7.35063 14.6412 6.77679 14.3736 6.5879 13.8546L6.20511 12.8029Z" fill="currentColor"/><path d="M21 17V10C21 8.34315 19.6569 7 18 7H6C4.34315 7 3 8.34315 3 10V17C3 18.6569 4.34315 20 6 20H18C19.6569 20 21 18.6569 21 17Z" stroke="currentColor" stroke-width="2"/><path d="M8 7V6C8 4.34315 9.34315 3 11 3H13C14.6569 3 16 4.34315 16 6V7" stroke="currentColor" stroke-width="2"/></svg>
