<svg xmlns="http://www.w3.org/2000/svg" viewBox="0 0 24 24" fill="none"><path d="M9.03134 6.68792L9.65508 3.75348C9.76991 3.21326 10.3009 2.86841 10.8411 2.98324L12.7974 3.39906C13.3377 3.51389 13.6825 4.04491 13.5677 4.58512L12.9439 7.51956M9.03134 6.68792L12.9439 7.51956M9.03134 6.68792C7.4107 6.34344 5.81765 7.37798 5.47317 8.99863L3.91383 16.3347C3.56935 17.9554 4.60389 19.5484 6.22454 19.8929L10.1371 20.7246C11.7578 21.069 13.3508 20.0345 13.6953 18.4138L15.2546 11.0777C15.5991 9.45709 14.5646 7.86404 12.9439 7.51956M8.42888 11.9271L9.58424 13.7062M9.58424 13.7062L10.7396 15.4853M9.58424 13.7062L11.3633 12.5509M9.58424 13.7062L7.80515 14.8616" stroke="currentColor" stroke-width="2" stroke-linecap="round" stroke-linejoin="round"/><path d="M16.5 5H16.51M19 3.75H19.01M21.5 2.5H21.51M21.5 5H21.51M21.5 7.5H21.51M19 6.25H19.01" stroke="currentColor" stroke-width="2" stroke-linecap="round"/></svg>
