<svg xmlns="http://www.w3.org/2000/svg" viewBox="0 0 24 24" fill="none"><path d="M19.5 17H20C21.1046 17 22 16.1046 22 15V12.3423C22 10.9657 21.0631 9.76578 19.7276 9.4319L18.6889 9.17222C18.2433 9.06081 17.8496 8.79941 17.574 8.43193L15.9 6.2C15.3334 5.44458 14.4443 5 13.5 5H10C9.44772 5 9 5.44772 9 6V10H4C2.89543 10 2 10.8954 2 12V15C2 16.1046 2.89543 17 4 17H4.5" stroke="currentColor" stroke-width="2" stroke-linejoin="round"/><path d="M9.5 17H14.5" stroke="currentColor" stroke-width="2" stroke-linecap="round" stroke-linejoin="round"/><circle cx="7" cy="16.75" r="2.25" stroke="currentColor" stroke-width="2" stroke-linecap="round" stroke-linejoin="round"/><circle cx="17" cy="16.75" r="2.25" stroke="currentColor" stroke-width="2" stroke-linecap="round" stroke-linejoin="round"/></svg>
