<svg xmlns="http://www.w3.org/2000/svg" viewBox="0 0 24 24" fill="none"><path d="M20 13C20 17.4183 16.4183 21 12 21C7.58172 21 4 17.4183 4 13C4 8.58172 7.58172 5 12 5C16.4183 5 20 8.58172 20 13Z" stroke="currentColor" stroke-width="2" stroke-linecap="round"/><path d="M12.6562 4.87958C12.9372 3.73737 13.6653 2.70696 14.7644 2.07239C15.8636 1.43782 16.9599 1.43756 18.2496 1.65023C17.9686 2.79244 17.2405 3.82285 16.1414 4.45742C15.0423 5.09199 13.7859 5.20734 12.6562 4.87958Z" stroke="currentColor" stroke-width="2" stroke-linecap="round" stroke-linejoin="round"/><path d="M12 5.00006C11.7428 3.84257 10.6256 2.65467 9 2.18604" stroke="currentColor" stroke-width="2" stroke-linecap="round"/><path d="M16 13C16 15.2091 14.2091 17 12 17" stroke="currentColor" stroke-width="2" stroke-linecap="round"/></svg>
