<svg xmlns="http://www.w3.org/2000/svg" viewBox="0 0 24 24" fill="none"><path d="M14.0111 14.5C14.0111 12.567 15.5765 11 17.5075 11C19.4384 11 21.0038 12.567 21.0038 14.5C21.0038 16.433 19.4384 18 17.5075 18C15.5765 18 14.0111 16.433 14.0111 14.5ZM14.0111 14.5C13.7614 9.75 16.009 8 19.0059 6" stroke="currentColor" stroke-width="2" stroke-linecap="round" stroke-linejoin="round"/><path d="M3.01895 14.5C3.01895 12.567 4.58431 11 6.51527 11C8.44623 11 10.0116 12.567 10.0116 14.5C10.0116 16.433 8.44623 18 6.51527 18C4.58431 18 3.01895 16.433 3.01895 14.5ZM3.01895 14.5C2.76922 9.75 5.01685 8 8.01369 6" stroke="currentColor" stroke-width="2" stroke-linecap="round" stroke-linejoin="round"/><path d="M14.0074 14.5C14.0074 12.567 15.5727 11 17.5037 11C19.4346 11 21 12.567 21 14.5C21 16.433 19.4346 18 17.5037 18C15.5727 18 14.0074 16.433 14.0074 14.5ZM14.0074 14.5C13.7576 9.75 16.0053 8 19.0021 6M3.01895 14.5C3.01895 12.567 4.58431 11 6.51527 11C8.44623 11 10.0116 12.567 10.0116 14.5C10.0116 16.433 8.44623 18 6.51527 18C4.58431 18 3.01895 16.433 3.01895 14.5ZM3.01895 14.5C2.76922 9.75 5.01685 8 8.01369 6" stroke="currentColor" stroke-width="2" stroke-linecap="round" stroke-linejoin="round"/></svg>
