<svg xmlns="http://www.w3.org/2000/svg" viewBox="0 0 24 24" fill="none"><rect x="4" y="4" width="16" height="16" rx="3" stroke="currentColor" stroke-width="2" stroke-linecap="round" stroke-linejoin="round"/><path d="M7.25 7.25H7.26M7.5 7.25C7.5 7.38807 7.38807 7.5 7.25 7.5C7.11193 7.5 7 7.38807 7 7.25C7 7.11193 7.11193 7 7.25 7C7.38807 7 7.5 7.11193 7.5 7.25Z" stroke="currentColor" stroke-width="2" stroke-linecap="round" stroke-linejoin="round"/><path d="M14.75 13.8C14.75 15.1807 13.5188 16.5 12 16.5C10.4812 16.5 9.25 15.1807 9.25 13.8C9.25 11.6846 12 9 12 9C12 9 14.75 11.6846 14.75 13.8Z" stroke="currentColor" stroke-width="2" stroke-linecap="round" stroke-linejoin="round"/></svg>
