<svg xmlns="http://www.w3.org/2000/svg" viewBox="0 0 24 24" fill="none"><path d="M4 19.9997L11.4997 12.5" stroke="currentColor" stroke-width="2" stroke-linecap="round" stroke-linejoin="round"/><path d="M17.8387 5.50841C18.2498 5.33882 18.6612 5.75016 18.4916 6.1613L17.2279 9.22465C17.1564 9.39798 17.1879 9.59674 17.3095 9.73949L19.4579 12.2624C19.7462 12.601 19.4821 13.1194 19.0387 13.0851L15.7348 12.8299C15.5479 12.8155 15.3686 12.9069 15.2704 13.0666L13.5348 15.8895C13.3019 16.2684 12.7273 16.1773 12.6229 15.745L11.8446 12.524C11.8005 12.3417 11.6583 12.1994 11.476 12.1554L8.25494 11.3771C7.82264 11.2727 7.73163 10.6981 8.11051 10.4652L10.9334 8.72962C11.0931 8.63142 11.1845 8.45212 11.1701 8.26518L10.9149 4.96127C10.8806 4.51784 11.399 4.25374 11.7376 4.54209L14.2605 6.69052C14.4032 6.81208 14.602 6.84356 14.7753 6.77206L17.8387 5.50841Z" stroke="currentColor" stroke-width="2" stroke-linecap="round" stroke-linejoin="round"/></svg>
