<svg xmlns="http://www.w3.org/2000/svg" viewBox="0 0 24 24" fill="none"><path d="M5 3H19" stroke="currentColor" stroke-width="2" stroke-linecap="round"/><path d="M5 21H19" stroke="currentColor" stroke-width="2" stroke-linecap="round"/><path d="M6 3V8C6 10.2091 7.79086 12 10 12" stroke="currentColor" stroke-width="2" stroke-linecap="round"/><path d="M6 21V16C6 13.7909 7.79086 12 10 12" stroke="currentColor" stroke-width="2" stroke-linecap="round"/><path d="M18 3V8C18 10.2091 16.2091 12 14 12" stroke="currentColor" stroke-width="2" stroke-linecap="round"/><path d="M18 21V16C18 13.7909 16.2091 12 14 12" stroke="currentColor" stroke-width="2" stroke-linecap="round"/><path d="M14.7027 18.5H9.29726C8.85694 18.5 8.5 18.1431 8.5 17.7027C8.5 16.9908 8.97194 16.3652 9.65647 16.1696L12 15.5L14.3435 16.1696C15.0281 16.3652 15.5 16.9908 15.5 17.7027C15.5 18.1431 15.1431 18.5 14.7027 18.5Z" fill="currentColor"/></svg>
