<svg xmlns="http://www.w3.org/2000/svg" viewBox="0 0 24 24" fill="none"><path d="M12 11V13M10.2369 7.40851C10.7688 7.14692 11.3672 7 12 7C14.2091 7 16 8.79086 16 11V13C16 13.0563 15.9988 13.1124 15.9965 13.1681M8.00347 10.8319C8.00116 10.8876 8 10.9437 8 11V13C8 15.2091 9.79086 17 12 17C12.6328 17 13.2312 16.8531 13.7631 16.5915M13.1175 3.0827C12.7529 3.02823 12.3798 3 12 3C7.85786 3 4.5 6.35786 4.5 10.5V11.2916M16.7786 4.71918C18.4409 6.09485 19.5 8.17374 19.5 10.5V13.5C19.5 14.7133 19.2119 15.8593 18.7003 16.8734M15.9821 19.8567C14.8281 20.5811 13.463 21 12 21C8.48351 21 5.53226 18.5799 4.72095 15.3144" stroke="currentColor" stroke-width="2" stroke-linecap="round" stroke-linejoin="round"/></svg>
