<svg xmlns="http://www.w3.org/2000/svg" viewBox="0 0 24 24" fill="none"><path d="M5 20V14H7.25C8.2165 14 9 14.7835 9 15.75C9 16.7165 8.2165 17.5 7.25 17.5H5.5M6.3811 17.502C8.37781 17.502 8.89841 18.6056 8.98557 20" stroke="currentColor" stroke-width="2" stroke-linecap="round" stroke-linejoin="round"/><path d="M16 12.7439V18.5C16 19.3284 16.6716 20 17.5 20C18.3284 20 19 19.3284 19 18.5L19 8.5C19 6.01472 16.9853 4 14.5 4C14.1422 4 13.7942 4.04176 13.4605 4.12066C12.4863 4.35104 12 5.35864 12 6.35971V10.6403C12 11.6414 12.4863 12.649 13.4605 12.8793C13.7942 12.9582 14.1422 13 14.5 13C15.026 13 15.5308 12.9098 16 12.7439ZM16 12.7439V12" stroke="currentColor" stroke-width="2" stroke-linecap="round" stroke-linejoin="round"/></svg>
