<svg xmlns="http://www.w3.org/2000/svg" viewBox="0 0 24 24" fill="none"><path d="M19.419 9C18.2322 6.06817 15.3579 4 12.0005 4C8.64314 4 5.76881 6.06817 4.58203 9M19.419 9H20.001V5M19.419 9H16.001" stroke="currentColor" stroke-width="2" stroke-linecap="round" stroke-linejoin="round"/><path d="M7.92578 19.9653V14.2588H7.90039L7.23389 14.7095C6.90381 14.9189 6.72607 14.9824 6.5166 14.9824C6.09766 14.9824 5.79297 14.6777 5.79297 14.2588C5.79297 13.9478 5.9834 13.6685 6.35791 13.4336L7.39258 12.7417C7.8877 12.4243 8.33838 12.2783 8.76367 12.2783C9.50635 12.2783 10.0015 12.7798 10.0015 13.5542V19.9653C10.0015 20.6826 9.62695 21.0825 8.9668 21.0825C8.30029 21.0825 7.92578 20.6763 7.92578 19.9653Z" fill="currentColor"/><path d="M11.2837 16.9058V16.4424C11.2837 13.8589 12.6104 12.1768 14.7432 12.1768C16.8823 12.1768 18.1582 13.8271 18.1582 16.4424V16.9058C18.1582 19.4829 16.8188 21.1904 14.6987 21.1904C12.5786 21.1904 11.2837 19.521 11.2837 16.9058ZM13.3911 16.4487V16.8994C13.3911 18.5498 13.8862 19.5146 14.7241 19.5146C15.5557 19.5146 16.0571 18.5435 16.0571 16.8994V16.4487C16.0571 14.811 15.5557 13.8525 14.7178 13.8525C13.8799 13.8525 13.3911 14.8047 13.3911 16.4487Z" fill="currentColor"/></svg>
