<svg xmlns="http://www.w3.org/2000/svg" viewBox="0 0 24 24" fill="none"><path d="M4.33682 11.0002C4.12085 10.5456 4 10.037 4 9.5002C4 7.73696 5.30385 6.27826 7 6.03564" stroke="currentColor" stroke-width="2" stroke-linecap="round"/><path d="M19.6632 11.0002C19.8792 10.5456 20 10.037 20 9.5002C20 7.73696 18.6961 6.27826 17 6.03564" stroke="currentColor" stroke-width="2" stroke-linecap="round"/><path d="M7 16.8295C6.68722 16.94 6.35064 17.0002 6 17.0002C4.34315 17.0002 3 15.657 3 14.0002C3 12.694 3.83481 11.5827 5 11.1709" stroke="currentColor" stroke-width="2" stroke-linecap="round"/><path d="M17 16.8295C17.3128 16.94 17.6494 17.0002 18 17.0002C19.6569 17.0002 21 15.657 21 14.0002C21 12.694 20.1652 11.5827 19 11.1709" stroke="currentColor" stroke-width="2" stroke-linecap="round"/><path d="M12 5.5C12 4.11929 10.8807 3 9.5 3C8.11929 3 7 4.11929 7 5.5C7 6.06291 7.18604 6.58237 7.5 7.00024" stroke="currentColor" stroke-width="2" stroke-linecap="round"/><path d="M12 5.5C12 4.11929 13.1193 3 14.5 3C15.8807 3 17 4.11929 17 5.5C17 6.06291 16.814 6.58237 16.5 7.00024" stroke="currentColor" stroke-width="2" stroke-linecap="round"/><path d="M12 5.5V17.5" stroke="currentColor" stroke-width="2" stroke-linecap="round"/><path d="M12 17.5C12 19.433 10.433 21 8.5 21C6.567 21 5 19.433 5 17.5" stroke="currentColor" stroke-width="2" stroke-linecap="round"/><path d="M19 17.5C19 19.433 17.433 21 15.5 21C13.567 21 12 19.433 12 17.5" stroke="currentColor" stroke-width="2" stroke-linecap="round"/></svg>
