<svg xmlns="http://www.w3.org/2000/svg" viewBox="0 0 24 24" fill="none"><path d="M10.5001 2.86604C11.4283 2.33014 12.5719 2.33014 13.5001 2.86604L19.1604 6.13398C20.0886 6.66988 20.6604 7.66026 20.6604 8.73206V15.268C20.6604 16.3398 20.0886 17.3301 19.1604 17.866L13.5001 21.134C12.5719 21.6699 11.4283 21.6699 10.5001 21.134L4.83984 17.866C3.91164 17.3301 3.33984 16.3398 3.33984 15.268V8.73206C3.33984 7.66026 3.91164 6.66988 4.83984 6.13398L10.5001 2.86604Z" stroke="currentColor" stroke-width="2" stroke-linecap="round" stroke-linejoin="round"/><path d="M8 5L8.0001 13.5" stroke="currentColor" stroke-width="2" stroke-linecap="round" stroke-linejoin="round"/><path d="M8.5 9.40205L16.1246 5" stroke="currentColor" stroke-width="2" stroke-linecap="round" stroke-linejoin="round"/><path d="M12.5 7.6698L20.0001 12" stroke="currentColor" stroke-width="2" stroke-linecap="round" stroke-linejoin="round"/><path d="M16 10.5L16.0001 18.9283" stroke="currentColor" stroke-width="2" stroke-linecap="round" stroke-linejoin="round"/><path d="M4 12L11.4999 16.3301" stroke="currentColor" stroke-width="2" stroke-linecap="round" stroke-linejoin="round"/><path d="M8 18.9283L15.5 14.5981" stroke="currentColor" stroke-width="2" stroke-linecap="round" stroke-linejoin="round"/></svg>
