<svg xmlns="http://www.w3.org/2000/svg" viewBox="0 0 24 24" fill="none"><path d="M19 5H3C2.44772 5 2 5.45504 2 6.00732C2 7.20741 2.71519 8.30651 3.81824 8.77925L7.73748 10.4589C8.5034 10.7872 9 11.5403 9 12.3736C9 13.3294 8.34946 14.1626 7.42214 14.3945L7 14.5C5.82459 14.7939 5 15.85 5 17.0616V18C5 18.5523 5.44772 19 6 19H19C19.5523 19 20 18.5523 20 18V17.0616C20 15.85 19.1754 14.7939 18 14.5L17.4552 14.3638C16.6 14.15 16 13.3816 16 12.5C16 11.6184 16.6 10.85 17.4552 10.6362L18 10.5C19.1754 10.2061 20 9.15004 20 7.93845V6C20 5.44772 19.5523 5 19 5Z" stroke="currentColor" stroke-width="2" stroke-linecap="round" stroke-linejoin="round"/><path d="M6 5V9.5" stroke="currentColor" stroke-width="2" stroke-linecap="round" stroke-linejoin="round"/></svg>
