<svg xmlns="http://www.w3.org/2000/svg" viewBox="0 0 24 24" fill="none"><path d="M9.6001 3.38541C10.4744 2.88061 10.9116 2.62821 11.3764 2.52942C11.7876 2.44201 12.2126 2.44201 12.6238 2.52942C13.0886 2.62821 13.5258 2.88061 14.4001 3.38541L18.2604 5.61413C19.1347 6.11892 19.5718 6.37132 19.8898 6.72442C20.1711 7.03686 20.3836 7.40493 20.5135 7.80477C20.6604 8.25666 20.6604 8.76146 20.6604 9.77105V14.2285C20.6604 15.2381 20.6604 15.7429 20.5135 16.1948C20.3836 16.5946 20.1711 16.9627 19.8898 17.2751C19.5718 17.6282 19.1347 17.8806 18.2604 18.3854L14.4001 20.6141C13.5258 21.1189 13.0886 21.3713 12.6238 21.4701C12.2126 21.5575 11.7876 21.5575 11.3764 21.4701C10.9116 21.3713 10.4744 21.1189 9.6001 20.6141L5.73984 18.3854C4.86551 17.8806 4.42835 17.6282 4.11041 17.2751C3.8291 16.9627 3.61659 16.5946 3.48667 16.1948C3.33984 15.7429 3.33984 15.2381 3.33984 14.2285V9.77105C3.33984 8.76146 3.33984 8.25666 3.48667 7.80477C3.61659 7.40493 3.8291 7.03686 4.11041 6.72442C4.42835 6.37132 4.86551 6.11892 5.73984 5.61413L9.6001 3.38541Z" stroke="currentColor" stroke-width="2"/><path d="M20.6604 7L12.0001 12M12.0001 22V12M3.33984 7L12.0001 12" stroke="currentColor" stroke-width="2"/><path d="M7.67188 4.5L16.3321 9.5" stroke="currentColor" stroke-width="2"/></svg>
