<svg xmlns="http://www.w3.org/2000/svg" viewBox="0 0 24 24" fill="none"><path d="M4 9.33H6.335C7.80684 9.33 9 8.13684 9 6.665C9 5.19316 7.80684 4 6.335 4H4M4 9.33L11.835 9.33006C13.3068 9.33007 14.5 10.5232 14.5 11.9951C14.5 13.4669 13.3068 14.6601 11.835 14.6601H4M4 9.33V4M4 9.33V14.6601M4 4V2M4 14.6601L17.335 14.6601C18.8068 14.6602 20 15.8533 20 17.3251C20 18.797 18.8068 19.9902 17.335 19.9902H4M4 14.6601V19.9902M4 19.9902V22" stroke="currentColor" stroke-width="2" stroke-linecap="round" stroke-linejoin="round"/></svg>
