<svg xmlns="http://www.w3.org/2000/svg" viewBox="0 0 24 24" fill="none"><path d="M15.4 8.5H15.5H15.6M16 8.5C16 8.77614 15.7761 9 15.5 9C15.2239 9 15 8.77614 15 8.5C15 8.22386 15.2239 8 15.5 8C15.7761 8 16 8.22386 16 8.5Z" stroke="currentColor" stroke-width="2" stroke-linecap="round" stroke-linejoin="round"/><path d="M15.5 14C18.5376 14 21 11.5376 21 8.5C21 5.46243 18.5376 3 15.5 3C12.4624 3 10 5.46243 10 8.5C10 8.96094 10.0567 9.40863 10.1635 9.83649L4.87868 15.1213C4.31607 15.6839 4 16.447 4 17.2426V19C4 19.5523 4.44772 20 5 20H6.75736C7.55301 20 8.31607 19.6839 8.87868 19.1213L10 18V15.5H12.5L14.1635 13.8365C14.5914 13.9433 15.0391 14 15.5 14Z" stroke="currentColor" stroke-width="2" stroke-linecap="square" stroke-linejoin="round"/></svg>
