<svg xmlns="http://www.w3.org/2000/svg" viewBox="0 0 24 24" fill="none"><path opacity="0.12" d="M6 18.7083C4.15875 17.0604 3 14.6655 3 12C3 7.02944 7.02944 3 12 3C16.9706 3 21 7.02944 21 12C21 14.6655 19.8412 17.0604 18 18.7083" stroke="currentColor" stroke-width="2" stroke-linecap="round"/><path d="M6 18.7081C4.15875 17.0601 3 14.6653 3 11.9998C3 7.3672 6.50006 3.55212 11 3.05469" stroke="currentColor" stroke-width="2" stroke-linecap="round"/><path d="M14 12.9995C14 14.1041 13.1046 14.9995 12 14.9995C10.8954 14.9995 10 14.1041 10 12.9995C10 11.2244 11.0084 8.94503 11.5931 7.77252C11.7658 7.4263 12.2342 7.4263 12.4069 7.77251C12.9916 8.94503 14 11.2244 14 12.9995Z" fill="currentColor"/></svg>
