<svg xmlns="http://www.w3.org/2000/svg" viewBox="0 0 24 24" fill="none"><path d="M2.7857 15.0425C2.08548 13.5409 2.73515 11.756 4.23677 11.0557L6.95569 9.78788C8.45731 9.08767 10.2423 9.73733 10.9425 11.239L12.2103 13.9579C12.9105 15.4595 12.2609 17.2444 10.7593 17.9447L8.04033 19.2125C6.53871 19.9127 4.75377 19.2631 4.05355 17.7614L2.7857 15.0425Z" stroke="currentColor" stroke-width="2" stroke-linejoin="round"/><path d="M14.7205 4.89341C15.0983 3.85545 16.246 3.32028 17.2839 3.69806L20.103 4.72412C21.141 5.10191 21.6762 6.24959 21.2984 7.28755L20.2723 10.1066C19.8945 11.1446 18.7468 11.6798 17.7089 11.302L14.8898 10.2759C13.8519 9.89813 13.3167 8.75044 13.6945 7.71249L14.7205 4.89341Z" stroke="currentColor" stroke-width="2" stroke-linejoin="round"/><path d="M6.41045 13.3519C6.64386 13.8524 6.4273 14.4474 5.92676 14.6808C5.42622 14.9142 4.83124 14.6977 4.59784 14.1971C4.36443 13.6966 4.58099 13.1016 5.08153 12.8682C5.58207 12.6348 6.17705 12.8514 6.41045 13.3519Z" fill="currentColor"/><path d="M10.3987 14.8031C10.6321 15.3036 10.4156 15.8986 9.91504 16.132C9.4145 16.3654 8.81952 16.1488 8.58612 15.6483C8.35271 15.1478 8.56927 14.5528 9.06981 14.3194C9.57035 14.086 10.1653 14.3025 10.3987 14.8031Z" fill="currentColor"/><path d="M18.4391 7.84205C18.2503 8.36103 17.6764 8.62861 17.1574 8.43972C16.6385 8.25083 16.3709 7.67699 16.5598 7.15801C16.7487 6.63903 17.3225 6.37144 17.8415 6.56034C18.3605 6.74923 18.628 7.32307 18.4391 7.84205Z" fill="currentColor"/></svg>
