<svg xmlns="http://www.w3.org/2000/svg" viewBox="0 0 24 24" fill="none"><path d="M4 5.5C4 4.67157 4.67157 4 5.5 4H6.5C7.32843 4 8 4.67157 8 5.5V6.5C8 7.32843 7.32843 8 6.5 8H5.5C4.67157 8 4 7.32843 4 6.5V5.5Z" stroke="currentColor" stroke-width="2" stroke-linecap="square" stroke-linejoin="round"/><path d="M16 5.5C16 4.67157 16.6716 4 17.5 4H18.5C19.3284 4 20 4.67157 20 5.5V6.5C20 7.32843 19.3284 8 18.5 8H18H17.5C16.6716 8 16 7.32843 16 6.5V6V5.5Z" stroke="currentColor" stroke-width="2" stroke-linecap="square" stroke-linejoin="round"/><path d="M4 17.5C4 16.6716 4.67157 16 5.5 16H6.5C7.32843 16 8 16.6716 8 17.5V18.5C8 19.3284 7.32843 20 6.5 20H5.5C4.67157 20 4 19.3284 4 18.5V17.5Z" stroke="currentColor" stroke-width="2" stroke-linecap="square" stroke-linejoin="round"/><path d="M19.5666 14.3406L13.1145 12.4971C12.7374 12.3894 12.3886 12.7381 12.4964 13.1153L14.3398 19.5673C14.4631 19.9987 15.0481 20.062 15.2608 19.667L16.7316 16.9355C16.778 16.8494 16.8487 16.7787 16.9348 16.7324L19.6662 15.2616C20.0613 15.0489 19.9979 14.4638 19.5666 14.3406Z" stroke="currentColor" stroke-width="2" stroke-linecap="square" stroke-linejoin="round"/><path d="M16 6H8" stroke="currentColor" stroke-width="2" stroke-linecap="round" stroke-linejoin="round"/><path d="M6 8V16" stroke="currentColor" stroke-width="2" stroke-linecap="round" stroke-linejoin="round"/><path d="M8 18H10" stroke="currentColor" stroke-width="2" stroke-linecap="round" stroke-linejoin="round"/><path d="M18 10V8" stroke="currentColor" stroke-width="2" stroke-linecap="round" stroke-linejoin="round"/></svg>
