<svg xmlns="http://www.w3.org/2000/svg" viewBox="0 0 24 24" fill="none"><path d="M5 12H19" stroke="currentColor" stroke-width="2" stroke-linecap="round"/><path d="M11.9 6.5H12H12.1M12.5 6.5C12.5 6.77614 12.2761 7 12 7C11.7239 7 11.5 6.77614 11.5 6.5C11.5 6.22386 11.7239 6 12 6C12.2761 6 12.5 6.22386 12.5 6.5Z" stroke="currentColor" stroke-width="2" stroke-linecap="round"/><path d="M11.9 17.5H12H12.1M12.5 17.5C12.5 17.7761 12.2761 18 12 18C11.7239 18 11.5 17.7761 11.5 17.5C11.5 17.2239 11.7239 17 12 17C12.2761 17 12.5 17.2239 12.5 17.5Z" stroke="currentColor" stroke-width="2" stroke-linecap="round"/></svg>
