<svg xmlns="http://www.w3.org/2000/svg" viewBox="0 0 24 24" fill="none"><path d="M20 12V17C20 18.6569 18.6569 20 17 20H7C5.34315 20 4 18.6569 4 17V12" stroke="currentColor" stroke-width="2" stroke-linecap="square" stroke-linejoin="round"/><path d="M9.5002 4H14.5002M9.5002 4L8.93432 8.52703C8.70381 10.3711 10.1417 12 12.0002 12C13.8587 12 15.2966 10.3711 15.0661 8.52703L14.5002 4M9.5002 4H6.70577C5.39362 4 4.23372 4.85275 3.84233 6.10517L3.17593 8.23768C2.59278 10.1038 3.98689 12 5.94195 12C7.40345 12 8.63624 10.9117 8.81751 9.46151L9.5002 4ZM14.5002 4H17.2946C18.6068 4 19.7667 4.85275 20.1581 6.10517L20.8245 8.23768C21.4076 10.1038 20.0135 12 18.0585 12C16.597 12 15.3642 10.9117 15.1829 9.46151L14.5002 4Z" stroke="currentColor" stroke-width="2" stroke-linecap="round" stroke-linejoin="round"/></svg>
