<svg xmlns="http://www.w3.org/2000/svg" viewBox="0 0 24 24" fill="none"><path d="M5.63803 19.673L6.09202 18.782H6.09202L5.63803 19.673ZM4.32698 18.362L3.43597 18.816H3.43597L4.32698 18.362ZM19.673 18.362L18.782 17.908V17.908L19.673 18.362ZM18.362 19.673L17.908 18.782H17.908L18.362 19.673ZM19.673 5.63803L18.782 6.09202V6.09202L19.673 5.63803ZM18.362 4.32698L18.816 3.43597V3.43597L18.362 4.32698ZM4.32698 5.63803L5.21799 6.09202L4.32698 5.63803ZM5.63803 4.32698L6.09202 5.21799L5.63803 4.32698ZM19 8.8V15.2H21V8.8H19ZM15.2 19H8.8V21H15.2V19ZM5 15.2V8.8H3V15.2H5ZM8.8 5H15.2V3H8.8V5ZM8.8 19C7.94342 19 7.36113 18.9992 6.91104 18.9624C6.47262 18.9266 6.24842 18.8617 6.09202 18.782L5.18404 20.564C5.66937 20.8113 6.18608 20.9099 6.74817 20.9558C7.2986 21.0008 7.97642 21 8.8 21V19ZM3 15.2C3 16.0236 2.99922 16.7014 3.04419 17.2518C3.09012 17.8139 3.18868 18.3306 3.43597 18.816L5.21799 17.908C5.1383 17.7516 5.07337 17.5274 5.03755 17.089C5.00078 16.6389 5 16.0566 5 15.2H3ZM6.09202 18.782C5.7157 18.5903 5.40973 18.2843 5.21799 17.908L3.43597 18.816C3.81947 19.5686 4.43139 20.1805 5.18404 20.564L6.09202 18.782ZM19 15.2C19 16.0566 18.9992 16.6389 18.9624 17.089C18.9266 17.5274 18.8617 17.7516 18.782 17.908L20.564 18.816C20.8113 18.3306 20.9099 17.8139 20.9558 17.2518C21.0008 16.7014 21 16.0236 21 15.2H19ZM15.2 21C16.0236 21 16.7014 21.0008 17.2518 20.9558C17.8139 20.9099 18.3306 20.8113 18.816 20.564L17.908 18.782C17.7516 18.8617 17.5274 18.9266 17.089 18.9624C16.6389 18.9992 16.0566 19 15.2 19V21ZM18.782 17.908C18.5903 18.2843 18.2843 18.5903 17.908 18.782L18.816 20.564C19.5686 20.1805 20.1805 19.5686 20.564 18.816L18.782 17.908ZM21 8.8C21 7.97642 21.0008 7.2986 20.9558 6.74817C20.9099 6.18608 20.8113 5.66937 20.564 5.18404L18.782 6.09202C18.8617 6.24842 18.9266 6.47262 18.9624 6.91104C18.9992 7.36113 19 7.94342 19 8.8H21ZM15.2 5C16.0566 5 16.6389 5.00078 17.089 5.03755C17.5274 5.07337 17.7516 5.1383 17.908 5.21799L18.816 3.43597C18.3306 3.18868 17.8139 3.09012 17.2518 3.04419C16.7014 2.99922 16.0236 3 15.2 3V5ZM20.564 5.18404C20.1805 4.43139 19.5686 3.81947 18.816 3.43597L17.908 5.21799C18.2843 5.40973 18.5903 5.7157 18.782 6.09202L20.564 5.18404ZM5 8.8C5 7.94342 5.00078 7.36113 5.03755 6.91104C5.07337 6.47262 5.1383 6.24842 5.21799 6.09202L3.43597 5.18404C3.18868 5.66937 3.09012 6.18608 3.04419 6.74817C2.99922 7.2986 3 7.97642 3 8.8H5ZM8.8 3C7.97642 3 7.2986 2.99922 6.74817 3.04419C6.18608 3.09012 5.66937 3.18868 5.18404 3.43597L6.09202 5.21799C6.24842 5.1383 6.47262 5.07337 6.91104 5.03755C7.36113 5.00078 7.94342 5 8.8 5V3ZM5.21799 6.09202C5.40973 5.71569 5.71569 5.40973 6.09202 5.21799L5.18404 3.43597C4.43139 3.81947 3.81947 4.43139 3.43597 5.18404L5.21799 6.09202Z" fill="currentColor"/><path d="M4 12H20" stroke="currentColor" stroke-width="2" stroke-linecap="square"/><path d="M13 4V3H11V4H13ZM11 20V21H13V20H11ZM11 4V12H13V4H11ZM11 12V20H13V12H11Z" fill="currentColor"/></svg>
