<svg xmlns="http://www.w3.org/2000/svg" viewBox="0 0 24 24" fill="none"><path d="M6.11554 7.38946C5.98314 8.27174 6.72323 9 7.61538 9C8.38009 9 8.97643 8.37354 9.11931 7.62231C9.39478 6.17388 10.1948 5 12 5C13.6569 5 15 6.34315 15 8V8.11696C15 9.83868 13.8983 11.3672 12.2649 11.9117L8.73509 13.0883C7.10172 13.6328 6 15.1613 6 16.883V19C6 20.6569 7.34315 22 9 22H15C16.6569 22 18 20.6569 18 19V8C18 4.68629 15.3137 2 12 2C8.53626 2 6.59096 4.22122 6.11554 7.38946Z" stroke="currentColor" stroke-width="2" stroke-linecap="round" stroke-linejoin="round"/></svg>
