<svg xmlns="http://www.w3.org/2000/svg" viewBox="0 0 24 24" fill="none"><path d="M8.97316 3.95932L9.60375 4.73543L8.97316 3.95932ZM11.1913 2.47646L10.9218 1.51347L11.1913 2.47646ZM15.0268 3.95932L14.3963 4.73543L15.0268 3.95932ZM12.8087 2.47646L13.0782 1.51347L12.8087 2.47646ZM5.63803 19.673L5.18404 20.564L5.63803 19.673ZM4.32698 18.362L3.43597 18.816L4.32698 18.362ZM19.673 18.362L20.564 18.816L19.673 18.362ZM18.362 19.673L18.816 20.564L18.362 19.673ZM19.8941 8.63772L18.9294 8.90112L19.8941 8.63772ZM18.2268 6.55932L17.5963 7.33543L18.2268 6.55932ZM19.4383 7.68009L20.251 7.09748L19.4383 7.68009ZM4.10594 8.63772L5.07063 8.90112L4.10594 8.63772ZM5.77316 6.55932L5.14256 5.7832L5.77316 6.55932ZM4.56174 7.68009L3.74899 7.09748L4.56174 7.68009ZM20 10.2847H19V15.2H20H21V10.2847H20ZM15.2 20V19H8.8V20V21H15.2V20ZM4 15.2H5V10.2847H4H3V15.2H4ZM5.77316 6.55932L6.40375 7.33543L9.60375 4.73543L8.97316 3.95932L8.34256 3.1832L5.14256 5.7832L5.77316 6.55932ZM15.0268 3.95932L14.3963 4.73543L17.5963 7.33543L18.2268 6.55932L18.8574 5.7832L15.6574 3.1832L15.0268 3.95932ZM8.97316 3.95932L9.60375 4.73543C10.1546 4.28787 10.5262 3.98674 10.8336 3.77261C11.1306 3.56569 11.311 3.48141 11.4609 3.43945L11.1913 2.47646L10.9218 1.51347C10.472 1.63938 10.0827 1.85821 9.69033 2.13158C9.30828 2.39775 8.87067 2.75412 8.34256 3.1832L8.97316 3.95932ZM15.0268 3.95932L15.6574 3.1832C15.1293 2.75412 14.6917 2.39775 14.3097 2.13158C13.9173 1.85821 13.528 1.63938 13.0782 1.51347L12.8087 2.47646L12.5391 3.43945C12.689 3.48141 12.8694 3.56569 13.1664 3.77261C13.4738 3.98674 13.8454 4.28787 14.3963 4.73543L15.0268 3.95932ZM11.1913 2.47646L11.4609 3.43945C11.8135 3.34074 12.1865 3.34074 12.5391 3.43945L12.8087 2.47646L13.0782 1.51347C12.373 1.31607 11.627 1.31607 10.9218 1.51347L11.1913 2.47646ZM8.8 20V19C7.94342 19 7.36113 18.9992 6.91104 18.9625C6.47262 18.9266 6.24842 18.8617 6.09202 18.782L5.63803 19.673L5.18404 20.564C5.66937 20.8113 6.18608 20.9099 6.74817 20.9558C7.2986 21.0008 7.97642 21 8.8 21V20ZM4 15.2H3C3 16.0236 2.99922 16.7014 3.04419 17.2518C3.09012 17.8139 3.18868 18.3306 3.43597 18.816L4.32698 18.362L5.21799 17.908C5.1383 17.7516 5.07337 17.5274 5.03755 17.089C5.00078 16.6389 5 16.0566 5 15.2H4ZM5.63803 19.673L6.09202 18.782C5.71569 18.5903 5.40973 18.2843 5.21799 17.908L4.32698 18.362L3.43597 18.816C3.81947 19.5686 4.43139 20.1805 5.18404 20.564L5.63803 19.673ZM20 15.2H19C19 16.0566 18.9992 16.6389 18.9624 17.089C18.9266 17.5274 18.8617 17.7516 18.782 17.908L19.673 18.362L20.564 18.816C20.8113 18.3306 20.9099 17.8139 20.9558 17.2518C21.0008 16.7014 21 16.0236 21 15.2H20ZM15.2 20V21C16.0236 21 16.7014 21.0008 17.2518 20.9558C17.8139 20.9099 18.3306 20.8113 18.816 20.564L18.362 19.673L17.908 18.782C17.7516 18.8617 17.5274 18.9266 17.089 18.9625C16.6389 18.9992 16.0566 19 15.2 19V20ZM19.673 18.362L18.782 17.908C18.5903 18.2843 18.2843 18.5903 17.908 18.782L18.362 19.673L18.816 20.564C19.5686 20.1805 20.1805 19.5686 20.564 18.816L19.673 18.362ZM20 10.2847H21C21 9.50041 21.0083 8.92195 20.8587 8.37432L19.8941 8.63772L18.9294 8.90112C18.9917 9.12948 19 9.39032 19 10.2847H20ZM18.2268 6.55932L17.5963 7.33543C18.2904 7.8994 18.4876 8.0703 18.6255 8.2627L19.4383 7.68009L20.251 7.09748C19.9203 6.6361 19.4661 6.27775 18.8574 5.7832L18.2268 6.55932ZM19.8941 8.63772L20.8587 8.37432C20.7336 7.91599 20.5278 7.48362 20.251 7.09748L19.4383 7.68009L18.6255 8.2627C18.7639 8.45577 18.8668 8.67196 18.9294 8.90112L19.8941 8.63772ZM4 10.2847H5C5 9.39032 5.00827 9.12948 5.07063 8.90112L4.10594 8.63772L3.14125 8.37432C2.99173 8.92195 3 9.50041 3 10.2847H4ZM5.77316 6.55932L5.14256 5.7832C4.53389 6.27775 4.07973 6.6361 3.74899 7.09748L4.56174 7.68009L5.3745 8.2627C5.51241 8.0703 5.70964 7.89939 6.40375 7.33543L5.77316 6.55932ZM4.10594 8.63772L5.07063 8.90112C5.1332 8.67195 5.23609 8.45577 5.3745 8.2627L4.56174 7.68009L3.74899 7.09748C3.47219 7.48362 3.26639 7.91599 3.14125 8.37432L4.10594 8.63772Z" fill="currentColor"/><path d="M15 20V21C15.5523 21 16 20.5523 16 20H15ZM9 20H8C8 20.5523 8.44772 21 9 21V20ZM15 16H14V20H15H16V16H15ZM15 20V19H9V20V21H15V20ZM9 20H10V16H9H8V20H9ZM12 13V14C13.1046 14 14 14.8954 14 16H15H16C16 13.7909 14.2091 12 12 12V13ZM12 13V12C9.79086 12 8 13.7909 8 16H9H10C10 14.8954 10.8954 14 12 14V13Z" fill="currentColor"/></svg>
