<svg xmlns="http://www.w3.org/2000/svg" viewBox="0 0 24 24" fill="none"><path d="M6.11454 4.80352L7.80179 3.74898C8.56062 3.27472 9.49155 3.16395 10.3405 3.44693L11.0513 3.68388C11.6671 3.88914 12.3329 3.88914 12.9487 3.68388L13.6595 3.44693C14.5085 3.16395 15.4394 3.27472 16.1982 3.74898L17.8855 4.80352C18.5788 5.23686 19 5.9968 19 6.81443C19 7.56083 19.3514 8.26367 19.9485 8.71151L20 8.75011C20.6295 9.22224 21 9.96321 21 10.7501V12.2501C21 13.037 20.6295 13.778 20 14.2501C19.3705 14.7222 19 15.4632 19 16.2501V16.8374C19 17.8717 18.4671 18.8331 17.59 19.3814L16.1982 20.2512C15.4394 20.7255 14.5085 20.8363 13.6595 20.5533L12.9487 20.3163C12.3329 20.1111 11.6671 20.1111 11.0513 20.3163L10.3405 20.5533C9.49155 20.8363 8.56062 20.7255 7.80179 20.2512L6.41 19.3814C5.53286 18.8331 5 17.8717 5 16.8374V16.2501C5 15.4632 4.62951 14.7222 4 14.2501C3.37049 13.778 3 13.037 3 12.2501V10.7501C3 9.96321 3.37049 9.22224 4 8.75011L4.05146 8.71151C4.64858 8.26367 5 7.56083 5 6.81443C5 5.9968 5.4212 5.23686 6.11454 4.80352Z" stroke="currentColor" stroke-width="2" stroke-linecap="round" stroke-linejoin="round"/><path d="M12 4.5V6.75736C12 7.55301 12.3161 8.31607 12.8787 8.87868L15 11" stroke="currentColor" stroke-width="2" stroke-linecap="round" stroke-linejoin="round"/><path d="M12 19.5V17.2426C12 16.447 11.6839 15.6839 11.1213 15.1213L9 13" stroke="currentColor" stroke-width="2" stroke-linecap="round" stroke-linejoin="round"/><circle cx="9" cy="13" r="1" stroke="currentColor" stroke-width="2" stroke-linecap="round" stroke-linejoin="round"/><circle cx="15" cy="11" r="1" stroke="currentColor" stroke-width="2" stroke-linecap="round" stroke-linejoin="round"/></svg>
