<svg xmlns="http://www.w3.org/2000/svg" viewBox="0 0 24 24" fill="none"><path d="M2 9C2 7.34315 3.34315 6 5 6H19C20.6569 6 22 7.34315 22 9V16C22 17.6569 20.6569 19 19 19H17.1272C16.4005 19 15.6986 18.7362 15.1517 18.2577L13.317 16.6524C12.563 15.9926 11.437 15.9926 10.683 16.6524L8.84831 18.2577C8.30143 18.7362 7.59946 19 6.87279 19H5C3.34315 19 2 17.6569 2 16V9Z" stroke="currentColor" stroke-width="2"/><path d="M9.25 11.5C9.25 12.4665 8.4665 13.25 7.5 13.25C6.5335 13.25 5.75 12.4665 5.75 11.5C5.75 10.5335 6.5335 9.75 7.5 9.75C8.4665 9.75 9.25 10.5335 9.25 11.5Z" stroke="currentColor" stroke-width="2"/><path d="M18.25 11.5C18.25 12.4665 17.4665 13.25 16.5 13.25C15.5335 13.25 14.75 12.4665 14.75 11.5C14.75 10.5335 15.5335 9.75 16.5 9.75C17.4665 9.75 18.25 10.5335 18.25 11.5Z" stroke="currentColor" stroke-width="2"/></svg>
