<svg xmlns="http://www.w3.org/2000/svg" viewBox="0 0 24 24" fill="none"><path d="M10.5 7C10.5 8.65685 9.15685 10 7.5 10C5.84315 10 4.5 8.65685 4.5 7C4.5 5.34315 5.84315 4 7.5 4C9.15685 4 10.5 5.34315 10.5 7Z" stroke="currentColor" stroke-width="2" stroke-linecap="round" stroke-linejoin="round"/><path d="M19.5 7C19.5 8.65685 18.1569 10 16.5 10C14.8431 10 13.5 8.65685 13.5 7C13.5 5.34315 14.8431 4 16.5 4C18.1569 4 19.5 5.34315 19.5 7Z" stroke="currentColor" stroke-width="2" stroke-linecap="round" stroke-linejoin="round"/><path d="M2.20657 16.8713C1.53609 18.4769 2.98074 20 4.72066 20H10.2828C12.0227 20 13.4674 18.4769 12.7969 16.8713C10.6413 11.7096 4.36215 11.7096 2.20657 16.8713Z" stroke="currentColor" stroke-width="2" stroke-linecap="round" stroke-linejoin="round"/><path d="M15.2734 13.1471C17.7467 12.5458 20.5071 13.7876 21.7948 16.8725C22.465 18.4782 21.0201 20 19.2802 20H16.9992" stroke="currentColor" stroke-width="2" stroke-linecap="round" stroke-linejoin="round"/></svg>
