<svg xmlns="http://www.w3.org/2000/svg" viewBox="0 0 24 24" fill="none"><path d="M17 19H18C19.6569 19 21 17.6569 21 16V13.7692C21 12.2398 19.7602 11 18.2308 11C18.1033 11 18 10.8967 18 10.7692V5C18 5 14 6.5 14 11V16.001C14 17.6578 15.3431 19 17 19Z" stroke="currentColor" stroke-width="2" stroke-linejoin="round"/><path d="M6 19H7C8.65685 19 10 17.6569 10 16V13.7692C10 12.2398 8.76017 11 7.23077 11C7.10332 11 7 10.8967 7 10.7692L7 5C7 5 3 6.5 3 11L3 16.001C3 17.6578 4.34315 19 6 19Z" stroke="currentColor" stroke-width="2" stroke-linejoin="round"/></svg>
