<svg xmlns="http://www.w3.org/2000/svg" viewBox="0 0 24 24" fill="none"><path d="M7.5 12C5.01472 12 3 9.98528 3 7.5C3 5.01472 5.01472 3 7.5 3C9.98528 3 12 5.01472 12 7.5M7.5 12C5.01472 12 3 14.0147 3 16.5C3 18.9853 5.01472 21 7.5 21C9.98528 21 12 18.9853 12 16.5M7.5 12H9M12 7.5C12 5.01472 14.0147 3 16.5 3C18.9853 3 21 5.01472 21 7.5C21 9.98528 18.9853 12 16.5 12M12 7.5V9M16.5 12C18.9853 12 21 14.0147 21 16.5C21 18.9853 18.9853 21 16.5 21C14.0147 21 12 18.9853 12 16.5M16.5 12H15M12 16.5V15" stroke="currentColor" stroke-width="2" stroke-linecap="round" stroke-linejoin="round"/><path d="M12 15C13.6569 15 15 13.6569 15 12C15 10.3431 13.6569 9 12 9C10.3431 9 9 10.3431 9 12C9 13.6569 10.3431 15 12 15Z" stroke="currentColor" stroke-width="2" stroke-linecap="round" stroke-linejoin="round"/><path d="M9.5 9.5L8 8M14.5 9.5L16 8M14.5 14.5L16 16M9.5 14.5L8 16" stroke="currentColor" stroke-width="2" stroke-linecap="round" stroke-linejoin="round"/></svg>
