<svg xmlns="http://www.w3.org/2000/svg" viewBox="0 0 24 24" fill="none"><path d="M5 9C5 8.44772 5.44772 8 6 8H16C16.5523 8 17 8.44772 17 9V18C17 19.6569 15.6569 21 14 21H8C6.34315 21 5 19.6569 5 18V9Z" stroke="currentColor" stroke-width="2"/><path d="M17 10H18.5C19.8807 10 21 11.1193 21 12.5C21 13.8807 19.8807 15 18.5 15H17V10Z" stroke="currentColor" stroke-width="2" stroke-linejoin="round"/><path d="M17 10H18.5C19.8807 10 21 11.1193 21 12.5C21 13.8807 19.8807 15 18.5 15H17V10Z" stroke="currentColor" stroke-width="2" stroke-linejoin="round"/><path d="M11 5V3" stroke="currentColor" stroke-width="2" stroke-linecap="round"/><path d="M7 5V3" stroke="currentColor" stroke-width="2" stroke-linecap="round"/><path d="M15 5V3" stroke="currentColor" stroke-width="2" stroke-linecap="round"/></svg>
