<svg xmlns="http://www.w3.org/2000/svg" viewBox="0 0 24 24" fill="none"><path d="M17.5 14.25C18.6629 13.0871 19.1271 11.7534 19.3527 10.8791C19.451 10.4983 19.2974 10.0981 18.9828 9.86207C18.686 9.63948 18.2913 9.602 17.9517 9.75117C14.4275 11.2989 10.0753 11.9195 6.75 8.5" stroke="currentColor" stroke-width="1.90004" stroke-linecap="round" stroke-linejoin="round"/><path d="M6.50093 5.76985C6.5009 4.84326 5.66911 4.1383 4.75505 4.29019C4.03146 4.41043 3.50096 5.03634 3.50094 5.76985L3.50089 7.67598C3.50088 7.88665 3.43135 8.09043 3.31981 8.26915C1.01349 11.9647 3.94802 18.6114 10.0674 20.1665C16.0745 21.6931 21.0647 17.6686 21.4738 14.4088C21.5077 14.1385 21.3898 13.8778 21.1932 13.6892L21.1116 13.6109C20.8029 13.3146 20.3409 13.2503 19.9533 13.4313C14.2113 16.1122 7.3101 15.551 6.50098 7.75008L6.50093 5.76985Z" stroke="currentColor" stroke-width="1.90004" stroke-linecap="round" stroke-linejoin="round"/></svg>
