<svg xmlns="http://www.w3.org/2000/svg" viewBox="0 0 24 24" fill="none"><path d="M13.133 9.27582L12.6115 7.92001C12.5142 7.66697 12.2711 7.5 12 7.5C11.7289 7.5 11.4858 7.66697 11.3885 7.92001L10.867 9.27582C10.5856 10.0074 10.0074 10.5856 9.27582 10.867L7.92001 11.3885C7.66697 11.4858 7.5 11.7289 7.5 12C7.5 12.2711 7.66697 12.5142 7.92001 12.6115L9.27582 13.133C10.0074 13.4144 10.5856 13.9926 10.867 14.7242L11.3885 16.08C11.4858 16.333 11.7289 16.5 12 16.5C12.2711 16.5 12.5142 16.333 12.6115 16.08L13.133 14.7242C13.4144 13.9926 13.9926 13.4144 14.7242 13.133L16.08 12.6115C16.333 12.5142 16.5 12.2711 16.5 12C16.5 11.7289 16.333 11.4858 16.08 11.3885L14.7242 10.867C13.9926 10.5856 13.4144 10.0074 13.133 9.27582Z" fill="currentColor"/><path d="M20 14.25V14.8976C20 15.9669 19.4308 16.9554 18.506 17.4922L18 17.7859" stroke="currentColor" stroke-width="2" stroke-linecap="round" stroke-linejoin="round"/><path d="M4 14.25V14.8976C4 15.9669 4.56917 16.9554 5.49397 17.4922L5.99999 17.7859" stroke="currentColor" stroke-width="2" stroke-linecap="round" stroke-linejoin="round"/><path d="M10 3.9047L10.5 3.61603C11.4282 3.08013 12.5718 3.08013 13.5 3.61603L14 3.9047" stroke="currentColor" stroke-width="2" stroke-linecap="round" stroke-linejoin="round"/><path d="M18 6.21411L18.506 6.50783C19.4308 7.04463 20 8.03311 20 9.10242V9.75" stroke="currentColor" stroke-width="2" stroke-linecap="round" stroke-linejoin="round"/><path d="M14 20.0953L13.5 20.384C12.5718 20.9199 11.4282 20.9199 10.5 20.384L10 20.0953" stroke="currentColor" stroke-width="2" stroke-linecap="round" stroke-linejoin="round"/><path d="M5.99999 6.21411L5.49397 6.50783C4.56917 7.04463 4 8.03311 4 9.10241V9.75001" stroke="currentColor" stroke-width="2" stroke-linecap="round" stroke-linejoin="round"/></svg>
