<svg xmlns="http://www.w3.org/2000/svg" viewBox="0 0 24 24" fill="none"><path d="M13.32 5H10.68C8.58429 5 7.53644 5 6.65972 5.34216C5.72141 5.70836 4.91558 6.34941 4.34777 7.18135C3.81723 7.95868 3.58161 8.9797 3.11037 11.0217L2.18184 15.0454C1.79663 16.7146 2.7571 18.4 4.38954 18.9194C5.90194 19.4006 7.54226 18.7333 8.28914 17.3329L8.3964 17.1318C8.76793 16.4351 9.49316 16 10.2827 16H13.7173C14.5068 16 15.2321 16.4351 15.6036 17.1318L15.7109 17.3329C16.4577 18.7333 18.0981 19.4006 19.6105 18.9194C21.2429 18.4 22.2034 16.7146 21.8182 15.0454L20.8896 11.0217C20.4184 8.9797 20.1828 7.95868 19.6522 7.18135C19.0844 6.34941 18.2786 5.70836 17.3403 5.34216C16.4636 5 15.4157 5 13.32 5Z" stroke="currentColor" stroke-width="2" stroke-linejoin="round"/><circle cx="17.0008" cy="11.9002" r="1.2" fill="currentColor"/><circle cx="15.0008" cy="9.0999" r="1.2" fill="currentColor"/><path d="M10.2992 10.5002H6.69922M8.49922 12.3002V8.7002" stroke="currentColor" stroke-width="1.7" stroke-linecap="round"/></svg>
