<svg xmlns="http://www.w3.org/2000/svg" viewBox="0 0 24 24" fill="none"><path d="M19 3C20.1046 3 21 3.89543 21 5C21 6.10457 20.1046 7 19 7C17.8954 7 17 6.10457 17 5C17 3.89543 17.8954 3 19 3Z" stroke="currentColor" stroke-width="1.995" stroke-linecap="square" stroke-linejoin="round"/><path d="M5.75736 18.2429C3.41421 15.8997 3.41421 12.1007 5.75736 9.75759L9.46967 6.04528C10.1531 5.36186 11.2611 5.36186 11.9445 6.04528C12.628 6.7287 12.628 7.83673 11.9445 8.52015L8.23223 12.2325C7.25592 13.2088 7.25592 14.7917 8.23223 15.768C9.20854 16.7443 10.7915 16.7443 11.7678 15.768L15.4801 12.0557C16.1635 11.3723 17.2715 11.3723 17.955 12.0557C18.6384 12.7391 18.6384 13.8471 17.955 14.5306L14.2426 18.2429C13.0711 19.4144 11.5355 20.0002 10 20.0002C8.46447 20.0002 6.92893 19.4144 5.75736 18.2429Z" stroke="currentColor" stroke-width="1.995" stroke-linecap="square" stroke-linejoin="round"/><path d="M13.8887 13.6465L16.3635 16.1214" stroke="currentColor" stroke-width="1.995" stroke-linecap="square" stroke-linejoin="round"/><path d="M7.87891 7.63574L10.3538 10.1106" stroke="currentColor" stroke-width="1.995" stroke-linecap="square" stroke-linejoin="round"/></svg>
