<svg xmlns="http://www.w3.org/2000/svg" viewBox="0 0 24 24" fill="none"><path d="M14.6714 7.60554L13.2231 3.84001C13.0284 3.33393 12.5422 3 12 3C11.4578 3 10.9716 3.33393 10.7769 3.84001L9.32864 7.60554C9.02392 8.39782 8.39782 9.02392 7.60554 9.32864L3.84001 10.7769C3.33393 10.9716 3 11.4578 3 12C3 12.5422 3.33393 13.0284 3.84001 13.2231L7.60554 14.6714C8.39782 14.9761 9.02392 15.6022 9.32864 16.3945L10.7769 20.16C10.9716 20.6661 11.4578 21 12 21C12.5422 21 13.0284 20.6661 13.2231 20.16L14.6714 16.3945C14.9761 15.6022 15.6022 14.9761 16.3945 14.6714L20.16 13.2231C20.6661 13.0284 21 12.5422 21 12C21 11.4578 20.6661 10.9716 20.16 10.7769L16.3945 9.32864C15.6022 9.02392 14.9761 8.39782 14.6714 7.60554Z" stroke="currentColor" stroke-width="2"/></svg>
