<svg xmlns="http://www.w3.org/2000/svg" viewBox="0 0 24 24" fill="none"><path d="M12 4H8.8C7.11984 4 6.27976 4 5.63803 4.32698C5.07354 4.6146 4.6146 5.07354 4.32698 5.63803C4 6.27976 4 7.11984 4 8.8V15.2C4 16.8802 4 17.7202 4.32698 18.362C4.6146 18.9265 5.07354 19.3854 5.63803 19.673C6.27976 20 7.11984 20 8.8 20H15.2C16.8802 20 17.7202 20 18.362 19.673C18.9265 19.3854 19.3854 18.9265 19.673 18.362C20 17.7202 20 16.8802 20 15.2V12" stroke="currentColor" stroke-width="2" stroke-linecap="round" stroke-linejoin="round"/><path d="M18.9847 2.4329C18.9568 2.18651 18.7485 2.00025 18.5005 2C18.2525 1.99975 18.0438 2.18557 18.0154 2.43191C17.838 3.96993 16.9699 4.83801 15.4319 5.01541C15.1856 5.04382 14.9997 5.25253 15 5.5005C15.0003 5.74847 15.1865 5.9568 15.4329 5.9847C16.9491 6.15645 17.8774 7.01617 18.0141 8.55536C18.0365 8.80725 18.2477 9.00028 18.5005 9C18.7534 8.99971 18.9642 8.80621 18.986 8.55426C19.1173 7.03683 20.0368 6.11734 21.5543 5.98599C21.8062 5.96418 21.9997 5.75344 22 5.50055C22.0003 5.24766 21.8073 5.03648 21.5554 5.01411C20.0162 4.87738 19.1564 3.94911 18.9847 2.4329Z" fill="currentColor"/><path d="M8 8H12" stroke="currentColor" stroke-width="2" stroke-linecap="round" stroke-linejoin="round"/><path d="M8 12H10" stroke="currentColor" stroke-width="2" stroke-linecap="round" stroke-linejoin="round"/><path d="M13 12H16" stroke="currentColor" stroke-width="2" stroke-linecap="round" stroke-linejoin="round"/><path d="M8 16H13" stroke="currentColor" stroke-width="2" stroke-linecap="round" stroke-linejoin="round"/></svg>
