<svg xmlns="http://www.w3.org/2000/svg" viewBox="0 0 24 24" fill="none"><path d="M4 8.25452C4 7.1707 4.58459 6.17114 5.52922 5.63979L10.5292 2.82729C11.4425 2.31359 12.5575 2.31359 13.4708 2.82729L18.4708 5.63979C19.4154 6.17114 20 7.1707 20 8.25452V17C20 18.6568 18.6569 20 17 20H7C5.34315 20 4 18.6568 4 17V8.25452Z" stroke="currentColor" stroke-width="2"/><path d="M15 12C15 13.6569 13.6569 15 12 15C10.3431 15 9 13.6569 9 12C9 10.3431 10.3431 9 12 9C13.6569 9 15 10.3431 15 12Z" stroke="currentColor" stroke-width="2"/></svg>
