<svg xmlns="http://www.w3.org/2000/svg" viewBox="0 0 24 24" fill="none"><circle cx="12" cy="12" r="9" stroke="currentColor" stroke-width="2"/><path d="M9.73047 16.2275C9.08594 16.2275 8.6582 15.8525 8.6582 15.2666C8.6582 14.9736 8.74609 14.7451 8.95703 14.4697L12.6777 9.55371V9.50684H9.57227C8.99805 9.50684 8.61719 9.19043 8.61719 8.63965C8.61719 8.08887 8.99219 7.77246 9.57227 7.77246H14.125C14.7871 7.77246 15.2031 8.15918 15.2031 8.77441C15.2031 9.1084 15.0508 9.3252 14.8867 9.54785L11.2012 14.4463V14.4932H14.4883C15.0684 14.4932 15.4434 14.8096 15.4434 15.3604C15.4434 15.9111 15.0566 16.2275 14.4883 16.2275H9.73047Z" fill="currentColor"/></svg>
