<svg xmlns="http://www.w3.org/2000/svg" viewBox="0 0 24 24" fill="none"><rect x="3" y="5" width="18" height="14" rx="3" stroke="currentColor" stroke-width="2" stroke-linecap="round" stroke-linejoin="round"/><path d="M6.5 10.5C6.5 9.39543 7.39543 8.5 8.5 8.5H15.5C16.6046 8.5 17.5 9.39543 17.5 10.5C17.5 11.6046 16.6046 12.5 15.5 12.5H8.5C7.39543 12.5 6.5 11.6046 6.5 10.5Z" stroke="currentColor" stroke-width="2"/><path d="M7.44721 17.1056C7.786 16.428 8.47852 16 9.23607 16H14.7639C15.5215 16 16.214 16.428 16.5528 17.1056L17.5 19H6.5L7.44721 17.1056Z" stroke="currentColor" stroke-width="2" stroke-linecap="round" stroke-linejoin="round"/><rect x="6.5" y="8.5" width="4" height="4" rx="2" stroke="currentColor" stroke-width="2"/><rect x="13.5" y="8.5" width="4" height="4" rx="2" stroke="currentColor" stroke-width="2"/></svg>
