<svg xmlns="http://www.w3.org/2000/svg" viewBox="0 0 24 24" fill="none"><path d="M4 10V17C4 18.6569 5.34315 20 7 20H17C18.6569 20 20 18.6569 20 17V10" stroke="currentColor" stroke-width="2" stroke-linecap="round" stroke-linejoin="round"/><path d="M14.4996 4H9.49956L9.2133 8.00762C9.0978 9.62461 10.3785 11 11.9996 11C13.6207 11 14.9013 9.62461 14.7858 8.00763L14.4996 4Z" stroke="currentColor" stroke-width="2" stroke-linecap="round" stroke-linejoin="round"/><path d="M9.50047 4H6.60236C5.10941 4 3.84364 5.09779 3.63251 6.57573L3.4699 7.71396C3.22214 9.44831 4.56792 11 6.31987 11C7.83025 11 9.08385 9.83276 9.19146 8.32621L9.50047 4Z" stroke="currentColor" stroke-width="2" stroke-linecap="round" stroke-linejoin="round"/><path d="M17.3981 4H14.5L14.809 8.32621C14.9166 9.83276 16.1702 11 17.6806 11C19.4326 11 20.7783 9.44831 20.5306 7.71396L20.368 6.57574C20.1568 5.09779 18.8911 4 17.3981 4Z" stroke="currentColor" stroke-width="2" stroke-linecap="round" stroke-linejoin="round"/></svg>
