<svg xmlns="http://www.w3.org/2000/svg" viewBox="0 0 24 24" fill="none"><path d="M20.9321 14.2737C21.6712 18.65 16.2098 20.6877 12.7368 21.5536C8.79005 22.5376 4.98337 22.2147 3.34857 17.2695C2.84521 15.7468 2.88851 14.0528 3.46874 12.5676C4.47505 9.99184 6.85694 8.5906 9.1974 9.10573C9.58274 9.19054 9.93781 9.37237 10.276 9.57553L12.4914 10.9062C12.8296 11.1093 13.1848 11.2905 13.5704 11.3739C16.5253 12.0134 19.6535 9.8111 20.9321 14.2737Z" stroke="currentColor" stroke-width="2" stroke-linecap="round" stroke-linejoin="round"/><path d="M13 2C10.823 3.66587 14.2721 4.71861 12 6" stroke="currentColor" stroke-width="2" stroke-linecap="round" stroke-linejoin="round"/><path d="M8 3C5.82302 4.2494 9.27207 5.03896 7 6" stroke="currentColor" stroke-width="2" stroke-linecap="round" stroke-linejoin="round"/><path d="M17.5 5C15.323 6.2494 18.7721 7.03896 16.5 8" stroke="currentColor" stroke-width="2" stroke-linecap="round" stroke-linejoin="round"/><path d="M10 10C11 15.5 10.0011 17.8927 6.5 21" stroke="currentColor" stroke-width="2" stroke-linecap="round" stroke-linejoin="round"/><path d="M10.5 17C12.5 16.6667 16 16.5 18.5 19.0002" stroke="currentColor" stroke-width="2" stroke-linecap="round" stroke-linejoin="round"/></svg>
