<svg xmlns="http://www.w3.org/2000/svg" viewBox="0 0 24 24" fill="none"><path d="M8.09765 8.66572C7.63812 8.35937 7.01726 8.48354 6.7109 8.94307C6.40455 9.4026 6.52872 10.0235 6.98825 10.3298L8.09765 8.66572ZM8.66795 10.2478L8.11325 11.0798C8.55485 11.3742 9.14951 11.2724 9.46795 10.8478L8.66795 10.2478ZM11.3396 8.35226C11.671 7.91043 11.5814 7.28363 11.1396 6.95226C10.6978 6.62089 10.071 6.71043 9.73959 7.15226L11.3396 8.35226ZM14.0579 8.00002C13.5057 8.00002 13.0579 8.44773 13.0579 9.00002C13.0579 9.5523 13.5057 10 14.0579 10V8.00002ZM16.0579 10C16.6102 10 17.0579 9.5523 17.0579 9.00002C17.0579 8.44773 16.6102 8.00002 16.0579 8.00002V10ZM8.09765 14.6668C7.63812 14.3605 7.01726 14.4847 6.7109 14.9442C6.40455 15.4037 6.52872 16.0246 6.98825 16.3309L8.09765 14.6668ZM8.66795 16.2489L8.11325 17.0809C8.55485 17.3753 9.14951 17.2735 9.46795 16.8489L8.66795 16.2489ZM11.3396 14.3534C11.671 13.9116 11.5814 13.2848 11.1396 12.9534C10.6978 12.622 10.071 12.7116 9.73959 13.1534L11.3396 14.3534ZM11 21C11.5523 21 12 20.5523 12 20C12 19.4477 11.5523 19 11 19V21ZM19 10C19 10.5523 19.4477 11 20 11C20.5523 11 21 10.5523 21 10H19ZM21 20V21C21.5523 21 22 20.5523 22 20H21ZM15 20H14C14 20.5523 14.4477 21 15 21V20ZM6.98825 10.3298L8.11325 11.0798L9.22265 9.41572L8.09765 8.66572L6.98825 10.3298ZM9.46795 10.8478L11.3396 8.35226L9.73959 7.15226L7.86795 9.64777L9.46795 10.8478ZM14.0579 10H16.0579V8.00002H14.0579V10ZM6.98825 16.3309L8.11325 17.0809L9.22265 15.4168L8.09765 14.6668L6.98825 16.3309ZM9.46795 16.8489L11.3396 14.3534L9.73959 13.1534L7.86795 15.6489L9.46795 16.8489ZM7 5H17V3H7V5ZM11 19H7V21H11V19ZM5 17V7H3V17H5ZM19 7V10H21V7H19ZM7 19C5.89543 19 5 18.1046 5 17H3C3 19.2091 4.79086 21 7 21V19ZM17 5C18.1046 5 19 5.89543 19 7H21C21 4.79086 19.2091 3 17 3V5ZM7 3C4.79086 3 3 4.79086 3 7H5C5 5.89543 5.89543 5 7 5V3ZM20 17V20H22V17H20ZM21 19H15V21H21V19ZM16 20V17H14V20H16ZM18 15C19.1046 15 20 15.8954 20 17H22C22 14.7909 20.2091 13 18 13V15ZM18 13C15.7909 13 14 14.7909 14 17H16C16 15.8954 16.8954 15 18 15V13ZM18 20V22C19.1046 22 20 21.1046 20 20H18ZM18 20H16C16 21.1046 16.8954 22 18 22V20Z" fill="currentColor"/></svg>
