<svg xmlns="http://www.w3.org/2000/svg" viewBox="0 0 24 24" fill="none"><path d="M3.29289 15.2929C2.90237 15.6834 2.90237 16.3166 3.29289 16.7071C3.68342 17.0976 4.31658 17.0976 4.70711 16.7071L3.29289 15.2929ZM7.29289 12.7071L6.58579 12L6.58579 12L7.29289 12.7071ZM8.70711 12.7071L8 13.4142H8L8.70711 12.7071ZM12 16L11.2929 16.7071L12 17.4142L12.7071 16.7071L12 16ZM13.2929 14.7071L12.5858 14V14L13.2929 14.7071ZM14.7071 14.7071L14 15.4142H14L14.7071 14.7071ZM7 5H17V3H7V5ZM19 7V17H21V7H19ZM17 19H7V21H17V19ZM5 17V7H3V17H5ZM7 19C5.89543 19 5 18.1046 5 17H3C3 19.2091 4.79086 21 7 21V19ZM19 17C19 18.1046 18.1046 19 17 19V21C19.2091 21 21 19.2091 21 17H19ZM17 5C18.1046 5 19 5.89543 19 7H21C21 4.79086 19.2091 3 17 3V5ZM7 3C4.79086 3 3 4.79086 3 7H5C5 5.89543 5.89543 5 7 5V3ZM4.70711 16.7071L8 13.4142L6.58579 12L3.29289 15.2929L4.70711 16.7071ZM8 13.4142L11.2929 16.7071L12.7071 15.2929L9.41421 12L8 13.4142ZM12.7071 16.7071L14 15.4142L12.5858 14L11.2929 15.2929L12.7071 16.7071ZM14 15.4142L18.2929 19.7071L19.7071 18.2929L15.4142 14L14 15.4142ZM14 15.4142H14L15.4142 14C14.6332 13.219 13.3668 13.219 12.5858 14L14 15.4142ZM8 13.4142L8 13.4142L9.41421 12C8.63317 11.219 7.36684 11.2189 6.58579 12L8 13.4142ZM14.25 9V11C15.3546 11 16.25 10.1046 16.25 9H14.25ZM14.25 9H12.25C12.25 10.1046 13.1454 11 14.25 11V9ZM14.25 9V7C13.1454 7 12.25 7.89543 12.25 9H14.25ZM14.25 9H16.25C16.25 7.89543 15.3546 7 14.25 7V9Z" fill="currentColor"/></svg>
