<svg xmlns="http://www.w3.org/2000/svg" viewBox="0 0 24 24" fill="none"><path d="M14.5015 20.6748C19.7245 21.7071 21 17.8889 21 15.1636C20.6156 9.97022 14.5203 7.97113 13.1815 3.28316C13.0008 2.65039 12.339 2.21986 11.7201 2.4435L10.7654 2.78848C10.3692 2.93164 10.1136 3.31098 10.0651 3.72942C9.49304 8.66359 3 10.5241 3 16.0966C3 19.9411 6.31501 21.682 9.35963 20.5667M13.4211 10.7297C14.3684 12.7838 16.0915 19.3536 13.8502 20.5268C12.6693 21.1449 10.887 21.2131 9.77278 20.3972C8.26805 19.2909 8.68421 14.3243 9.63158 12.2703" stroke="currentColor" stroke-width="1.90026" stroke-linecap="square" stroke-linejoin="round"/></svg>
