<svg xmlns="http://www.w3.org/2000/svg" viewBox="0 0 24 24" fill="none"><path d="M19.5 17H20C21.1046 17 22 16.1046 22 15V12.4594C22 11.0294 20.9906 9.79812 19.5883 9.51767L17.7493 9.14986C17.2668 9.05335 16.8368 8.78236 16.5415 8.3887L14.9 6.2C14.3334 5.44458 13.4443 5 12.5 5H8.60555C7.60249 5 6.6658 5.5013 6.1094 6.3359L5.22188 7.66718C5.07541 7.88688 4.88688 8.07541 4.66718 8.22188L3.3359 9.1094C2.5013 9.6658 2 10.6025 2 11.6056V15C2 16.1046 2.89543 17 4 17H4.5" stroke="currentColor" stroke-width="2"/><path d="M14.5 17H9.5" stroke="currentColor" stroke-width="2"/><circle cx="7" cy="16.75" r="2.25" stroke="currentColor" stroke-width="2" stroke-linecap="round" stroke-linejoin="round"/><circle cx="17" cy="16.75" r="2.25" stroke="currentColor" stroke-width="2" stroke-linecap="round" stroke-linejoin="round"/></svg>
