<svg xmlns="http://www.w3.org/2000/svg" viewBox="0 0 24 24" fill="none"><path d="M16.9062 11.2514C16.8179 11.209 16.7283 11.1683 16.6374 11.1293C16.4793 8.21371 14.8868 6.54454 12.2127 6.52746C12.2006 6.52739 12.1886 6.52739 12.1765 6.52739C10.5771 6.52739 9.24686 7.21036 8.42813 8.45315L9.89876 9.46236C10.5104 8.53404 11.4703 8.33614 12.1772 8.33614C12.1853 8.33614 12.1935 8.33614 12.2016 8.33621C13.0821 8.34183 13.7465 8.59792 14.1765 9.09733C14.4894 9.46092 14.6987 9.96335 14.8023 10.5974C14.0217 10.4647 13.1775 10.4239 12.275 10.4757C9.73265 10.6222 8.09824 12.1055 8.20801 14.1666C8.26371 15.2121 8.78436 16.1115 9.67398 16.6991C10.4261 17.1958 11.3949 17.4387 12.4017 17.3837C13.7313 17.3108 14.7744 16.8033 15.5021 15.8754C16.0547 15.1707 16.4042 14.2575 16.5586 13.1068C17.1922 13.4893 17.6618 13.9928 17.9212 14.5979C18.3622 15.6267 18.3879 17.3172 17.0091 18.6954C15.801 19.9028 14.3488 20.4251 12.1542 20.4412C9.71979 20.4232 7.87867 19.6421 6.68162 18.1198C5.56068 16.6943 4.98138 14.6353 4.95976 12C4.98138 9.36466 5.56068 7.30567 6.68162 5.88018C7.87867 4.35787 9.71976 3.57685 12.1542 3.55875C14.6063 3.57699 16.4795 4.36176 17.7223 5.89143C18.3318 6.64156 18.7912 7.5849 19.0941 8.6848L20.8175 8.22482C20.4504 6.87096 19.8726 5.70433 19.0865 4.73681C17.4931 2.77571 15.1628 1.77084 12.1602 1.75H12.1482C9.15171 1.77076 6.84748 2.77946 5.29949 4.74805C3.922 6.49985 3.21145 8.93735 3.18757 11.9928L3.1875 12L3.18757 12.0072C3.21145 15.0626 3.922 17.5002 5.29949 19.252C6.84748 21.2205 9.15171 22.2293 12.1482 22.25H12.1602C14.8242 22.2315 16.702 21.5338 18.2489 19.9876C20.2729 17.9649 20.2119 15.4294 19.5449 13.8729C19.0663 12.7567 18.1539 11.8501 16.9062 11.2514ZM12.3065 15.5776C11.1923 15.6404 10.0347 15.14 9.97759 14.0684C9.93528 13.2738 10.5428 12.3872 12.3749 12.2815C12.5847 12.2694 12.7906 12.2635 12.9928 12.2635C13.6583 12.2635 14.2809 12.3282 14.8468 12.452C14.6357 15.0894 13.3975 15.5177 12.3065 15.5776Z" fill="currentColor"/></svg>
