<svg xmlns="http://www.w3.org/2000/svg" viewBox="0 0 24 24" fill="none"><path d="M18.9847 2.4329C18.9568 2.18651 18.7485 2.00025 18.5005 2C18.2525 1.99975 18.0438 2.18557 18.0154 2.43191C17.838 3.96993 16.9699 4.83801 15.4319 5.01541C15.1856 5.04382 14.9997 5.25253 15 5.5005C15.0003 5.74847 15.1865 5.9568 15.4329 5.9847C16.9491 6.15645 17.8774 7.01617 18.0141 8.55536C18.0365 8.80725 18.2477 9.00028 18.5005 9C18.7534 8.99971 18.9642 8.80621 18.986 8.55426C19.1173 7.03683 20.0368 6.11734 21.5543 5.98599C21.8062 5.96418 21.9997 5.75344 22 5.50055C22.0003 5.24766 21.8073 5.03648 21.5554 5.01411C20.0162 4.87738 19.1564 3.94911 18.9847 2.4329Z" fill="currentColor"/><circle cx="8.75" cy="7.5" r="3.5" stroke="currentColor" stroke-width="2"/><path d="M2 20C2 16.6863 4.68629 14 8 14H8.5" stroke="currentColor" stroke-width="2" stroke-linecap="round" stroke-linejoin="round"/><path d="M11 20L12.6892 14.0879C12.8732 13.444 13.4617 13 14.1315 13H20.5417C21.2725 13 21.8001 13.6995 21.5994 14.4022L20.2072 19.2747C20.0846 19.704 19.6922 20 19.2457 20H11ZM11 20H7" stroke="currentColor" stroke-width="2" stroke-linecap="round" stroke-linejoin="round"/></svg>
