<svg xmlns="http://www.w3.org/2000/svg" viewBox="0 0 24 24" fill="none"><path d="M20 8C20 6.34315 18.6569 5 17 5H7C5.34315 5 4 6.34315 4 8V9H19C19.5523 9 20 8.55228 20 8Z" stroke="currentColor" stroke-width="2" stroke-linecap="round" stroke-linejoin="round"/><path d="M20 9V10" stroke="currentColor" stroke-width="2" stroke-linecap="round" stroke-linejoin="round"/><path d="M4 9V17C4 18.6569 5.34315 20 7 20H10" stroke="currentColor" stroke-width="2" stroke-linecap="round" stroke-linejoin="round"/><path d="M8 5V3" stroke="currentColor" stroke-width="2" stroke-linecap="round" stroke-linejoin="round"/><path d="M16 5V3" stroke="currentColor" stroke-width="2" stroke-linecap="round" stroke-linejoin="round"/><path d="M19.1213 19.1213C17.9497 20.2929 16.0503 20.2929 14.8787 19.1213C13.7071 17.9497 13.7071 16.0503 14.8787 14.8787C16.0503 13.7071 17.9497 13.7071 19.1213 14.8787C20.2929 16.0503 20.2929 17.9497 19.1213 19.1213ZM19.1213 19.1213L21 21" stroke="currentColor" stroke-width="2" stroke-linecap="round" stroke-linejoin="round"/></svg>
