<svg xmlns="http://www.w3.org/2000/svg" viewBox="0 0 24 24" fill="none"><path d="M3 11C3 9.34315 4.34315 8 6 8H18C19.6569 8 21 9.34315 21 11V16C21 17.6569 19.6569 19 18 19H6C4.34315 19 3 17.6569 3 16V11Z" stroke="currentColor" stroke-width="2" stroke-linecap="round" stroke-linejoin="round"/><path d="M5 8V6C5 4.89543 5.89543 4 7 4H8C9.10457 4 10 4.89543 10 6V8" stroke="currentColor" stroke-width="2" stroke-linecap="round" stroke-linejoin="round"/><path d="M14 8V6C14 4.89543 14.8954 4 16 4H17C18.1046 4 19 4.89543 19 6V8" stroke="currentColor" stroke-width="2" stroke-linecap="round" stroke-linejoin="round"/></svg>
