<svg xmlns="http://www.w3.org/2000/svg" viewBox="0 0 24 24" fill="none"><path d="M14.25 10.75C14.25 11.9926 13.2426 13 12 13C10.7574 13 9.75 11.9926 9.75 10.75C9.75 9.50736 10.7574 8.5 12 8.5C13.2426 8.5 14.25 9.50736 14.25 10.75Z" stroke="currentColor" stroke-width="2" stroke-linecap="round" stroke-linejoin="round"/><path d="M18 5H6C4.34315 5 3 6.34315 3 8V16C3 17.6569 4.34315 19 6 19H18C19.6569 19 21 17.6569 21 16V8C21 6.34315 19.6569 5 18 5Z" stroke="currentColor" stroke-width="2" stroke-linecap="round" stroke-linejoin="round"/><path d="M8.08203 18.5C8.4741 16.7827 9.95934 15.5 12.0004 15.5C14.0415 15.5 15.5267 16.7827 15.9188 18.5" stroke="currentColor" stroke-width="2" stroke-linecap="round" stroke-linejoin="round"/><path d="M17.75 8.25H17.76M18 8.25C18 8.38807 17.8881 8.5 17.75 8.5C17.6119 8.5 17.5 8.38807 17.5 8.25C17.5 8.11193 17.6119 8 17.75 8C17.8881 8 18 8.11193 18 8.25Z" stroke="currentColor" stroke-width="2" stroke-linecap="round"/></svg>
