<svg xmlns="http://www.w3.org/2000/svg" viewBox="0 0 24 24" fill="none"><path d="M3 19H21" stroke="currentColor" stroke-width="2" stroke-linecap="round" stroke-linejoin="round"/><path d="M4 18V13.5C4 12.6716 4.67157 12 5.5 12C6.32843 12 7 12.6716 7 13.5V18" stroke="currentColor" stroke-width="2" stroke-linecap="round" stroke-linejoin="round"/><path d="M7 18V8.5C7 7.67157 7.67157 7 8.5 7C9.32843 7 10 7.67157 10 8.5V18" stroke="currentColor" stroke-width="2" stroke-linecap="round" stroke-linejoin="round"/><path d="M14 18L14 11.5C14 10.6716 14.6716 10 15.5 10C16.3284 10 17 10.6716 17 11.5V18" stroke="currentColor" stroke-width="2" stroke-linecap="round" stroke-linejoin="round"/><path d="M17 18L17 6.5C17 5.67157 17.6716 5 18.5 5C19.3284 5 20 5.67157 20 6.5V18" stroke="currentColor" stroke-width="2" stroke-linecap="round" stroke-linejoin="round"/></svg>
