<svg xmlns="http://www.w3.org/2000/svg" viewBox="0 0 24 24" fill="none"><path d="M4.11701 7.65234C2.22837 11.0731 2.73471 15.4624 5.63604 18.3638C8.53736 21.2651 12.9267 21.7714 16.3475 19.8828" stroke="currentColor" stroke-width="2" stroke-linecap="round" stroke-linejoin="round"/><path d="M7.65234 4.11676C11.0731 2.22813 15.4624 2.73447 18.3638 5.63579C21.2651 8.53712 21.7714 12.9265 19.8828 16.3472" stroke="currentColor" stroke-width="2" stroke-linecap="round" stroke-linejoin="round"/><path d="M15.8232 10.4629C13.4084 7.84569 10.5919 7.84569 8.17709 10.4629C7.37717 11.3299 7.37717 12.6701 8.17709 13.5371C10.5919 16.1543 13.4084 16.1543 15.8232 13.5371C16.6232 12.6701 16.6232 11.3299 15.8232 10.4629Z" stroke="currentColor" stroke-width="2" stroke-linejoin="round"/><path d="M12 10.75C12.6904 10.75 13.25 11.3096 13.25 12C13.25 12.6904 12.6904 13.25 12 13.25C11.3096 13.25 10.75 12.6904 10.75 12C10.75 11.3096 11.3096 10.75 12 10.75Z" fill="currentColor"/></svg>
