<svg xmlns="http://www.w3.org/2000/svg" viewBox="0 0 24 24" fill="none"><path d="M3 7C3 5.34315 4.34315 4 6 4H18C19.6569 4 21 5.34315 21 7V17C21 18.6569 19.6569 20 18 20H6C4.34315 20 3 18.6569 3 17V7Z" stroke="currentColor" stroke-width="2" stroke-linejoin="round"/><path d="M15 12C15 13.6569 13.6569 15 12 15C10.3431 15 9 13.6569 9 12C9 10.3431 10.3431 9 12 9C13.6569 9 15 10.3431 15 12Z" stroke="currentColor" stroke-width="2" stroke-linejoin="round"/><path d="M17.5 7.5H17.51M17.75 7.5C17.75 7.63807 17.6381 7.75 17.5 7.75C17.3619 7.75 17.25 7.63807 17.25 7.5C17.25 7.36193 17.3619 7.25 17.5 7.25C17.6381 7.25 17.75 7.36193 17.75 7.5Z" stroke="currentColor" stroke-width="2" stroke-linecap="round"/></svg>
