<svg xmlns="http://www.w3.org/2000/svg" viewBox="0 0 24 24" fill="none"><path d="M4 11.7839C4 9.29168 4.8531 7.30701 7.2774 6.27607C8.45408 5.77568 10.0009 6.49998 12 6.49998C13.9991 6.49998 15.5459 5.77568 16.7226 6.27607C19.1469 7.30701 20 9.29168 20 11.7839C20 15.8333 15.5556 21 12 21C8.44444 21 4 15.8333 4 11.7839Z" stroke="currentColor" stroke-width="2" stroke-linecap="round" stroke-linejoin="round"/><path d="M7.37325 5.75C7.04124 5.36238 5.02512 2.99736 6.63131 2.78295C7.8479 2.60745 11.4998 3.09231 11.9998 5.22792" stroke="currentColor" stroke-width="2" stroke-linecap="round" stroke-linejoin="round"/><path d="M16.6267 5.75C16.9588 5.36238 18.9749 2.99736 17.3687 2.78295C16.1521 2.60745 12.5002 3.09231 12.0002 5.22792" stroke="currentColor" stroke-width="2" stroke-linecap="round" stroke-linejoin="round"/><path d="M12 4.25C12 2.9 12 2 12 2" stroke="currentColor" stroke-width="2" stroke-linecap="round" stroke-linejoin="round"/><ellipse cx="12" cy="11" rx="1" ry="1.5" fill="currentColor"/><ellipse cx="8" cy="11" rx="1" ry="1.5" fill="currentColor"/><ellipse cx="16" cy="11" rx="1" ry="1.5" fill="currentColor"/><ellipse cx="14" cy="15.5" rx="1" ry="1.5" fill="currentColor"/><ellipse cx="10" cy="15.5" rx="1" ry="1.5" fill="currentColor"/></svg>
