<svg xmlns="http://www.w3.org/2000/svg" viewBox="0 0 24 24" fill="none"><circle cx="12" cy="12" r="9" stroke="currentColor" stroke-width="2"/><path d="M13.5905 9.68381L12.6795 7.31531C12.5714 7.03415 12.3012 6.84863 12 6.84863C11.6988 6.84863 11.4286 7.03415 11.3205 7.31531L10.4095 9.68381C10.308 9.94791 10.0993 10.1566 9.83518 10.2582L7.46667 11.1691C7.18552 11.2773 7 11.5474 7 11.8486C7 12.1499 7.18552 12.42 7.46667 12.5281L9.83518 13.4391C10.0993 13.5407 10.308 13.7494 10.4095 14.0135L11.3205 16.382C11.4286 16.6631 11.6988 16.8486 12 16.8486C12.3012 16.8486 12.5714 16.6631 12.6795 16.382L13.5905 14.0135C13.692 13.7494 13.9007 13.5407 14.1648 13.4391L16.5333 12.5281C16.8145 12.42 17 12.1499 17 11.8486C17 11.5474 16.8145 11.2773 16.5333 11.1691L14.1648 10.2582C13.9007 10.1566 13.692 9.9479 13.5905 9.68381Z" fill="currentColor"/></svg>
