<svg xmlns="http://www.w3.org/2000/svg" viewBox="0 0 24 24" fill="none"><path d="M9.20696 5.04274L11.2927 2.95696C11.6833 2.56643 12.3164 2.56643 12.707 2.95696L14.7927 5.04274C15.1833 5.43327 15.1833 6.06643 14.7927 6.45696L12.707 8.54274C12.3164 8.93327 11.6833 8.93327 11.2927 8.54274L9.20696 6.45696C8.81643 6.06643 8.81643 5.43327 9.20696 5.04274Z" stroke="currentColor" stroke-width="2" stroke-linejoin="round"/><path d="M2.95696 11.2927L5.04274 9.20696C5.43327 8.81643 6.06643 8.81643 6.45696 9.20696L8.54274 11.2927C8.93327 11.6833 8.93327 12.3164 8.54274 12.707L6.45696 14.7927C6.06643 15.1833 5.43327 15.1833 5.04274 14.7927L2.95696 12.707C2.56643 12.3164 2.56643 11.6833 2.95696 11.2927Z" stroke="currentColor" stroke-width="2" stroke-linejoin="round"/><path d="M15.457 11.2927L17.5427 9.20696C17.9333 8.81643 18.5664 8.81643 18.957 9.20696L21.0427 11.2927C21.4333 11.6833 21.4333 12.3164 21.0427 12.707L18.957 14.7927C18.5664 15.1833 17.9333 15.1833 17.5427 14.7927L15.457 12.707C15.0664 12.3164 15.0664 11.6833 15.457 11.2927Z" stroke="currentColor" stroke-width="2" stroke-linejoin="round"/><path d="M9.20696 17.5427L11.2927 15.457C11.6833 15.0664 12.3164 15.0664 12.707 15.457L14.7927 17.5427C15.1833 17.9333 15.1833 18.5664 14.7927 18.957L12.707 21.0427C12.3164 21.4333 11.6833 21.4333 11.2927 21.0427L9.20696 18.957C8.81643 18.5664 8.81643 17.9333 9.20696 17.5427Z" stroke="currentColor" stroke-width="2" stroke-linejoin="round"/></svg>
