<svg xmlns="http://www.w3.org/2000/svg" viewBox="0 0 24 24" fill="none"><path d="M19.175 7.72414C19.175 6.12299 17.877 4.825 16.2759 4.825C15.507 4.825 14.7696 4.51956 14.2259 3.97586L14.1213 3.87132C12.9497 2.69975 11.0503 2.69975 9.87868 3.87132L9.77414 3.97586C9.23044 4.51956 8.49304 4.825 7.72414 4.825C6.12299 4.825 4.825 6.12299 4.825 7.72414C4.825 8.49304 4.51956 9.23044 3.97586 9.77414L3.87132 9.87868C2.69975 11.0503 2.69975 12.9497 3.87132 14.1213L3.96512 14.2151C4.51569 14.7657 4.825 15.5124 4.825 16.2911C4.825 17.8921 6.13385 19.1983 7.7346 19.2269C8.49234 19.2404 9.227 19.5429 9.76929 20.0723L9.90434 20.2041C11.0698 21.3419 12.9302 21.3419 14.0957 20.2041L14.2261 20.0768C14.7703 19.5455 15.5008 19.2481 16.2614 19.2481C17.8705 19.2481 19.175 17.9174 19.175 16.3083C19.175 15.5257 19.4859 14.7641 20.0393 14.2107L20.1287 14.1213C21.3003 12.9497 21.3003 11.0503 20.1287 9.87868L20.0241 9.77414C19.4804 9.23044 19.175 8.49304 19.175 7.72414Z" stroke="currentColor" stroke-width="2" stroke-linejoin="round"/></svg>
