<svg xmlns="http://www.w3.org/2000/svg" viewBox="0 0 24 24" fill="none"><path d="M4 7C4 5.34315 5.34315 4 7 4H17C18.6569 4 20 5.34315 20 7V17C20 18.6569 18.6569 20 17 20H7C5.34315 20 4 18.6569 4 17V7Z" stroke="currentColor" stroke-width="2" stroke-linejoin="round"/><path d="M11.3075 7.9151C11.5637 7.29913 12.4363 7.29913 12.6925 7.9151L13.345 9.48385C13.453 9.74353 13.6972 9.92096 13.9775 9.94343L15.6711 10.0792C16.3361 10.1325 16.6058 10.9624 16.0991 11.3964L14.8088 12.5017C14.5952 12.6847 14.5019 12.9718 14.5672 13.2453L14.9614 14.898C15.1162 15.5469 14.4102 16.0598 13.8409 15.7121L12.3909 14.8264C12.1509 14.6798 11.8491 14.6798 11.6091 14.8264L10.1591 15.7121C9.58979 16.0598 8.88385 15.5469 9.03864 14.898L9.43286 13.2453C9.49812 12.9718 9.40484 12.6847 9.19125 12.5017L7.9009 11.3964C7.39425 10.9624 7.66389 10.1325 8.32888 10.0792L10.0225 9.94343C10.3028 9.92096 10.547 9.74353 10.655 9.48385L11.3075 7.9151Z" fill="currentColor"/></svg>
