<svg xmlns="http://www.w3.org/2000/svg" viewBox="0 0 24 24" fill="none"><path d="M14 12V14M14 14V16M14 14H12M14 14H16" stroke="currentColor" stroke-width="2" stroke-linecap="round" stroke-linejoin="round"/><path d="M15 7V6C15 4.34315 13.6569 3 12 3H8C6.34315 3 5 4.34315 5 6V14C5 15.6569 6.34315 17 8 17H9" stroke="currentColor" stroke-width="2" stroke-linecap="round" stroke-linejoin="round"/><path d="M16 7H12C10.3431 7 9 8.34315 9 10V18C9 19.6569 10.3431 21 12 21H16C17.6569 21 19 19.6569 19 18V10C19 8.34315 17.6569 7 16 7Z" stroke="currentColor" stroke-width="2" stroke-linecap="round" stroke-linejoin="round"/></svg>
