<svg xmlns="http://www.w3.org/2000/svg" viewBox="0 0 24 24" fill="none"><path d="M14 6H16C17.6569 6 19 7.34315 19 9V15C19 16.6569 17.6569 18 16 18" stroke="currentColor" stroke-width="2" stroke-miterlimit="16" stroke-linecap="round" stroke-linejoin="round"/><path d="M19 9.99992L21.5992 8.86278C22.2599 8.57373 23 9.05779 23 9.77894V14.2209C23 14.9421 22.2599 15.4261 21.5992 15.1371L19 13.9999" stroke="currentColor" stroke-width="2" stroke-miterlimit="16" stroke-linecap="round" stroke-linejoin="round"/><path d="M13 13C13 16.3137 10.3137 19 7 19C3.68629 19 1 16.3137 1 13" stroke="currentColor" stroke-width="2" stroke-miterlimit="16" stroke-linecap="round" stroke-linejoin="round"/><path d="M4 8C4 6.34315 5.34315 5 7 5C8.65685 5 10 6.34315 10 8V13C10 14.6569 8.65685 16 7 16C5.34315 16 4 14.6569 4 13V8Z" stroke="currentColor" stroke-width="2" stroke-miterlimit="16" stroke-linecap="round" stroke-linejoin="round"/></svg>
