<svg xmlns="http://www.w3.org/2000/svg" viewBox="0 0 24 24" fill="none"><path d="M10.7071 18.2929C10.3166 17.9024 9.68342 17.9024 9.29289 18.2929C8.90237 18.6834 8.90237 19.3166 9.29289 19.7071L10.7071 18.2929ZM12 21L11.2929 21.7071C11.6834 22.0976 12.3166 22.0976 12.7071 21.7071L12 21ZM14.7071 19.7071C15.0976 19.3166 15.0976 18.6834 14.7071 18.2929C14.3166 17.9024 13.6834 17.9024 13.2929 18.2929L14.7071 19.7071ZM10 10C9.44772 10 9 10.4477 9 11C9 11.5523 9.44772 12 10 12V10ZM14 12C14.5523 12 15 11.5523 15 11C15 10.4477 14.5523 10 14 10V12ZM3.63803 14.673L4.09202 13.782H4.09202L3.63803 14.673ZM2.32698 13.362L1.43597 13.816H1.43597L2.32698 13.362ZM21.673 13.362L22.564 13.816V13.816L21.673 13.362ZM20.362 14.673L19.908 13.782L19.908 13.782L20.362 14.673ZM20.362 3.32698L19.908 4.21799L19.908 4.21799L20.362 3.32698ZM21.673 4.63803L22.564 4.18404V4.18404L21.673 4.63803ZM3.63803 3.32698L4.09202 4.21799L3.63803 3.32698ZM2.32698 4.63803L3.21799 5.09202L2.32698 4.63803ZM9.29289 19.7071L11.2929 21.7071L12.7071 20.2929L10.7071 18.2929L9.29289 19.7071ZM12.7071 21.7071L14.7071 19.7071L13.2929 18.2929L11.2929 20.2929L12.7071 21.7071ZM10 12H14V10H10V12ZM6.8 4H17.2V2H6.8V4ZM21 7.8V10.2H23V7.8H21ZM17.2 14H6.8V16H17.2V14ZM3 10.2V7.8H1V10.2H3ZM6.8 14C5.94342 14 5.36113 13.9992 4.91104 13.9624C4.47262 13.9266 4.24842 13.8617 4.09202 13.782L3.18404 15.564C3.66937 15.8113 4.18608 15.9099 4.74817 15.9558C5.2986 16.0008 5.97642 16 6.8 16V14ZM1 10.2C1 11.0236 0.999222 11.7014 1.04419 12.2518C1.09012 12.8139 1.18868 13.3306 1.43597 13.816L3.21799 12.908C3.1383 12.7516 3.07337 12.5274 3.03755 12.089C3.00078 11.6389 3 11.0566 3 10.2H1ZM4.09202 13.782C3.7157 13.5903 3.40973 13.2843 3.21799 12.908L1.43597 13.816C1.81947 14.5686 2.43139 15.1805 3.18404 15.564L4.09202 13.782ZM21 10.2C21 11.0566 20.9992 11.6389 20.9624 12.089C20.9266 12.5274 20.8617 12.7516 20.782 12.908L22.564 13.816C22.8113 13.3306 22.9099 12.8139 22.9558 12.2518C23.0008 11.7014 23 11.0236 23 10.2H21ZM17.2 16C18.0236 16 18.7014 16.0008 19.2518 15.9558C19.8139 15.9099 20.3306 15.8113 20.816 15.564L19.908 13.782C19.7516 13.8617 19.5274 13.9266 19.089 13.9624C18.6389 13.9992 18.0566 14 17.2 14V16ZM20.782 12.908C20.5903 13.2843 20.2843 13.5903 19.908 13.782L20.816 15.564C21.5686 15.1805 22.1805 14.5686 22.564 13.816L20.782 12.908ZM17.2 4C18.0566 4 18.6389 4.00078 19.089 4.03755C19.5274 4.07337 19.7516 4.1383 19.908 4.21799L20.816 2.43597C20.3306 2.18868 19.8139 2.09012 19.2518 2.04419C18.7014 1.99922 18.0236 2 17.2 2V4ZM23 7.8C23 6.97642 23.0008 6.2986 22.9558 5.74817C22.9099 5.18608 22.8113 4.66937 22.564 4.18404L20.782 5.09202C20.8617 5.24842 20.9266 5.47262 20.9624 5.91104C20.9992 6.36113 21 6.94342 21 7.8H23ZM19.908 4.21799C20.2843 4.40973 20.5903 4.71569 20.782 5.09202L22.564 4.18404C22.1805 3.43139 21.5686 2.81947 20.816 2.43597L19.908 4.21799ZM6.8 2C5.97642 2 5.2986 1.99922 4.74817 2.04419C4.18608 2.09012 3.66937 2.18868 3.18404 2.43597L4.09202 4.21799C4.24842 4.1383 4.47262 4.07337 4.91104 4.03755C5.36113 4.00078 5.94342 4 6.8 4V2ZM3 7.8C3 6.94342 3.00078 6.36113 3.03755 5.91104C3.07337 5.47262 3.1383 5.24842 3.21799 5.09202L1.43597 4.18404C1.18868 4.66937 1.09012 5.18608 1.04419 5.74817C0.999222 6.2986 1 6.97642 1 7.8H3ZM3.18404 2.43597C2.43139 2.81947 1.81947 3.43139 1.43597 4.18404L3.21799 5.09202C3.40973 4.71569 3.71569 4.40973 4.09202 4.21799L3.18404 2.43597Z" fill="currentColor"/><path d="M6 10.125C6.48325 10.125 6.875 10.5168 6.875 11C6.875 11.4832 6.48325 11.875 6 11.875C5.51675 11.875 5.125 11.4832 5.125 11C5.125 10.5168 5.51675 10.125 6 10.125ZM18 10.125C18.4832 10.125 18.875 10.5168 18.875 11C18.875 11.4832 18.4832 11.875 18 11.875C17.5168 11.875 17.125 11.4832 17.125 11C17.125 10.5168 17.5168 10.125 18 10.125ZM6 6.125C6.48325 6.125 6.875 6.51675 6.875 7C6.875 7.48325 6.48325 7.875 6 7.875C5.51675 7.875 5.125 7.48325 5.125 7C5.125 6.51675 5.51675 6.125 6 6.125ZM10 6.125C10.4832 6.125 10.875 6.51675 10.875 7C10.875 7.48325 10.4832 7.875 10 7.875C9.51675 7.875 9.125 7.48325 9.125 7C9.125 6.51675 9.51675 6.125 10 6.125ZM14 6.125C14.4832 6.125 14.875 6.51675 14.875 7C14.875 7.48325 14.4832 7.875 14 7.875C13.5168 7.875 13.125 7.48325 13.125 7C13.125 6.51675 13.5168 6.125 14 6.125ZM18 6.125C18.4832 6.125 18.875 6.51675 18.875 7C18.875 7.48325 18.4832 7.875 18 7.875C17.5168 7.875 17.125 7.48325 17.125 7C17.125 6.51675 17.5168 6.125 18 6.125Z" fill="currentColor" stroke="currentColor" stroke-width="0.75" stroke-linecap="square"/></svg>
