<svg xmlns="http://www.w3.org/2000/svg" viewBox="0 0 24 24" fill="none"><path d="M14 21H10C8.89543 21 8 20.1046 8 19C8 17.8954 8.89543 17 10 17H14C15.1046 17 16 17.8954 16 19C16 20.1046 15.1046 21 14 21Z" stroke="currentColor" stroke-width="2" stroke-linecap="round" stroke-linejoin="round"/><path d="M4 11L11 16.5M13 16.5L20 11" stroke="currentColor" stroke-width="2" stroke-linecap="round" stroke-linejoin="round"/><path d="M12 11V16" stroke="currentColor" stroke-width="2" stroke-linecap="round" stroke-linejoin="round"/><path d="M12 3C7.58172 3 4 6.58172 4 11C4 11 8.86971 10.5 12 10.5C15.1303 10.5 20 11 20 11C20 6.58172 16.4183 3 12 3Z" stroke="currentColor" stroke-width="2" stroke-linecap="round" stroke-linejoin="round"/></svg>
