<svg xmlns="http://www.w3.org/2000/svg" viewBox="0 0 24 24" fill="none"><path d="M12 4V7M12 17V20M12 10V14" stroke="currentColor" stroke-width="2" stroke-linecap="round" stroke-linejoin="round"/><path d="M17.5 7H6.5C5.67157 7 5 7.67157 5 8.5C5 9.32843 5.67157 10 6.5 10H17.5C18.3284 10 19 9.32843 19 8.5C19 7.67157 18.3284 7 17.5 7Z" stroke="currentColor" stroke-width="2" stroke-linecap="round" stroke-linejoin="round"/><path d="M15.5 14H8.5C7.67157 14 7 14.6716 7 15.5C7 16.3284 7.67157 17 8.5 17H15.5C16.3284 17 17 16.3284 17 15.5C17 14.6716 16.3284 14 15.5 14Z" stroke="currentColor" stroke-width="2" stroke-linecap="round" stroke-linejoin="round"/></svg>
