<svg xmlns="http://www.w3.org/2000/svg" viewBox="0 0 24 24" fill="none"><path d="M11.9023 21.4998L12 21.5L12.0977 21.4998C16.5694 21.4787 17.3183 20.0086 17.4082 16.3831C17.4891 13.1171 17.5961 9.84996 17.3339 6.58816C17.2185 5.15134 16.9397 3.79112 15.425 3.02305C14.4128 2.50982 13.1208 2.5 12 2.5C10.8792 2.5 9.5872 2.50982 8.57503 3.02305C7.06029 3.79112 6.78155 5.15134 6.66607 6.58816C6.40391 9.84996 6.51089 13.1171 6.59184 16.3831C6.6817 20.0086 7.5 21.479 11.9023 21.4998Z" stroke="currentColor" stroke-width="2"/><path d="M13.3619 15.693C13.2475 15.7631 13.1527 15.861 13.0865 15.9776C13.0202 16.0943 12.9847 16.2258 12.9831 16.36C12.9835 16.5109 13.0283 16.6584 13.1117 16.7842C13.1952 16.91 13.3137 17.0086 13.4526 17.0677C13.3979 17.2444 13.3168 17.4119 13.2122 17.5645C13.0625 17.78 12.9059 17.9955 12.6678 17.9955C12.4296 17.9955 12.3683 17.8571 12.0939 17.8571C11.8262 17.8571 11.7309 18 11.5131 18C11.2954 18 11.1434 17.8004 10.9687 17.5554C10.738 17.2122 10.6112 16.8097 10.6035 16.3962C10.6035 15.7157 11.0459 15.355 11.4814 15.355C11.7128 15.355 11.9056 15.507 12.0508 15.507C12.1891 15.507 12.4046 15.346 12.6678 15.346C12.8031 15.3425 12.9371 15.3723 13.0582 15.4328C13.1792 15.4933 13.2835 15.5827 13.3619 15.693ZM12.543 15.0579C12.659 14.9214 12.7247 14.7493 12.729 14.5703C12.7292 14.5467 12.7269 14.5231 12.7222 14.5C12.523 14.5195 12.3387 14.6144 12.2073 14.7654C12.0902 14.8964 12.022 15.0639 12.0145 15.2395C12.0145 15.2608 12.0168 15.2821 12.0213 15.303C12.037 15.306 12.0529 15.3075 12.0689 15.3076C12.1607 15.3003 12.2501 15.2744 12.3316 15.2314C12.4131 15.1885 12.485 15.1295 12.543 15.0579Z" fill="currentColor"/></svg>
