<svg xmlns="http://www.w3.org/2000/svg" viewBox="0 0 24 24" fill="none"><path d="M18.9994 9H14.9994V5M19.9994 4L15.5 8.49941M17.2594 19.7663C10.6186 18.6203 5.37909 13.3808 4.23311 6.73999C3.97462 5.24211 5.23163 4 6.75165 4C7.96707 4 9.03858 4.79724 9.38782 5.96139L9.68617 6.95589C9.8791 7.59897 9.70335 8.29605 9.2286 8.7708C8.67783 9.32158 8.52666 10.1684 8.93651 10.8307C9.99932 12.5484 11.451 14.0001 13.1687 15.0629C13.831 15.4727 14.6778 15.3216 15.2286 14.7708C15.7034 14.2961 16.4004 14.1203 17.0435 14.3132L18.038 14.6116C19.2022 14.9608 19.9994 16.0323 19.9994 17.2478C19.9994 18.7678 18.7573 20.0248 17.2594 19.7663Z" stroke="currentColor" stroke-width="2" stroke-linecap="round" stroke-linejoin="round"/></svg>
