<svg xmlns="http://www.w3.org/2000/svg" viewBox="0 0 24 24" fill="none"><path d="M1 9V13" stroke="currentColor" stroke-width="2" stroke-linecap="round" stroke-linejoin="round"/><path d="M19 17C20.6569 17 22 15.6569 22 14V8C22 6.34315 20.6569 5 19 5H7C5.34315 5 4 6.34315 4 8V14C4 15.6569 5.34315 17 7 17" stroke="currentColor" stroke-width="2" stroke-linecap="round" stroke-linejoin="round"/><path d="M17.5 19H8.5C7.67157 19 7 18.3284 7 17.5C7 16.6716 7.67157 16 8.5 16H17.5C18.3284 16 19 16.6716 19 17.5C19 18.3284 18.3284 19 17.5 19Z" stroke="currentColor" stroke-width="2" stroke-linecap="round" stroke-linejoin="round"/></svg>
