<svg xmlns="http://www.w3.org/2000/svg" viewBox="0 0 24 24" fill="none"><path d="M19 12V18C19 19.6569 17.6569 21 16 21H8C6.34315 21 5 19.6569 5 18V12" stroke="currentColor" stroke-width="2" stroke-linecap="square" stroke-linejoin="round"/><path d="M3 12H21" stroke="currentColor" stroke-width="2" stroke-linecap="round" stroke-linejoin="round"/><path d="M16.5 12.0001C17.5 10.5001 17.7838 9.12132 18 8.00011L19.999 8.25011C23.499 8.75011 17.5 2.25013 15.499 4.25011C13.504 6.24406 13.5025 8.48652 13.5 11.9685L13.5 12.0001" stroke="currentColor" stroke-width="2" stroke-linejoin="round"/><path d="M6.74526 12C6.53864 11.219 6.36319 10.3557 6.23274 9.44016C5.68297 5.58195 6.14046 2.25719 7.25456 2.01409C8.36867 1.771 9.7175 4.70163 10.2673 8.55984C10.4423 9.78802 10.5152 10.9621 10.4974 12" stroke="currentColor" stroke-width="2" stroke-linejoin="round"/></svg>
