<svg xmlns="http://www.w3.org/2000/svg" viewBox="0 0 24 24" fill="none"><path d="M15.8196 4.71664C17.86 4.36685 19.6331 6.13997 19.2834 8.1804L18.4186 13.2248L17.6808 17.5284L17.5995 18.0028C17.3169 19.6515 15.7261 20.7743 14.1584 20.1908C11.8615 19.336 9.70715 17.9855 7.86085 16.1392C6.01454 14.2929 4.66399 12.1385 3.80918 9.84161C3.22575 8.27391 4.34849 6.68312 5.99718 6.40048L6.47161 6.31915L12.1069 5.3531L15.569 4.7596L15.8196 4.71664Z" stroke="currentColor" stroke-width="2" stroke-linecap="square" stroke-linejoin="round"/><path d="M17.6799 17.5283C16.0878 17.2272 14.5376 16.6501 13.1061 15.797C12.1231 15.2111 11.1961 14.4951 10.35 13.649C8.2717 11.5707 6.9786 9.0045 6.4707 6.31909" stroke="currentColor" stroke-width="2" stroke-linecap="square" stroke-linejoin="round"/><path d="M18.4186 13.2248C17.8725 12.482 16.9926 12 16 12C14.3431 12 13 13.3431 13 15C13 15.276 13.0373 15.5432 13.107 15.797" stroke="currentColor" stroke-width="2" stroke-linecap="square" stroke-linejoin="round"/><path d="M15.569 4.75952C15.8389 5.10043 16 5.53136 16 5.99992C16 7.10449 15.1046 7.99992 14 7.99992C12.8954 7.99992 12 7.10449 12 5.99992C12 5.77353 12.0376 5.55593 12.1069 5.35302" stroke="currentColor" stroke-width="2" stroke-linecap="square" stroke-linejoin="round"/></svg>
