<svg xmlns="http://www.w3.org/2000/svg" viewBox="0 0 24 24" fill="none"><path d="M8.5 2.5L9.5 3.5" stroke="currentColor" stroke-width="2" stroke-linecap="round"/><path d="M15.5 2.5L14.5 3.5" stroke="currentColor" stroke-width="2" stroke-linecap="round"/><path d="M12 14.321L9.50686 19.6364C9.0755 20.556 7.99852 21.0349 7.14814 20.4793C5.08114 19.1288 4 16.7722 4 14.091C4 9.89859 7.58172 6.5 12 6.5C16.4183 6.5 20 9.89859 20 14.091C20 16.7722 18.9189 19.1288 16.8519 20.4793C16.0015 21.0349 14.9245 20.556 14.4931 19.6364L12 14.321ZM12 14.321V6.96006" stroke="currentColor" stroke-width="2" stroke-linecap="round" stroke-linejoin="round"/><path d="M10 19.75C10.6432 19.8838 11.3126 19.9544 12 19.9544C12.6874 19.9544 13.3568 19.8838 14 19.75" stroke="currentColor" stroke-width="2"/><circle cx="8" cy="13.25" r="1.5" fill="currentColor"/><circle cx="16" cy="13.25" r="1.5" fill="currentColor"/><path d="M16 7C16 4.79086 14.2091 3 12 3C9.79086 3 8 4.79086 8 7" stroke="currentColor" stroke-width="2"/></svg>
