<svg xmlns="http://www.w3.org/2000/svg" viewBox="0 0 24 24" fill="none"><path d="M11.0005 8.00024C12.2147 8.91247 13 10.3646 13 12.0002C13 12.62 12.8872 13.2135 12.6811 13.7612C12.3432 14.659 11.7544 15.4339 11.0002 16.0004L7 13.3337M4.99951 16.0002C3.78534 15.088 3 13.6358 3 12.0002C3 11.3805 3.11276 10.7871 3.31887 10.2394C3.65672 9.34168 4.24541 8.56682 4.99951 8.00024L9 10.667M19.1805 5.36426C20.3358 7.30677 20.9994 9.57597 20.9994 12.0001C20.9994 14.4243 20.3358 16.6935 19.1805 18.636M15.9531 7.7847C16.621 9.04224 16.9994 10.477 16.9994 12.0001C16.9994 13.5233 16.621 14.958 15.9531 16.2156" stroke="currentColor" stroke-width="2" stroke-linecap="round" stroke-linejoin="round"/></svg>
