<svg xmlns="http://www.w3.org/2000/svg" viewBox="0 0 24 24" fill="none"><path d="M9.25258 7.3415C8.88889 6.92586 8.25713 6.88374 7.8415 7.24742C7.42586 7.61111 7.38374 8.24287 7.74742 8.6585L9.25258 7.3415ZM16.2526 8.6585C16.6163 8.24287 16.5741 7.61111 16.1585 7.24742C15.7429 6.88374 15.1111 6.92586 14.7474 7.3415L16.2526 8.6585ZM11 17C11 17.5523 11.4477 18 12 18C12.5523 18 13 17.5523 13 17H11ZM10 12C9.44772 12 9 12.4477 9 13C9 13.5523 9.44772 14 10 14V12ZM14 14C14.5523 14 15 13.5523 15 13C15 12.4477 14.5523 12 14 12V14ZM7.74742 8.6585L11.2474 12.6585L12.7526 11.3415L9.25258 7.3415L7.74742 8.6585ZM12.7526 12.6585L16.2526 8.6585L14.7474 7.3415L11.2474 11.3415L12.7526 12.6585ZM11 12V13H13V12H11ZM11 13V17H13V13H11ZM10 14H12V12H10V14ZM12 14H14V12H12V14ZM20 12C20 16.4183 16.4183 20 12 20V22C17.5228 22 22 17.5228 22 12H20ZM12 20C7.58172 20 4 16.4183 4 12H2C2 17.5228 6.47715 22 12 22V20ZM4 12C4 7.58172 7.58172 4 12 4V2C6.47715 2 2 6.47715 2 12H4ZM12 4C16.4183 4 20 7.58172 20 12H22C22 6.47715 17.5228 2 12 2V4Z" fill="currentColor"/></svg>
