<svg xmlns="http://www.w3.org/2000/svg" viewBox="0 0 24 24" fill="none"><path d="M14 18.6738C15.1486 18.2318 16.8351 17.3405 16.5 16C15.9577 13.8307 11.5 16 10.5 14.5C9.75213 13.3782 10.9618 11.4174 11.6194 10.5M20.5 13.2406C18.4067 12.1389 14.5768 10 12 10C9.37749 10 5.45705 12.2155 3.39025 13.2983M6 5H18C19.6569 5 21 6.34315 21 8V16C21 17.6569 19.6569 19 18 19H6C4.34315 19 3 17.6569 3 16V8C3 6.34315 4.34315 5 6 5Z" stroke="currentColor" stroke-width="2" stroke-linecap="round" stroke-linejoin="round"/></svg>
