<svg xmlns="http://www.w3.org/2000/svg" viewBox="0 0 24 24" fill="none"><path d="M4 10.5508V16.9999C4 18.6568 5.34454 19.9999 7.0014 19.9999H16.9986C18.6555 19.9999 20 18.6568 20 16.9999V10.5508C20 9.57804 19.5284 8.66567 18.7347 8.10319L13.7347 4.55948C12.6955 3.82295 11.3045 3.82295 10.2653 4.55948L5.26528 8.10319C4.47165 8.66567 4 9.57804 4 10.5508Z" stroke="currentColor" stroke-width="2" stroke-linecap="round" stroke-linejoin="round"/><path d="M16 20C16 17.7909 14.2091 16 12 16C9.79086 16 8 17.7909 8 20" stroke="currentColor" stroke-width="2" stroke-linecap="round" stroke-linejoin="round"/><path d="M14 11.5C14 12.6046 13.1046 13.5 12 13.5C10.8954 13.5 10 12.6046 10 11.5C10 10.3954 10.8954 9.5 12 9.5C13.1046 9.5 14 10.3954 14 11.5Z" stroke="currentColor" stroke-width="2" stroke-linecap="round" stroke-linejoin="round"/></svg>
