<svg xmlns="http://www.w3.org/2000/svg" viewBox="0 0 24 24" fill="none"><path d="M10 17V16C9.44772 16 9 16.4477 9 17H10ZM14 17H15C15 16.4477 14.5523 16 14 16V17ZM14 21V22C14.5523 22 15 21.5523 15 21H14ZM10 21H9C9 21.5523 9.44772 22 10 22V21ZM3 12H2V14H3V12ZM10 18H14V16H10V18ZM13 17V21H15V17H13ZM14 20H10V22H14V20ZM11 21V17H9V21H11ZM21 12H3V14H21V12ZM6 5H18V3H6V5ZM20 7V14H22V7H20ZM18 16H6V18H18V16ZM4 14V7H2V14H4ZM6 16C4.89543 16 4 15.1046 4 14H2C2 16.2091 3.79086 18 6 18V16ZM20 14C20 15.1046 19.1046 16 18 16V18C20.2091 18 22 16.2091 22 14H20ZM18 5C19.1046 5 20 5.89543 20 7H22C22 4.79086 20.2091 3 18 3V5ZM6 3C3.79086 3 2 4.79086 2 7H4C4 5.89543 4.89543 5 6 5V3Z" fill="currentColor"/></svg>
