<svg xmlns="http://www.w3.org/2000/svg" viewBox="0 0 24 24" fill="none"><path d="M4 6.99976H18C19.6569 6.99976 21 8.3429 21 9.99976V16.9998C21 18.6566 19.6569 19.9998 18 19.9998H6C4.34315 19.9998 3 18.6566 3 16.9998V9.079C3 7.82847 3.77572 6.70911 4.94663 6.27001L15 2.5" stroke="currentColor" stroke-width="2" stroke-linecap="round" stroke-linejoin="round"/><path d="M3 12H21" stroke="currentColor" stroke-width="2" stroke-linecap="round" stroke-linejoin="round"/><path d="M9 7.5V11.5" stroke="currentColor" stroke-width="2" stroke-linecap="round" stroke-linejoin="round"/><path d="M17 15.125C17.4832 15.125 17.875 15.5168 17.875 16C17.875 16.4832 17.4832 16.875 17 16.875C16.5168 16.875 16.125 16.4832 16.125 16C16.125 15.5168 16.5168 15.125 17 15.125Z" fill="currentColor" stroke="currentColor" stroke-width="0.75" stroke-linecap="square"/><path d="M13 15.125C13.4832 15.125 13.875 15.5168 13.875 16C13.875 16.4832 13.4832 16.875 13 16.875C12.5168 16.875 12.125 16.4832 12.125 16C12.125 15.5168 12.5168 15.125 13 15.125Z" fill="currentColor" stroke="currentColor" stroke-width="0.75" stroke-linecap="square"/></svg>
