<svg xmlns="http://www.w3.org/2000/svg" viewBox="0 0 24 24" fill="none"><path d="M8 4H16V2H8V4ZM18 6V18H20V6H18ZM16 20H8V22H16V20ZM6 18V6H4V18H6ZM8 16H16V14H8V16ZM16 16C17.1046 16 18 16.8954 18 18H20C20 15.7909 18.2091 14 16 14V16ZM8 14C5.79086 14 4 15.7909 4 18H6C6 16.8954 6.89543 16 8 16V14ZM8 20C6.89543 20 6 19.1046 6 18H4C4 20.2091 5.79086 22 8 22V20ZM18 18C18 19.1046 17.1046 20 16 20V22C18.2091 22 20 20.2091 20 18H18ZM16 4C17.1046 4 18 4.89543 18 6H20C20 3.79086 18.2091 2 16 2V4ZM8 2C5.79086 2 4 3.79086 4 6H6C6 4.89543 6.89543 4 8 4V2Z" fill="currentColor"/><path d="M13 17.25C13.4142 17.25 13.75 17.5858 13.75 18C13.75 18.4142 13.4142 18.75 13 18.75C12.5858 18.75 12.25 18.4142 12.25 18C12.25 17.5858 12.5858 17.25 13 17.25ZM16 17.25C16.4142 17.25 16.75 17.5858 16.75 18C16.75 18.4142 16.4142 18.75 16 18.75C15.5858 18.75 15.25 18.4142 15.25 18C15.25 17.5858 15.5858 17.25 16 17.25Z" fill="currentColor" stroke="currentColor" stroke-width="0.5" stroke-linecap="square"/></svg>
