<svg xmlns="http://www.w3.org/2000/svg" viewBox="0 0 24 24" fill="none"><path d="M4 7C4 5.34315 5.34315 4 7 4H15.7574C16.553 4 17.3161 4.31607 17.8787 4.87868L19.1213 6.12132C19.6839 6.68393 20 7.44699 20 8.24264V17C20 18.6569 18.6569 20 17 20H7C5.34315 20 4 18.6569 4 17V7Z" stroke="currentColor" stroke-width="2" stroke-linecap="round" stroke-linejoin="round"/><path d="M8 19V14C8 13.4477 8.44772 13 9 13H15C15.5523 13 16 13.4477 16 14V19C16 19.5523 15.5523 20 15 20H9C8.44772 20 8 19.5523 8 19Z" stroke="currentColor" stroke-width="2" stroke-linecap="round" stroke-linejoin="round"/><path d="M8 4V7C8 7.55228 8.44772 8 9 8H15C15.5523 8 16 7.55228 16 7V4" stroke="currentColor" stroke-width="2" stroke-linecap="round" stroke-linejoin="round"/></svg>
