<svg xmlns="http://www.w3.org/2000/svg" viewBox="0 0 24 24" fill="none"><path d="M22.0003 12.0001H20.0003C20.0003 10.5427 19.6106 9.1763 18.9297 7.99946L20.6606 7.00012" stroke="currentColor" stroke-width="2" stroke-linecap="round" stroke-linejoin="round"/><path d="M18.93 16.0008C19.6109 14.824 20.0006 13.4576 20.0006 12.0001H14.0006C14.0006 13.1047 13.1052 14.0001 12.0006 14.0001C11.6363 14.0001 11.2947 13.9027 11.0005 13.7325L8 18.9295C9.17684 19.6104 10.5432 20.0001 12.0006 20.0001C13.4581 20.0001 14.8245 19.6104 16.0013 18.9295C17.2153 18.2271 18.2275 17.2148 18.93 16.0008ZM18.93 16.0008L20.6609 17.0002" stroke="currentColor" stroke-width="2" stroke-linecap="round" stroke-linejoin="round"/><path d="M16 5.07074C17.214 5.77315 18.2262 6.78543 18.9287 7.99941" stroke="currentColor" stroke-width="2" stroke-linecap="round" stroke-linejoin="round"/><path d="M16 18.9294L16.9993 20.6603" stroke="currentColor" stroke-width="2" stroke-linecap="round" stroke-linejoin="round"/><path d="M12 20.0001V22" stroke="currentColor" stroke-width="2" stroke-linecap="round" stroke-linejoin="round"/><path d="M7.0001 20.6604L7.99946 18.9295C6.78546 18.227 5.77316 17.2148 5.07074 16.0008C4.38982 14.8239 4.0001 13.4575 4.0001 12.0001C4.0001 10.5427 4.38981 9.17631 5.07071 7.99948L3.33984 7.00018" stroke="currentColor" stroke-width="2" stroke-linecap="round" stroke-linejoin="round"/><path d="M5.07074 16.0007L3.33984 17.0001" stroke="currentColor" stroke-width="2" stroke-linecap="round" stroke-linejoin="round"/><path d="M3.99998 12.0001L2 12" stroke="currentColor" stroke-width="2" stroke-linecap="round" stroke-linejoin="round"/><path d="M5.07031 7.99949C5.77273 6.78547 6.78502 5.77317 7.99904 5.07074C9.17588 4.38982 10.5423 4.0001 11.9997 4.0001V2" stroke="currentColor" stroke-width="2" stroke-linecap="round" stroke-linejoin="round"/><path d="M7 3.33984L7.99933 5.07074L10.9998 10.2678C11.294 10.0975 11.6356 10.0001 12 10.0001C13.1046 10.0001 14 10.8955 14 12.0001" stroke="currentColor" stroke-width="2" stroke-linecap="round" stroke-linejoin="round"/><path d="M12 4.00012C13.4574 4.00012 14.8238 4.38985 16.0007 5.07078" stroke="currentColor" stroke-width="2" stroke-linecap="round" stroke-linejoin="round"/><path d="M16.9993 3.33997L16 5.07078" stroke="currentColor" stroke-width="2" stroke-linecap="round" stroke-linejoin="round"/><path d="M10.9998 10.2678C10.4021 10.6136 10 11.2599 10 12.0001C10 12.7403 10.4021 13.3866 10.9998 13.7324" stroke="currentColor" stroke-width="2" stroke-linecap="round" stroke-linejoin="round"/></svg>
