<svg xmlns="http://www.w3.org/2000/svg" viewBox="0 0 24 24" fill="none"><path d="M12 6.5L12.8087 5.91183C12.6206 5.65308 12.3199 5.5 12 5.5C11.6801 5.5 11.3794 5.65308 11.1913 5.91183L12 6.5ZM8 12L7.19126 11.4118C6.93625 11.7625 6.93625 12.2375 7.19126 12.5882L8 12ZM12 17.5L11.1913 18.0882C11.3794 18.3469 11.6801 18.5 12 18.5C12.3199 18.5 12.6206 18.3469 12.8087 18.0882L12 17.5ZM16 12L16.8087 12.5882C17.0638 12.2375 17.0638 11.7625 16.8087 11.4118L16 12ZM12 13L11.7575 13.9701C11.9167 14.01 12.0833 14.01 12.2425 13.9701L12 13ZM11.1913 5.91183L7.19126 11.4118L8.80874 12.5882L12.8087 7.08817L11.1913 5.91183ZM7.19126 12.5882L11.1913 18.0882L12.8087 16.9118L8.80874 11.4118L7.19126 12.5882ZM12.8087 18.0882L16.8087 12.5882L15.1913 11.4118L11.1913 16.9118L12.8087 18.0882ZM16.8087 11.4118L12.8087 5.91183L11.1913 7.08817L15.1913 12.5882L16.8087 11.4118ZM7.75746 12.9701L11.7575 13.9701L12.2425 12.0299L8.24254 11.0299L7.75746 12.9701ZM12.2425 13.9701L16.2425 12.9701L15.7575 11.0299L11.7575 12.0299L12.2425 13.9701ZM20 12C20 16.4183 16.4183 20 12 20V22C17.5228 22 22 17.5228 22 12H20ZM12 20C7.58172 20 4 16.4183 4 12H2C2 17.5228 6.47715 22 12 22V20ZM4 12C4 7.58172 7.58172 4 12 4V2C6.47715 2 2 6.47715 2 12H4ZM12 4C16.4183 4 20 7.58172 20 12H22C22 6.47715 17.5228 2 12 2V4Z" fill="currentColor"/></svg>
