<svg xmlns="http://www.w3.org/2000/svg" viewBox="0 0 24 24" fill="none"><path d="M19 7.76147V9.88077" stroke="currentColor" stroke-width="2" stroke-linecap="round" stroke-linejoin="round"/><path d="M2.5 9.55122L11.0686 3.4168C11.4037 3.17691 11.5712 3.05697 11.754 3.01058C11.9155 2.96962 12.0846 2.96962 12.246 3.01058C12.4288 3.05697 12.5963 3.17691 12.9314 3.4168L21.5 9.55122" stroke="currentColor" stroke-width="2" stroke-linecap="round" stroke-linejoin="round"/><path d="M5 7.76147V15.2001C5 16.8802 5 17.7203 5.32698 18.362C5.6146 18.9265 6.07354 19.3855 6.63803 19.6731C7.27976 20.0001 8.11984 20.0001 9.8 20.0001H12" stroke="currentColor" stroke-width="2" stroke-linecap="round" stroke-linejoin="round"/><path d="M19.0184 14.0218C19.0184 13.5324 18.4181 13.3132 18.1151 13.692L15.1161 17.441C14.844 17.781 15.0806 18.2916 15.5102 18.2916H16.9816V20.4782C16.9816 20.9676 17.5819 21.1868 17.8849 20.808L20.8839 17.059C21.156 16.719 20.9194 16.2084 20.4898 16.2084H19.0184V14.0218Z" fill="currentColor"/><path d="M9.5 12C9.5 10.6193 10.6193 9.5 12 9.5C13.3807 9.5 14.5 10.6193 14.5 12C14.5 13.3807 13.3807 14.5 12 14.5C10.6193 14.5 9.5 13.3807 9.5 12Z" stroke="currentColor" stroke-width="2" stroke-linecap="square"/></svg>
