<svg xmlns="http://www.w3.org/2000/svg" viewBox="0 0 24 24" fill="none"><path d="M17 4H7C5.34315 4 4 5.34315 4 7V17C4 18.6569 5.34315 20 7 20H17C18.6569 20 20 18.6569 20 17V7C20 5.34315 18.6569 4 17 4Z" stroke="currentColor" stroke-width="2"/><path d="M9.5 7.52016C9.5 7.31053 9.74248 7.19399 9.90617 7.32494L10.6018 7.88143C10.6894 7.95152 10.813 7.95465 10.904 7.88909L11.8539 7.20517C11.9412 7.14235 12.0588 7.14235 12.1461 7.20517L13.096 7.88909C13.187 7.95465 13.3106 7.95152 13.3982 7.88143L14.0938 7.32494C14.2575 7.19399 14.5 7.31053 14.5 7.52016V10.5C14.5 11.8807 13.3807 13 12 13C10.6193 13 9.5 11.8807 9.5 10.5V7.52016Z" fill="currentColor"/><path d="M12.5 17H11C8.79086 17 7 15.2091 7 13L7.29573 12.9261C9.36881 12.4078 11.4831 13.6105 12.0972 15.6572L12.5 17Z" fill="currentColor"/><path d="M11.5 17H13.5108C15.4378 17 17 15.4378 17 13.5108C17 13.2106 16.7911 12.9478 16.4999 12.875C14.559 12.3897 12.5477 13.5078 11.9728 15.4241L11.5 17Z" fill="currentColor"/></svg>
