<svg xmlns="http://www.w3.org/2000/svg" viewBox="0 0 24 24" fill="none"><path fill-rule="evenodd" clip-rule="evenodd" d="M20.7071 4.70711C21.0976 4.31658 21.0976 3.68342 20.7071 3.29289C20.3166 2.90237 19.6834 2.90237 19.2929 3.29289L10.8377 11.7481C10.4538 11.2945 10.1029 10.8121 9.78886 10.3046C9.65435 10.0872 9.67113 9.74447 9.93769 9.47791C10.6726 8.74303 10.9446 7.66399 10.646 6.66855L10.3476 5.67405C9.87149 4.08691 8.41065 3 6.75363 3C4.73804 3 2.86551 4.68399 3.24965 6.91005C3.79936 10.0956 5.23486 12.9772 7.2935 15.2923L3.29289 19.2929C2.90237 19.6834 2.90237 20.3166 3.29289 20.7071C3.68342 21.0976 4.31658 21.0976 4.70711 20.7071L20.7071 4.70711ZM8.71048 13.8753L9.41928 13.1665C8.9292 12.6012 8.48366 11.9962 8.08811 11.3569C7.40293 10.2496 7.68849 8.89868 8.52348 8.06369C8.73809 7.84908 8.81754 7.53395 8.73033 7.24324L8.43198 6.24874C8.20963 5.50757 7.52744 5 6.75363 5C5.72917 5 5.08769 5.80022 5.22052 6.56994C5.69831 9.33868 6.93582 11.848 8.71048 13.8753Z" fill="currentColor"/><path d="M17.4314 18.7809C15.3529 18.4222 13.4206 17.6353 11.7286 16.5145L10.289 17.9541C12.2856 19.3463 14.5952 20.321 17.0913 20.7517C19.3174 21.1359 21.0014 19.2633 21.0014 17.2478C21.0014 15.5907 19.9145 14.1299 18.3273 13.6538L17.3328 13.3554C16.3374 13.0568 15.2584 13.3288 14.5235 14.0637C14.3463 14.2409 14.1354 14.3077 13.95 14.2931L12.4515 15.7917C12.5154 15.8327 12.5798 15.8732 12.6445 15.9133C13.7518 16.5985 15.1027 16.3129 15.9377 15.4779C16.1523 15.2633 16.4674 15.1838 16.7581 15.2711L17.7526 15.5694C18.4938 15.7918 19.0014 16.4739 19.0014 17.2478C19.0014 18.2722 18.2012 18.9137 17.4314 18.7809Z" fill="currentColor"/></svg>
