<svg xmlns="http://www.w3.org/2000/svg" viewBox="0 0 24 24" fill="none"><path d="M11 13H12.7725C13.5694 13 14.3336 12.6829 14.8965 12.1187L19.5027 7.50093C20.3299 6.67169 20.3291 5.32915 19.5009 4.50094C18.6719 3.67199 17.3279 3.672 16.499 4.50095L11.8787 9.12133C11.3161 9.68394 11 10.447 11 11.2426V13Z" stroke="currentColor" stroke-width="2" stroke-linecap="round" stroke-linejoin="round"/><path d="M12.0003 21.0001C11.5003 21.0001 8.93732 20.1295 6.71782 17.91C3.00784 14.2 2.05809 9.13466 4.5965 6.59626C6.68218 4.51058 10.4738 4.77977 13.8179 7.00007" stroke="currentColor" stroke-width="2" stroke-linecap="round" stroke-linejoin="round"/><path d="M17.1066 10C19.9926 13.3312 21.2145 16.7286 19.0002 18.5C17.3414 19.8271 15.2423 18.2924 14.0176 17.1094" stroke="currentColor" stroke-width="2" stroke-linecap="round" stroke-linejoin="round"/></svg>
