<svg xmlns="http://www.w3.org/2000/svg" viewBox="0 0 24 24" fill="none"><circle cx="12" cy="12" r="3" stroke="currentColor" stroke-width="2"/><path d="M7.42528 6.982C7.52458 6.99389 7.62565 7 7.72815 7C9.12093 7 10.25 5.87093 10.25 4.47815C10.25 4.02826 10.1322 3.60589 9.92575 3.2402C10.5917 3.08312 11.2861 3 12 3C16.9706 3 21 7.02944 21 12C21 16.9706 16.9706 21 12 21C7.02944 21 3 16.9706 3 12C3 10.7923 3.23788 9.64016 3.66933 8.58787C4.05693 8.84815 4.52343 9 5.02539 9C6.22814 9 7.22726 8.12817 7.42528 6.982Z" stroke="currentColor" stroke-width="2" stroke-linejoin="round"/><path d="M6.5 13L6 13.5" stroke="currentColor" stroke-width="2" stroke-linecap="round"/><path d="M14 6L14.5 6.5" stroke="currentColor" stroke-width="2" stroke-linecap="round"/><path d="M17.75 11L18.25 11.5" stroke="currentColor" stroke-width="2" stroke-linecap="round"/><path d="M15.5 17L15 17.5" stroke="currentColor" stroke-width="2" stroke-linecap="round"/><path d="M9.5 17.5L9 17" stroke="currentColor" stroke-width="2" stroke-linecap="round"/></svg>
