<svg xmlns="http://www.w3.org/2000/svg" viewBox="0 0 24 24" fill="none"><path d="M7 20H5C4.44772 20 4 19.5523 4 19V7C4 5.34315 5.34315 4 7 4H17C18.6569 4 20 5.34315 20 7V19C20 19.5523 19.5523 20 19 20H17C16.4477 20 16 19.5523 16 19V18H8V19C8 19.5523 7.55228 20 7 20Z" stroke="currentColor" stroke-width="2" stroke-linecap="round" stroke-linejoin="round"/><path d="M4 12H20" stroke="currentColor" stroke-width="2" stroke-linecap="round" stroke-linejoin="round"/><path d="M7 15H8" stroke="currentColor" stroke-width="2" stroke-linecap="round" stroke-linejoin="round"/><path d="M16 15H17" stroke="currentColor" stroke-width="2" stroke-linecap="round" stroke-linejoin="round"/><path d="M2 8L4 8" stroke="currentColor" stroke-width="2" stroke-linecap="round" stroke-linejoin="round"/><path d="M20 8L22 8" stroke="currentColor" stroke-width="2" stroke-linecap="round" stroke-linejoin="round"/><path d="M10 6.5H14" stroke="currentColor" stroke-width="2" stroke-linecap="round"/></svg>
