<svg xmlns="http://www.w3.org/2000/svg" viewBox="0 0 24 24" fill="none"><path d="M3.03282 7.04459L2 7.41875L4.3064 10.8175L4.05884 11.3459C3.83481 11.8241 3.80898 12.3714 3.98698 12.8686L4.06146 13.0766C4.43936 14.1321 5.61088 14.6708 6.65815 14.2707L10.25 12.8986L10.3405 14.1982C10.3867 14.8609 11.0542 15.2952 11.6787 15.069L12.3536 14.8245C12.9368 14.6132 13.4402 14.2263 13.7945 13.7171L15.75 10.9061L19.9899 9.37013C20.7644 9.08956 21.2803 8.35404 21.2803 7.53031C21.2803 6.6311 20.6674 5.84763 19.7947 5.63108L17.8511 5.14884C17.4596 5.05168 17.0487 5.07486 16.6707 5.21586C15.0634 5.8154 10.539 7.50106 8.60086 8.20317C8.04343 8.40511 7.42468 8.35018 6.91195 8.05323L5.55815 7.26917C4.79092 6.82482 3.86643 6.74261 3.03282 7.04459Z" stroke="currentColor" stroke-width="2" stroke-linecap="round" stroke-linejoin="round"/><path d="M3 19H21" stroke="currentColor" stroke-width="2" stroke-linecap="round" stroke-linejoin="round"/></svg>
