<svg xmlns="http://www.w3.org/2000/svg" viewBox="0 0 24 24" fill="none"><path d="M6 5.29168C7.84125 6.93964 9 9.3345 9 12C9 14.6655 7.84125 17.0604 6 18.7083M6 5.29168C4.15875 6.93964 3 9.3345 3 12C3 14.6655 4.15875 17.0604 6 18.7083M6 5.29168C7.59227 3.86656 9.69494 3 12 3C14.3051 3 16.4077 3.86656 18 5.29168M6 18.7083C7.59227 20.1334 9.69494 21 12 21C14.3051 21 16.4077 20.1334 18 18.7083M18 18.7083C16.1588 17.0604 15 14.6655 15 12C15 9.3345 16.1588 6.93964 18 5.29168M18 18.7083C19.8412 17.0604 21 14.6655 21 12C21 9.3345 19.8412 6.93964 18 5.29168" stroke="currentColor" stroke-width="2"/></svg>
