<svg xmlns="http://www.w3.org/2000/svg" viewBox="0 0 24 24" fill="none"><path d="M4.58203 9C5.76881 6.06817 8.64314 4 12.0005 4C15.3579 4 18.2322 6.06817 19.419 9M4 5V9H8" stroke="currentColor" stroke-width="2" stroke-linecap="round" stroke-linejoin="round"/><path d="M7.42578 19.9653V14.2588H7.40039L6.73389 14.7095C6.40381 14.9189 6.22607 14.9824 6.0166 14.9824C5.59766 14.9824 5.29297 14.6777 5.29297 14.2588C5.29297 13.9478 5.4834 13.6685 5.85791 13.4336L6.89258 12.7417C7.3877 12.4243 7.83838 12.2783 8.26367 12.2783C9.00635 12.2783 9.50146 12.7798 9.50146 13.5542V19.9653C9.50146 20.6826 9.12695 21.0825 8.4668 21.0825C7.80029 21.0825 7.42578 20.6763 7.42578 19.9653Z" fill="currentColor"/><path d="M10.7837 16.9058V16.4424C10.7837 13.8589 12.1104 12.1768 14.2432 12.1768C16.3823 12.1768 17.6582 13.8271 17.6582 16.4424V16.9058C17.6582 19.4829 16.3188 21.1904 14.1987 21.1904C12.0786 21.1904 10.7837 19.521 10.7837 16.9058ZM12.8911 16.4487V16.8994C12.8911 18.5498 13.3862 19.5146 14.2241 19.5146C15.0557 19.5146 15.5571 18.5435 15.5571 16.8994V16.4487C15.5571 14.811 15.0557 13.8525 14.2178 13.8525C13.3799 13.8525 12.8911 14.8047 12.8911 16.4487Z" fill="currentColor"/></svg>
