<svg xmlns="http://www.w3.org/2000/svg" viewBox="0 0 24 24" fill="none"><path d="M9 3H6C4.34315 3 3 4.34315 3 6V16.5C3 18.9853 5.01472 21 7.5 21C9.98528 21 12 18.9853 12 16.5V6C12 4.34315 10.6569 3 9 3Z" stroke="currentColor" stroke-width="2" stroke-linecap="round" stroke-linejoin="round"/><path d="M11.3965 18.7502L16.6465 9.6569C17.4749 8.22202 16.9833 6.38726 15.5484 5.55883L12.5 3.79883" stroke="currentColor" stroke-width="2" stroke-linecap="round" stroke-linejoin="round"/><path d="M10 20.25L18.8403 15.1469C20.2753 14.3186 20.767 12.4837 19.9386 11.0487L18.1784 8" stroke="currentColor" stroke-width="2" stroke-linecap="round" stroke-linejoin="round"/><path d="M9 16.5C9 17.3284 8.32843 18 7.5 18C6.67157 18 6 17.3284 6 16.5C6 15.6716 6.67157 15 7.5 15C8.32843 15 9 15.6716 9 16.5Z" fill="currentColor"/></svg>
