<svg xmlns="http://www.w3.org/2000/svg" viewBox="0 0 24 24" fill="none"><path d="M19 15V4.5C19 3.67157 18.3284 3 17.5 3H8C6.34315 3 5 4.34315 5 6V19.25" stroke="currentColor" stroke-width="2" stroke-linecap="round" stroke-linejoin="round"/><path d="M19 14H6.75C5.7835 14 5 14.7835 5 15.75C5 16.7165 5.7835 17.5 6.75 17.5H19V14Z" stroke="currentColor" stroke-width="2" stroke-linecap="round" stroke-linejoin="round"/><path d="M19 17.5H6.75C5.7835 17.5 5 18.2835 5 19.25C5 20.2165 5.7835 21 6.75 21H18C18.5523 21 19 20.5523 19 20V17.5Z" stroke="currentColor" stroke-width="2" stroke-linecap="round" stroke-linejoin="round"/><path d="M9 7H15" stroke="currentColor" stroke-width="2" stroke-linecap="round" stroke-linejoin="round"/></svg>
