<svg xmlns="http://www.w3.org/2000/svg" viewBox="0 0 24 24" fill="none"><path d="M3 17.75C3 19.5449 4.45507 21 6.25 21H9C10.3807 21 11.5 19.8807 11.5 18.5C11.5 17.1193 10.3807 16 9 16L8.9888 16C8.4116 15.0983 7.40146 14.5 6.25 14.5C4.45507 14.5 3 15.9551 3 17.75Z" stroke="currentColor" stroke-width="2" stroke-linecap="square" stroke-linejoin="round"/><path d="M5 10.5V6C5 4.34315 6.34315 3 8 3H12.1716C12.702 3 13.2107 3.21071 13.5858 3.58579L18.4142 8.41421C18.7893 8.78929 19 9.29799 19 9.82843V18C19 19.6569 17.6569 21 16 21H15" stroke="currentColor" stroke-width="2" stroke-linecap="round" stroke-linejoin="round"/><path d="M13 3.5V7C13 8.10457 13.8954 9 15 9H18.5" stroke="currentColor" stroke-width="2" stroke-linecap="square" stroke-linejoin="round"/></svg>
