<svg xmlns="http://www.w3.org/2000/svg" viewBox="0 0 24 24" fill="none"><circle cx="12" cy="12" r="9" stroke="currentColor" stroke-width="2"/><path d="M9.8125 15.8828C9.12109 15.8828 8.80469 15.4961 8.80469 14.9629C8.80469 14.5586 8.97461 14.2715 9.39648 13.9082L11.8105 11.7168C12.8008 10.8145 13.0703 10.4277 13.0703 9.87695C13.0703 9.26758 12.6016 8.83398 11.9277 8.83398C11.3711 8.83398 10.9902 9.10352 10.6797 9.66602C10.4102 10.082 10.1582 10.252 9.72461 10.252C9.16797 10.252 8.83398 9.92969 8.83398 9.40234C8.83398 9.23828 8.85742 9.08594 8.92188 8.93359C9.29102 7.96094 10.416 7.2168 11.957 7.2168C13.8848 7.2168 15.1504 8.24219 15.1504 9.73633C15.1504 10.8203 14.5996 11.4414 13.2578 12.6543L11.5762 14.1895V14.2305H14.5C15.0449 14.2305 15.3613 14.5527 15.3613 15.0566C15.3613 15.5488 15.0449 15.8828 14.5 15.8828H9.8125Z" fill="currentColor"/></svg>
