<svg xmlns="http://www.w3.org/2000/svg" viewBox="0 0 24 24" fill="none"><path d="M21 12C21 14.3051 20.1334 16.4077 18.7083 18C17.0604 19.8412 14.6655 21 12 21C9.3345 21 6.93964 19.8412 5.29168 18C3.86656 16.4077 3 14.3051 3 12C3 7.02944 7.02944 3 12 3C16.9706 3 21 7.02944 21 12Z" stroke="currentColor" stroke-width="2"/><path d="M5.29297 18C6.94093 16.1588 9.33579 15 12.0013 15C14.6668 15 17.0616 16.1588 18.7096 18" stroke="currentColor" stroke-width="2"/><path d="M9.28771 8.53447L10.6304 7.86314C10.7311 7.81278 10.8128 7.7311 10.8631 7.63038L11.5345 6.28771C11.7263 5.9041 12.2737 5.9041 12.4655 6.28771L13.1369 7.63037C13.1872 7.7311 13.2689 7.81278 13.3696 7.86314L14.7123 8.53447C15.0959 8.72628 15.0959 9.27372 14.7123 9.46553L13.3696 10.1369C13.2689 10.1872 13.1872 10.2689 13.1369 10.3696L12.4655 11.7123C12.2737 12.0959 11.7263 12.0959 11.5345 11.7123L10.8631 10.3696C10.8128 10.2689 10.7311 10.1872 10.6304 10.1369L9.28771 9.46553C8.9041 9.27372 8.9041 8.72628 9.28771 8.53447Z" fill="currentColor"/></svg>
