<svg xmlns="http://www.w3.org/2000/svg" viewBox="0 0 24 24" fill="none"><path d="M19.5 13.0004C19.5 17.5004 16.1421 21.0004 12 21.0004C7.85786 21.0004 4.5 17.5004 4.5 13.0004C4.5 11.2122 5.28354 8.83257 6.85063 6.92254C7.18966 6.50932 7.80639 6.51167 8.18433 6.88961C8.60985 7.31513 9.31641 7.25326 9.66151 6.76027L11.9768 3.45273C12.2732 3.02931 12.8382 2.90352 13.264 3.19636C15.0793 4.44452 19.5 7.99775 19.5 13.0004Z" stroke="currentColor" stroke-width="2" stroke-linejoin="round"/><path d="M15 17.5759C15 19.4672 13.6569 21.0003 12 21.0003C10.3431 21.0003 9 19.4672 9 17.5759C9 15.4928 10.6631 13.9751 11.5128 13.3357C11.8047 13.116 12.1953 13.116 12.4872 13.3357C13.3369 13.9751 15 15.4928 15 17.5759Z" stroke="currentColor" stroke-width="2" stroke-linejoin="round"/></svg>
