<svg xmlns="http://www.w3.org/2000/svg" viewBox="0 0 24 24" fill="none"><path d="M8 20H7C5.34315 20 4 18.6569 4 17V16" stroke="currentColor" stroke-width="2" stroke-linecap="round" stroke-linejoin="round"/><path d="M16 20H17C18.6569 20 20 18.6569 20 17V16" stroke="currentColor" stroke-width="2" stroke-linecap="round" stroke-linejoin="round"/><path d="M4 8V7C4 5.34315 5.34315 4 7 4H8" stroke="currentColor" stroke-width="2" stroke-linecap="round" stroke-linejoin="round"/><path d="M16 4H17C18.6569 4 20 5.34315 20 7V8" stroke="currentColor" stroke-width="2" stroke-linecap="round" stroke-linejoin="round"/><path d="M15 10.2858L12 12.0001M12 12.0001L9 10.2858M12 12.0001V15.5" stroke="currentColor" stroke-width="2" stroke-linecap="round" stroke-linejoin="round"/><path d="M9.50772 9.42412L11.0077 8.56698C11.6226 8.21563 12.3774 8.21563 12.9923 8.56698L14.4923 9.42412C15.1154 9.78021 15.5 10.4429 15.5 11.1606V12.8393C15.5 13.557 15.1154 14.2197 14.4923 14.5758L12.9923 15.4329C12.3774 15.7843 11.6226 15.7843 11.0077 15.4329L9.50772 14.5758C8.88457 14.2197 8.5 13.557 8.5 12.8393V11.1606C8.5 10.4429 8.88457 9.78021 9.50772 9.42412Z" stroke="currentColor" stroke-width="2" stroke-linecap="round" stroke-linejoin="round"/></svg>
