<svg xmlns="http://www.w3.org/2000/svg" viewBox="0 0 24 24" fill="none"><path d="M15.3989 17.4579C16.3955 17.1732 17.1745 16.3941 17.4593 15.3975L20.2597 5.59617C20.5829 4.46464 19.5368 3.41851 18.4053 3.7418L8.60394 6.54219C7.60732 6.82694 6.82828 7.60597 6.54353 8.6026L3.74315 18.4039C3.41985 19.5355 4.46599 20.5816 5.59751 20.2583L15.3989 17.4579Z" stroke="currentColor" stroke-width="2"/><path d="M14.0014 12.0001C14.0014 13.1046 13.106 14.0001 12.0014 14.0001C10.8968 14.0001 10.0014 13.1046 10.0014 12.0001C10.0014 10.8955 10.8968 10.0001 12.0014 10.0001C13.106 10.0001 14.0014 10.8955 14.0014 12.0001Z" stroke="currentColor" stroke-width="2"/></svg>
