<svg xmlns="http://www.w3.org/2000/svg" viewBox="0 0 24 24" fill="none"><path d="M9 5.49977L10.9393 3.56043C11.5251 2.97465 12.4749 2.97465 13.0607 3.56043L15 5.49977" stroke="currentColor" stroke-width="2" stroke-linecap="round" stroke-linejoin="round"/><path d="M5.49977 9L3.56043 10.9393C2.97465 11.5251 2.97465 12.4749 3.56043 13.0607L5.49977 15" stroke="currentColor" stroke-width="2" stroke-linecap="round" stroke-linejoin="round"/><path d="M18.5 9L20.4393 10.9393C21.0251 11.5251 21.0251 12.4749 20.4393 13.0607L18.5 15" stroke="currentColor" stroke-width="2" stroke-linecap="round" stroke-linejoin="round"/><path d="M15 18.5L13.0607 20.4393C12.4749 21.0251 11.5251 21.0251 10.9393 20.4393L9 18.5" stroke="currentColor" stroke-width="2" stroke-linecap="round" stroke-linejoin="round"/><path d="M12 4V12M12 12V20M12 12H4M12 12H20" stroke="currentColor" stroke-width="2" stroke-linecap="round" stroke-linejoin="round"/></svg>
