<svg xmlns="http://www.w3.org/2000/svg" viewBox="0 0 24 24" fill="none"><path d="M17 17V7C17 5.34315 15.6569 4 14 4H10C8.34315 4 7 5.34315 7 7V17C7 18.6569 8.34315 20 10 20H14C15.6569 20 17 18.6569 17 17Z" stroke="currentColor" stroke-width="2" stroke-linecap="round" stroke-linejoin="round"/><path d="M3.50087 8L2.44886 9.05201C1.90491 9.59596 1.84371 10.4571 2.30527 11.0725C2.71748 11.6221 2.71748 12.3779 2.30527 12.9275C1.84371 13.5429 1.90491 14.404 2.44886 14.948L3.50087 16M20.5009 8L21.5529 9.05201C22.0968 9.59596 22.158 10.4571 21.6965 11.0725C21.2843 11.6221 21.2843 12.3779 21.6965 12.9275C22.158 13.5429 22.0968 14.404 21.5529 14.948L20.5009 16" stroke="currentColor" stroke-width="2" stroke-linecap="round" stroke-linejoin="round"/><path d="M11 7H13" stroke="currentColor" stroke-width="2" stroke-linecap="round" stroke-linejoin="round"/></svg>
