<svg xmlns="http://www.w3.org/2000/svg" viewBox="0 0 24 24" fill="none"><path d="M17 4H7C5.34315 4 4 5.34315 4 7V17C4 18.6569 5.34315 20 7 20H17C18.6569 20 20 18.6569 20 17V7C20 5.34315 18.6569 4 17 4Z" stroke="currentColor" stroke-width="2" stroke-linecap="round" stroke-linejoin="round"/><path d="M7.9 8H8.1M7.9 16H8.1M15.9 8H16.1M15.9 16H16.1M8.5 8C8.5 8.27614 8.27614 8.5 8 8.5C7.72386 8.5 7.5 8.27614 7.5 8C7.5 7.72386 7.72386 7.5 8 7.5C8.27614 7.5 8.5 7.72386 8.5 8ZM8.5 16C8.5 16.2761 8.27614 16.5 8 16.5C7.72386 16.5 7.5 16.2761 7.5 16C7.5 15.7239 7.72386 15.5 8 15.5C8.27614 15.5 8.5 15.7239 8.5 16ZM16.5 8C16.5 8.27614 16.2761 8.5 16 8.5C15.7239 8.5 15.5 8.27614 15.5 8C15.5 7.72386 15.7239 7.5 16 7.5C16.2761 7.5 16.5 7.72386 16.5 8ZM16.5 16C16.5 16.2761 16.2761 16.5 16 16.5C15.7239 16.5 15.5 16.2761 15.5 16C15.5 15.7239 15.7239 15.5 16 15.5C16.2761 15.5 16.5 15.7239 16.5 16Z" stroke="currentColor" stroke-width="2" stroke-linecap="round" stroke-linejoin="round"/></svg>
