<svg xmlns="http://www.w3.org/2000/svg" viewBox="0 0 24 24" fill="none"><path d="M20 17.5C20 18.4537 19.6186 19.3182 19 19.9495C18.3647 20.5978 17.4793 21 16.5 21C14.567 21 13 19.433 13 17.5C13 15.567 14.567 14 16.5 14C18.433 14 20 15.567 20 17.5Z" stroke="currentColor" stroke-width="2" stroke-linecap="round" stroke-linejoin="round"/><path d="M9.5 21H8C6.34315 21 5 19.6569 5 18V6C5 4.34315 6.34315 3 8 3H16C17.6569 3 19 4.34315 19 6V10" stroke="currentColor" stroke-width="2" stroke-linecap="round"/><path d="M19 19.9497L20.5 21.5002" stroke="currentColor" stroke-width="2" stroke-linecap="round"/><path d="M9 7H15" stroke="currentColor" stroke-width="2" stroke-linecap="round"/><path d="M9 11H12" stroke="currentColor" stroke-width="2" stroke-linecap="round"/></svg>
