<svg xmlns="http://www.w3.org/2000/svg" viewBox="0 0 24 24" fill="none"><path d="M14.9392 5.89619C14.4847 6.02873 14.0106 6.2013 13.5241 6.41205C12.5537 6.83238 11.4456 6.83238 10.4752 6.41205C9.98867 6.2013 9.51462 6.02873 9.06013 5.89619M14.9392 5.89619C16.7872 5.35725 18.3117 5.48007 19.0363 6.38877C19.7609 7.29746 19.5414 8.811 18.6046 10.4927M14.9392 5.89619C14.2084 4.1153 13.1619 3 11.9997 3C10.8374 3 9.79095 4.1153 9.06013 5.89619M14.9392 5.89619C15.1189 6.33417 15.2796 6.8124 15.4181 7.32419C15.6945 8.34496 16.3854 9.21131 17.319 9.70796C17.7871 9.95697 18.2176 10.22 18.6046 10.4927M9.06013 5.89619C7.21211 5.35725 5.68767 5.48007 4.96304 6.38877C4.23842 7.29747 4.45797 8.811 5.39471 10.4927M9.06013 5.89619C8.8804 6.33417 8.71976 6.8124 8.58118 7.3242C8.3048 8.34496 7.61394 9.21131 6.68029 9.70796C6.21218 9.95697 5.78169 10.22 5.39471 10.4927M18.6046 10.4927C20.1782 11.6016 21.0326 12.87 20.7739 14.0031C20.5152 15.1362 19.195 15.9082 17.2961 16.2243M18.6046 10.4927C18.3742 10.9063 18.1005 11.3301 17.7867 11.7575C17.161 12.61 16.9144 13.6903 17.1082 14.7299C17.2053 15.2512 17.2681 15.7517 17.2961 16.2243M17.2961 16.2243C17.4102 18.1459 16.9512 19.6048 15.904 20.109C14.857 20.6131 13.4305 20.0625 11.9997 18.7753M17.2961 16.2243C16.8293 16.302 16.3276 16.3522 15.7981 16.3734C14.7413 16.4157 13.7428 16.8966 13.0508 17.6964C12.7039 18.0975 12.3516 18.4587 11.9997 18.7753M11.9997 18.7753C10.5688 20.0625 9.14236 20.6131 8.09532 20.109C7.04813 19.6048 6.5891 18.1459 6.70321 16.2243M11.9997 18.7753C11.6477 18.4587 11.2954 18.0975 10.9485 17.6964C10.2565 16.8966 9.25808 16.4157 8.20127 16.3734C7.67173 16.3522 7.16999 16.302 6.70321 16.2243M6.70321 16.2243C4.80434 15.9082 3.48409 15.1362 3.22541 14.0031C2.96673 12.87 3.82115 11.6016 5.39471 10.4927M6.70321 16.2243C6.73127 15.7517 6.794 15.2512 6.89117 14.7299C7.08497 13.6903 6.83835 12.61 6.21258 11.7575C5.89883 11.3301 5.62508 10.9063 5.39471 10.4927" stroke="currentColor" stroke-width="2" stroke-linejoin="round"/></svg>
