<svg xmlns="http://www.w3.org/2000/svg" viewBox="0 0 24 24" fill="none"><path d="M11.5 16H10.5C8.63252 16 7.06394 17.2798 6.62343 19.0101C6.48717 19.5453 6.94772 20 7.5 20H14.5C15.0523 20 15.5128 19.5453 15.3766 19.0101C14.9361 17.2798 13.3675 16 11.5 16Z" stroke="currentColor" stroke-width="2" stroke-linecap="round" stroke-linejoin="round"/><path d="M22 7H21.118C20.7393 7 20.4073 7.22505 20.1749 7.52412C19.5537 8.32339 18.2942 9.00932 15 9.05281L8.50919 9.01853C6.57412 9.00831 5 10.5741 5 12.5092C5 14.4371 6.56287 16 8.49076 16H13C17.1966 16 22.2629 12.5212 22.927 7.99679C23.0072 7.45036 22.5523 7 22 7Z" stroke="currentColor" stroke-width="2" stroke-linecap="round" stroke-linejoin="round"/><path d="M11 4V5" stroke="currentColor" stroke-width="2" stroke-linecap="round" stroke-linejoin="round"/><path d="M15 9C15 6.79086 13.2091 5 11 5C8.79086 5 7 6.79086 7 9" stroke="currentColor" stroke-width="2" stroke-linecap="round" stroke-linejoin="round"/><path d="M5 12.5V11C5 9.89543 4.10457 9 3 9C1.89543 9 1 9.89543 1 11C1 11.3925 1.07998 11.7134 1.22004 12" stroke="currentColor" stroke-width="2" stroke-linecap="round" stroke-linejoin="round"/></svg>
