<svg xmlns="http://www.w3.org/2000/svg" viewBox="0 0 24 24" fill="none"><path d="M18.0858 11.7135L15.0274 18.1673C14.5916 19.0871 13.7192 19.7231 12.7102 19.8567L3 21.1424L4.22161 11.3969C4.35054 10.3683 5.00134 9.47916 5.94282 9.04534L12.4289 6.05661L12.2647 5.89239C11.5744 5.20204 11.5744 4.08275 12.2647 3.3924C12.9551 2.70204 14.0744 2.70205 14.7647 3.3924L20.75 9.37769C21.4404 10.068 21.4404 11.1873 20.75 11.8777C20.0596 12.568 18.9404 12.568 18.25 11.8777L18.0858 11.7135Z" stroke="currentColor" stroke-width="2" stroke-linejoin="round"/><path d="M11 14.12C11 14.6723 10.5523 15.12 10 15.12C9.44772 15.12 9 14.6723 9 14.12C9 13.5677 9.44772 13.12 10 13.12C10.5523 13.12 11 13.5677 11 14.12Z" stroke="currentColor" stroke-width="2"/><path d="M12.4297 6.05664L18.0865 11.7135" stroke="currentColor" stroke-width="2" stroke-linecap="round"/><path d="M10 14.1425L3 21.1424" stroke="currentColor" stroke-width="2" stroke-linecap="round"/></svg>
