<svg xmlns="http://www.w3.org/2000/svg" viewBox="0 0 24 24" fill="none"><path d="M13 5.5H20" stroke="currentColor" stroke-width="2" stroke-linecap="round" stroke-linejoin="round"/><path d="M13 8.5H17" stroke="currentColor" stroke-width="2" stroke-linecap="round" stroke-linejoin="round"/><path d="M13 15.5H20" stroke="currentColor" stroke-width="2" stroke-linecap="round" stroke-linejoin="round"/><path d="M13 18.5H17" stroke="currentColor" stroke-width="2" stroke-linecap="round" stroke-linejoin="round"/><path d="M4 17C4 15.8954 4.89543 15 6 15C7.10457 15 8 15.8954 8 17C8 18.1046 7.10457 19 6 19C4.89543 19 4 18.1046 4 17Z" stroke="currentColor" stroke-width="2" stroke-linecap="round" stroke-linejoin="round"/><path d="M4 7C4 5.89543 4.89543 5 6 5C7.10457 5 8 5.89543 8 7C8 8.10457 7.10457 9 6 9C4.89543 9 4 8.10457 4 7Z" stroke="currentColor" stroke-width="2" stroke-linecap="round" stroke-linejoin="round"/></svg>
