<svg xmlns="http://www.w3.org/2000/svg" viewBox="0 0 24 24" fill="none"><path d="M9.6001 20.6146C10.4744 21.1194 10.9116 21.3718 11.3764 21.4706C11.7876 21.558 12.2126 21.558 12.6238 21.4706C13.0886 21.3718 13.5258 21.1194 14.4001 20.6146L18.2604 18.3859C19.1347 17.8811 19.5718 17.6287 19.8898 17.2756C20.1711 16.9632 20.3836 16.5951 20.5135 16.1953C20.6604 15.7434 20.6604 15.2386 20.6604 14.229V9.77153C20.6604 8.76195 20.6604 8.25715 20.5135 7.80525C20.3836 7.40541 20.1711 7.03734 19.8898 6.72491C19.5718 6.3718 19.1347 6.11941 18.2604 5.61461L14.4001 3.38589C13.5258 2.8811 13.0886 2.6287 12.6238 2.52991C12.2126 2.4425 11.7876 2.4425 11.3764 2.52991C10.9116 2.6287 10.4744 2.8811 9.6001 3.38589L5.73984 5.61461C4.86551 6.11941 4.42835 6.3718 4.11041 6.72491C3.8291 7.03734 3.61659 7.40541 3.48667 7.80525C3.33984 8.25715 3.33984 8.76195 3.33984 9.77153V14.229C3.33984 15.2386 3.33984 15.7434 3.48667 16.1953C3.61659 16.5951 3.8291 16.9632 4.11041 17.2756C4.42835 17.6287 4.86551 17.8811 5.73984 18.3859L9.6001 20.6146Z" stroke="currentColor" stroke-width="2"/><path d="M3.33984 17L12.0001 12M12.0001 12L20.6604 17M12.0001 12V2" stroke="currentColor" stroke-width="2"/></svg>
