<svg xmlns="http://www.w3.org/2000/svg" viewBox="0 0 24 24" fill="none"><path d="M15.5 6.5C15.5 8.433 13.933 10 12 10C10.067 10 8.5 8.433 8.5 6.5C8.5 4.567 10.067 3 12 3C13.933 3 15.5 4.567 15.5 6.5Z" stroke="currentColor" stroke-width="2" stroke-linejoin="round"/><path d="M11.9997 13C9.02123 13 6.67402 14.5539 5.43304 16.8621C4.59593 18.4191 6.02717 20 7.79494 20H11.2044" stroke="currentColor" stroke-width="2" stroke-linecap="round" stroke-linejoin="round"/><path fill-rule="evenodd" clip-rule="evenodd" d="M19.8509 14.1485C19.9236 14.44 20.2235 14.6132 20.5123 14.5306L21.2523 14.3191C21.4866 14.2521 21.7365 14.3531 21.8584 14.5642L22.506 15.6856C22.6279 15.8967 22.5904 16.1638 22.4151 16.3333L21.8626 16.8672C21.6465 17.0759 21.6464 17.4222 21.8624 17.6311L22.4163 18.1667C22.5915 18.3362 22.6289 18.6032 22.507 18.8143L21.8594 19.9357C21.7375 20.1468 21.4875 20.2478 21.2531 20.1807L20.5125 19.9687C20.2236 19.886 19.9236 20.0592 19.8509 20.3508L19.6645 21.0974C19.6055 21.334 19.393 21.5 19.1491 21.5H17.8537C17.61 21.5 17.3976 21.3342 17.3384 21.0977L17.1515 20.3512C17.0786 20.0598 16.7788 19.8868 16.4901 19.9694L15.7509 20.1809C15.5165 20.2479 15.2666 20.1469 15.1447 19.9358L14.497 18.8141C14.3751 18.6031 14.4125 18.3362 14.5876 18.1667L15.1412 17.6309C15.3569 17.4221 15.3569 17.076 15.141 16.8673L14.5888 16.3333C14.4136 16.1638 14.3762 15.8968 14.4981 15.6857L15.1458 14.5641C15.2677 14.3531 15.5175 14.252 15.7518 14.3189L16.4903 14.5299C16.779 14.6123 17.0786 14.4394 17.1515 14.1481L17.3383 13.4022C17.3975 13.1658 17.61 13 17.8537 13H19.1492C19.393 13 19.6055 13.166 19.6646 13.4025L19.8509 14.1485ZM18.5006 15.75C17.6722 15.75 17.0006 16.4216 17.0006 17.25C17.0006 18.0784 17.6722 18.75 18.5006 18.75C19.3289 18.7499 20.0006 18.0784 20.0006 17.25C20.0006 16.4216 19.3289 15.7501 18.5006 15.75Z" fill="currentColor"/></svg>
