<svg xmlns="http://www.w3.org/2000/svg" viewBox="0 0 24 24" fill="none"><path d="M18.5532 5.1237L15.5327 3.42469C14.6123 2.90694 14.1521 2.64807 13.6663 2.55676C13.2365 2.47601 12.7944 2.49016 12.3707 2.59822C11.8917 2.7204 11.449 3.00817 10.5635 3.58371L5.18406 7.08036C4.38604 7.59907 3.98703 7.85843 3.69794 8.20438C3.44204 8.51062 3.24981 8.86484 3.13251 9.2463C3 9.67722 3 10.1531 3 11.1049V14.6927C3 15.7148 3 16.2258 3.14996 16.6821C3.28264 17.0858 3.49957 17.4567 3.78638 17.7703C4.11058 18.1247 4.55597 18.3752 5.44675 18.8763L8.46725 20.5753C9.38768 21.0931 9.84789 21.3519 10.3337 21.4432C10.7635 21.524 11.2056 21.5098 11.6293 21.4018C12.1083 21.2796 12.551 20.9918 13.4365 20.4163L18.8159 16.9196L18.8159 16.9196C19.6139 16.4009 20.0129 16.1416 20.302 15.7956C20.5579 15.4894 20.7501 15.1352 20.8674 14.7537C20.9999 14.3228 20.9999 13.8469 20.9999 12.8951V9.30725C20.9999 8.28522 20.9999 7.77421 20.8499 7.3179C20.7173 6.91419 20.5003 6.54328 20.2135 6.22972C19.8893 5.8753 19.444 5.62477 18.5532 5.1237Z" stroke="currentColor" stroke-width="2" stroke-linecap="round" stroke-linejoin="round"/><path d="M20.5 6.82422L11 12.9993L3.5 8.78053" stroke="currentColor" stroke-width="2" stroke-linecap="round" stroke-linejoin="round"/><path d="M20.9999 11L11 17.5L3 13" stroke="currentColor" stroke-width="2" stroke-linecap="round" stroke-linejoin="round"/><path d="M11 21V13" stroke="currentColor" stroke-width="2" stroke-linecap="round" stroke-linejoin="round"/></svg>
