<svg xmlns="http://www.w3.org/2000/svg" viewBox="0 0 24 24" fill="none"><path d="M12 21C16.9706 21 21 16.9706 21 12C21 7.02944 16.9706 3 12 3C7.02944 3 3 7.02944 3 12C3 13.3416 3.29356 14.6147 3.81996 15.7585C3.92989 15.9973 3.95619 16.268 3.87805 16.519L3.08178 19.0775C2.72598 20.2207 3.78703 21.2994 4.93596 20.9627L7.62429 20.1746C7.86583 20.1038 8.12421 20.1289 8.35431 20.231C9.46875 20.7253 10.7023 21 12 21Z" stroke="currentColor" stroke-width="2" stroke-linecap="round" stroke-linejoin="round"/><path d="M6.625 12C6.625 12.4832 7.01675 12.875 7.5 12.875C7.98325 12.875 8.375 12.4832 8.375 12C8.375 11.5168 7.98325 11.125 7.5 11.125C7.01675 11.125 6.625 11.5168 6.625 12ZM11.125 12C11.125 12.4832 11.5168 12.875 12 12.875C12.4832 12.875 12.875 12.4832 12.875 12C12.875 11.5168 12.4832 11.125 12 11.125C11.5168 11.125 11.125 11.5168 11.125 12ZM15.625 12C15.625 12.4832 16.0168 12.875 16.5 12.875C16.9832 12.875 17.375 12.4832 17.375 12C17.375 11.5168 16.9832 11.125 16.5 11.125C16.0168 11.125 15.625 11.5168 15.625 12Z" fill="currentColor" stroke="currentColor" stroke-width="0.75" stroke-linecap="square"/></svg>
