<svg xmlns="http://www.w3.org/2000/svg" viewBox="0 0 24 24" fill="none"><path d="M6.24045 4.18518L5.54359 2.37334C5.45708 2.14842 5.24099 2 5 2C4.75901 2 4.54292 2.14842 4.45641 2.37334L3.75955 4.18518C3.65797 4.44927 3.44927 4.65797 3.18518 4.75955L1.37334 5.45641C1.14842 5.54292 1 5.75901 1 6C1 6.24099 1.14842 6.45708 1.37334 6.54359L3.18518 7.24045C3.44927 7.34203 3.65797 7.55073 3.75955 7.81482L4.45641 9.62666C4.54292 9.85158 4.75901 10 5 10C5.24099 10 5.45708 9.85158 5.54359 9.62666L6.24045 7.81482C6.34203 7.55073 6.55073 7.34203 6.81482 7.24045L8.62666 6.54359C8.85158 6.45708 9 6.24099 9 6C9 5.75901 8.85158 5.54292 8.62666 5.45641L6.81482 4.75955C6.55073 4.65797 6.34203 4.44927 6.24045 4.18518Z" fill="currentColor"/><path d="M20.2405 16.1852L19.5436 14.3733C19.4571 14.1484 19.241 14 19 14C18.759 14 18.5429 14.1484 18.4564 14.3733L17.7595 16.1852C17.658 16.4493 17.4493 16.658 17.1852 16.7595L15.3733 17.4564C15.1484 17.5429 15 17.759 15 18C15 18.241 15.1484 18.4571 15.3733 18.5436L17.1852 19.2405C17.4493 19.342 17.658 19.5507 17.7595 19.8148L18.4564 21.6267C18.5429 21.8516 18.759 22 19 22C19.241 22 19.4571 21.8516 19.5436 21.6267L20.2405 19.8148C20.342 19.5507 20.5507 19.342 20.8148 19.2405L22.6267 18.5436C22.8516 18.4571 23 18.241 23 18C23 17.759 22.8516 17.5429 22.6267 17.4564L20.8148 16.7595C20.5507 16.658 20.342 16.4493 20.2405 16.1852Z" fill="currentColor"/><path d="M12 5H17C18.6569 5 20 6.34315 20 8V11" stroke="currentColor" stroke-width="2" stroke-linecap="round" stroke-linejoin="round"/><path d="M4 13V16C4 17.6569 5.34315 19 7 19H12" stroke="currentColor" stroke-width="2" stroke-linecap="round" stroke-linejoin="round"/></svg>
