<svg xmlns="http://www.w3.org/2000/svg" viewBox="0 0 24 24" fill="none"><path d="M12 12H3C3 16.9706 7.02944 21 12 21C16.9706 21 21 16.9706 21 12H12Z" stroke="currentColor" stroke-width="2" stroke-linecap="round" stroke-linejoin="round"/><path d="M3 12C3 7.02944 7.02944 3 12 3C16.9706 3 21 7.02944 21 12" stroke="currentColor" stroke-width="2" stroke-linecap="round" stroke-linejoin="round"/><path d="M12 3.5V12V20.5" stroke="currentColor" stroke-width="2" stroke-linecap="round" stroke-linejoin="round"/><path d="M5.70703 6C7.13215 7.59227 7.99871 9.69494 7.99871 12C7.99871 14.3051 7.13215 16.4077 5.70703 18" stroke="currentColor" stroke-width="2" stroke-linecap="round" stroke-linejoin="round"/><path d="M18.2917 6C16.8666 7.59227 16 9.69494 16 12C16 14.3051 16.8666 16.4077 18.2917 18" stroke="currentColor" stroke-width="2" stroke-linecap="round" stroke-linejoin="round"/></svg>
