<svg xmlns="http://www.w3.org/2000/svg" viewBox="0 0 24 24" fill="none"><circle cx="12" cy="12" r="9" stroke="currentColor" stroke-width="2"/><path d="M11.9473 16.4385C10.1484 16.4385 9.11719 15.6182 8.77734 14.7979C8.70703 14.6338 8.67188 14.458 8.67188 14.3057C8.67188 13.7666 9.0293 13.4268 9.61523 13.4268C10.0254 13.4268 10.2891 13.5732 10.5 13.9131C10.8105 14.4404 11.1914 14.751 11.9941 14.751C12.7324 14.751 13.248 14.3174 13.248 13.708C13.248 12.999 12.7207 12.6182 11.7832 12.6182H11.5781C11.0684 12.6182 10.7988 12.3252 10.7988 11.8857C10.7988 11.458 11.0684 11.1592 11.5781 11.1592H11.7715C12.5977 11.1592 13.1016 10.7549 13.1016 10.1396C13.1016 9.54199 12.6797 9.16113 11.9473 9.16113C11.3438 9.16113 10.9512 9.40723 10.6934 9.91113C10.4531 10.3623 10.1953 10.5322 9.7207 10.5322C9.13477 10.5322 8.83594 10.1807 8.83594 9.68848C8.83594 9.50684 8.86523 9.36035 8.94141 9.17871C9.27539 8.3584 10.2715 7.56152 11.9355 7.56152C13.7754 7.56152 15.0996 8.39941 15.0996 9.83496C15.0996 10.9189 14.3145 11.6104 13.3477 11.8037V11.8447C14.625 11.9736 15.4336 12.6943 15.4336 13.8369C15.4336 15.4189 14.0684 16.4385 11.9473 16.4385Z" fill="currentColor"/></svg>
