<svg xmlns="http://www.w3.org/2000/svg" viewBox="0 0 24 24" fill="none"><path d="M15 12C15 13.6569 13.6569 15 12 15C10.3431 15 9 13.6569 9 12C9 10.3431 10.3431 9 12 9C13.6569 9 15 10.3431 15 12Z" stroke="currentColor" stroke-width="2"/><path d="M10.4984 9.5C10.4984 9.5 8.96546 7.1531 9.10687 5.4553C9.52315 0.459907 19.7474 4.24111 18.4157 6.6695C17.7141 7.94877 14.9985 7.5 13.7107 9.04415" stroke="currentColor" stroke-width="2"/><path d="M10.5828 14.5501C10.5828 14.5501 9.31681 17.0511 7.77577 17.7775C3.24149 19.9147 1.40397 9.16961 4.17286 9.10869C5.63156 9.0767 6.6007 11.6528 8.58188 11.996" stroke="currentColor" stroke-width="2"/><path d="M14.9167 11.9513C14.9167 11.9513 17.7156 11.7972 19.1152 12.7686C23.2332 15.6268 14.8465 22.5907 13.4093 20.2232C12.6522 18.9759 14.3986 16.8486 13.7053 14.9612" stroke="currentColor" stroke-width="2"/></svg>
