<svg xmlns="http://www.w3.org/2000/svg" viewBox="0 0 24 24" fill="none"><path d="M4 6.5V17C4 18.6569 5.34315 20 7 20H17C18.6569 20 20 18.6569 20 17V12C20 10.3431 18.6569 9 17 9H16M4 6.5C4 7.88071 5.11929 9 6.5 9H16M4 6.5C4 5.11929 5.11929 4 6.5 4H14C15.1046 4 16 4.89543 16 6V9" stroke="currentColor" stroke-width="2" stroke-linecap="square" stroke-linejoin="round"/><path d="M15.5 15.375C15.9832 15.375 16.375 14.9832 16.375 14.5C16.375 14.0168 15.9832 13.625 15.5 13.625C15.0168 13.625 14.625 14.0168 14.625 14.5C14.625 14.9832 15.0168 15.375 15.5 15.375Z" fill="currentColor" stroke="currentColor" stroke-width="0.75"/></svg>
