<svg xmlns="http://www.w3.org/2000/svg" viewBox="0 0 24 24" fill="none"><path d="M9 11V7H15V11C16.3896 12.737 19 14.8797 19 17.2984C19 19.3428 17.3428 21 15.2984 21H8.70156C6.65725 21 5 19.3428 5 17.2984C5 14.8797 7.6104 12.737 9 11Z" stroke="currentColor" stroke-width="2" stroke-linecap="round" stroke-linejoin="round"/><path d="M9 7H8" stroke="currentColor" stroke-width="2" stroke-linecap="round" stroke-linejoin="round"/><path d="M15 7H16" stroke="currentColor" stroke-width="2" stroke-linecap="round" stroke-linejoin="round"/><path d="M18 16.1448C17.1058 16.3028 15.6047 16.5296 14.5 16.5002C12.5094 16.4471 11.4906 15.5533 9.5 15.5002C8.3953 15.4707 6.89418 15.6976 6 15.8555" stroke="currentColor" stroke-width="2" stroke-linecap="round" stroke-linejoin="round"/><path d="M10 4H10.01" stroke="currentColor" stroke-width="2" stroke-linecap="round" stroke-linejoin="round"/><path d="M14 2.5C14 2.77614 13.7761 3 13.5 3C13.2239 3 13 2.77614 13 2.5C13 2.22386 13.2239 2 13.5 2C13.7761 2 14 2.22386 14 2.5Z" stroke="currentColor" stroke-width="2" stroke-linecap="round" stroke-linejoin="round"/><path d="M13.3984 2.5H13.5984" stroke="currentColor" stroke-width="2" stroke-linecap="round" stroke-linejoin="round"/></svg>
