<svg xmlns="http://www.w3.org/2000/svg" viewBox="0 0 24 24" fill="none"><path d="M20 9V17C20 18.6569 18.6569 20 17 20H7C5.34315 20 4 18.6569 4 17V9C4 7.34315 5.34315 6 7 6C8.10457 6 8.95859 5.01253 9.64218 4.14489C10.1915 3.44766 11.0435 3 12 3C12.9565 3 13.8085 3.44766 14.3578 4.14489C15.0414 5.01253 15.8954 6 17 6C18.6569 6 20 7.34315 20 9Z" stroke="currentColor" stroke-width="2" stroke-linecap="round" stroke-linejoin="round"/><path d="M17 20V21" stroke="currentColor" stroke-width="2" stroke-linecap="round" stroke-linejoin="round"/><path d="M7 20V21" stroke="currentColor" stroke-width="2" stroke-linecap="round" stroke-linejoin="round"/><path d="M9 6H15" stroke="currentColor" stroke-width="2" stroke-linecap="round" stroke-linejoin="round"/><path d="M9 10V16" stroke="currentColor" stroke-width="2" stroke-linecap="round" stroke-linejoin="round"/><path d="M15 10V16" stroke="currentColor" stroke-width="2" stroke-linecap="round" stroke-linejoin="round"/></svg>
