<svg xmlns="http://www.w3.org/2000/svg" viewBox="0 0 24 24" fill="none"><path d="M5 11V7C5 5.34315 6.34315 4 8 4H14.1716C14.702 4 15.2107 4.21071 15.5858 4.58579L18.4142 7.41421C18.7893 7.78929 19 8.29799 19 8.82843V11M14 5V7C14 8.10457 14.8954 9 16 9H18" stroke="currentColor" stroke-width="2" stroke-linecap="round" stroke-linejoin="round"/><path d="M9.5 20V15H11.25C12.0784 15 12.75 15.6716 12.75 16.5C12.75 17.3284 12.0784 18 11.25 18H10" stroke="currentColor" stroke-width="2" stroke-linecap="round" stroke-linejoin="round"/><path d="M6.5 15V18.5C6.5 19.3284 5.82843 20 5 20H4.5" stroke="currentColor" stroke-width="2" stroke-linecap="round" stroke-linejoin="round"/><path d="M19.125 18.0548V19.3827C18.7022 19.8416 18.006 20.0437 17.3903 20.0511C16.1481 20.0511 15.25 18.9838 15.25 17.5345C15.25 16.0851 16.1948 15.0178 17.2481 14.9537C17.6289 14.9306 18.2665 15.0155 18.6259 15.3648" stroke="currentColor" stroke-width="2" stroke-linecap="round" stroke-linejoin="round"/></svg>
