<svg xmlns="http://www.w3.org/2000/svg" viewBox="0 0 24 24" fill="none"><path d="M2.5 7.75C1.83333 9.47447 1.83333 11.0255 2.5 12.75M15.9948 6.0406L11.6425 8.63752L9.63227 5.03912C9.07716 4.04544 7.84771 3.70499 6.88623 4.27868C5.92474 4.85238 5.59532 6.12298 6.15043 7.11666L9.16579 12.5143L7.97184 12.3263C6.87428 12.1536 5.84901 12.9331 5.68184 14.0674L5.5 15.3013L10.9462 18.8514C13.2096 20.3269 16.0776 20.3848 18.395 19.002C21.8423 16.9451 23.0235 12.3895 21.0332 8.82682L20.1139 7.18125C19.2812 5.69074 17.437 5.18005 15.9948 6.0406Z" stroke="currentColor" stroke-width="2" stroke-linecap="round" stroke-linejoin="round"/></svg>
