<svg xmlns="http://www.w3.org/2000/svg" viewBox="0 0 24 24" fill="none"><path d="M10.25 13.75L13.75 10.25M13.1428 3.14284C13.7481 3.0488 14.3684 3 15 3H20C20.5523 3 21 3.44772 21 4V9C21 9.63164 20.9512 10.2519 20.8572 10.8572M13.1428 3.14284L20.8572 10.8572M13.1428 3.14284C8.00257 3.94145 3.94145 8.00257 3.14284 13.1428M20.8572 10.8572C20.0585 15.9974 15.9974 20.0585 10.8572 20.8572M10.8572 20.8572C10.2519 20.9512 9.63164 21 9 21H4C3.44772 21 3 20.5523 3 20V15C3 14.3684 3.0488 13.7481 3.14284 13.1428M10.8572 20.8572L3.14284 13.1428" stroke="currentColor" stroke-width="2" stroke-linecap="round"/></svg>
