<svg xmlns="http://www.w3.org/2000/svg" viewBox="0 0 24 24" fill="none"><path d="M17 4H7C5.34315 4 4 5.34315 4 7V17C4 18.6569 5.34315 20 7 20H17C18.6569 20 20 18.6569 20 17V7C20 5.34315 18.6569 4 17 4Z" stroke="currentColor" stroke-width="2" stroke-linecap="round" stroke-linejoin="round"/><path d="M8 14.5C8.82843 14.5 9.5 15.1716 9.5 16C9.5 16.8284 8.82843 17.5 8 17.5C7.17157 17.5 6.5 16.8284 6.5 16C6.5 15.1716 7.17157 14.5 8 14.5ZM16 14.5C16.8284 14.5 17.5 15.1716 17.5 16C17.5 16.8284 16.8284 17.5 16 17.5C15.1716 17.5 14.5 16.8284 14.5 16C14.5 15.1716 15.1716 14.5 16 14.5ZM8 10.5C8.82843 10.5 9.5 11.1716 9.5 12C9.5 12.8284 8.82843 13.5 8 13.5C7.17157 13.5 6.5 12.8284 6.5 12C6.5 11.1716 7.17157 10.5 8 10.5ZM16 10.5C16.8284 10.5 17.5 11.1716 17.5 12C17.5 12.8284 16.8284 13.5 16 13.5C15.1716 13.5 14.5 12.8284 14.5 12C14.5 11.1716 15.1716 10.5 16 10.5ZM8 6.5C8.82843 6.5 9.5 7.17157 9.5 8C9.5 8.82843 8.82843 9.5 8 9.5C7.17157 9.5 6.5 8.82843 6.5 8C6.5 7.17157 7.17157 6.5 8 6.5ZM16 6.5C16.8284 6.5 17.5 7.17157 17.5 8C17.5 8.82843 16.8284 9.5 16 9.5C15.1716 9.5 14.5 8.82843 14.5 8C14.5 7.17157 15.1716 6.5 16 6.5Z" fill="currentColor"/></svg>
