<svg xmlns="http://www.w3.org/2000/svg" viewBox="0 0 24 24" fill="none"><path d="M18 5H6C4.34315 5 3 6.34315 3 8V16C3 17.6569 4.34315 19 6 19H18C19.6569 19 21 17.6569 21 16V8C21 6.34315 19.6569 5 18 5Z" stroke="currentColor" stroke-width="2" stroke-linecap="square" stroke-linejoin="round"/><path d="M6.11719 15.6221C5.45801 15.6221 5.08203 15.2314 5.08203 14.5381V9.41602C5.08203 8.72266 5.45801 8.33203 6.11719 8.33203C6.77637 8.33203 7.15234 8.72266 7.15234 9.41602V11.1299H9.63281V9.41602C9.63281 8.72266 10.0088 8.33203 10.668 8.33203C11.3271 8.33203 11.7031 8.72266 11.7031 9.41602V14.5381C11.7031 15.2314 11.3271 15.6221 10.668 15.6221C10.0088 15.6221 9.63281 15.2314 9.63281 14.5381V12.7754H7.15234V14.5381C7.15234 15.2314 6.77637 15.6221 6.11719 15.6221Z" fill="currentColor"/><path d="M13.7148 15.5C13.0557 15.5 12.6797 15.1094 12.6797 14.416V9.53809C12.6797 8.84473 13.0557 8.4541 13.7148 8.4541H15.6924C17.8311 8.4541 19.0859 9.66992 19.0859 11.9258C19.0859 14.1816 17.8262 15.5 15.6924 15.5H13.7148ZM14.75 13.8545H15.3994C16.4346 13.8545 16.9766 13.2246 16.9766 11.9258C16.9766 10.7393 16.3906 10.0996 15.3994 10.0996H14.75V13.8545Z" fill="currentColor"/></svg>
