<svg xmlns="http://www.w3.org/2000/svg" viewBox="0 0 24 24" fill="none"><path d="M6 12C6 13.1046 5.10457 14 4 14C2.89543 14 2 13.1046 2 12C2 10.8954 2.89543 10 4 10C5.10457 10 6 10.8954 6 12Z" stroke="currentColor" stroke-width="2" stroke-linecap="square"/><path d="M22 12C22 13.1046 21.1046 14 20 14C18.8954 14 18 13.1046 18 12C18 10.8954 18.8954 10 20 10C21.1046 10 22 10.8954 22 12Z" stroke="currentColor" stroke-width="2" stroke-linecap="square"/><path d="M6.5 12H17.5" stroke="currentColor" stroke-width="2" stroke-linecap="square"/><path d="M3.75 9.875C4.69563 6.20889 8.03078 3.5 12 3.5C15.9692 3.5 19.3044 6.20889 20.25 9.875" stroke="currentColor" stroke-width="2" stroke-linecap="square"/><path d="M20.25 14.125C19.3044 17.7911 15.9692 20.5 12 20.5C8.03078 20.5 4.69563 17.7911 3.75 14.125" stroke="currentColor" stroke-width="2" stroke-linecap="square"/></svg>
