<svg xmlns="http://www.w3.org/2000/svg" viewBox="0 0 24 24" fill="none"><path d="M6.89045 3.53518L6.40769 2.28C6.34281 2.11131 6.18074 2 6 2C5.81926 2 5.65719 2.11131 5.59231 2.28L5.10955 3.53518C5.00797 3.79927 4.79927 4.00797 4.53518 4.10955L3.28 4.59231C3.11131 4.65719 3 4.81926 3 5C3 5.18074 3.11131 5.34281 3.28 5.40769L4.53518 5.89045C4.79927 5.99203 5.00797 6.20073 5.10955 6.46482L5.59231 7.72C5.65719 7.88869 5.81926 8 6 8C6.18074 8 6.34281 7.88869 6.40769 7.72L6.89045 6.46482C6.99203 6.20073 7.20073 5.99203 7.46482 5.89045L8.72 5.40769C8.88869 5.34281 9 5.18074 9 5C9 4.81926 8.88869 4.65719 8.72 4.59231L7.46482 4.10955C7.20073 4.00797 6.99203 3.79927 6.89045 3.53518Z" fill="currentColor"/><path d="M10.9998 14L8.99975 13.5L8.49975 12L6.99975 11.5L6.77547 10.6029C6.61343 9.95471 6.03104 9.5 5.36292 9.5C4.71336 9.5 4.14336 9.9338 4.08358 10.5806C4.01441 11.3289 4.02392 12.3802 4.3809 13.4545C5.09645 15.6081 7.9553 18 7.9553 18" stroke="currentColor" stroke-width="2" stroke-linecap="round" stroke-linejoin="round"/><path d="M9.68655 20.9997H17.8408C22.954 14.0553 19.2464 0.40281 9.99976 3.49993L10.8614 5.56478L10.4794 6.82964L11.6052 7.75901L11.1256 9.7206L12.0849 11.1917L11.6052 14.6245L8.08203 17.9026C8.08203 19.9675 9.68655 20.9997 9.68655 20.9997Z" stroke="currentColor" stroke-width="2" stroke-linecap="round" stroke-linejoin="round"/></svg>
