<svg xmlns="http://www.w3.org/2000/svg" viewBox="0 0 24 24" fill="none"><path d="M15 2.5V2M10.0489 4.55021L9.69531 4.19666M19.9472 4.55021L20.3008 4.19666M23 9.5H22.5M18.4649 12C18.8052 11.4117 19 10.7286 19 10C19 7.79086 17.2091 6 15 6C13.1362 6 11.5701 7.27477 11.126 9M16.5 12C16.1301 12 15.7706 12.0446 15.4267 12.1288C14.8744 12.2639 14.2597 12.0553 13.936 11.5879C13.2343 10.5747 12.2287 9.78803 11.051 9.35969C10.4111 9.12695 9.72036 9 9 9C5.68629 9 3 11.6863 3 15C3 18.3137 5.68629 21 9 21H16.5C18.9853 21 21 18.9853 21 16.5C21 14.631 19.8606 13.0282 18.2386 12.3482C17.7037 12.1239 17.1163 12 16.5 12Z" stroke="currentColor" stroke-width="2" stroke-linecap="round" stroke-linejoin="round"/></svg>
