<svg xmlns="http://www.w3.org/2000/svg" viewBox="0 0 24 24" fill="none"><path d="M17 4H7C5.34315 4 4 5.34315 4 7V17C4 18.6569 5.34315 20 7 20H17C18.6569 20 20 18.6569 20 17V7C20 5.34315 18.6569 4 17 4Z" stroke="currentColor" stroke-width="2" stroke-linejoin="round"/><path d="M13.2589 8.97314L12.6795 7.46667C12.5714 7.18552 12.3012 7 12 7C11.6988 7 11.4286 7.18552 11.3205 7.46667L10.7411 8.97314C10.4284 9.78604 9.78604 10.4284 8.97314 10.7411L7.46667 11.3205C7.18552 11.4286 7 11.6988 7 12C7 12.3012 7.18552 12.5714 7.46667 12.6795L8.97314 13.2589C9.78604 13.5716 10.4284 14.214 10.7411 15.0269L11.3205 16.5333C11.4286 16.8145 11.6988 17 12 17C12.3012 17 12.5714 16.8145 12.6795 16.5333L13.2589 15.0269C13.5716 14.214 14.214 13.5716 15.0269 13.2589L16.5333 12.6795C16.8145 12.5714 17 12.3012 17 12C17 11.6988 16.8145 11.4286 16.5333 11.3205L15.0269 10.7411C14.214 10.4284 13.5716 9.78604 13.2589 8.97314Z" fill="currentColor"/></svg>
