<svg xmlns="http://www.w3.org/2000/svg" viewBox="0 0 24 24" fill="none"><path d="M4 12H7M17 12H20M10 12H14" stroke="currentColor" stroke-width="2" stroke-linecap="round" stroke-linejoin="round"/><path d="M8.5 5C7.67157 5 7 5.67157 7 6.5V17.5C7 18.3284 7.67157 19 8.5 19C9.32843 19 10 18.3284 10 17.5V6.5C10 5.67157 9.32843 5 8.5 5Z" stroke="currentColor" stroke-width="2" stroke-linecap="round" stroke-linejoin="round"/><path d="M15.5 7C14.6716 7 14 7.67157 14 8.5V15.5C14 16.3284 14.6716 17 15.5 17C16.3284 17 17 16.3284 17 15.5V8.5C17 7.67157 16.3284 7 15.5 7Z" stroke="currentColor" stroke-width="2" stroke-linecap="round" stroke-linejoin="round"/></svg>
