<svg xmlns="http://www.w3.org/2000/svg" viewBox="0 0 24 24" fill="none"><path d="M12.5868 15.5859L8.4152 11.4144C7.63415 10.6333 6.35635 10.6251 5.62316 11.4513C3.13285 14.2573 2.21592 16.6447 3.5011 20.5002C7.35654 21.7853 9.74381 20.8683 12.5498 18.378C13.376 17.6448 13.3678 16.367 12.5868 15.5859Z" stroke="currentColor" stroke-width="2" stroke-linecap="round" stroke-linejoin="round"/><path d="M8.5 15.5L15.5 8.5" stroke="currentColor" stroke-width="2" stroke-linecap="round" stroke-linejoin="round"/><path d="M15.5003 4.49984L16.7931 3.20697C17.1837 2.81643 17.8168 2.81643 18.2074 3.20696L20.7931 5.79274C21.1837 6.18326 21.1837 6.81642 20.7932 7.20695L19.5003 8.49984C18.3957 9.60441 16.6049 9.60441 15.5003 8.49984C14.3957 7.39527 14.3957 5.60441 15.5003 4.49984Z" stroke="currentColor" stroke-width="2" stroke-linecap="round" stroke-linejoin="round"/></svg>
