<svg xmlns="http://www.w3.org/2000/svg" viewBox="0 0 24 24" fill="none"><path d="M16.5 20H7.5C5.567 20 4 18.433 4 16.5V10V7.5C4 5.567 5.567 4 7.5 4H16.5C18.433 4 20 5.567 20 7.5V10V16.5C20 18.433 18.433 20 16.5 20Z" stroke="currentColor" stroke-width="2" stroke-linecap="square" stroke-linejoin="round"/><path d="M20 10H4" stroke="currentColor" stroke-width="2" stroke-linecap="square" stroke-linejoin="round"/><path d="M12 13.375C12.4832 13.375 12.875 13.7668 12.875 14.25C12.875 14.7332 12.4832 15.125 12 15.125C11.5168 15.125 11.125 14.7332 11.125 14.25C11.125 13.7668 11.5168 13.375 12 13.375Z" fill="currentColor" stroke="currentColor" stroke-width="0.75" stroke-linecap="square"/></svg>
