<svg xmlns="http://www.w3.org/2000/svg" viewBox="0 0 24 24" fill="none"><path d="M6 16C8.20914 16 10 14.2091 10 12C10 9.79086 8.20914 8 6 8C3.79086 8 2 9.79086 2 12C2 14.2091 3.79086 16 6 16Z" stroke="currentColor" stroke-width="2" stroke-linecap="round" stroke-linejoin="round"/><path d="M18 16C20.2091 16 22 14.2091 22 12C22 9.79086 20.2091 8 18 8C15.7909 8 14 9.79086 14 12C14 14.2091 15.7909 16 18 16Z" stroke="currentColor" stroke-width="2" stroke-linecap="round" stroke-linejoin="round"/><path d="M1 10H2" stroke="currentColor" stroke-width="2" stroke-linecap="round" stroke-linejoin="round"/><path d="M22 10H23" stroke="currentColor" stroke-width="2" stroke-linecap="round" stroke-linejoin="round"/><path d="M9.72656 9.70829C10.3721 9.26165 11.1554 9 11.9998 9C12.8666 9 13.669 9.27571 14.3241 9.74423" stroke="currentColor" stroke-width="2" stroke-linecap="round" stroke-linejoin="round"/></svg>
