<svg xmlns="http://www.w3.org/2000/svg" viewBox="0 0 24 24" fill="none"><path d="M9 6H8.8C7.11984 6 6.27976 6 5.63803 6.32698C5.07354 6.6146 4.6146 7.07354 4.32698 7.63803C4 8.27976 4 9.11984 4 10.8V15.2C4 16.8802 4 17.7202 4.32698 18.362C4.6146 18.9265 5.07354 19.3854 5.63803 19.673C6.27976 20 7.11984 20 8.8 20H13.2C14.8802 20 15.7202 20 16.362 19.673C16.9265 19.3854 17.3854 18.9265 17.673 18.362C18 17.7202 18 16.8802 18 15.2V15" stroke="currentColor" stroke-width="2" stroke-linecap="round" stroke-linejoin="round"/><path d="M14 4H20M20 4V10M20 4L11 13" stroke="currentColor" stroke-width="2" stroke-linecap="round" stroke-linejoin="round"/></svg>
