<svg xmlns="http://www.w3.org/2000/svg" viewBox="0 0 24 24" fill="none"><path d="M11 3.14453C9.55426 3.57481 8.5 4.91408 8.5 6.49959C8.5 8.0851 9.55426 9.42438 11 9.85465" stroke="currentColor" stroke-width="2" stroke-linecap="round"/><path d="M11 13.0605C8.49721 13.367 6.5318 14.8192 5.43328 16.8626C4.59621 18.4196 6.02749 20.0003 7.79525 20.0003H11" stroke="currentColor" stroke-width="2" stroke-linecap="round" stroke-linejoin="round"/><circle cx="14" cy="3.25" r="1" fill="currentColor"/><circle cx="14" cy="6.5" r="1" fill="currentColor"/><circle cx="17" cy="5" r="0.75" fill="currentColor"/><circle cx="17" cy="8" r="0.75" fill="currentColor"/><circle cx="14" cy="9.75" r="1" fill="currentColor"/><circle cx="14" cy="13" r="1" fill="currentColor"/><circle cx="17" cy="13" r="0.75" fill="currentColor"/><circle cx="20" cy="16.5" r="0.75" fill="currentColor"/><circle cx="20" cy="20" r="0.75" fill="currentColor"/><circle cx="14" cy="16.5" r="1" fill="currentColor"/><circle cx="17" cy="16.5" r="1" fill="currentColor"/><circle cx="14" cy="20" r="1" fill="currentColor"/><circle cx="17" cy="20" r="1" fill="currentColor"/></svg>
