<svg xmlns="http://www.w3.org/2000/svg" viewBox="0 0 24 24" fill="none"><path d="M10 13.4882V14H10.5118C11.2455 14 11.6124 14 11.9577 13.9171C12.2638 13.8436 12.5564 13.7224 12.8249 13.5579C13.1276 13.3724 13.387 13.113 13.9059 12.5941L19.75 6.75C20.4404 6.05964 20.4404 4.94036 19.75 4.25C19.0596 3.55964 17.9404 3.55964 17.25 4.25L11.4059 10.0941C10.887 10.613 10.6276 10.8724 10.4421 11.1751C10.2776 11.4436 10.1564 11.7362 10.0829 12.0423C10 12.3876 10 12.7545 10 13.4882Z" stroke="currentColor" stroke-width="2" stroke-linecap="round" stroke-linejoin="round"/><path d="M16 6L18 8" stroke="currentColor" stroke-width="2" stroke-linecap="round" stroke-linejoin="round"/><path d="M11.0224 4.61194L8.3153 2.41243C7.98854 2.14694 7.5 2.37947 7.5 2.80049V7.19951C7.5 7.62053 7.98854 7.85306 8.3153 7.58757L11.0224 5.38806C11.2687 5.18796 11.2687 4.81204 11.0224 4.61194Z" fill="currentColor"/><path d="M12.9776 18.6119L15.6847 16.4124C16.0115 16.1469 16.5 16.3795 16.5 16.8005V21.1995C16.5 21.6205 16.0115 21.8531 15.6847 21.5876L12.9776 19.3881C12.7313 19.188 12.7313 18.812 12.9776 18.6119Z" fill="currentColor"/><path d="M8.5 5H7.8C6.11984 5 5.27976 5 4.63803 5.32698C4.07354 5.6146 3.6146 6.07354 3.32698 6.63803C3 7.27976 3 8.11984 3 9.8V14.2C3 15.8802 3 16.7202 3.32698 17.362C3.6146 17.9265 4.07354 18.3854 4.63803 18.673C5.27976 19 6.11984 19 7.8 19H9" stroke="currentColor" stroke-width="2" stroke-linecap="round" stroke-linejoin="round"/><path d="M15.5 19H16.2C17.8802 19 18.7202 19 19.362 18.673C19.9265 18.3854 20.3854 17.9265 20.673 17.362C21 16.7202 21 15.8802 21 14.2V12" stroke="currentColor" stroke-width="2" stroke-linecap="round" stroke-linejoin="round"/></svg>
