<svg xmlns="http://www.w3.org/2000/svg" viewBox="0 0 24 24" fill="none"><path d="M21 10V9.8C21 8.11984 21 7.27976 20.673 6.63803C20.3854 6.07354 19.9265 5.6146 19.362 5.32698C18.7202 5 17.8802 5 16.2 5H7.8C6.11984 5 5.27976 5 4.63803 5.32698C4.07354 5.6146 3.6146 6.07354 3.32698 6.63803C3 7.27976 3 8.11984 3 9.8V14.2C3 15.8802 3 16.7202 3.32698 17.362C3.6146 17.9265 4.07354 18.3854 4.63803 18.673C5.27976 19 6.11984 19 7.8 19H12" stroke="currentColor" stroke-width="2" stroke-linecap="round" stroke-linejoin="round"/><path d="M19.9999 6.23233L13.5358 10.0847C12.5895 10.6486 11.4104 10.6486 10.4641 10.0847L4 6.23233" stroke="currentColor" stroke-width="2" stroke-linecap="round" stroke-linejoin="round"/><path d="M19.0001 20.25L19.0001 19.25M19.0001 13.75V14.75M17.0516 18.125L16.1855 18.625M20.9487 15.875L21.8147 15.375M17.0516 15.875L16.1855 15.375M20.9487 18.125L21.8147 18.625M21.0001 17C21.0001 16.6356 20.9027 16.294 20.7325 15.9998C20.3866 15.4021 19.7403 15 19.0001 15C18.2599 15 17.6136 15.4021 17.2678 15.9999C17.0976 16.2941 17.0001 16.6357 17.0001 17C17.0001 17.3644 17.0976 17.706 17.2678 18.0002C17.6136 18.5979 18.2599 19 19.0001 19C19.7403 19 20.3866 18.5979 20.7325 18.0002C20.9027 17.706 21.0001 17.3644 21.0001 17Z" stroke="currentColor" stroke-width="2" stroke-linecap="round" stroke-linejoin="round"/></svg>
