<svg xmlns="http://www.w3.org/2000/svg" viewBox="0 0 24 24" fill="none"><path d="M14 10L16.0956 4.97065C16.3405 4.38287 16.9148 4 17.5515 4C18.3707 4 19.0525 4.6268 19.086 5.44526C19.1291 6.49874 19.1454 7.92405 19 9C18.7844 10.5957 18 13 18 13" stroke="currentColor" stroke-width="2" stroke-linejoin="round"/><path d="M14.5 13.0001C12.5465 12.491 10.7202 12.0577 8.79217 12.3426C8.31299 12.4134 7.82057 12.231 7.55191 11.828C7.23538 11.3531 7.31401 10.7109 7.79112 10.3978C10.5636 8.57801 15.3361 7.98345 14.5 13.0001ZM14.5 13.0001C16.2792 14.9304 17.0224 16.3022 16.4531 18.1086C16.179 18.9782 16.7119 20 17.6237 20C17.8681 20 18.1096 19.9235 18.2976 19.7672C21.9362 16.7422 19.7916 11.4881 14.5 13.0001Z" stroke="currentColor" stroke-width="2" stroke-linejoin="round"/><path d="M12 12.5C10.2264 14.7169 7.98324 16.0486 5.12514 16.4219C4.4993 16.5036 4 17.0158 4 17.647C4 18.0551 4.2097 18.4406 4.57214 18.6282C8.59172 20.7096 12.7767 18.7468 16 16.0714" stroke="currentColor" stroke-width="2" stroke-linejoin="round"/></svg>
