<svg xmlns="http://www.w3.org/2000/svg" viewBox="0 0 24 24" fill="none"><path d="M10 20H7.75C6.09315 20 4.69455 18.6232 5.20302 17.0463C6.12257 14.1946 8.42872 12 12 12" stroke="currentColor" stroke-width="2" stroke-linecap="round" stroke-linejoin="round"/><circle cx="12" cy="7.75" r="4.25" stroke="currentColor" stroke-width="2" stroke-linejoin="round"/><circle cx="19.0992" cy="15.4" r="0.9" fill="currentColor"/><path d="M18.8496 12.5498C20.5617 12.5498 21.9502 13.9383 21.9502 15.6504C21.95 17.3623 20.5616 18.75 18.8496 18.75C18.5179 18.75 18.199 18.6961 17.8994 18.5996L16.2929 20.2069C16.1054 20.3946 15.8509 20.5 15.5856 20.5H14V18.9141C14 18.6489 14.1053 18.3947 14.2927 18.2071L15.8994 16.5996C15.8032 16.3004 15.75 15.9816 15.75 15.6504C15.75 13.9384 17.1377 12.55 18.8496 12.5498Z" stroke="currentColor" stroke-width="2" stroke-linejoin="round"/></svg>
