<svg xmlns="http://www.w3.org/2000/svg" viewBox="0 0 24 24" fill="none"><path d="M15 8V6C15 4.34315 13.6569 3 12 3C10.3431 3 9 4.34315 9 6V8" stroke="currentColor" stroke-width="2" stroke-linecap="round"/><path d="M11 21H7.99683C6.15818 21 4.75214 19.3611 5.03172 17.5438L6.10864 10.5438C6.3338 9.08033 7.59304 8 9.07376 8H14.9262C16.407 8 17.6662 9.08033 17.8914 10.5438L18.0973 11.8824" stroke="currentColor" stroke-width="2" stroke-linecap="round" stroke-linejoin="round"/><path d="M19.2405 17.1852L18.5436 15.3733C18.4571 15.1484 18.241 15 18 15C17.759 15 17.5429 15.1484 17.4564 15.3733L16.7595 17.1852C16.658 17.4493 16.4493 17.658 16.1852 17.7595L14.3733 18.4564C14.1484 18.5429 14 18.759 14 19C14 19.241 14.1484 19.4571 14.3733 19.5436L16.1852 20.2405C16.4493 20.342 16.658 20.5507 16.7595 20.8148L17.4564 22.6267C17.5429 22.8516 17.759 23 18 23C18.241 23 18.4571 22.8516 18.5436 22.6267L19.2405 20.8148C19.342 20.5507 19.5507 20.342 19.8148 20.2405L21.6267 19.5436C21.8516 19.4571 22 19.241 22 19C22 18.759 21.8516 18.5429 21.6267 18.4564L19.8148 17.7595C19.5507 17.658 19.342 17.4493 19.2405 17.1852Z" fill="currentColor"/></svg>
