<svg xmlns="http://www.w3.org/2000/svg" viewBox="0 0 24 24" fill="none"><circle cx="11" cy="12" r="6" stroke="currentColor" stroke-width="2"/><path d="M13.5977 6.5C14.3331 6.17841 15.1454 6 15.9994 6C19.3131 6 21.9994 8.68629 21.9994 12C21.9994 15.3137 19.3131 18 15.9994 18C15.1454 18 14.3331 17.8216 13.5977 17.5" stroke="currentColor" stroke-width="2"/><path d="M10.5442 9.5C10.1948 10.2612 10 11.108 10 12.0004C10 12.9131 10.2038 13.7782 10.5683 14.5526" stroke="currentColor" stroke-width="2" stroke-linecap="round"/><path d="M1 12.0001L2 12M11.0001 22V21M11 3L11.0001 2M4.63605 5.63607L3.92902 4.9289M3.92902 19.0708L4.63613 18.3637" stroke="currentColor" stroke-width="2" stroke-linecap="round"/></svg>
