<svg xmlns="http://www.w3.org/2000/svg" viewBox="0 0 24 24" fill="none"><path d="M21 9V11" stroke="currentColor" stroke-width="2" stroke-linecap="round" stroke-linejoin="round"/><path d="M17.5 4V16" stroke="currentColor" stroke-width="2" stroke-linecap="round" stroke-linejoin="round"/><path d="M14 7V11" stroke="currentColor" stroke-width="2" stroke-linecap="round" stroke-linejoin="round"/><path d="M10.5 5V7.5" stroke="currentColor" stroke-width="2" stroke-linecap="round" stroke-linejoin="round"/><path d="M10.75 14.75C10.75 12.6789 9.07107 11 7 11M7 18.5C4.92893 18.5 3.25 16.8211 3.25 14.75" stroke="currentColor" stroke-width="1.92857" stroke-linecap="round" stroke-linejoin="round"/><path d="M7.5692 12.9776V8.87955C7.5692 8.37046 6.95369 8.11551 6.59371 8.47549L4.54469 10.5245C4.32153 10.7477 4.32153 11.1095 4.54469 11.3326L6.59371 13.3817C6.95369 13.7416 7.5692 13.4867 7.5692 12.9776Z" fill="currentColor"/><path d="M6.4308 20.5489V16.4508C6.4308 15.9418 7.04631 15.6868 7.40629 16.0468L9.45531 18.0958C9.67847 18.319 9.67847 18.6808 9.45531 18.9039L7.40629 20.9529C7.04631 21.3129 6.4308 21.058 6.4308 20.5489Z" fill="currentColor"/></svg>
