<svg xmlns="http://www.w3.org/2000/svg" viewBox="0 0 24 24" fill="none"><path d="M3 21H5C6.10457 21 7 20.1046 7 19C7 17.8954 6.10457 17 5 17C3.89543 17 3 17.8954 3 19V21Z" stroke="currentColor" stroke-width="2" stroke-linejoin="round"/><path d="M7.00098 13H4.76717C3.98987 13 3.50976 12.152 3.90968 11.4855L5.12707 9.45651C5.66924 8.5529 6.64576 8 7.69955 8H11.251C13.7671 5.25513 16.4925 3.3474 20.0017 3.04278C20.5519 2.99502 21.006 3.44906 20.9582 3.99927C20.6536 7.50845 18.7459 10.2339 16.001 12.75V16.3014C16.001 17.3552 15.4481 18.3317 14.5445 18.8739L12.5155 20.0913C11.849 20.4912 11.001 20.0111 11.001 19.2338V17L7.00098 13Z" stroke="currentColor" stroke-width="2" stroke-linejoin="round"/><path d="M7 13L11.25 8" stroke="currentColor" stroke-width="2" stroke-linejoin="round"/><path d="M16 12.75L11 17" stroke="currentColor" stroke-width="2" stroke-linejoin="round"/></svg>
