<svg xmlns="http://www.w3.org/2000/svg" viewBox="0 0 24 24" fill="none"><path d="M10 16.5C10 17.8807 8.88071 19 7.5 19C6.11929 19 5 17.8807 5 16.5C5 15.1193 6.11929 14 7.5 14C8.88071 14 10 15.1193 10 16.5Z" stroke="currentColor" stroke-width="2" stroke-linejoin="round"/><path d="M19 16.5C19 17.8807 17.8807 19 16.5 19C15.1193 19 14 17.8807 14 16.5C14 15.1193 15.1193 14 16.5 14C17.8807 14 19 15.1193 19 16.5Z" stroke="currentColor" stroke-width="2" stroke-linejoin="round"/><path d="M10 16H14" stroke="currentColor" stroke-width="2" stroke-linejoin="round"/><path d="M9 14V7H6.60555C5.60249 7 4.6658 7.5013 4.1094 8.3359L3.50385 9.24423C3.17531 9.73703 3 10.3161 3 10.9083V14.2857C3 15.2325 3.76751 16 4.71429 16" stroke="currentColor" stroke-width="2" stroke-linejoin="round"/><path d="M9 9V8C9 6.34315 10.3431 5 12 5H18C19.6569 5 21 6.34315 21 8V14C21 15.1046 20.1046 16 19 16" stroke="currentColor" stroke-width="2" stroke-linejoin="round"/></svg>
