<svg xmlns="http://www.w3.org/2000/svg" viewBox="0 0 24 24" fill="none"><path d="M5.17826 20.3426L3.22609 18.7809C2.48795 18.1904 2.9055 17 3.85078 17H20.1492C21.0945 17 21.5121 18.1904 20.7739 18.7809L18.8217 20.3426C18.2898 20.7682 17.6289 21 16.9477 21H7.05234C6.37113 21 5.7102 20.7682 5.17826 20.3426Z" stroke="currentColor" stroke-width="2" stroke-linecap="square" stroke-linejoin="round"/><path d="M13 17V3.76619C13 2.9889 12.1677 2.53205 11.5397 2.99012C9.49526 4.48146 5.83058 7.55954 4.04679 11.5511C3.75043 12.2142 4.31654 12.8988 5.0397 12.8307C9.22866 12.4362 13.8692 12.5123 18.0489 12.8648C18.7486 12.9238 19.2984 12.2708 19.0429 11.6168C17.8433 8.54607 15.6843 6.31061 13.5 5" stroke="currentColor" stroke-width="2" stroke-linecap="square" stroke-linejoin="round"/></svg>
