<svg xmlns="http://www.w3.org/2000/svg" viewBox="0 0 24 24" fill="none"><path d="M5.50039 4C5.50039 3.44772 5.05268 3 4.50039 3C3.94811 3 3.50039 3.44771 3.50039 4L5.50039 4ZM4.50039 8L3.50039 8C3.50039 8.26522 3.60575 8.51957 3.79328 8.70711C3.98082 8.89464 4.23517 9 4.50039 9V8ZM8.50049 9C9.05277 9 9.50049 8.55228 9.50049 8C9.50049 7.44772 9.05277 7 8.50049 7V9ZM3.61862 7.52477C3.35812 8.01176 3.54172 8.61772 4.02871 8.87822C4.5157 9.13872 5.12166 8.95512 5.38216 8.46813L3.61862 7.52477ZM4.5518 12.8836C4.48751 12.3351 3.99073 11.9425 3.4422 12.0068C2.89367 12.0711 2.50111 12.5679 2.56539 13.1164L4.5518 12.8836ZM18.0668 7.58885C18.392 8.03523 19.0175 8.13345 19.4638 7.80824C19.9102 7.48302 20.0084 6.85752 19.6832 6.41114L18.0668 7.58885ZM7.53306 20.386C8.02029 20.646 8.62608 20.4619 8.88612 19.9746C9.14616 19.4874 8.96199 18.8816 8.47475 18.6216L7.53306 20.386ZM3.50039 4L3.50039 8L5.50039 8L5.50039 4L3.50039 4ZM4.50039 9H8.50049V7H4.50039V9ZM5.38216 8.46813C6.64655 6.10445 9.13687 4.5 12.0004 4.5V2.5C8.37014 2.5 5.21709 4.53655 3.61862 7.52477L5.38216 8.46813ZM12.0004 4.5C14.4928 4.5 16.7013 5.71475 18.0668 7.58885L19.6832 6.41114C17.9576 4.04258 15.1591 2.5 12.0004 2.5V4.5ZM8.47475 18.6216C6.35423 17.4898 4.8433 15.371 4.5518 12.8836L2.56539 13.1164C2.93546 16.2742 4.85192 18.955 7.53306 20.386L8.47475 18.6216Z" fill="currentColor"/><path d="M12 20.0002L12.3586 17.4902C12.4504 16.8476 12.7481 16.2521 13.2071 15.7931L17.5 11.5002C18.3284 10.6718 19.6716 10.6718 20.5 11.5002C21.3284 12.3287 21.3284 13.6718 20.5 14.5002L16.2071 18.7931C15.7481 19.2521 15.1526 19.5499 14.5101 19.6416L12 20.0002Z" stroke="currentColor" stroke-width="2" stroke-linejoin="round"/><path d="M16.5 12.5L19.5 15.5" stroke="currentColor" stroke-width="2" stroke-linejoin="round"/></svg>
