<svg xmlns="http://www.w3.org/2000/svg" viewBox="0 0 24 24" fill="none"><path d="M14.3354 7.37976C14.8349 8.34235 15.8406 9 17 9C18.6569 9 20 7.65685 20 6C20 4.34315 18.6569 3 17 3C15.3431 3 14 4.34315 14 6C14 6.49749 14.1211 6.9667 14.3354 7.37976ZM14.3354 7.37976L8.66458 10.6202M8.66458 10.6202C8.16512 9.65765 7.15936 9 6 9C4.34315 9 3 10.3431 3 12C3 13.6569 4.34315 15 6 15C7.15936 15 8.16512 14.3424 8.66458 13.3798M8.66458 10.6202C8.8789 11.0333 9 11.5025 9 12C9 12.4975 8.8789 12.9667 8.66458 13.3798M8.66458 13.3798L14.3354 16.6202M14.3354 16.6202C14.1211 17.0333 14 17.5025 14 18C14 19.6569 15.3431 21 17 21C18.6569 21 20 19.6569 20 18C20 16.3431 18.6569 15 17 15C15.8406 15 14.8349 15.6576 14.3354 16.6202Z" stroke="currentColor" stroke-width="2"/></svg>
