<svg xmlns="http://www.w3.org/2000/svg" viewBox="0 0 24 24" fill="none"><path d="M12 3C8.13401 3 5 6.13401 5 10C5 12.5463 6.35958 14.7751 8.39241 16C8.75337 16.2175 9 16.5949 9 17.0163V19C9 20.6569 10.3431 22 12 22C13.6569 22 15 20.6569 15 19V17.0163C15 16.5949 15.2466 16.2175 15.6076 16C17.6404 14.7751 19 12.5463 19 10C19 6.13401 15.866 3 12 3Z" stroke="currentColor" stroke-width="2" stroke-linejoin="round"/><path d="M15 18H9" stroke="currentColor" stroke-width="2" stroke-linecap="square" stroke-linejoin="round"/><path d="M13.2405 8.18518L12.5436 6.37334C12.4571 6.14842 12.241 6 12 6C11.759 6 11.5429 6.14842 11.4564 6.37334L10.7595 8.18518C10.658 8.44927 10.4493 8.65797 10.1852 8.75955L8.37334 9.45641C8.14842 9.54292 8 9.75901 8 10C8 10.241 8.14842 10.4571 8.37334 10.5436L10.1852 11.2405C10.4493 11.342 10.658 11.5507 10.7595 11.8148L11.4564 13.6267C11.5429 13.8516 11.759 14 12 14C12.241 14 12.4571 13.8516 12.5436 13.6267L13.2405 11.8148C13.342 11.5507 13.5507 11.342 13.8148 11.2405L15.6267 10.5436C15.8516 10.4571 16 10.241 16 10C16 9.75901 15.8516 9.54292 15.6267 9.45641L13.8148 8.75955C13.5507 8.65797 13.342 8.44927 13.2405 8.18518Z" fill="currentColor"/></svg>
