<svg xmlns="http://www.w3.org/2000/svg" viewBox="0 0 24 24" fill="none"><path d="M21 13V17C21 18.6569 19.6569 20 18 20H6C4.34315 20 3 18.6569 3 17V9.93125C3 8.31236 4.31236 7 5.93125 7C6.91132 7 7.82654 6.51019 8.37019 5.69472L8.6094 5.3359C9.1658 4.5013 10.1025 4 11.1056 4H12" stroke="currentColor" stroke-width="2" stroke-linecap="round" stroke-linejoin="round"/><circle cx="12" cy="13" r="3" stroke="currentColor" stroke-width="2" stroke-linecap="square" stroke-linejoin="round"/><path d="M20.2405 4.18518L19.5436 2.37334C19.4571 2.14842 19.241 2 19 2C18.759 2 18.5429 2.14842 18.4564 2.37334L17.7595 4.18518C17.658 4.44927 17.4493 4.65797 17.1852 4.75955L15.3733 5.45641C15.1484 5.54292 15 5.75901 15 6C15 6.24099 15.1484 6.45708 15.3733 6.54359L17.1852 7.24045C17.4493 7.34203 17.658 7.55073 17.7595 7.81482L18.4564 9.62666C18.5429 9.85158 18.759 10 19 10C19.241 10 19.4571 9.85158 19.5436 9.62666L20.2405 7.81482C20.342 7.55073 20.5507 7.34203 20.8148 7.24045L22.6267 6.54359C22.8516 6.45708 23 6.24099 23 6C23 5.75901 22.8516 5.54292 22.6267 5.45641L20.8148 4.75955C20.5507 4.65797 20.342 4.44927 20.2405 4.18518Z" fill="currentColor"/></svg>
