<svg xmlns="http://www.w3.org/2000/svg" viewBox="0 0 24 24" fill="none"><circle cx="12" cy="10" r="7.5" stroke="currentColor" stroke-width="2"/><path d="M8 16.5V22L12 21L16 22V16.5" stroke="currentColor" stroke-width="2" stroke-linecap="round" stroke-linejoin="round"/><path d="M10.128 13.4996C9.62366 13.4996 9.21481 13.0907 9.21481 12.5864C9.21481 12.3231 9.3284 12.0727 9.52646 11.8993L12.0001 9.73358C12.2089 9.54466 12.3867 9.37189 12.5333 9.21529C12.68 9.0562 12.7919 8.89711 12.8689 8.73801C12.946 8.57644 12.9845 8.40119 12.9845 8.21227C12.9845 8.00098 12.9385 7.82076 12.8466 7.67161C12.7546 7.51998 12.6278 7.40314 12.4662 7.32111C12.3046 7.23908 12.1195 7.19806 11.9107 7.19806C11.6994 7.19806 11.5142 7.24157 11.3551 7.32857C11.196 7.41309 11.0717 7.53613 10.9822 7.69771C10.8226 7.99415 10.5788 8.28684 10.2421 8.28684H9.97732C9.49442 8.28684 9.08118 7.88474 9.23005 7.42535C9.28602 7.25262 9.36049 7.0911 9.45344 6.94079C9.68711 6.56294 10.0152 6.27211 10.4378 6.06827C10.8629 5.86195 11.3563 5.75879 11.9181 5.75879C12.4973 5.75879 13.0007 5.85573 13.4282 6.04963C13.8558 6.24352 14.1864 6.51447 14.4201 6.86248C14.6562 7.20801 14.7743 7.60946 14.7743 8.06685C14.7743 8.35769 14.7159 8.64604 14.599 8.93191C14.4822 9.21777 14.2722 9.53347 13.9689 9.87899C13.6681 10.2245 13.2406 10.6384 12.6862 11.1207L11.7727 11.9633V12.0118H14.1236C14.5345 12.0118 14.8675 12.3449 14.8675 12.7557C14.8675 13.1665 14.5345 13.4996 14.1236 13.4996H10.128Z" fill="currentColor"/></svg>
