<svg xmlns="http://www.w3.org/2000/svg" viewBox="0 0 24 24" fill="none"><path d="M2 13H4" stroke="currentColor" stroke-width="2" stroke-linecap="round" stroke-linejoin="round"/><path d="M5.5 9.5L4 8" stroke="currentColor" stroke-width="2" stroke-linecap="round" stroke-linejoin="round"/><path d="M15.7482 9.25019L13.7482 11.2502C13.0579 11.9405 11.9386 11.9405 11.2482 11.2502C10.5579 10.5598 10.5579 9.44054 11.2482 8.75019L15.2482 4.75019C15.9386 4.05983 17.0579 4.05983 17.7482 4.75019C18.4386 5.44055 18.4386 6.55983 17.7482 7.25019L15.7482 9.25019ZM15.7482 9.25019L20.4982 14.0002" stroke="currentColor" stroke-width="2" stroke-linecap="round" stroke-linejoin="round"/><path d="M15 20H16M15 20L14.6838 19.0513C14.2754 17.8263 13.129 17 11.8377 17H7.16228C5.87099 17 4.72457 17.8263 4.31623 19.0513L4 20M15 20H4M3 20H4" stroke="currentColor" stroke-width="2" stroke-linecap="round" stroke-linejoin="round"/></svg>
