<svg xmlns="http://www.w3.org/2000/svg" viewBox="0 0 24 24" fill="none"><path d="M12 3.5V4.5M12 20.5V19.5M3.50001 12H4.50001M20.5 12H19.5M7.74999 4.63879L8.24999 5.50481M16.25 19.3612L15.75 18.4952M4.63878 16.25L5.50481 15.75M19.3612 7.75L18.4952 8.25M4.63879 7.75002L5.50481 8.25002M19.3612 16.25L18.4952 15.75M7.75001 19.3612L8.25001 18.4952M16.25 4.63879L15.75 5.50482M9.5 9C9.5 9.27614 9.27614 9.5 9 9.5C8.72386 9.5 8.5 9.27614 8.5 9M9.5 9C9.5 8.72386 9.27614 8.5 9 8.5C8.72386 8.5 8.5 8.72386 8.5 9M9.5 9H8.5M9.5 15C9.5 15.2761 9.27614 15.5 9 15.5C8.72386 15.5 8.5 15.2761 8.5 15M9.5 15C9.5 14.7239 9.27614 14.5 9 14.5C8.72386 14.5 8.5 14.7239 8.5 15M9.5 15H8.5M15.5 9C15.5 9.27614 15.2761 9.5 15 9.5C14.7239 9.5 14.5 9.27614 14.5 9M15.5 9C15.5 8.72386 15.2761 8.5 15 8.5C14.7239 8.5 14.5 8.72386 14.5 9M15.5 9H14.5M15.5 15C15.5 15.2761 15.2761 15.5 15 15.5C14.7239 15.5 14.5 15.2761 14.5 15M15.5 15C15.5 14.7239 15.2761 14.5 15 14.5C14.7239 14.5 14.5 14.7239 14.5 15M15.5 15H14.5M10.5858 10.5858L10.25 10.25M13.4142 10.5858L13.75 10.25M13.4142 13.4142L13.75 13.75M10.5858 13.4142L10.25 13.75M21 12C21 16.9706 16.9706 21 12 21C7.02944 21 3 16.9706 3 12C3 7.02944 7.02944 3 12 3C16.9706 3 21 7.02944 21 12ZM13.5 12C13.5 12.8284 12.8284 13.5 12 13.5C11.1716 13.5 10.5 12.8284 10.5 12C10.5 11.1716 11.1716 10.5 12 10.5C12.8284 10.5 13.5 11.1716 13.5 12Z" stroke="currentColor" stroke-width="2" stroke-linecap="round"/></svg>
