<svg xmlns="http://www.w3.org/2000/svg" viewBox="0 0 24 24" fill="none"><path d="M7.29289 4.29289C7.10536 4.10536 6.851 4 6.58579 4H5C4.44772 4 4 4.44772 4 5V6.58579C4 6.851 4.10536 7.10536 4.29289 7.29289L4.58579 7.58579C5.36683 8.36683 5.36684 9.63316 4.58579 10.4142L4.29289 10.7071C4.10536 10.8946 4 11.149 4 11.4142V12.5858C4 12.851 4.10536 13.1054 4.29289 13.2929L4.58579 13.5858C4.986 13.986 5.18115 14.5136 5.17121 15.0381C5.16176 15.5372 4.96662 16.0334 4.58579 16.4142L4.29289 16.7071C4.10536 16.8946 4 17.149 4 17.4142V19C4 19.5523 4.44772 20 5 20H6.58579C6.851 20 7.10536 19.8946 7.29289 19.7071L7.58579 19.4142C8.36683 18.6332 9.63316 18.6332 10.4142 19.4142L10.7071 19.7071C10.8946 19.8946 11.149 20 11.4142 20H12.5858C12.851 20 13.1054 19.8946 13.2929 19.7071L13.5858 19.4142C14.3668 18.6332 15.6332 18.6332 16.4142 19.4142L16.7071 19.7071C16.8946 19.8946 17.149 20 17.4142 20H19C19.5523 20 20 19.5523 20 19V17.4142C20 17.149 19.8946 16.8946 19.7071 16.7071L19.4142 16.4142C19.0777 16.0777 18.8861 15.651 18.8396 15.2119C18.7782 14.6319 18.9697 14.0303 19.4142 13.5858L19.7071 13.2929C19.8946 13.1054 20 12.851 20 12.5858V11.4142C20 11.149 19.8946 10.8946 19.7071 10.7071L19.4142 10.4142C18.6332 9.63317 18.6332 8.36684 19.4142 7.58579L19.7071 7.29289C19.8946 7.10536 20 6.851 20 6.58579V5C20 4.44772 19.5523 4 19 4H17.4142C17.149 4 16.8946 4.10536 16.7071 4.29289L16.4142 4.58579C15.6332 5.36683 14.3668 5.36684 13.5858 4.58579L13.2929 4.29289C13.1054 4.10536 12.851 4 12.5858 4H11.4142C11.149 4 10.8946 4.10536 10.7071 4.29289L10.4142 4.58579C9.63317 5.36683 8.36684 5.36684 7.58579 4.58579L7.29289 4.29289Z" stroke="currentColor" stroke-width="2" stroke-linejoin="round"/><path d="M12 8.5C10.067 8.5 8.5 10.067 8.5 12C8.5 12.5416 8.62302 13.0545 8.84264 13.5122C10.6925 13.3841 12.2026 14.292 13.9251 14.9235C14.8739 14.2974 15.5 13.2218 15.5 12C15.5 10.067 13.933 8.5 12 8.5Z" stroke="currentColor" stroke-width="2" stroke-linejoin="round"/><path d="M13.9258 14.9233C15.3251 15.4363 16.8646 15.767 18.8403 15.2118" stroke="currentColor" stroke-width="2" stroke-linejoin="round"/><path d="M5.17188 15.0381C6.58202 14.0097 7.76987 13.5865 8.84331 13.5122" stroke="currentColor" stroke-width="2" stroke-linejoin="round"/></svg>
