<svg xmlns="http://www.w3.org/2000/svg" viewBox="0 0 24 24" fill="none"><path d="M12 7.5V6.5M12 16.5V17.5M14.1655 9C13.7333 8.4022 12.9254 8 12 8H11.7222C10.4949 8 9.5 8.79594 9.5 9.77778V9.8541C9.5 10.5564 9.99598 11.1984 10.7812 11.5125L13.2188 12.4875C14.004 12.8016 14.5 13.4436 14.5 14.1459C14.5 15.1699 13.4624 16 12.1824 16H12C11.0746 16 10.2667 15.5978 9.83446 15M21 12C21 16.9706 16.9706 21 12 21C7.02944 21 3 16.9706 3 12C3 7.02944 7.02944 3 12 3C16.9706 3 21 7.02944 21 12Z" stroke="currentColor" stroke-width="2" stroke-linecap="round" stroke-linejoin="round"/></svg>
