<svg xmlns="http://www.w3.org/2000/svg" viewBox="0 0 24 24" fill="none"><path d="M13.5 3H10.5C9.67157 3 9 3.67157 9 4.5V6.12868C9 6.5265 9.15804 6.90804 9.43934 7.18934L11.2929 9.04289C11.6834 9.43342 12.3166 9.43342 12.7071 9.04289L14.5607 7.18934C14.842 6.90804 15 6.5265 15 6.12868V4.5C15 3.67157 14.3284 3 13.5 3Z" stroke="currentColor" stroke-width="2" stroke-linecap="square" stroke-linejoin="round"/><path d="M21 13.5V10.5C21 9.67157 20.3284 9 19.5 9H17.8713C17.4735 9 17.092 9.15804 16.8107 9.43934L14.9571 11.2929C14.5666 11.6834 14.5666 12.3166 14.9571 12.7071L16.8107 14.5607C17.092 14.842 17.4735 15 17.8713 15H19.5C20.3284 15 21 14.3284 21 13.5Z" stroke="currentColor" stroke-width="2" stroke-linecap="square" stroke-linejoin="round"/><path d="M10.5 21H13.5C14.3284 21 15 20.3284 15 19.5V17.8713C15 17.4735 14.842 17.092 14.5607 16.8107L12.7071 14.9571C12.3166 14.5666 11.6834 14.5666 11.2929 14.9571L9.43934 16.8107C9.15804 17.092 9 17.4735 9 17.8713V19.5C9 20.3284 9.67157 21 10.5 21Z" stroke="currentColor" stroke-width="2" stroke-linecap="square" stroke-linejoin="round"/><path d="M3 10.5L3 13.5C3 14.3284 3.67157 15 4.5 15H6.12868C6.5265 15 6.90804 14.842 7.18934 14.5607L9.04289 12.7071C9.43342 12.3166 9.43342 11.6834 9.04289 11.2929L7.18934 9.43934C6.90804 9.15804 6.5265 9 6.12868 9H4.5C3.67157 9 3 9.67157 3 10.5Z" stroke="currentColor" stroke-width="2" stroke-linecap="square" stroke-linejoin="round"/></svg>
