<svg xmlns="http://www.w3.org/2000/svg" viewBox="0 0 24 24" fill="none"><path d="M17.5009 11.5443C17.2357 10.0317 17.0405 8.4864 16.8733 6.7666C16.7216 5.20693 15.4255 4 13.8585 4H8.92346C7.35644 4 6.06035 5.20693 5.9087 6.7666C5.48887 11.0844 4.89275 14.3023 3.45434 18.6645C3.23866 19.3185 3.72054 20 4.40924 20H9.00027" stroke="currentColor" stroke-width="2" stroke-linecap="round" stroke-linejoin="round"/><path d="M9 17C9 13.6863 11.6863 11 15 11C18.3137 11 21 13.6863 21 17V19C21 19.5523 20.5523 20 20 20H9V17Z" stroke="currentColor" stroke-width="2" stroke-linecap="round" stroke-linejoin="round"/><path d="M9.5 16H20.5" stroke="currentColor" stroke-width="2" stroke-linecap="round"/></svg>
