<svg xmlns="http://www.w3.org/2000/svg" viewBox="0 0 24 24" fill="none"><path d="M20.002 7C20.002 5.34315 18.6588 4 17.002 4H7.00195C5.3451 4 4.00195 5.34315 4.00195 7V21.5L7.75875 19.152C7.91768 19.0527 8.10133 19 8.28875 19H17.002C18.6588 19 20.002 17.6569 20.002 16V7Z" stroke="currentColor" stroke-width="2" stroke-linecap="square" stroke-linejoin="round"/><path d="M7.125 11.5C7.125 11.9832 7.51675 12.375 8 12.375C8.48325 12.375 8.875 11.9832 8.875 11.5C8.875 11.0168 8.48325 10.625 8 10.625C7.51675 10.625 7.125 11.0168 7.125 11.5ZM11.125 11.5C11.125 11.9832 11.5168 12.375 12 12.375C12.4832 12.375 12.875 11.9832 12.875 11.5C12.875 11.0168 12.4832 10.625 12 10.625C11.5168 10.625 11.125 11.0168 11.125 11.5ZM15.125 11.5C15.125 11.9832 15.5168 12.375 16 12.375C16.4832 12.375 16.875 11.9832 16.875 11.5C16.875 11.0168 16.4832 10.625 16 10.625C15.5168 10.625 15.125 11.0168 15.125 11.5Z" fill="currentColor" stroke="currentColor" stroke-width="0.75" stroke-linecap="square"/></svg>
