<svg xmlns="http://www.w3.org/2000/svg" viewBox="0 0 24 24" fill="none"><path d="M16.3284 4.17157L13.5 7L6.78288 4.62925C5.69344 4.24475 4.48002 4.51998 3.6631 5.3369L3 6L9.5 11L7.5 13H6.74264C5.94699 13 5.18393 13.3161 4.62132 13.8787L3 15.5L5.72319 16.5212C6.53446 16.8254 7.17458 17.4655 7.4788 18.2768L8.5 21L10.1213 19.3787C10.6839 18.8161 11 18.053 11 17.2574V16.5L13 14.5L18 21L18.6631 20.3369C19.48 19.52 19.7553 18.3066 19.3707 17.2171L17 10.5L19.8284 7.67157C20.5786 6.92143 21 5.90401 21 4.84315V3H19.1569C18.096 3 17.0786 3.42143 16.3284 4.17157Z" stroke="currentColor" stroke-width="2" stroke-linecap="round" stroke-linejoin="round"/></svg>
