<svg xmlns="http://www.w3.org/2000/svg" viewBox="0 0 24 24" fill="none"><path fill-rule="evenodd" clip-rule="evenodd" d="M11.3161 3.18487C11.7576 3.02432 12.2416 3.02431 12.6831 3.18487L20.7569 6.1208C22.5123 6.75911 22.5123 9.24166 20.7569 9.87998L12.6831 12.8159C12.2416 12.9765 11.7576 12.9765 11.3161 12.8159L3.2423 9.87998C1.48695 9.24167 1.48693 6.75912 3.24229 6.1208L11.3161 3.18487ZM20.0734 8.00039L11.9996 5.06445L3.92578 8.00039L11.9996 10.9363L20.0734 8.00039Z" fill="currentColor"/><path d="M20.7569 13.88L12.6831 16.8159C12.2416 16.9765 11.7576 16.9765 11.3161 16.8159L3.2423 13.88C2.10327 13.4658 1.70334 12.2751 2.04252 11.3156L11.9996 14.9363L21.9567 11.3156C22.2959 12.2751 21.896 13.4658 20.7569 13.88Z" fill="currentColor"/><path d="M20.7569 17.88L12.6831 20.8159C12.2416 20.9765 11.7576 20.9765 11.3161 20.8159L3.2423 17.88C2.10327 17.4658 1.70334 16.2751 2.04252 15.3156L11.9996 18.9363L21.9567 15.3156C22.2959 16.2751 21.896 17.4658 20.7569 17.88Z" fill="currentColor"/></svg>
