<svg xmlns="http://www.w3.org/2000/svg" viewBox="0 0 24 24" fill="none"><path d="M21 12C21 16.9706 16.9706 21 12 21C7.02944 21 3 16.9706 3 12C3 7.02944 7.02944 3 12 3C16.9706 3 21 7.02944 21 12Z" stroke="currentColor" stroke-width="2" stroke-linecap="round" stroke-linejoin="round"/><path d="M14.025 16.8649C14.5753 16.8649 15.0783 16.554 15.3244 16.0618C15.6512 15.4083 15.4417 14.6138 14.8353 14.2063L13.6167 13.3874C13.2308 13.1281 12.783 12.9759 12.3191 12.9463L11.6758 12.9052C11.3332 12.8833 10.9977 13.0096 10.7546 13.2519C10.3497 13.6553 10.2864 14.2886 10.6034 14.7641L11.2525 15.7378C11.722 16.4419 12.5123 16.8649 13.3586 16.8649H14.025Z" stroke="currentColor" stroke-width="2" stroke-linecap="round" stroke-linejoin="round"/><path d="M4.17188 8.07009L6.85418 10.0833C7.50947 10.5751 8.45007 10.3548 8.81868 9.62304C8.99052 9.28191 9.30216 9.03232 9.67258 8.93913L11.2808 8.53456C12.3247 8.27196 13.1393 7.45617 13.4004 6.41192L14.1264 3.50879" stroke="currentColor" stroke-width="2" stroke-linecap="round" stroke-linejoin="round"/></svg>
