<svg xmlns="http://www.w3.org/2000/svg" viewBox="0 0 24 24" fill="none"><path d="M4.5 17.4999L2 19.9999M6.5 19.4999L5 20.9999M3 12.4999C3 12.4999 6.76997 13.7699 8.5 15.4999C10.23 17.23 11.5 20.9999 11.5 20.9999L13.9524 18.8979C14.6173 18.3279 15 17.4959 15 16.6201V14.9999C19 12.9999 21.5 9.99992 21 2.99992C14 2.49992 11 4.99992 9 8.99992H7.3798C6.50403 8.99992 5.67198 9.38261 5.10203 10.0475L3 12.4999ZM17 8.49994C17 9.32837 16.3284 9.99994 15.5 9.99994C14.6716 9.99994 14 9.32837 14 8.49994C14 7.67151 14.6716 6.99994 15.5 6.99994C16.3284 6.99994 17 7.67151 17 8.49994Z" stroke="currentColor" stroke-width="2" stroke-linecap="round" stroke-linejoin="round"/></svg>
