<svg xmlns="http://www.w3.org/2000/svg" viewBox="0 0 24 24" fill="none"><path d="M11.5 21C10.6716 21 10 20.3284 10 19.5V18.5C10 17.6716 10.6716 17 11.5 17H12.5C13.3284 17 14 17.6716 14 18.5V19.5C14 20.3284 13.3284 21 12.5 21H11.5Z" stroke="currentColor" stroke-width="2" stroke-linecap="square" stroke-linejoin="round"/><path d="M11.5 7C10.6716 7 10 6.32843 10 5.5V4.5C10 3.67157 10.6716 3 11.5 3L12.5 3C13.3284 3 14 3.67157 14 4.5V5.5C14 6.32843 13.3284 7 12.5 7H11.5Z" stroke="currentColor" stroke-width="2" stroke-linecap="square" stroke-linejoin="round"/><path d="M3 11.5C3 10.6716 3.67157 10 4.5 10H5.5C6.32843 10 7 10.6716 7 11.5V12.5C7 13.3284 6.32843 14 5.5 14H4.5C3.67157 14 3 13.3284 3 12.5L3 11.5Z" stroke="currentColor" stroke-width="2" stroke-linecap="square" stroke-linejoin="round"/><path d="M19.5 14C20.3284 14 21 13.3284 21 12.5V11.5C21 10.6716 20.3284 10 19.5 10H18.5C17.6716 10 17 10.6716 17 11.5V12.5C17 13.3284 17.6716 14 18.5 14H19.5Z" stroke="currentColor" stroke-width="2" stroke-linecap="square" stroke-linejoin="round"/><path d="M5.45898 9.50009C6.16846 7.64512 7.64439 6.16919 9.49936 5.45972" stroke="currentColor" stroke-width="2" stroke-linecap="square" stroke-linejoin="round"/><path d="M14.5 5.45972C16.355 6.16919 17.8309 7.64512 18.5404 9.50009" stroke="currentColor" stroke-width="2" stroke-linecap="square" stroke-linejoin="round"/><path d="M9.49936 18.5404C7.64439 17.8309 6.16846 16.355 5.45898 14.5" stroke="currentColor" stroke-width="2" stroke-linecap="square" stroke-linejoin="round"/><path d="M18.5404 14.5C17.8309 16.355 16.355 17.8309 14.5 18.5404" stroke="currentColor" stroke-width="2" stroke-linecap="square" stroke-linejoin="round"/></svg>
