<svg xmlns="http://www.w3.org/2000/svg" viewBox="0 0 24 24" fill="none"><path d="M10.53 3.82729C11.4432 3.31361 12.5583 3.31361 13.4715 3.82729L18.4716 6.63977C19.4162 7.17112 20.0008 8.17067 20.0008 9.2545L20.0008 14.7454C20.0008 15.8292 19.4162 16.8288 18.4715 17.3601L13.4715 20.1726C12.5583 20.6863 11.4432 20.6863 10.53 20.1726L5.53008 17.3604C4.58539 16.8291 4.00077 15.8295 4.00077 14.7456L4.00077 9.25448C4.00077 8.17065 4.58536 7.17109 5.53 6.63974L10.53 3.82729Z" stroke="currentColor" stroke-width="2" stroke-linecap="square" stroke-linejoin="round"/><path d="M18.4708 6.63975L13.4708 3.82728C12.5575 3.3136 11.4425 3.3136 10.5292 3.82728L5.52924 6.63973C4.58459 7.17108 4 8.17064 4 9.25447V14.7456C4 15.8295 4.58463 16.8291 5.52931 17.3604L10.5293 20.1726C11.4425 20.6863 12.5575 20.6863 13.4707 20.1726L18.4708 17.3601C19.4154 16.8288 20 15.8292 20 14.7454V9.25449C20 8.17066 19.4154 7.17111 18.4708 6.63975Z" stroke="currentColor" stroke-width="2" stroke-linecap="square" stroke-linejoin="round"/><path d="M12 15C13.6569 15 15 13.6569 15 12C15 10.3431 13.6569 9 12 9C10.3431 9 9 10.3431 9 12C9 13.6569 10.3431 15 12 15Z" stroke="currentColor" stroke-width="2" stroke-linecap="square" stroke-linejoin="round"/></svg>
