<svg xmlns="http://www.w3.org/2000/svg" viewBox="0 0 24 24" fill="none"><path d="M13.8182 14.5L12 10.5L10.1818 14.5M13.8182 14.5L14.5 16M13.8182 14.5H10.1818M10.1818 14.5L9.5 16M3 9.93125V17C3 18.6569 4.34315 20 6 20H18C19.6569 20 21 18.6569 21 17V9.93124C21 8.31236 19.6876 7 18.0688 7C17.0887 7 16.1735 6.51019 15.6298 5.69472L15.3906 5.3359C14.8342 4.5013 13.8975 4 12.8944 4H11.1056C10.1025 4 9.1658 4.5013 8.6094 5.3359L8.37019 5.69472C7.82654 6.51019 6.91132 7 5.93125 7C4.31236 7 3 8.31236 3 9.93125Z" stroke="currentColor" stroke-width="2" stroke-linecap="round" stroke-linejoin="round"/></svg>
