<svg xmlns="http://www.w3.org/2000/svg" viewBox="0 0 24 24" fill="none"><path d="M6.77451 7.74515C6.9395 8.00728 7.27809 8.11204 7.55116 7.96587L8.20202 7.61747C8.54332 7.43478 8.67336 7.00744 8.46716 6.67981C8.26095 6.35219 7.82077 6.28639 7.50834 6.51496L6.9125 6.95085C6.66252 7.13372 6.60953 7.48302 6.77451 7.74515Z" fill="currentColor"/><path d="M15.5296 6.67981C15.3234 7.00743 15.4535 7.43478 15.7948 7.61747L16.4456 7.96587C16.7187 8.11204 17.0573 8.00728 17.2223 7.74515C17.3872 7.48302 17.3342 7.13372 17.0843 6.95085L16.4884 6.51496C16.176 6.28639 15.7358 6.35219 15.5296 6.67981Z" fill="currentColor"/><path d="M7.68746 9.78284C7.77302 10.0802 8.0691 10.2765 8.37176 10.2122L9.09395 10.0588C9.47291 9.97833 9.7166 9.60207 9.60946 9.22977C9.50233 8.85747 9.0979 8.67371 8.73405 8.80674L8.04065 9.06027C7.75005 9.16652 7.60189 9.4855 7.68746 9.78284Z" fill="currentColor"/><path d="M14.3873 9.22977C14.2802 9.60207 14.5239 9.97833 14.9028 10.0588L15.625 10.2122C15.9277 10.2765 16.2238 10.0802 16.3093 9.78284C16.3949 9.4855 16.2467 9.16652 15.9561 9.06027L15.2627 8.80674C14.8989 8.67371 14.4944 8.85747 14.3873 9.22977Z" fill="currentColor"/><path d="M8.53965 11.3996C8.23003 11.421 7.99839 11.6896 7.99839 11.9999C7.99839 12.3103 8.23002 12.5788 8.53965 12.6002L9.27577 12.6512C9.66153 12.6779 9.99839 12.3866 9.99839 11.9999C9.99839 11.6132 9.66153 11.322 9.27577 11.3487L8.53965 11.3996Z" fill="currentColor"/><path d="M14.721 11.3487C14.3352 11.322 13.9984 11.6132 13.9984 11.9999C13.9984 12.3866 14.3352 12.6779 14.721 12.6512L15.4571 12.6002C15.7667 12.5788 15.9984 12.3103 15.9984 11.9999C15.9984 11.6896 15.7667 11.421 15.4571 11.3996L14.721 11.3487Z" fill="currentColor"/><path d="M7.68746 14.217C7.60189 14.5143 7.75005 14.8333 8.04065 14.9396L8.73405 15.1931C9.0979 15.3261 9.50233 15.1424 9.60946 14.7701C9.7166 14.3978 9.47291 14.0215 9.09395 13.941L8.37176 13.7876C8.0691 13.7233 7.77302 13.9197 7.68746 14.217Z" fill="currentColor"/><path d="M14.3873 14.7701C14.4944 15.1424 14.8989 15.3261 15.2627 15.1931L15.9561 14.9396C16.2467 14.8333 16.3949 14.5143 16.3093 14.217C16.2238 13.9197 15.9277 13.7233 15.625 13.7876L14.9028 13.941C14.5239 14.0215 14.2802 14.3978 14.3873 14.7701Z" fill="currentColor"/><path d="M6.77451 16.2547C6.60953 16.5168 6.66253 16.8661 6.9125 17.049L7.50834 17.4849C7.82077 17.7134 8.26095 17.6477 8.46716 17.32C8.67336 16.9924 8.54332 16.5651 8.20202 16.3824L7.55116 16.034C7.27809 15.8878 6.9395 15.9926 6.77451 16.2547Z" fill="currentColor"/><path d="M15.5296 17.32C15.7358 17.6477 16.176 17.7134 16.4884 17.4849L17.0843 17.049C17.3342 16.8661 17.3872 16.5168 17.2223 16.2547C17.0573 15.9926 16.7187 15.8878 16.4456 16.034L15.7947 16.3824C15.4535 16.5651 15.3234 16.9924 15.5296 17.32Z" fill="currentColor"/><path fill-rule="evenodd" clip-rule="evenodd" d="M12 2C6.47715 2 2 6.47715 2 12C2 17.5228 6.47715 22 12 22C17.5228 22 22 17.5228 22 12C22 6.47715 17.5228 2 12 2ZM4 12C4 7.58172 7.58172 4 12 4C16.4183 4 20 7.58172 20 12C20 16.4183 16.4183 20 12 20C7.58172 20 4 16.4183 4 12Z" fill="currentColor"/></svg>
