<svg xmlns="http://www.w3.org/2000/svg" viewBox="0 0 24 24" fill="none"><path d="M6.50612 6.38957C6.44513 6.93848 6.84066 7.43289 7.38957 7.49388C7.93848 7.55487 8.43289 7.15934 8.49388 6.61043L6.50612 6.38957ZM7.70348 4.6687L8.69736 4.77914V4.77914L7.70348 4.6687ZM16.2965 4.66871L17.2904 4.55827L16.2965 4.66871ZM15.5061 6.61043C15.5671 7.15934 16.0615 7.55487 16.6104 7.49388C17.1593 7.43289 17.5549 6.93848 17.4939 6.38957L15.5061 6.61043ZM15.3915 5.875L15.8767 5.0006L15.3915 5.875ZM8.60849 5.875L8.12329 5.0006L8.60849 5.875ZM13 9C13 8.44772 12.5523 8 12 8C11.4477 8 11 8.44772 11 9H13ZM12 12H11C11 12.2652 11.1054 12.5196 11.2929 12.7071L12 12ZM12.7929 14.2071C13.1834 14.5976 13.8166 14.5976 14.2071 14.2071C14.5976 13.8166 14.5976 13.1834 14.2071 12.7929L12.7929 14.2071ZM7.70348 19.3313L8.69736 19.2209H8.69736L7.70348 19.3313ZM16.2965 19.3313L17.2904 19.4417L16.2965 19.3313ZM8.49388 6.61043L8.69736 4.77914L6.70959 4.55827L6.50612 6.38957L8.49388 6.61043ZM10.6851 3H13.3149V1H10.6851V3ZM15.3026 4.77914L15.5061 6.61043L17.4939 6.38957L17.2904 4.55827L15.3026 4.77914ZM13.3149 3C14.334 3 15.1901 3.76627 15.3026 4.77914L17.2904 4.55827C17.0653 2.53254 15.3531 1 13.3149 1V3ZM8.69736 4.77914C8.8099 3.76627 9.66603 3 10.6851 3V1C8.64693 1 6.93467 2.53254 6.70959 4.55827L8.69736 4.77914ZM18 12C18 15.3137 15.3137 18 12 18V20C16.4183 20 20 16.4183 20 12H18ZM12 18C8.68629 18 6 15.3137 6 12H4C4 16.4183 7.58172 20 12 20V18ZM12 6C13.0564 6 14.0462 6.27215 14.9063 6.7494L15.8767 5.0006C14.7273 4.36282 13.4045 4 12 4V6ZM14.9063 6.7494C16.7535 7.77438 18 9.74231 18 12H20C20 8.98665 18.3335 6.36389 15.8767 5.0006L14.9063 6.7494ZM6 12C6 9.74231 7.24655 7.77438 9.0937 6.7494L8.12329 5.0006C5.66646 6.36389 4 8.98665 4 12H6ZM9.0937 6.7494C9.95377 6.27215 10.9436 6 12 6V4C10.5955 4 9.27266 4.36282 8.12329 5.0006L9.0937 6.7494ZM11 9V12H13V9H11ZM11.2929 12.7071L12.7929 14.2071L14.2071 12.7929L12.7071 11.2929L11.2929 12.7071ZM6.50612 17.6104L6.70959 19.4417L8.69736 19.2209L8.49388 17.3896L6.50612 17.6104ZM10.6851 23H13.3149V21H10.6851V23ZM17.2904 19.4417L17.4939 17.6104L15.5061 17.3896L15.3026 19.2209L17.2904 19.4417ZM13.3149 23C15.3531 23 17.0653 21.4675 17.2904 19.4417L15.3026 19.2209C15.1901 20.2337 14.334 21 13.3149 21V23ZM6.70959 19.4417C6.93467 21.4675 8.64693 23 10.6851 23V21C9.66603 21 8.8099 20.2337 8.69736 19.2209L6.70959 19.4417Z" fill="currentColor"/></svg>
