<svg xmlns="http://www.w3.org/2000/svg" viewBox="0 0 24 24" fill="none"><path d="M3 10V7C3 5.34315 4.34315 4 6 4H8.92963C9.59834 4 10.2228 4.3342 10.5937 4.8906L11.4063 6.1094C11.7772 6.6658 12.4017 7 13.0704 7H18C19.6569 7 21 8.34315 21 10V16C21 17.6569 19.6569 19 18 19H12" stroke="currentColor" stroke-width="2" stroke-linecap="round" stroke-linejoin="round"/><path d="M6.24045 15.1852L5.54359 13.3733C5.45708 13.1484 5.24099 13 5 13C4.75901 13 4.54292 13.1484 4.45641 13.3733L3.75955 15.1852C3.65797 15.4493 3.44927 15.658 3.18518 15.7595L1.37334 16.4564C1.14842 16.5429 1 16.759 1 17C1 17.241 1.14842 17.4571 1.37334 17.5436L3.18518 18.2405C3.44927 18.342 3.65797 18.5507 3.75955 18.8148L4.45641 20.6267C4.54292 20.8516 4.75901 21 5 21C5.24099 21 5.45708 20.8516 5.54359 20.6267L6.24045 18.8148C6.34203 18.5507 6.55073 18.342 6.81482 18.2405L8.62666 17.5436C8.85158 17.4571 9 17.241 9 17C9 16.759 8.85158 16.5429 8.62666 16.4564L6.81482 15.7595C6.55073 15.658 6.34203 15.4493 6.24045 15.1852Z" fill="currentColor"/></svg>
