<svg xmlns="http://www.w3.org/2000/svg" viewBox="0 0 24 24" fill="none"><path d="M6 8V5.53518C6 5.20083 6.1671 4.8886 6.4453 4.70313L9 3" stroke="currentColor" stroke-width="2" stroke-linecap="round" stroke-linejoin="round"/><path d="M18 8V5.53518C18 5.20083 17.8329 4.8886 17.5547 4.70313L15 3" stroke="currentColor" stroke-width="2" stroke-linecap="round" stroke-linejoin="round"/><circle cx="9" cy="3" r="2" fill="currentColor"/><circle cx="15" cy="3" r="2" fill="currentColor"/><path d="M4 9C4 8.44772 4.44772 8 5 8H19C19.5523 8 20 8.44772 20 9C20 10.6569 18.6569 12 17 12H7C5.34315 12 4 10.6569 4 9Z" stroke="currentColor" stroke-width="2" stroke-linecap="round" stroke-linejoin="round"/><path d="M5.5 12L5.8242 17.1871C5.92301 18.7682 7.23416 20 8.81835 20H15.1816C16.7658 20 18.077 18.7682 18.1758 17.1871L18.5 12" stroke="currentColor" stroke-width="2" stroke-linecap="round" stroke-linejoin="round"/></svg>
