<svg xmlns="http://www.w3.org/2000/svg" viewBox="0 0 24 24" fill="none"><path d="M10 4H11C11 3.44772 10.5523 3 10 3V4ZM10 10V11C10.5523 11 11 10.5523 11 10H10ZM4 10H3C3 10.5523 3.44772 11 4 11V10ZM5.63803 4.32698L5.18404 3.43597L5.63803 4.32698ZM4.32698 5.63803L3.43597 5.18404L4.32698 5.63803ZM14 4V3C13.4477 3 13 3.44772 13 4H14ZM20 10V11C20.5523 11 21 10.5523 21 10H20ZM14 10H13C13 10.5523 13.4477 11 14 11V10ZM18.362 4.32698L18.816 3.43597L18.362 4.32698ZM19.673 5.63803L20.564 5.18404L19.673 5.63803ZM4 14V13C3.44772 13 3 13.4477 3 14H4ZM10 14H11C11 13.4477 10.5523 13 10 13V14ZM10 20V21C10.5523 21 11 20.5523 11 20H10ZM5.63803 19.673L5.18404 20.564L5.63803 19.673ZM4.32698 18.362L3.43597 18.816L4.32698 18.362ZM20.2929 21.7076C20.6834 22.0981 21.3166 22.0981 21.7071 21.7076C22.0976 21.317 22.0976 20.6839 21.7071 20.2934L20.2929 21.7076ZM8.8 5H10V3H8.8V5ZM9 4V10H11V4H9ZM10 9H4V11H10V9ZM5 10V8.8H3V10H5ZM8.8 3C7.97642 3 7.2986 2.99922 6.74817 3.04419C6.18608 3.09012 5.66937 3.18868 5.18404 3.43597L6.09202 5.21799C6.24842 5.1383 6.47262 5.07337 6.91104 5.03755C7.36113 5.00078 7.94342 5 8.8 5V3ZM5 8.8C5 7.94342 5.00078 7.36113 5.03755 6.91104C5.07337 6.47262 5.1383 6.24842 5.21799 6.09202L3.43597 5.18404C3.18868 5.66937 3.09012 6.18608 3.04419 6.74817C2.99922 7.2986 3 7.97642 3 8.8H5ZM5.18404 3.43597C4.43139 3.81947 3.81947 4.43139 3.43597 5.18404L5.21799 6.09202C5.40973 5.71569 5.71569 5.40973 6.09202 5.21799L5.18404 3.43597ZM14 5H15.2V3H14V5ZM19 8.8V10H21V8.8H19ZM20 9H14V11H20V9ZM15 10V4H13V10H15ZM15.2 5C16.0566 5 16.6389 5.00078 17.089 5.03755C17.5274 5.07337 17.7516 5.1383 17.908 5.21799L18.816 3.43597C18.3306 3.18868 17.8139 3.09012 17.2518 3.04419C16.7014 2.99922 16.0236 3 15.2 3V5ZM21 8.8C21 7.97642 21.0008 7.2986 20.9558 6.74817C20.9099 6.18608 20.8113 5.66937 20.564 5.18404L18.782 6.09202C18.8617 6.24842 18.9266 6.47262 18.9624 6.91104C18.9992 7.36113 19 7.94342 19 8.8H21ZM17.908 5.21799C18.2843 5.40973 18.5903 5.71569 18.782 6.09202L20.564 5.18404C20.1805 4.43139 19.5686 3.81947 18.816 3.43597L17.908 5.21799ZM4 15H10V13H4V15ZM9 14V20H11V14H9ZM10 19H8.8V21H10V19ZM5 15.2V14H3V15.2H5ZM8.8 19C7.94342 19 7.36113 18.9992 6.91104 18.9624C6.47262 18.9266 6.24842 18.8617 6.09202 18.782L5.18404 20.564C5.66937 20.8113 6.18608 20.9099 6.74817 20.9558C7.2986 21.0008 7.97642 21 8.8 21V19ZM3 15.2C3 16.0236 2.99922 16.7014 3.04419 17.2518C3.09012 17.8139 3.18868 18.3306 3.43597 18.816L5.21799 17.908C5.1383 17.7516 5.07337 17.5274 5.03755 17.089C5.00078 16.6389 5 16.0566 5 15.2H3ZM6.09202 18.782C5.71569 18.5903 5.40973 18.2843 5.21799 17.908L3.43597 18.816C3.81947 19.5686 4.43139 20.1805 5.18404 20.564L6.09202 18.782ZM18.4142 18.4147C17.6332 19.1957 16.3668 19.1957 15.5858 18.4147L14.1716 19.8289C15.7337 21.391 18.2663 21.391 19.8284 19.8289L18.4142 18.4147ZM15.5858 18.4147C14.8047 17.6336 14.8047 16.3673 15.5858 15.5862L14.1716 14.172C12.6095 15.7341 12.6095 18.2668 14.1716 19.8289L15.5858 18.4147ZM15.5858 15.5862C16.3668 14.8052 17.6332 14.8052 18.4142 15.5862L19.8284 14.172C18.2663 12.6099 15.7337 12.6099 14.1716 14.172L15.5858 15.5862ZM18.4142 15.5862C19.1953 16.3673 19.1953 17.6336 18.4142 18.4147L19.8284 19.8289C21.3905 18.2668 21.3905 15.7341 19.8284 14.172L18.4142 15.5862ZM18.4142 19.8289L20.2929 21.7076L21.7071 20.2934L19.8284 18.4147L18.4142 19.8289Z" fill="currentColor"/></svg>
