<svg xmlns="http://www.w3.org/2000/svg" viewBox="0 0 24 24" fill="none"><path d="M2.75879 10.1637L3.62703 15.0877C3.91474 16.7194 5.47072 17.8089 7.1024 17.5212L10.0972 16.9931M2.75879 10.1637L2.58514 9.17888C2.29743 7.5472 3.38694 5.99122 5.01862 5.70351L11.9123 4.48797C13.544 4.20026 15.0999 5.28977 15.3876 6.92145C15.4835 7.46535 15.1204 7.984 14.5765 8.07991L2.75879 10.1637Z" stroke="currentColor" stroke-width="2" stroke-linecap="round" stroke-linejoin="round"/><path d="M16 20C19.3137 20 22 17.3137 22 14C22 10.6863 19.3137 8 16 8C12.6863 8 10 10.6863 10 14C10 17.3137 12.6863 20 16 20Z" stroke="currentColor" stroke-width="2" stroke-linecap="round" stroke-linejoin="round"/><path d="M16 12V14L17.6667 15.6667" stroke="currentColor" stroke-width="2" stroke-linecap="round" stroke-linejoin="round"/></svg>
