<svg xmlns="http://www.w3.org/2000/svg" viewBox="0 0 24 24" fill="none"><path d="M4 12.5V7.18141C4 5.28107 5.74556 3.8685 7.63331 4.08686C10.5621 4.42564 13.4379 4.42564 16.3667 4.08686C18.2544 3.8685 20 5.28107 20 7.18141V12.5C20 16.9183 16.4183 20.5 12 20.5C7.58172 20.5 4 16.9183 4 12.5Z" stroke="currentColor" stroke-width="2" stroke-linejoin="round"/><path d="M15.1593 13.4157C13.0535 14.278 10.9477 14.278 8.8419 13.4157C8.39739 13.2337 7.93985 13.6717 8.2094 14.0692C10.2372 17.0602 13.764 17.0602 15.7918 14.0692C16.0614 13.6717 15.6038 13.2337 15.1593 13.4157Z" fill="currentColor"/><path d="M9.25 9.5C9.89156 9.5 10.3687 9.91118 10.4766 10.3975C10.192 10.2845 9.72726 10.1055 9.25 10.1055C8.77227 10.1055 8.30697 10.2845 8.02246 10.3975C8.13027 9.91109 8.60835 9.5 9.25 9.5Z" fill="currentColor" stroke="currentColor" stroke-linejoin="round"/><path d="M16.5 10.6058C16.5 11.1421 16.2135 11.0298 15.7732 10.8572C15.4855 10.7444 15.132 10.6058 14.75 10.6058C14.368 10.6058 14.0145 10.7444 13.7268 10.8572C13.2865 11.0298 13 11.1421 13 10.6058C13 9.71896 13.7835 9 14.75 9C15.7165 9 16.5 9.71896 16.5 10.6058Z" fill="currentColor"/></svg>
