<svg xmlns="http://www.w3.org/2000/svg" viewBox="0 0 24 24" fill="none"><circle cx="12" cy="12" r="9" stroke="currentColor" stroke-width="2"/><path d="M13.2031 16.3623C12.6113 16.3623 12.1836 16.0225 12.1836 15.3369V14.7861H9.30078C8.52734 14.7861 8 14.2998 8 13.585C8 13.1748 8.12891 12.7705 8.42773 12.2432C8.99023 11.2295 9.66406 10.1631 10.4434 8.98535C11.0938 7.97754 11.5918 7.6377 12.4414 7.6377C13.5195 7.6377 14.2168 8.22949 14.2168 9.14941V13.1162H14.5449C15.1133 13.1162 15.4004 13.4678 15.4004 13.9541C15.4004 14.4404 15.1074 14.7861 14.5449 14.7861H14.2168V15.3369C14.2168 16.0225 13.7891 16.3623 13.2031 16.3623ZM12.2422 13.1924V9.25488H12.2012C11.1816 10.7314 10.4844 11.8154 9.79883 13.1338V13.1924H12.2422Z" fill="currentColor"/></svg>
