<svg xmlns="http://www.w3.org/2000/svg" viewBox="0 0 24 24" fill="none"><path d="M10 5.75736V4C10 2.89543 10.8954 2 12 2C13.1046 2 14 2.89543 14 4V5.75736C14 6.55301 14.3161 7.31607 14.8787 7.87868L16.1213 9.12132C16.6839 9.68393 17 10.447 17 11.2426V19C17 20.6569 15.6569 22 14 22H10C8.34315 22 7 20.6569 7 19V11.2426C7 10.447 7.31607 9.68393 7.87868 9.12132L9.12132 7.87868C9.68393 7.31607 10 6.55301 10 5.75736Z" stroke="currentColor" stroke-width="2" stroke-linecap="round"/><path d="M10 2H9.5" stroke="currentColor" stroke-width="2" stroke-linecap="round"/><path d="M14.5 2H14" stroke="currentColor" stroke-width="2" stroke-linecap="round"/></svg>
