<svg xmlns="http://www.w3.org/2000/svg" viewBox="0 0 24 24" fill="none"><path d="M15.5 6.5C15.5 8.433 13.933 10 12 10C10.067 10 8.5 8.433 8.5 6.5C8.5 4.567 10.067 3 12 3C13.933 3 15.5 4.567 15.5 6.5Z" stroke="currentColor" stroke-width="2" stroke-linejoin="round"/><path d="M12 13C9.02155 13 6.67433 14.5539 5.43335 16.8621C4.59624 18.4191 6.02749 20 7.79525 20H12" stroke="currentColor" stroke-width="2" stroke-linecap="round" stroke-linejoin="round"/><path d="M18.8955 14.4583L18.1115 12.42C18.0142 12.167 17.7711 12 17.5 12C17.2289 12 16.9858 12.167 16.8885 12.42L16.1045 14.4583C15.9902 14.7554 15.7554 14.9902 15.4583 15.1045L13.42 15.8885C13.167 15.9858 13 16.2289 13 16.5C13 16.7711 13.167 17.0142 13.42 17.1115L15.4583 17.8955C15.7554 18.0098 15.9902 18.2446 16.1045 18.5417L16.8885 20.58C16.9858 20.833 17.2289 21 17.5 21C17.7711 21 18.0142 20.833 18.1115 20.58L18.8955 18.5417C19.0098 18.2446 19.2446 18.0098 19.5417 17.8955L21.58 17.1115C21.833 17.0142 22 16.7711 22 16.5C22 16.2289 21.833 15.9858 21.58 15.8885L19.5417 15.1045C19.2446 14.9902 19.0098 14.7554 18.8955 14.4583Z" fill="currentColor"/><path d="M4.89045 9.03518L4.40769 7.78C4.34281 7.61131 4.18074 7.5 4 7.5C3.81926 7.5 3.65719 7.61131 3.59231 7.78L3.10955 9.03518C3.00797 9.29927 2.79927 9.50797 2.53518 9.60955L1.28 10.0923C1.11131 10.1572 1 10.3193 1 10.5C1 10.6807 1.11131 10.8428 1.28 10.9077L2.53518 11.3905C2.79927 11.492 3.00797 11.7007 3.10955 11.9648L3.59231 13.22C3.65719 13.3887 3.81926 13.5 4 13.5C4.18074 13.5 4.34281 13.3887 4.40769 13.22L4.89045 11.9648C4.99203 11.7007 5.20073 11.492 5.46482 11.3905L6.72 10.9077C6.88869 10.8428 7 10.6807 7 10.5C7 10.3193 6.88869 10.1572 6.72 10.0923L5.46482 9.60955C5.20073 9.50797 4.99203 9.29927 4.89045 9.03518Z" fill="currentColor"/></svg>
