<svg xmlns="http://www.w3.org/2000/svg" viewBox="0 0 24 24" fill="none"><path d="M12 3V20M12 20H7M12 20H17M3 6H7.2918C7.75753 6 8.21687 5.89156 8.63344 5.68328L9.36656 5.31672C9.78313 5.10844 10.2425 5 10.7082 5H13.2918C13.7575 5 14.2169 5.10844 14.6334 5.31672L15.3666 5.68328C15.7831 5.89156 16.2425 6 16.7082 6H21M5.5 6L3.28066 12.658C2.82713 14.0186 3.38797 15.6344 4.80823 15.8338C5.27041 15.8987 5.72959 15.8987 6.19177 15.8338C7.61203 15.6344 8.17287 14.0186 7.71934 12.658L5.5 6ZM18.5 6L16.2807 12.658C15.8271 14.0186 16.388 15.6344 17.8082 15.8338C18.2704 15.8987 18.7296 15.8987 19.1918 15.8338C20.612 15.6344 21.1729 14.0186 20.7193 12.658L18.5 6Z" stroke="currentColor" stroke-width="2" stroke-linecap="round" stroke-linejoin="round"/></svg>
