<svg xmlns="http://www.w3.org/2000/svg" viewBox="0 0 24 24" fill="none"><path d="M10.625 7.17764L10.7505 5.98353C10.9237 4.33576 12.3999 3.14036 14.0477 3.31355L18.0257 3.73167C19.6735 3.90485 20.8689 5.38104 20.6957 7.02882L19.964 13.9905C19.7908 15.6382 18.3147 16.8336 16.6669 16.6604L14.0011 16.3803" stroke="currentColor" stroke-width="2" stroke-linecap="round" stroke-linejoin="round"/><path d="M3.26668 11.0288C3.09349 9.38104 4.28888 7.90485 5.93666 7.73167L9.91474 7.31355C11.5625 7.14036 13.0387 8.33575 13.2119 9.98353L13.9436 16.9452C14.1168 18.593 12.9214 20.0691 11.2736 20.2423L7.29553 20.6604C5.64775 20.8336 4.17156 19.6382 3.99838 17.9905L3.26668 11.0288Z" stroke="currentColor" stroke-width="2" stroke-linecap="round" stroke-linejoin="round"/></svg>
