<svg xmlns="http://www.w3.org/2000/svg" viewBox="0 0 24 24" fill="none"><path d="M17.9961 14C19.6529 14 20.9961 12.6569 20.9961 11C20.9961 9.34318 19.6529 8.00003 17.9961 8.00003M12.8254 18C12.4136 19.1652 11.3023 20 9.99609 20C8.33924 20 6.99609 18.6569 6.99609 17V15.5M6.99829 6.50003V15.5M17.9961 7.10616V14.8939C17.9961 16.9253 16.0195 18.3694 14.0842 17.752L5.08424 14.8805C3.84044 14.4837 2.99609 13.328 2.99609 12.0225V9.97759C2.99609 8.67203 3.84044 7.51636 5.08424 7.11953L14.0842 4.2481C16.0195 3.63065 17.9961 5.07476 17.9961 7.10616Z" stroke="currentColor" stroke-width="2" stroke-linecap="round" stroke-linejoin="round"/></svg>
