<svg xmlns="http://www.w3.org/2000/svg" viewBox="0 0 24 24" fill="none"><path d="M19 21L18.3492 21.7593C18.6457 22.0134 19.0631 22.0717 19.4179 21.9085C19.7727 21.7453 20 21.3905 20 21H19ZM16.6667 19L17.3175 18.2407C16.943 17.9198 16.3904 17.9198 16.0159 18.2407L16.6667 19ZM14.3333 21L13.6825 21.7593C14.057 22.0802 14.6096 22.0802 14.9841 21.7593L14.3333 21ZM12 19L12.6508 18.2407C12.2763 17.9198 11.7237 17.9198 11.3492 18.2407L12 19ZM9.66667 21L9.01588 21.7593C9.39036 22.0802 9.94297 22.0802 10.3175 21.7593L9.66667 21ZM7.33333 19L7.98412 18.2407C7.60963 17.9198 7.05703 17.9198 6.68254 18.2407L7.33333 19ZM5 21H4C4 21.3905 4.22734 21.7453 4.58214 21.9085C4.93694 22.0717 5.35428 22.0134 5.65079 21.7593L5 21ZM15.9571 8.45711C16.3476 8.06658 16.3476 7.43342 15.9571 7.04289C15.5666 6.65237 14.9334 6.65237 14.5429 7.04289L15.9571 8.45711ZM8.04289 13.5429C7.65237 13.9334 7.65237 14.5666 8.04289 14.9571C8.43342 15.3476 9.06658 15.3476 9.45711 14.9571L8.04289 13.5429ZM8 4H16V2H8V4ZM18 6V21H20V6H18ZM19.6508 20.2407L17.3175 18.2407L16.0159 19.7593L18.3492 21.7593L19.6508 20.2407ZM16.0159 18.2407L13.6825 20.2407L14.9841 21.7593L17.3175 19.7593L16.0159 18.2407ZM14.9841 20.2407L12.6508 18.2407L11.3492 19.7593L13.6825 21.7593L14.9841 20.2407ZM11.3492 18.2407L9.01588 20.2407L10.3175 21.7593L12.6508 19.7593L11.3492 18.2407ZM10.3175 20.2407L7.98412 18.2407L6.68254 19.7593L9.01588 21.7593L10.3175 20.2407ZM6.68254 18.2407L4.34921 20.2407L5.65079 21.7593L7.98412 19.7593L6.68254 18.2407ZM6 21V6H4V21H6ZM16 4C17.1046 4 18 4.89543 18 6H20C20 3.79086 18.2091 2 16 2V4ZM8 2C5.79086 2 4 3.79086 4 6H6C6 4.89543 6.89543 4 8 4V2ZM14.5429 7.04289L8.04289 13.5429L9.45711 14.9571L15.9571 8.45711L14.5429 7.04289Z" fill="currentColor"/><path d="M9 8H9.01M9.25 8C9.25 8.13807 9.13807 8.25 9 8.25C8.86193 8.25 8.75 8.13807 8.75 8C8.75 7.86193 8.86193 7.75 9 7.75C9.13807 7.75 9.25 7.86193 9.25 8Z" stroke="currentColor" stroke-width="2" stroke-linecap="round"/><path d="M15 14H15.01M15.25 14C15.25 14.1381 15.1381 14.25 15 14.25C14.8619 14.25 14.75 14.1381 14.75 14C14.75 13.8619 14.8619 13.75 15 13.75C15.1381 13.75 15.25 13.8619 15.25 14Z" stroke="currentColor" stroke-width="2" stroke-linecap="round"/></svg>
