<svg xmlns="http://www.w3.org/2000/svg" viewBox="0 0 24 24" fill="none"><path d="M11 3H13.7574C14.553 3 15.3161 3.31607 15.8787 3.87868L19.1213 7.12132C19.6839 7.68393 20 8.44699 20 9.24264V15C20 16.6569 18.6569 18 17 18H11C9.34315 18 8 16.6569 8 15V6C8 4.34315 9.34315 3 11 3Z" stroke="currentColor" stroke-width="2" stroke-linecap="round" stroke-linejoin="round"/><path d="M17 18C17 19.6569 15.6569 21 14 21H8C6.34315 21 5 19.6569 5 18V9C5 7.34315 6.34315 6 8 6" stroke="currentColor" stroke-width="2" stroke-linecap="round" stroke-linejoin="round"/><path d="M15 3V6C15 7.10457 15.8954 8 17 8H20" stroke="currentColor" stroke-width="2" stroke-linecap="round" stroke-linejoin="round"/></svg>
