<svg xmlns="http://www.w3.org/2000/svg" viewBox="0 0 24 24" fill="none"><ellipse cx="8.5" cy="14" rx="5.5" ry="2" stroke="currentColor" stroke-width="2"/><path d="M14 18C14 19.1046 11.5376 20 8.5 20C5.46243 20 3 19.1046 3 18" stroke="currentColor" stroke-width="2"/><ellipse cx="15.5" cy="6" rx="5.5" ry="2" stroke="currentColor" stroke-width="2"/><path d="M21 10C21 11.1046 18.5376 12 15.5 12C12.4624 12 10 11.1046 10 10" stroke="currentColor" stroke-width="2"/><path d="M14 14V18" stroke="currentColor" stroke-width="2"/><path d="M3 14V18" stroke="currentColor" stroke-width="2"/><path d="M21 14C21 15.1046 18.5376 16 15.5 16C14.98 16 14.4768 15.9738 14 15.9247" stroke="currentColor" stroke-width="2"/><path d="M10 6V12" stroke="currentColor" stroke-width="2"/><path d="M21 6V14" stroke="currentColor" stroke-width="2"/></svg>
