<svg xmlns="http://www.w3.org/2000/svg" viewBox="0 0 24 24" fill="none"><path d="M3.00195 7.00002C3.00195 5.34317 4.3451 4.00002 6.00195 4.00002L18.0019 4C19.6588 4 21.002 5.34314 21.002 7V15.0358C21.002 16.6926 19.6588 18.0357 18.002 18.0358L15.3757 18.0358C15.1427 18.0358 14.9171 18.1171 14.7377 18.2657L11.9977 20.5358L9.29398 18.2694C9.11393 18.1185 8.8865 18.0358 8.65157 18.0358H6.00195C4.3451 18.0358 3.00195 16.6926 3.00195 15.0358L3.00195 7.00002Z" stroke="currentColor" stroke-width="2" stroke-linejoin="round"/><path d="M6.625 11C6.625 11.4832 7.01675 11.875 7.5 11.875C7.98325 11.875 8.375 11.4832 8.375 11C8.375 10.5168 7.98325 10.125 7.5 10.125C7.01675 10.125 6.625 10.5168 6.625 11ZM11.125 11C11.125 11.4832 11.5168 11.875 12 11.875C12.4832 11.875 12.875 11.4832 12.875 11C12.875 10.5168 12.4832 10.125 12 10.125C11.5168 10.125 11.125 10.5168 11.125 11ZM15.625 11C15.625 11.4832 16.0168 11.875 16.5 11.875C16.9832 11.875 17.375 11.4832 17.375 11C17.375 10.5168 16.9832 10.125 16.5 10.125C16.0168 10.125 15.625 10.5168 15.625 11Z" fill="currentColor" stroke="currentColor" stroke-width="0.75" stroke-linecap="square"/></svg>
