<svg xmlns="http://www.w3.org/2000/svg" viewBox="0 0 24 24" fill="none"><path d="M17 8.5V7.5C17 5.84315 15.6569 4.5 14 4.5H5.5C3.84315 4.5 2.5 5.84315 2.5 7.5V12.5C2.5 14.1569 3.84315 15.5 5.5 15.5H6" stroke="currentColor" stroke-width="2" stroke-linejoin="round"/><path d="M16 8.5H11.5C8.46243 8.5 6 10.9624 6 14C6 17.0376 8.46243 19.5 11.5 19.5H16C19.0376 19.5 21.5 17.0376 21.5 14C21.5 10.9624 19.0376 8.5 16 8.5Z" stroke="currentColor" stroke-width="2"/><path d="M18 12.0039C18 10.9093 17.1046 10.0139 16 10.0039H15.7923C15.7064 10.0039 15.6367 10.0736 15.6367 10.1595C15.6367 10.2059 15.6579 10.2494 15.6914 10.2815C15.8816 10.4635 16 10.7199 16 11.0039V12.9997C16 13.8281 15.3284 14.4997 14.5 14.4997H9.39258C8.76162 14.4998 8.25015 15.0113 8.25 15.6423C8.25 16.3821 8.68279 17.0211 9.30896 17.3197C9.52677 17.4236 9.75 17.241 9.75 16.9997C9.75 16.7235 9.97386 16.4997 10.25 16.4997H14.5C16.433 16.4997 18 14.9327 18 12.9997V12.0039Z" fill="currentColor"/></svg>
