<svg xmlns="http://www.w3.org/2000/svg" viewBox="0 0 24 24" fill="none"><path d="M2.39818 16.7059L3.7828 12.2059C3.9119 11.7863 4.29957 11.5 4.73857 11.5H9.26143C9.70043 11.5 10.0881 11.7863 10.2172 12.2059L11.6018 16.7059C11.7997 17.349 11.3188 18 10.646 18H3.35396C2.68115 18 2.20032 17.349 2.39818 16.7059Z" stroke="currentColor" stroke-width="2" stroke-linejoin="round"/><path d="M7.39818 10.2059L8.7828 5.70591C8.9119 5.28632 9.29957 5 9.73857 5H14.2614C14.7004 5 15.0881 5.28632 15.2172 5.70591L16.6018 10.2059C16.7997 10.849 16.3188 11.5 15.646 11.5H8.35396C7.68115 11.5 7.20032 10.849 7.39818 10.2059Z" stroke="currentColor" stroke-width="2" stroke-linejoin="round"/><path d="M12.3982 16.7059L13.7828 12.2059C13.9119 11.7863 14.2996 11.5 14.7386 11.5H19.2614C19.7004 11.5 20.0881 11.7863 20.2172 12.2059L21.6018 16.7059C21.7997 17.349 21.3188 18 20.646 18H13.354C12.6812 18 12.2003 17.349 12.3982 16.7059Z" stroke="currentColor" stroke-width="2" stroke-linejoin="round"/></svg>
