<svg xmlns="http://www.w3.org/2000/svg" viewBox="0 0 24 24" fill="none"><path d="M12.3119 9.3809C10.8636 8.57893 9.03928 9.10185 8.23561 10.5493C8.15447 10.6954 8.07333 10.8415 7.99219 10.9877L17.9567 16.5018C18.0373 16.3567 18.1179 16.2115 18.1985 16.0664C19.0024 14.6188 18.4783 12.7952 17.0297 11.9932L12.3119 9.3809Z" stroke="currentColor" stroke-width="2" stroke-linecap="square" stroke-linejoin="round"/><path d="M12.9492 9.10176L15.7714 4.14333C16.3841 3.06675 17.7508 2.6833 18.8356 3.28361C19.9286 3.88843 20.3235 5.26328 19.7177 6.35441L16.9348 11.3664" stroke="currentColor" stroke-width="2" stroke-linecap="square" stroke-linejoin="round"/><path d="M9.00214 11.8467C7.35656 13.7878 5.49042 14.3738 3 13.844C4 20.5002 15.5045 24.8294 16.5048 16.3407" stroke="currentColor" stroke-width="2" stroke-linecap="square" stroke-linejoin="round"/></svg>
