<svg xmlns="http://www.w3.org/2000/svg" viewBox="0 0 24 24" fill="none"><path d="M9.17157 9.17146C9.5621 8.78094 9.5621 8.14777 9.17157 7.75725C8.78105 7.36672 8.14788 7.36672 7.75736 7.75725L9.17157 9.17146ZM7.75736 16.2425C8.14788 16.6331 8.78105 16.6331 9.17157 16.2425C9.5621 15.852 9.5621 15.2188 9.17157 14.8283L7.75736 16.2425ZM14.8284 14.8283C14.4379 15.2188 14.4379 15.852 14.8284 16.2425C15.219 16.6331 15.8521 16.6331 16.2426 16.2425L14.8284 14.8283ZM16.2426 7.75725C15.8521 7.36672 15.219 7.36672 14.8284 7.75725C14.4379 8.14777 14.4379 8.78094 14.8284 9.17146L16.2426 7.75725ZM8 11.9999C8 10.895 8.44662 9.89641 9.17157 9.17146L7.75736 7.75725C6.67267 8.84194 6 10.3433 6 11.9999H8ZM9.17157 14.8283C8.44662 14.1034 8 13.1047 8 11.9999H6C6 13.6565 6.67267 15.1578 7.75736 16.2425L9.17157 14.8283ZM16 11.9999C16 13.1047 15.5534 14.1034 14.8284 14.8283L16.2426 16.2425C17.3273 15.1578 18 13.6565 18 11.9999H16ZM14.8284 9.17146C15.5534 9.89641 16 10.895 16 11.9999H18C18 10.3433 17.3273 8.84194 16.2426 7.75725L14.8284 9.17146ZM12 11.9999V13.9999C13.1046 13.9999 14 13.1045 14 11.9999H12ZM12 11.9999H10C10 13.1045 10.8954 13.9999 12 13.9999V11.9999ZM12 11.9999V9.99988C10.8954 9.99988 10 10.8953 10 11.9999H12ZM12 11.9999H14C14 10.8953 13.1046 9.99988 12 9.99988V11.9999Z" fill="currentColor"/></svg>
