<svg xmlns="http://www.w3.org/2000/svg" viewBox="0 0 24 24" fill="none"><path d="M12 8C12 6.34315 13.3431 5 15 5H20C21.1046 5 22 5.89543 22 7V17C22 18.1046 21.1046 19 20 19H15.277C14.5966 19 13.9296 19.1642 13.3508 19.5219C12.772 19.8796 12.3043 20.3914 12 21M12 8C12 6.34315 10.6569 5 9 5H4C2.89543 5 2 5.89543 2 7V17C2 18.1046 2.89543 19 4 19H8.723C9.40341 19 10.0704 19.1642 10.6492 19.5219C11.228 19.8796 11.6957 20.3914 12 21M12 8V21" stroke="currentColor" stroke-width="2" stroke-linecap="round" stroke-linejoin="round"/></svg>
