<svg xmlns="http://www.w3.org/2000/svg" viewBox="0 0 24 24" fill="none"><path d="M9 4.29004C6.10851 5.15059 4 7.82914 4 11.0002C4 14.8662 7.13401 18.0002 11 18.0002C14.1711 18.0002 16.8497 15.8916 17.7102 13" stroke="currentColor" stroke-width="2" stroke-linecap="round"/><path d="M19.9998 19.9998L16.0498 16.0498" stroke="currentColor" stroke-width="2" stroke-linecap="round"/><path d="M17.2405 4.18518L16.5436 2.37334C16.4571 2.14842 16.241 2 16 2C15.759 2 15.5429 2.14842 15.4564 2.37334L14.7595 4.18518C14.658 4.44927 14.4493 4.65797 14.1852 4.75955L12.3733 5.45641C12.1484 5.54292 12 5.75901 12 6C12 6.24099 12.1484 6.45708 12.3733 6.54359L14.1852 7.24045C14.4493 7.34203 14.658 7.55073 14.7595 7.81482L15.4564 9.62666C15.5429 9.85158 15.759 10 16 10C16.241 10 16.4571 9.85158 16.5436 9.62666L17.2405 7.81482C17.342 7.55073 17.5507 7.34203 17.8148 7.24045L19.6267 6.54359C19.8516 6.45708 20 6.24099 20 6C20 5.75901 19.8516 5.54292 19.6267 5.45641L17.8148 4.75955C17.5507 4.65797 17.342 4.44927 17.2405 4.18518Z" fill="currentColor"/></svg>
