<svg xmlns="http://www.w3.org/2000/svg" viewBox="0 0 24 24" fill="none"><path d="M17 4H7C5.34315 4 4 5.34315 4 7V17C4 18.6569 5.34315 20 7 20H17C18.6569 20 20 18.6569 20 17V7C20 5.34315 18.6569 4 17 4Z" stroke="currentColor" stroke-width="2"/><path d="M9.15039 16.3564C8.4707 16.3564 8.05469 15.9697 8.05469 15.3311C8.05469 15.1494 8.11328 14.8857 8.20703 14.6279L10.293 8.89746C10.6035 8.03613 11.125 7.64355 11.9629 7.64355C12.8477 7.64355 13.3633 8.01855 13.6855 8.89746L15.7891 14.6279C15.8887 14.9033 15.9297 15.1025 15.9297 15.3252C15.9297 15.9287 15.4785 16.3564 14.8516 16.3564C14.2305 16.3564 13.9082 16.0752 13.7207 15.3838L13.4336 14.4463H10.5391L10.252 15.3486C10.0469 16.0635 9.72461 16.3564 9.15039 16.3564ZM10.9668 12.8232H12.9648L11.9746 9.56543H11.9277L10.9668 12.8232Z" fill="currentColor"/></svg>
