<svg xmlns="http://www.w3.org/2000/svg" viewBox="0 0 24 24" fill="none"><path d="M12.002 4.00001L6.00195 4.00002C4.3451 4.00002 3.00195 5.34317 3.00195 7.00002V15.0358C3.00195 16.6926 4.3451 18.0358 6.00195 18.0358H8.65157C8.8865 18.0358 9.11393 18.1185 9.29398 18.2694L11.359 20.0004C11.729 20.3105 12.2677 20.3121 12.6394 20.0041L14.7377 18.2657C14.9171 18.1171 15.1427 18.0358 15.3757 18.0358L18.002 18.0358C19.6588 18.0358 21.002 16.6926 21.002 15.0358V13.0179M21.9998 6C21.9998 7.65685 20.6566 9 18.9998 9C17.3429 9 15.9998 7.65685 15.9998 6C15.9998 4.34315 17.3429 3 18.9998 3C20.6566 3 21.9998 4.34315 21.9998 6Z" stroke="currentColor" stroke-width="2" stroke-linecap="round" stroke-linejoin="round"/></svg>
