<svg xmlns="http://www.w3.org/2000/svg" viewBox="0 0 24 24" fill="none"><path d="M4 8V6C4 4.89543 4.89543 4 6 4H14C15.1046 4 16 4.89543 16 6M4 8H7.76127C8.55692 8 9.31998 8.31607 9.88259 8.87868L11.1252 10.1213C11.6878 10.6839 12.4509 11 13.2465 11H16M4 8C3.44987 8 3.00391 8.44597 3.00391 8.99609V17C3.00391 18.6569 4.34705 20 6.00391 20H18.0039C19.6608 20 21.0039 18.6569 21.0039 17V12.0039C21.0039 11.4495 20.5544 11 20 11M16 11V6M16 11H20M16 6H18C19.1046 6 20 6.89543 20 8V11" stroke="currentColor" stroke-width="2" stroke-linejoin="round"/></svg>
