<svg xmlns="http://www.w3.org/2000/svg" viewBox="0 0 24 24" fill="none"><path d="M7.5 7.72727L4.23548 10.1015C3.45925 10.666 3 11.5679 3 12.5277V17C3 18.6569 4.34315 20 6 20H18C19.6569 20 21 18.6569 21 17V11.4558C21 11.1537 20.9561 10.8522 20.8591 10.5661C19.8282 7.52486 18.1661 5.38497 15.5551 3.81677C14.6248 3.25803 13.4566 3.39519 12.579 4.03345L12 4.45455" stroke="currentColor" stroke-width="2" stroke-linecap="round" stroke-linejoin="round"/><path d="M3.5 12H21" stroke="currentColor" stroke-width="2" stroke-linecap="round" stroke-linejoin="round"/><path d="M3 16H15" stroke="currentColor" stroke-width="2" stroke-linecap="round" stroke-linejoin="round"/><path d="M10 9C11.3807 9 12.5 7.88071 12.5 6.5C12.5 5.11929 11.3807 4 10 4C8.61929 4 7.5 5.11929 7.5 6.5C7.5 7.88071 8.61929 9 10 9Z" stroke="currentColor" stroke-width="2" stroke-linecap="round" stroke-linejoin="round"/></svg>
