<svg xmlns="http://www.w3.org/2000/svg" viewBox="0 0 24 24" fill="none"><path d="M6.1656 3.69534C6.70474 3.24605 7.38434 3 8.08615 3H15.9138C16.6157 3 17.2953 3.24605 17.8344 3.69534L18.9206 4.60046C19.6045 5.17044 20 6.01479 20 6.90512V14C20 15.6569 18.6569 17 17 17H7C5.34315 17 4 15.6569 4 14V6.90512C4 6.01479 4.39547 5.17044 5.07945 4.60046L6.1656 3.69534Z" stroke="currentColor" stroke-width="2" stroke-linecap="round" stroke-linejoin="round"/><path d="M7.19205 17C7.00267 17 6.82953 17.107 6.74484 17.2764L4.74484 21.2764C4.57861 21.6088 4.82036 22 5.19205 22H6.31009C6.49947 22 6.6726 21.893 6.7573 21.7236L8.67192 17.8944C8.79541 17.6474 8.6953 17.347 8.44831 17.2236L8.10677 17.0528C8.03734 17.0181 7.96079 17 7.88316 17H7.19205Z" fill="currentColor"/><path d="M16.119 17C16.0414 17 15.9648 17.0181 15.8954 17.0528L15.5539 17.2236C15.3069 17.347 15.2068 17.6474 15.3303 17.8944L17.2449 21.7236C17.3296 21.893 17.5027 22 17.6921 22H18.8101C19.1818 22 19.4236 21.6088 19.2574 21.2764L17.2574 17.2764C17.1727 17.107 16.9995 17 16.8101 17H16.119Z" fill="currentColor"/><path d="M5 11H19" stroke="currentColor" stroke-width="2" stroke-linecap="round" stroke-linejoin="round"/><circle cx="8" cy="14" r="1" fill="currentColor"/><circle cx="16" cy="14" r="1" fill="currentColor"/></svg>
