<svg xmlns="http://www.w3.org/2000/svg" viewBox="0 0 24 24" fill="none"><path d="M14.9999 8V6C14.9999 4.34315 13.6568 3 11.9999 3C10.343 3 8.9999 4.34315 8.9999 6V8M9.9999 21H7.99674C6.15808 21 4.75204 19.3611 5.03162 17.5438L6.10855 10.5438C6.3337 9.08033 7.59295 8 9.07366 8H14.9261C16.4069 8 17.6661 9.08033 17.8913 10.5438L18.0384 11.5M13.9999 19.6667V22.0001H16.3332L19.8332 18.5001C20.4776 17.8557 20.4776 16.8111 19.8332 16.1667C19.1889 15.5224 18.1442 15.5224 17.4999 16.1667L13.9999 19.6667Z" stroke="currentColor" stroke-width="2" stroke-linecap="round" stroke-linejoin="round"/></svg>
