<svg xmlns="http://www.w3.org/2000/svg" viewBox="0 0 24 24" fill="none"><path d="M4 8V7C4 5.34315 5.34315 4 7 4H8M4 16V17C4 18.6569 5.34315 20 7 20H8M16 4H17C18.6569 4 20 5.34315 20 7V8M20 16V17C20 18.6569 18.6569 20 17 20H16M14.6727 15C13.9572 15.6224 13.0144 16 12 16C10.1362 16 8.57006 14.7252 8.12602 13M9.10069 9.21302C9.83727 8.46484 10.8745 8 12 8C13.8638 8 15.4299 9.27477 15.874 11" stroke="currentColor" stroke-width="2" stroke-linecap="round" stroke-linejoin="round"/><path d="M16.5 14V16.2928C16.5 16.7383 15.9614 16.9614 15.6464 16.6464L12.8536 13.8535C12.5386 13.5385 12.7617 13 13.2071 13H15.5C16.0523 13 16.5 13.4477 16.5 14Z" fill="currentColor"/><path d="M7.5 9.99995V7.70706C7.5 7.26161 8.03857 7.03852 8.35355 7.3535L11.1464 10.1464C11.4614 10.4614 11.2383 11 10.7929 11H8.5C7.94772 11 7.5 10.5522 7.5 9.99995Z" fill="currentColor"/></svg>
