<svg xmlns="http://www.w3.org/2000/svg" viewBox="0 0 24 24" fill="none"><path d="M14 4H10C8.34315 4 7 5.34315 7 7V17C7 18.6569 8.34315 20 10 20H14C15.6569 20 17 18.6569 17 17V7C17 5.34315 15.6569 4 14 4Z" stroke="currentColor" stroke-width="2" stroke-linecap="round" stroke-linejoin="round"/><path d="M7 18H6C4.34315 18 3 16.6569 3 15V9C3 7.34315 4.34315 6 6 6H7" stroke="currentColor" stroke-width="2" stroke-linecap="round" stroke-linejoin="round"/><path d="M17 6H18C19.6569 6 21 7.34315 21 9V15C21 16.6569 19.6569 18 18 18H17" stroke="currentColor" stroke-width="2" stroke-linecap="round" stroke-linejoin="round"/></svg>
