<svg xmlns="http://www.w3.org/2000/svg" viewBox="0 0 24 24" fill="none"><path d="M3 8C3 6.34315 4.34315 5 6 5H18C19.6569 5 21 6.34315 21 8V12H3V8Z" stroke="currentColor" stroke-width="2" stroke-linecap="square"/><path d="M3 12H21V16C21 17.6569 19.6569 19 18 19H6C4.34315 19 3 17.6569 3 16V12Z" stroke="currentColor" stroke-width="2" stroke-linecap="square"/><path d="M6.5 14.625C6.98325 14.625 7.375 15.0168 7.375 15.5C7.375 15.9832 6.98325 16.375 6.5 16.375C6.01675 16.375 5.625 15.9832 5.625 15.5C5.625 15.0168 6.01675 14.625 6.5 14.625ZM6.5 7.625C6.98325 7.625 7.375 8.01675 7.375 8.5C7.375 8.98325 6.98325 9.375 6.5 9.375C6.01675 9.375 5.625 8.98325 5.625 8.5C5.625 8.01675 6.01675 7.625 6.5 7.625Z" fill="currentColor" stroke="currentColor" stroke-width="0.75"/></svg>
