<svg xmlns="http://www.w3.org/2000/svg" viewBox="0 0 24 24" fill="none"><path d="M10.6584 3.17084L3.68328 6.65838C3.26452 6.86776 3 7.29577 3 7.76396C3 8.44662 3.55341 9.00002 4.23607 9.00002H19.7639C20.4466 9.00002 21 8.44662 21 7.76396C21 7.29577 20.7355 6.86776 20.3167 6.65838L13.3416 3.17084C12.4971 2.74855 11.5029 2.74855 10.6584 3.17084Z" stroke="currentColor" stroke-width="2" stroke-linecap="square"/><path d="M19.7643 20H4.23627C3.62821 20 3.19884 19.4043 3.39113 18.8274C3.7549 17.7361 4.77619 17 5.92655 17H18.074C19.2243 17 20.2456 17.7361 20.6094 18.8274C20.8017 19.4043 20.3723 20 19.7643 20Z" stroke="currentColor" stroke-width="2" stroke-linecap="square"/><path d="M19 9V17" stroke="currentColor" stroke-width="2" stroke-linecap="square"/><path d="M15 17V9" stroke="currentColor" stroke-width="2" stroke-linecap="square"/><path d="M5 9V17" stroke="currentColor" stroke-width="2" stroke-linecap="square"/><path d="M9 17V9" stroke="currentColor" stroke-width="2" stroke-linecap="square"/></svg>
