<svg xmlns="http://www.w3.org/2000/svg" viewBox="0 0 24 24" fill="none"><path d="M13.0008 11.2675C13.9574 11.8197 14.2852 13.0429 13.7329 13.9995C13.1806 14.9561 11.9574 15.2838 11.0008 14.7316C9.46352 13.844 7.99374 11.831 7.27068 10.7384C7.05718 10.4158 7.29141 10.01 7.67758 10.0336C8.98537 10.1135 11.4635 10.3799 13.0008 11.2675Z" fill="currentColor"/><path opacity="0.12" d="M6 18.7083C4.15875 17.0604 3 14.6655 3 12C3 7.02944 7.02944 3 12 3C16.9706 3 21 7.02944 21 12C21 14.6655 19.8412 17.0604 18 18.7083" stroke="currentColor" stroke-width="2" stroke-linecap="round"/><path d="M6 18.7085C4.15875 17.0605 3 14.6657 3 12.0002C3 10.9611 3.17607 9.96324 3.5 9.03467" stroke="currentColor" stroke-width="2" stroke-linecap="round"/></svg>
