<svg xmlns="http://www.w3.org/2000/svg" viewBox="0 0 24 24" fill="none"><path d="M9 9H6C4.34315 9 3 10.3431 3 12V18C3 19.6569 4.34315 21 6 21H12C13.6569 21 15 19.6569 15 18V15" stroke="currentColor" stroke-width="2" stroke-linecap="round" stroke-linejoin="round"/><path d="M9 9V10V13C9 14.1046 9.89543 15 11 15H14H15M9 5C9 3.89543 9.89543 3 11 3M19 3C20.1046 3 21 3.89543 21 5M14 3H16M21 8V10M21 13C21 14.1046 20.1046 15 19 15" stroke="currentColor" stroke-width="2" stroke-linecap="round" stroke-linejoin="round"/></svg>
