<svg xmlns="http://www.w3.org/2000/svg" viewBox="0 0 24 24" fill="none"><path d="M14.2511 4.25C14.2511 5.49264 13.2438 6.5 12.0011 6.5C10.7585 6.5 9.75114 5.49264 9.75114 4.25C9.75114 3.00736 10.7585 2 12.0011 2C13.2438 2 14.2511 3.00736 14.2511 4.25Z" fill="currentColor"/><path d="M14.2511 19.75C14.2511 20.9926 13.2438 22 12.0011 22C10.7585 22 9.75114 20.9926 9.75114 19.75C9.75114 18.5074 10.7585 17.5 12.0011 17.5C13.2438 17.5 14.2511 18.5074 14.2511 19.75Z" fill="currentColor"/><path d="M6.41444 6.17644C7.4906 6.79776 7.85932 8.17384 7.238 9.25C6.61668 10.3262 5.2406 10.6949 4.16444 10.0736C3.08828 9.45224 2.71956 8.07616 3.34088 7C3.9622 5.92384 5.33828 5.55512 6.41444 6.17644Z" fill="currentColor"/><path d="M19.8378 13.9264C20.914 14.5478 21.2827 15.9238 20.6614 17C20.0401 18.0762 18.664 18.4449 17.5878 17.8236C16.5117 17.2022 16.143 15.8262 16.7643 14.75C17.3856 13.6738 18.7617 13.3051 19.8378 13.9264Z" fill="currentColor"/><path d="M4.16444 13.9264C5.2406 13.3051 6.61667 13.6738 7.238 14.75C7.85932 15.8262 7.4906 17.2022 6.41444 17.8236C5.33828 18.4449 3.9622 18.0762 3.34088 17C2.71956 15.9238 3.08828 14.5478 4.16444 13.9264Z" fill="currentColor"/><path d="M17.5878 6.17645C18.664 5.55513 20.0401 5.92385 20.6614 7.00001C21.2827 8.07616 20.914 9.45224 19.8378 10.0736C18.7617 10.6949 17.3856 10.3262 16.7643 9.25001C16.143 8.17385 16.5117 6.79777 17.5878 6.17645Z" fill="currentColor"/></svg>
