<svg xmlns="http://www.w3.org/2000/svg" viewBox="0 0 24 24" fill="none"><path d="M10.5 11L10.2853 11.8589C10.1012 12.5953 10.1866 13.3732 10.526 14.052C10.8337 14.6674 11.3326 15.1663 11.948 15.474L16.4875 17.7438C16.8245 17.9123 17.1962 18 17.5729 18C18.9134 18 20 16.9134 20 15.5729V14.8394C20 14.2893 19.8565 13.7488 19.5836 13.2712L16 7V4.5L13 6C6 5 2 12 2 18" stroke="currentColor" stroke-width="2" stroke-linecap="round" stroke-linejoin="round"/><path d="M13 21C13 17.5 12 15.5 12 15.5" stroke="currentColor" stroke-width="2" stroke-linecap="round" stroke-linejoin="round"/><path d="M16.2521 7.2593L22.2255 3.8229C22.7069 3.54591 23.2288 4.11681 22.8937 4.55387L18.6772 10.0521C18.4792 10.3103 18.0867 10.3201 17.8754 10.0722L16.1186 8.01036C15.9166 7.77334 15.9802 7.41574 16.2521 7.2593Z" fill="currentColor"/></svg>
