<svg xmlns="http://www.w3.org/2000/svg" viewBox="0 0 24 24" fill="none"><path d="M7.60432 8.13491L6.86929 4.13131L7.51863 3.59433C8.93283 2.42484 11.0996 3.0614 11.6333 4.80313M15.141 14.4185C16.1348 13.6216 17.5974 13.7463 18.4312 14.7051C19.2943 15.6975 19.1596 17.1954 18.1329 18.0228L16.3602 19.4514C13.4126 21.8267 9.07509 21.4254 6.62767 18.5508C4.15811 15.6503 4.54199 11.3259 7.4851 8.89209L13.7274 3.72992C14.7023 2.92376 16.1557 3.04908 16.9737 4.00982C17.7917 4.97057 17.6645 6.40293 16.6897 7.20909L12.9633 10.2906L13.5517 9.80407C14.5265 8.99791 15.9799 9.12323 16.7979 10.084C17.6159 11.0447 17.4887 12.4771 16.5139 13.2832L15.9255 13.7698" stroke="currentColor" stroke-width="2" stroke-linecap="round" stroke-linejoin="round"/></svg>
