<svg xmlns="http://www.w3.org/2000/svg" viewBox="0 0 24 24" fill="none"><path d="M5 11V6C5 4.34315 6.34315 3 8 3H12.1716C12.702 3 13.2107 3.21071 13.5858 3.58579L18.4142 8.41421C18.7893 8.78929 19 9.29799 19 9.82843V18C19 19.6569 17.6569 21 16 21H12" stroke="currentColor" stroke-width="2" stroke-linecap="round" stroke-linejoin="round"/><path d="M13 3.5V7C13 8.10457 13.8954 9 15 9H18.5" stroke="currentColor" stroke-width="2" stroke-linecap="round" stroke-linejoin="round"/><path d="M7.24045 16.1852L6.54359 14.3733C6.45708 14.1484 6.24099 14 6 14C5.75901 14 5.54292 14.1484 5.45641 14.3733L4.75955 16.1852C4.65797 16.4493 4.44927 16.658 4.18518 16.7595L2.37334 17.4564C2.14842 17.5429 2 17.759 2 18C2 18.241 2.14842 18.4571 2.37334 18.5436L4.18518 19.2405C4.44927 19.342 4.65797 19.5507 4.75955 19.8148L5.45641 21.6267C5.54292 21.8516 5.75901 22 6 22C6.24099 22 6.45708 21.8516 6.54359 21.6267L7.24045 19.8148C7.34203 19.5507 7.55073 19.342 7.81482 19.2405L9.62666 18.5436C9.85158 18.4571 10 18.241 10 18C10 17.759 9.85158 17.5429 9.62666 17.4564L7.81482 16.7595C7.55073 16.658 7.34203 16.4493 7.24045 16.1852Z" fill="currentColor"/></svg>
