<svg xmlns="http://www.w3.org/2000/svg" viewBox="0 0 24 24" fill="none"><path d="M19.5 4.49996C18.6716 3.67156 17.3284 3.67156 16.5 4.49998L12.8787 8.12132C12.3161 8.68393 12 9.44699 12 10.2426V12L13.7573 12C14.553 12 15.3161 11.684 15.8787 11.1213L19.5 7.49995C20.3284 6.67152 20.3284 5.32838 19.5 4.49996Z" stroke="currentColor" stroke-width="2" stroke-linecap="round" stroke-linejoin="round"/><path d="M8 12H6C4.89543 12 4 12.8954 4 14C4 15.1046 4.89543 16 6 16H16C17.1046 16 18 16.8954 18 18C18 19.1046 17.1046 20 16 20H12" stroke="currentColor" stroke-width="2" stroke-linecap="round" stroke-linejoin="round"/></svg>
