<svg xmlns="http://www.w3.org/2000/svg" viewBox="0 0 24 24" fill="none"><path d="M5 11V7C5 5.34315 6.34315 4 8 4H14.1716C14.702 4 15.2107 4.21071 15.5858 4.58579L18.4142 7.41421C18.7893 7.78929 19 8.29799 19 8.82843V11M14 5V7C14 8.10457 14.8954 9 16 9H18" stroke="currentColor" stroke-width="2" stroke-linecap="round" stroke-linejoin="round"/><path d="M4 20V15H5.75C6.57843 15 7.25 15.6716 7.25 16.5C7.25 17.3284 6.57843 18 5.75 18H4.5" stroke="currentColor" stroke-width="2" stroke-linecap="round" stroke-linejoin="round"/><path d="M10 15V20H11.25C12.3333 20 14 19.5 14 17.5C14 15.5 12.3333 15 11.25 15H10Z" stroke="currentColor" stroke-width="2" stroke-linecap="round" stroke-linejoin="round"/><path d="M20 15H17V20" stroke="currentColor" stroke-width="2" stroke-linecap="round" stroke-linejoin="round"/><path d="M17 18H19" stroke="currentColor" stroke-width="2" stroke-linecap="round" stroke-linejoin="round"/></svg>
