<svg xmlns="http://www.w3.org/2000/svg" viewBox="0 0 24 24" fill="none"><path d="M20.0856 11.9142L14.7498 17.25C14.0596 17.9403 12.9403 17.94 12.2504 17.2494C11.5604 16.5588 10.4412 16.5586 9.7509 17.2489L7.00028 19.9997C6.17196 20.8281 4.82899 20.8282 4.0005 20C3.17183 19.1716 3.17169 17.8283 4.00018 16.9998L6.75106 14.2487C7.44124 13.5585 7.44093 12.4394 6.75038 11.7495C6.05981 11.0597 6.05951 9.94053 6.74971 9.2503L12.0855 3.91425C12.8666 3.13317 14.1329 3.13315 14.914 3.91422L17.4997 6.49997L17.4997 8.49997H19.4997L20.0855 9.08577C20.8666 9.86682 20.8666 11.1331 20.0856 11.9142Z" stroke="currentColor" stroke-width="2" stroke-linecap="round" stroke-linejoin="round"/><path d="M16.5 15.5L8.5 7.5" stroke="currentColor" stroke-width="2" stroke-linecap="round" stroke-linejoin="round"/></svg>
