<svg xmlns="http://www.w3.org/2000/svg" viewBox="0 0 24 24" fill="none"><path d="M21 17C21 18.1046 20.5523 19.1046 19.8284 19.8284C19.1046 20.5523 18.1046 21 17 21C14.7909 21 13 19.2091 13 17C13 14.7909 14.7909 13 17 13C19.2091 13 21 14.7909 21 17Z" stroke="currentColor" stroke-width="2" stroke-linecap="square" stroke-linejoin="round"/><path d="M9.75 21H8C6.34315 21 5 19.6569 5 18V6C5 4.34315 6.34315 3 8 3H16C17.6569 3 19 4.34315 19 6V9" stroke="currentColor" stroke-width="2" stroke-linecap="round" stroke-linejoin="round"/><path d="M17 13V17L19.8284 19.8284" stroke="currentColor" stroke-width="2" stroke-linecap="square" stroke-linejoin="round"/></svg>
