<svg xmlns="http://www.w3.org/2000/svg" viewBox="0 0 24 24" fill="none"><path d="M18.3778 18.485L17.4077 18.2425V18.2425L18.3778 18.485ZM17.029 19.7574C16.895 20.2932 17.2208 20.8362 17.7566 20.9701C18.2924 21.1041 18.8353 20.7783 18.9692 20.2425L17.029 19.7574ZM11.1296 13.0969L10.1791 12.7862C10.1769 12.793 10.1747 12.7998 10.1727 12.8067L11.1296 13.0969ZM13.0148 10.5485C13.1865 10.0236 12.9 9.45892 12.3751 9.2873C11.8502 9.11568 11.2855 9.4021 11.1139 9.92704L13.0148 10.5485ZM13.2828 17H16.4376V15H13.2828V17ZM17.4077 18.2425L17.029 19.7574L18.9692 20.2425L19.348 18.7276L17.4077 18.2425ZM13.2828 15C12.4438 15 11.8431 14.19 12.0866 13.3872L10.1727 12.8067C9.53958 14.8939 11.1016 17 13.2828 17V15ZM11.1139 9.92704L10.1791 12.7862L12.0801 13.4077L13.0148 10.5485L11.1139 9.92704ZM16.4376 17C17.0881 17 17.5655 17.6114 17.4077 18.2425L19.348 18.7276C19.8213 16.8341 18.3893 15 16.4376 15V17Z" fill="currentColor"/><circle cx="13.5" cy="5" r="2" stroke="currentColor" stroke-width="2" stroke-linecap="round" stroke-linejoin="round"/><path d="M11.75 12H16" stroke="currentColor" stroke-width="2" stroke-linecap="round"/><path d="M8.5 10.375C6.45132 11.1751 5 13.1681 5 15.5001C5 18.5376 7.46243 21.0001 10.5 21.0001C11.9615 21.0001 13.2899 20.43 14.2749 19.5001" stroke="currentColor" stroke-width="2" stroke-linecap="round" stroke-linejoin="round"/></svg>
