<svg xmlns="http://www.w3.org/2000/svg" viewBox="0 0 24 24" fill="none"><path d="M4 7C4 5.34315 5.34315 4 7 4H15.7574C16.553 4 17.3161 4.31607 17.8787 4.87868L19.1213 6.12132C19.6839 6.68393 20 7.44699 20 8.24264V17C20 18.6569 18.6569 20 17 20H7C5.34315 20 4 18.6569 4 17V7Z" stroke="currentColor" stroke-width="2" stroke-linecap="square"/><path d="M15 14C15 15.6569 13.6569 17 12 17C10.3431 17 9 15.6569 9 14C9 12.3431 10.3431 11 12 11C13.6569 11 15 12.3431 15 14Z" stroke="currentColor" stroke-width="2" stroke-linecap="square"/><path d="M9 4V7C9 7.55228 9.44772 8 10 8H14C14.5523 8 15 7.55228 15 7V4" stroke="currentColor" stroke-width="2" stroke-linecap="round"/></svg>
