<svg xmlns="http://www.w3.org/2000/svg" viewBox="0 0 24 24" fill="none"><path d="M16 10C16 11.1046 15.1046 12 14 12C13.4477 12 12.9477 11.7761 12.5858 11.4142C12.2239 11.0523 12 10.5523 12 10C12 8.89543 12.8954 8 14 8C15.1046 8 16 8.89543 16 10Z" stroke="currentColor" stroke-width="2" stroke-linecap="round" stroke-linejoin="round"/><path d="M14 12V20H7C5.34315 20 4 18.6569 4 17V7C4 5.34315 5.34315 4 7 4H14V8" stroke="currentColor" stroke-width="2" stroke-linecap="round" stroke-linejoin="round"/><path d="M14 4H17C18.6569 4 20 5.34315 20 7V17C20 18.6569 18.6569 20 17 20H14" stroke="currentColor" stroke-width="2" stroke-linecap="round" stroke-linejoin="round"/><path d="M12.5858 11.4143L9 15.0001L7 13.0001L4.5 15.5001" stroke="currentColor" stroke-width="2" stroke-linecap="round" stroke-linejoin="round"/></svg>
