<svg xmlns="http://www.w3.org/2000/svg" viewBox="0 0 24 24" fill="none"><path d="M12.0004 16H18.3824C18.7612 16 19.1074 16.214 19.2768 16.5528L20.2768 18.5528C20.6093 19.2177 20.1258 20 19.3824 20H12.0004M12.0004 16H5.61848C5.23971 16 4.89344 16.214 4.72405 16.5528L3.72405 18.5528C3.3916 19.2177 3.8751 20 4.61848 20H12.0004M12.0004 16V20M9.17232 4C9.58416 5.16519 10.6954 6 12.0016 6C13.3078 6 14.4191 5.16519 14.8309 4M12.0004 10V11M19.0004 4H20.0004M4.00044 4H5.00044M7.00044 8.25L6.25044 9M17.0004 8.25L17.7504 9" stroke="currentColor" stroke-width="2" stroke-linecap="round" stroke-linejoin="round"/></svg>
