<svg xmlns="http://www.w3.org/2000/svg" viewBox="0 0 24 24" fill="none"><circle cx="12" cy="12" r="9" stroke="currentColor" stroke-width="2" stroke-linecap="round"/><path d="M11 10.52C11 11.4037 10.3284 12 9.5 12C8.67157 12 8 11.4037 8 10.52C8 9.63634 8.67157 9 9.5 9C10.3284 9 11 9.63634 11 10.52Z" fill="currentColor"/><path d="M16 10.52C16 11.4037 15.3284 12 14.5 12C13.6716 12 13 11.4037 13 10.52C13 9.63634 13.6716 9 14.5 9C15.3284 9 16 9.63634 16 10.52Z" fill="currentColor"/><path d="M7.23717 7.95499C7.05814 7.91084 6.86183 7.94231 6.69413 8.03441C6.52627 8.12698 6.40076 8.27262 6.34252 8.44734C6.28427 8.62207 6.2973 8.81389 6.37605 8.98866C6.45495 9.16296 6.59311 9.30591 6.76283 9.37802C6.81151 9.39864 6.86019 9.41926 6.90888 9.43987C7.78516 9.81103 8.66144 10.1822 9.53772 10.5533C9.58641 10.5739 9.63509 10.5946 9.68377 10.6152C9.92866 10.7192 10.1974 10.7174 10.4347 10.5984C10.6718 10.4802 10.8581 10.2545 10.9487 9.98273C11.0393 9.71096 11.0256 9.41867 10.9069 9.18179C10.7884 8.94424 10.5746 8.78152 10.3162 8.71782C10.2649 8.70511 10.2136 8.69239 10.1623 8.67968C9.23856 8.45083 8.31484 8.22198 7.39112 7.99313C7.33981 7.98042 7.28849 7.96771 7.23717 7.95499Z" fill="currentColor"/><path d="M17.2372 9.37802C17.4069 9.30591 17.5451 9.16296 17.624 8.98866C17.7027 8.81389 17.7157 8.62207 17.6575 8.44734C17.5992 8.27262 17.4737 8.12698 17.3059 8.03441C17.1382 7.94231 16.9419 7.91084 16.7628 7.95499C16.7115 7.96771 16.6602 7.98042 16.6089 7.99313C15.6852 8.22198 14.7614 8.45083 13.8377 8.67968C13.7864 8.69239 13.7351 8.70511 13.6838 8.71782C13.4254 8.78152 13.2116 8.94424 13.0931 9.18179C12.9744 9.41867 12.9607 9.71096 13.0513 9.98273C13.1419 10.2545 13.3282 10.4802 13.5653 10.5984C13.8026 10.7174 14.0713 10.7192 14.3162 10.6152C14.3649 10.5946 14.4136 10.5739 14.4623 10.5533C15.3386 10.1822 16.2148 9.81103 17.0911 9.43987C17.1398 9.41926 17.1885 9.39864 17.2372 9.37802Z" fill="currentColor"/><path d="M7.89328 15.4758C7.7698 15.623 7.69925 15.8109 7.70417 16.0051C7.70903 16.1992 7.78791 16.3827 7.92489 16.5166C8.06187 16.6504 8.24712 16.7251 8.44131 16.7254C8.63557 16.7259 8.82181 16.651 8.9661 16.5242C9.05273 16.4499 9.14033 16.3801 9.23093 16.313C10.042 15.7109 11.0211 15.4001 12.0034 15.4C12.9856 15.3986 13.964 15.7081 14.7725 16.3111C14.8628 16.3783 14.9501 16.4481 15.0364 16.5226C15.1803 16.6498 15.3663 16.7253 15.5606 16.7254C15.7548 16.7256 15.9403 16.6515 16.0776 16.5181C16.215 16.3846 16.2944 16.2014 16.2999 16.0073C16.3054 15.8131 16.2354 15.625 16.1124 15.4774C16.0126 15.3603 15.909 15.2487 15.799 15.1403C14.816 14.1611 13.4082 13.5927 12.002 13.6C10.5957 13.595 9.19111 14.1644 8.20718 15.1399C8.09708 15.2479 7.99334 15.3591 7.89328 15.4758Z" fill="currentColor"/></svg>
