<svg xmlns="http://www.w3.org/2000/svg" viewBox="0 0 24 24" fill="none"><path d="M11 20.132V15H13V20.132C13 20.2096 12.9819 20.2861 12.9472 20.3556L12.2236 21.8028C12.1315 21.987 11.8685 21.987 11.7764 21.8028L11.0528 20.3556C11.0181 20.2861 11 20.2096 11 20.132Z" fill="currentColor"/><path d="M13 3C14.6569 3 16 4.34315 16 6V9.25684C17.5549 10.3418 18.6498 12.0405 18.9297 14.0029C19.0077 14.5497 18.5523 15 18 15H6C5.44771 15 4.99234 14.5497 5.07031 14.0029C5.35017 12.0405 6.44511 10.3418 8 9.25684V6C8 4.34315 9.34314 3 11 3H13Z" stroke="currentColor" stroke-width="2" stroke-linejoin="round"/></svg>
