<svg xmlns="http://www.w3.org/2000/svg" viewBox="0 0 24 24" fill="none"><path d="M10.9999 9.5L10.2643 3.98246C10.1243 2.93274 10.9409 2 11.9999 2C13.059 2 13.8756 2.93274 13.7356 3.98246L12.9999 9.5M10.3349 14.1159L5.92436 17.5118C5.08526 18.1579 3.86917 17.917 3.33967 16.9999C2.81017 16.0828 3.20963 14.9092 4.18869 14.5055L9.33486 12.3839M14.665 12.3838L19.8112 14.5055C20.7903 14.9092 21.1897 16.0827 20.6602 16.9999C20.1307 17.917 18.9146 18.1579 18.0755 17.5118L13.665 14.1159M8.99995 20.4879C9.93828 20.8196 10.948 21 11.9999 21C13.0519 21 14.0616 20.8196 14.9999 20.4879M6.14936 5.15807C5.39297 5.80486 4.73181 6.58911 4.20586 7.50008C3.6799 8.41106 3.33131 9.37577 3.14936 10.3542M20.8505 10.3541C20.6686 9.37566 20.32 8.41095 19.794 7.49998C19.2681 6.589 18.6069 5.80476 17.8505 5.15796M14.4999 12C14.4999 13.3807 13.3807 14.5 11.9999 14.5C10.6192 14.5 9.49995 13.3807 9.49995 12C9.49995 10.6193 10.6192 9.5 11.9999 9.5C13.3807 9.5 14.4999 10.6193 14.4999 12Z" stroke="currentColor" stroke-width="2" stroke-linecap="round" stroke-linejoin="round"/></svg>
