<svg xmlns="http://www.w3.org/2000/svg" viewBox="0 0 24 24" fill="none"><path d="M12 20.1429C12 17.3025 14.3025 15 17.1429 15C17.1656 15 17.1882 15.0001 17.2109 15.0004C17.6462 15.0061 17.9939 15.3538 17.9996 15.7891C17.9999 15.8118 18 15.8344 18 15.8571C18 18.6975 15.6975 21 12.8571 21C12.5864 21 12.3206 20.9791 12.0612 20.9388C12.0209 20.6794 12 20.4136 12 20.1429ZM12 20.1429C12 17.3025 9.69746 15 6.85714 15C6.83444 15 6.81177 15.0001 6.78913 15.0004C6.35377 15.0061 6.00608 15.3538 6.00044 15.7891C6.00015 15.8118 6 15.8344 6 15.8571C6 18.6975 8.30254 21 11.1429 21C11.4136 21 11.6794 20.9791 11.9388 20.9388C11.9791 20.6794 12 20.4136 12 20.1429ZM12 14V21M13.9052 4.27413L13.2494 3.74951C12.519 3.16516 11.481 3.16516 10.7506 3.74951L10.0948 4.27413C9.72721 4.56823 9.22984 4.64193 8.79272 4.46709L7.97752 4.14101C7.50931 3.95372 7 4.29855 7 4.80282V8C7 10.7614 9.23858 13 12 13C14.7614 13 17 10.7614 17 8V4.80282C17 4.29855 16.4907 3.95372 16.0225 4.14101L15.2073 4.46709C14.7702 4.64193 14.2728 4.56823 13.9052 4.27413Z" stroke="currentColor" stroke-width="2" stroke-linecap="square" stroke-linejoin="round"/></svg>
