<svg xmlns="http://www.w3.org/2000/svg" viewBox="0 0 24 24" fill="none"><path d="M17.8841 18.8103C16.5544 17.0943 14.4995 16 12 16C9.50054 16 7.44562 17.0943 6.11594 18.8103M17.8841 18.8103C19.7925 17.16 21 14.721 21 12C21 7.02944 16.9706 3 12 3C7.02944 3 3 7.02944 3 12C3 14.721 4.20753 17.16 6.11594 18.8103M17.8841 18.8103C16.3063 20.1747 14.2495 21 12 21C9.75046 21 7.69368 20.1747 6.11594 18.8103" stroke="currentColor" stroke-width="2" stroke-linejoin="round"/><path d="M15 10C15 11.6569 13.6569 13 12 13C10.3431 13 9 11.6569 9 10C9 8.34315 10.3431 7 12 7C13.6569 7 15 8.34315 15 10Z" stroke="currentColor" stroke-width="2" stroke-linejoin="round"/></svg>
