<svg xmlns="http://www.w3.org/2000/svg" viewBox="0 0 24 24" fill="none"><path d="M5.46366 11.4653C5.91542 11.0136 6.66915 11.0955 7.01329 11.6338L7.80184 12.8671C8.56054 14.0538 8.39154 15.6085 7.3956 16.6044L5.98969 18.0104L4.53108 15.729C3.77239 14.5423 3.94139 12.9876 4.93733 11.9916L5.46366 11.4653Z" stroke="currentColor" stroke-width="2" stroke-linecap="round" stroke-linejoin="round"/><path d="M12.5354 18.5363C12.9871 18.0845 12.9052 17.3308 12.3669 16.9866L11.1336 16.1981C9.94688 15.4394 8.39209 15.6084 7.39615 16.6043L5.99023 18.0102L8.27174 19.4688C9.45841 20.2275 11.0131 20.0585 12.009 19.0626L12.5354 18.5363Z" stroke="currentColor" stroke-width="2" stroke-linecap="round" stroke-linejoin="round"/><path d="M8.6453 8.28343C9.09706 7.83168 9.85079 7.91361 10.1949 8.45188L10.9835 9.68526C11.7422 10.8719 11.5732 12.4266 10.5772 13.4226L9.17133 14.8285L7.71273 12.5471C6.95403 11.3604 7.12303 9.80571 8.11897 8.80976L8.6453 8.28343Z" stroke="currentColor" stroke-width="2" stroke-linecap="round" stroke-linejoin="round"/><path d="M15.7169 15.3544C16.1686 14.9026 16.0867 14.1489 15.5484 13.8047L14.3151 13.0162C13.1284 12.2575 11.5737 12.4265 10.5778 13.4225L9.17188 14.8284L11.4533 16.2869C12.6399 17.0456 14.1946 16.8766 15.1906 15.8807L15.7169 15.3544Z" stroke="currentColor" stroke-width="2" stroke-linecap="round" stroke-linejoin="round"/><path d="M11.8269 5.10155C12.2787 4.64979 13.0324 4.73172 13.3766 5.26999L14.1651 6.50337C14.9238 7.69004 14.7548 9.24473 13.7589 10.2407L12.353 11.6466L10.8944 9.36518C10.1357 8.17851 10.3047 6.62382 11.3006 5.62788L11.8269 5.10155Z" stroke="currentColor" stroke-width="2" stroke-linecap="round" stroke-linejoin="round"/><path d="M18.8985 12.1725C19.3503 11.7207 19.2684 10.967 18.7301 10.6229L17.4967 9.8343C16.31 9.07561 14.7554 9.24462 13.7594 10.2406L12.3535 11.6465L14.6349 13.1051C15.8216 13.8638 17.3763 13.6948 18.3722 12.6988L18.8985 12.1725Z" stroke="currentColor" stroke-width="2" stroke-linecap="round" stroke-linejoin="round"/><path d="M15.1824 8.81814C14.7563 5.47301 16.4335 3.79583 19.7786 4.22194C20.2047 7.56707 18.5275 9.24425 15.1824 8.81814Z" stroke="currentColor" stroke-width="2" stroke-linecap="round" stroke-linejoin="round"/><path d="M6.34398 17.6567L4.22266 19.7781" stroke="currentColor" stroke-width="2" stroke-linecap="round" stroke-linejoin="round"/></svg>
