<svg xmlns="http://www.w3.org/2000/svg" viewBox="0 0 24 24" fill="none"><path d="M3.5 14.9655C3.17607 14.0369 3 13.039 3 12C3 7.02944 7.02944 3 12 3C16.9706 3 21 7.02944 21 12C21 13.039 20.8239 14.0369 20.5 14.9655" stroke="currentColor" stroke-width="2" stroke-linecap="round" stroke-linejoin="round"/><path d="M6.95797 18.5026L11.1269 11.058C11.5088 10.3762 12.4901 10.3762 12.872 11.058L17.0409 18.5026C17.5498 19.4114 16.5038 20.3956 15.6277 19.8324L12.5402 17.8476C12.2108 17.6358 11.7881 17.6358 11.4587 17.8476L8.37123 19.8324C7.49509 20.3956 6.44905 19.4114 6.95797 18.5026Z" stroke="currentColor" stroke-width="2" stroke-linecap="round" stroke-linejoin="round"/></svg>
