<svg xmlns="http://www.w3.org/2000/svg" viewBox="0 0 24 24" fill="none"><circle cx="12" cy="12" r="8.5" stroke="currentColor" stroke-width="2" stroke-linecap="round" stroke-linejoin="round"/><path d="M13.7677 10.2321C16.6966 13.1611 18.2795 16.3269 17.3032 17.3032C16.3269 18.2795 13.1611 16.6966 10.2321 13.7677C7.30319 10.8387 5.72028 7.6729 6.69659 6.69659C7.6729 5.72028 10.8387 7.30319 13.7677 10.2321Z" stroke="currentColor" stroke-width="1.8" stroke-linecap="round" stroke-linejoin="round"/><path d="M10.2321 10.2321C7.30319 13.1611 5.72028 16.3269 6.69659 17.3032C7.6729 18.2795 10.8387 16.6966 13.7677 13.7677C16.6966 10.8387 18.2795 7.6729 17.3032 6.69659C16.3269 5.72028 13.1611 7.30319 10.2321 10.2321Z" stroke="currentColor" stroke-width="1.8" stroke-linecap="round" stroke-linejoin="round"/><path d="M18 6L20.5 3.5" stroke="currentColor" stroke-width="2" stroke-linecap="round" stroke-linejoin="round"/><path d="M3.5 20.5L6 18" stroke="currentColor" stroke-width="2" stroke-linecap="round" stroke-linejoin="round"/></svg>
