<svg xmlns="http://www.w3.org/2000/svg" viewBox="0 0 24 24" fill="none"><path fill-rule="evenodd" clip-rule="evenodd" d="M10 13C10 10.7909 11.7909 9 14 9H18C20.2091 9 22 10.7909 22 13V17C22 17.4024 21.9403 17.7927 21.8285 18.1615C21.3309 19.8032 19.8065 21 18 21H14C13.5976 21 13.2073 20.9403 12.8385 20.8285C11.1968 20.3309 10 18.8065 10 17V13ZM14 11C12.8954 11 12 11.8954 12 13V17C12 17.7012 12.3613 18.3196 12.909 18.6768L15.1716 16.4142C16.4803 15.1055 18.4703 14.8932 20 15.7774V13C20 11.8954 19.1046 11 18 11H14ZM19.6768 18.091L19.4142 17.8284C18.6332 17.0474 17.3668 17.0474 16.5858 17.8284L15.4142 19H18C18.7012 19 19.3196 18.6387 19.6768 18.091Z" fill="currentColor"/><path d="M15.5 13.25C15.5 13.9404 14.9404 14.5 14.25 14.5C13.5596 14.5 13 13.9404 13 13.25C13 12.5596 13.5596 12 14.25 12C14.9404 12 15.5 12.5596 15.5 13.25Z" fill="currentColor"/><path fill-rule="evenodd" clip-rule="evenodd" d="M1 5C1 3.89543 1.89543 3 3 3H9C10.1046 3 11 3.89543 11 5C11 5.55228 10.5523 6 10 6C9.44772 6 9 5.55228 9 5H7V12C7.55228 12 8 12.4477 8 13C8 13.5523 7.55228 14 7 14H5C4.44772 14 4 13.5523 4 13C4 12.4477 4.44772 12 5 12V5H3C3 5.55228 2.55228 6 2 6C1.44772 6 1 5.55228 1 5Z" fill="currentColor"/><path d="M20.7552 2.15769C20.6501 1.94744 20.35 1.94744 20.2449 2.15769C19.5905 3.46646 19.4665 3.5905 18.1577 4.24488C17.9474 4.35001 17.9474 4.65005 18.1577 4.75518C19.4665 5.40956 19.5905 5.5336 20.2449 6.84237C20.35 7.05262 20.6501 7.05262 20.7552 6.84237C21.4096 5.5336 21.5336 5.40956 22.8424 4.75518C23.0526 4.65005 23.0526 4.35001 22.8424 4.24488C21.5336 3.5905 21.4096 3.46646 20.7552 2.15769Z" fill="currentColor"/><path d="M15.2645 4.16345C15.1555 3.94552 14.8445 3.94552 14.7355 4.16345C14.2499 5.13469 14.1347 5.24991 13.1635 5.73553C12.9455 5.8445 12.9455 6.1555 13.1635 6.26447C14.1347 6.75009 14.2499 6.86532 14.7355 7.83655C14.8445 8.05448 15.1555 8.05448 15.2645 7.83655C15.7501 6.86532 15.8653 6.75009 16.8365 6.26447C17.0545 6.1555 17.0545 5.8445 16.8365 5.73553C15.8653 5.24991 15.7501 5.13468 15.2645 4.16345Z" fill="currentColor"/><path d="M4.75514 16.1577C4.65002 15.9474 4.34998 15.9474 4.24486 16.1577C3.59048 17.4664 3.46644 17.5905 2.15769 18.2449C1.94744 18.35 1.94744 18.65 2.15769 18.7551C3.46644 19.4095 3.59048 19.5336 4.24486 20.8423C4.34998 21.0526 4.65002 21.0526 4.75514 20.8423C5.40952 19.5336 5.53356 19.4095 6.84231 18.7551C7.05256 18.65 7.05256 18.35 6.84231 18.2449C5.53356 17.5905 5.40952 17.4664 4.75514 16.1577Z" fill="currentColor"/></svg>
