<svg xmlns="http://www.w3.org/2000/svg" viewBox="0 0 24 24" fill="none"><path d="M4 8C4 6.34315 5.34315 5 7 5H17C18.6569 5 20 6.34315 20 8V17C20 18.6569 18.6569 20 17 20H7C5.34315 20 4 18.6569 4 17V8Z" stroke="currentColor" stroke-width="2" stroke-linecap="round" stroke-linejoin="round"/><path d="M8 5V3" stroke="currentColor" stroke-width="2" stroke-linecap="round" stroke-linejoin="round"/><path d="M16 5V3" stroke="currentColor" stroke-width="2" stroke-linecap="round" stroke-linejoin="round"/><path d="M14.5 12C14.5 13.5188 13.2688 14.75 11.75 14.75C10.2312 14.75 9 13.5188 9 12C9 10.4812 10.2312 9.25 11.75 9.25C13.2688 9.25 14.5 10.4812 14.5 12Z" stroke="currentColor" stroke-width="2" stroke-linecap="round" stroke-linejoin="round"/><path d="M13.75 14L15 15.25" stroke="currentColor" stroke-width="2" stroke-linecap="round" stroke-linejoin="round"/></svg>
