<svg xmlns="http://www.w3.org/2000/svg" viewBox="0 0 24 24" fill="none"><path d="M13 8C13 10.7614 10.7614 13 8 13C5.23858 13 3 10.7614 3 8C3 5.23858 5.23858 3 8 3C10.7614 3 13 5.23858 13 8Z" stroke="currentColor" stroke-width="2"/><path d="M18 17.5C18 19.433 16.433 21 14.5 21C12.567 21 11 19.433 11 17.5C11 15.567 12.567 14 14.5 14C16.433 14 18 15.567 18 17.5Z" stroke="currentColor" stroke-width="2"/><path d="M21 9.5C21 10.8807 19.8807 12 18.5 12C17.1193 12 16 10.8807 16 9.5C16 8.11929 17.1193 7 18.5 7C19.8807 7 21 8.11929 21 9.5Z" stroke="currentColor" stroke-width="2"/></svg>
