<svg xmlns="http://www.w3.org/2000/svg" viewBox="0 0 24 24" fill="none"><path d="M6.55211 3.25C5.65611 5.69807 6.48402 7.13205 9.05211 7.58013C9.94812 5.13205 9.12021 3.69807 6.55211 3.25Z" stroke="currentColor" stroke-width="1.8" stroke-linecap="round" stroke-linejoin="round"/><path d="M3.05998 8.05998C2.82812 10.6565 3.99896 11.8274 6.59552 11.5955C6.82738 8.99896 5.65654 7.82812 3.05998 8.05998Z" stroke="currentColor" stroke-width="1.8" stroke-linecap="round" stroke-linejoin="round"/><path d="M2.67188 14.2992C3.11995 16.8673 4.55393 17.6952 7.002 16.7992C6.55393 14.2311 5.11995 13.4032 2.67188 14.2992Z" stroke="currentColor" stroke-width="1.8" stroke-linecap="round" stroke-linejoin="round"/><path d="M17.4506 3.25C18.3466 5.69807 17.5186 7.13205 14.9506 7.58013C14.0545 5.13205 14.8825 3.69807 17.4506 3.25Z" stroke="currentColor" stroke-width="1.8" stroke-linecap="round" stroke-linejoin="round"/><path d="M20.9315 8.05998C21.1633 10.6565 19.9925 11.8274 17.3959 11.5955C17.1641 8.99896 18.3349 7.82812 20.9315 8.05998Z" stroke="currentColor" stroke-width="1.8" stroke-linecap="round" stroke-linejoin="round"/><path d="M21.3301 14.2982C20.8821 16.8663 19.4481 17.6942 17 16.7982C17.4481 14.2301 18.8821 13.4022 21.3301 14.2982Z" stroke="currentColor" stroke-width="1.8" stroke-linecap="round" stroke-linejoin="round"/><path d="M7 16.7979C9.4429 19.4992 13.2165 18.7897 15.5 21.4992" stroke="currentColor" stroke-width="1.8" stroke-linecap="round" stroke-linejoin="round"/><path d="M17 16.7979C14.5571 19.4992 10.7835 18.7897 8.5 21.4992" stroke="currentColor" stroke-width="1.8" stroke-linecap="round" stroke-linejoin="round"/></svg>
