<svg xmlns="http://www.w3.org/2000/svg" viewBox="0 0 24 24" fill="none"><path d="M9 4.75003V17.25M15 6.25003V18.75M3 16.4752V7.69155C3 6.83069 3.55086 6.06641 4.36754 5.79418L8.36754 4.46085C8.77808 4.324 9.22192 4.324 9.63246 4.46085L14.3675 6.03921C14.7781 6.17606 15.2219 6.17606 15.6325 6.03921L18.3675 5.12752C19.6626 4.69583 21 5.65977 21 7.02488V15.8085C21 16.6694 20.4491 17.4337 19.6325 17.7059L15.6325 19.0392C15.2219 19.1761 14.7781 19.1761 14.3675 19.0392L9.63246 17.4608C9.22192 17.324 8.77808 17.324 8.36754 17.4608L5.63246 18.3725C4.33739 18.8042 3 17.8403 3 16.4752Z" stroke="currentColor" stroke-width="2" stroke-linecap="round" stroke-linejoin="round"/></svg>
