<svg xmlns="http://www.w3.org/2000/svg" viewBox="0 0 24 24" fill="none"><path d="M21 19C21.5523 19 22 19.4477 22 20C22 20.5523 21.5523 21 21 21H3C2.44772 21 2 20.5523 2 20C2 19.4477 2.44772 19 3 19H21Z" fill="currentColor"/><path d="M4 20V10" stroke="currentColor" stroke-width="2" stroke-linecap="round" stroke-linejoin="round"/><path d="M20 20V10" stroke="currentColor" stroke-width="2" stroke-linecap="round" stroke-linejoin="round"/><path d="M4.07983 6.52007L10.7816 3.54152C11.5573 3.19676 12.4427 3.19676 13.2184 3.54152L19.9202 6.52008C20.5768 6.81192 21 7.4631 21 8.18168C21 9.18591 20.1859 10 19.1817 10H4.81832C3.81409 10 3 9.18591 3 8.18168C3 7.4631 3.42319 6.81192 4.07983 6.52007Z" stroke="currentColor" stroke-width="2" stroke-linecap="round" stroke-linejoin="round"/><path d="M9.5 20V14" stroke="currentColor" stroke-width="2" stroke-linecap="round" stroke-linejoin="round"/><path d="M14.5 20V14" stroke="currentColor" stroke-width="2" stroke-linecap="round" stroke-linejoin="round"/><circle cx="12" cy="7" r="1" fill="currentColor"/></svg>
