<svg xmlns="http://www.w3.org/2000/svg" viewBox="0 0 24 24" fill="none"><path d="M4.00195 7.00002C4.00195 5.34317 5.3451 4.00002 7.00195 4.00002L17.0019 4C18.6588 4 20.002 5.34314 20.002 7V15.0358C20.002 16.6926 18.6588 18.0358 17.002 18.0358L15.3757 18.0358C15.1427 18.0358 14.9171 18.1171 14.7377 18.2657L11.9977 20.5358L9.29398 18.2694C9.11393 18.1185 8.8865 18.0358 8.65157 18.0358H7.00195C5.3451 18.0358 4.00195 16.6926 4.00195 15.0358V7.00002Z" stroke="currentColor" stroke-width="2" stroke-linejoin="round"/><path d="M15.2507 10.6675C15.2507 12.7448 12.2703 14.2801 11.9994 14.2801C11.7284 14.2801 8.74805 12.7448 8.74805 10.6675C8.74805 9.22251 9.65119 8.5 10.5543 8.5C11.4575 8.5 11.9994 9.04189 11.9994 9.04189C11.9994 9.04189 12.5412 8.5 13.4444 8.5C14.3475 8.5 15.2507 9.22251 15.2507 10.6675Z" stroke="currentColor" stroke-width="2" stroke-linejoin="round"/></svg>
