<svg xmlns="http://www.w3.org/2000/svg" viewBox="0 0 24 24" fill="none"><path d="M5 8V6C5 4.34315 6.34315 3 8 3H11.7574C12.553 3 13.3161 3.31607 13.8787 3.87868L18.1213 8.12132C18.6839 8.68393 19 9.44699 19 10.2426V18C19 19.6569 17.6569 21 16 21H11" stroke="currentColor" stroke-width="2" stroke-linecap="round" stroke-linejoin="round"/><path d="M13 3.75V7C13 8.10457 13.8954 9 15 9H18" stroke="currentColor" stroke-width="2" stroke-linecap="round" stroke-linejoin="round"/><path d="M5.5 20.9998L4 19.4998L4 13.5586C4 12.7302 4.67157 12.0586 5.5 12.0586C6.32843 12.0586 7 12.7302 7 13.5586L7 19.4998L5.5 20.9998Z" stroke="currentColor" stroke-width="2" stroke-linecap="square" stroke-linejoin="round"/></svg>
