<svg xmlns="http://www.w3.org/2000/svg" viewBox="0 0 24 24" fill="none"><path d="M3 14H6C6.55228 14 7 14.4477 7 15V20L4.5 18.5L2 20V15C2 14.4477 2.44772 14 3 14Z" stroke="currentColor" stroke-width="2" stroke-linecap="round" stroke-linejoin="round"/><path d="M3 10V7C3 5.34315 4.34315 4 6 4H8.92963C9.59834 4 10.2228 4.3342 10.5937 4.8906L11.4063 6.1094C11.7772 6.6658 12.4017 7 13.0704 7H18C19.6569 7 21 8.34315 21 10V16C21 17.6569 19.6569 19 18 19H11" stroke="currentColor" stroke-width="2" stroke-linecap="round" stroke-linejoin="round"/></svg>
