<svg xmlns="http://www.w3.org/2000/svg" viewBox="0 0 24 24" fill="none"><path d="M17.9792 18.3413V7.68896H17.8298L14.6393 9.96533V8.03174L17.9792 5.65869H19.9479V18.3413H17.9792Z" fill="currentColor"/><path d="M7.84082 18.6489C4.91406 18.6489 3.15625 16.0913 3.15625 12.0044V11.9868C3.15625 7.8999 4.91406 5.35107 7.84082 5.35107C10.7588 5.35107 12.5254 7.8999 12.5254 11.9868V12.0044C12.5254 16.0913 10.7588 18.6489 7.84082 18.6489ZM7.84082 17.0142C9.53711 17.0142 10.5391 15.1069 10.5391 12.0044V11.9868C10.5391 8.88428 9.53711 6.99463 7.84082 6.99463C6.13574 6.99463 5.14258 8.88428 5.14258 11.9868V12.0044C5.14258 15.1069 6.13574 17.0142 7.84082 17.0142Z" fill="currentColor"/></svg>
