<svg xmlns="http://www.w3.org/2000/svg" viewBox="0 0 24 24" fill="none"><path d="M17 4H7C5.34315 4 4 5.34315 4 7V17C4 18.6569 5.34315 20 7 20H17C18.6569 20 20 18.6569 20 17V7C20 5.34315 18.6569 4 17 4Z" stroke="currentColor" stroke-width="2"/><path d="M12.4609 16.3623C11.8223 16.3623 11.3887 15.9463 11.3887 15.3018V9.6709H11.3477L10.293 10.4033C10.0996 10.5381 9.9707 10.585 9.76562 10.585C9.34961 10.585 9.03906 10.2744 9.03906 9.84082C9.03906 9.53027 9.16211 9.29004 9.4668 9.0791L11.0664 7.98926C11.5176 7.68457 11.8809 7.6377 12.3027 7.6377C13.0762 7.6377 13.5273 8.10059 13.5273 8.83887V15.3018C13.5273 15.9463 13.0996 16.3623 12.4609 16.3623Z" fill="currentColor"/></svg>
